<?xml version="1.0" standalone="no"?>
<!DOCTYPE svg PUBLIC "-//W3C//DTD SVG 1.1//EN" "http://www.w3.org/Graphics/SVG/1.1/DTD/svg11.dtd">
<svg width="310mm" height="176mm" viewBox="0 -176 310 176" xmlns="http://www.w3.org/2000/svg" version="1.1">
<title>OpenSCAD Model</title>
<path d="
M 309.5,-175.487 L 270.026,-174.5 L 255.04,-173.302 L 255.032,-173.301 L 227.5,-171.531 L 227.5,-138
 L 227.498,-137.951 L 227.49,-137.902 L 227.478,-137.855 L 227.462,-137.809 L 227.441,-137.764 L 227.416,-137.722
 L 227.387,-137.683 L 227.354,-137.646 L 227.317,-137.613 L 227.278,-137.584 L 227.236,-137.559 L 227.191,-137.538
 L 227.145,-137.522 L 227.098,-137.51 L 227.049,-137.502 L 227.029,-137.501 L 210.029,-136.501 L 210.009,-136.5
 L 155.009,-135.5 L 154.991,-135.5 L 99.9909,-136.5 L 99.9706,-136.501 L 82.9706,-137.501 L 82.9219,-137.506
 L 82.8738,-137.516 L 82.827,-137.531 L 82.7819,-137.55 L 82.7388,-137.574 L 82.6983,-137.601 L 82.6607,-137.633
 L 82.6263,-137.668 L 82.5955,-137.706 L 82.5687,-137.747 L 82.546,-137.791 L 82.5276,-137.836 L 82.5138,-137.883
 L 82.5047,-137.931 L 82.5004,-137.98 L 82.5,-138 L 82.5,-171.531 L 54.9679,-173.301 L 54.9601,-173.302
 L 39.9738,-174.5 L 0.5,-175.487 L 0.5,-0.5 L 309.5,-0.5 z
M 1.5,-174.462 L 39.9214,-173.501 L 54.8804,-172.305 L 54.8882,-172.304 L 54.896,-172.304 L 54.9038,-172.303
 L 81.5,-170.593 L 81.5,-138 L 81.5002,-137.98 L 81.5006,-137.961 L 81.5043,-137.892 L 81.5086,-137.843
 L 81.5221,-137.746 L 81.5312,-137.698 L 81.5541,-137.602 L 81.5679,-137.555 L 81.6001,-137.462 L 81.6184,-137.417
 L 81.6595,-137.328 L 81.6822,-137.284 L 81.7319,-137.2 L 81.7587,-137.159 L 81.8164,-137.079 L 81.8472,-137.041
 L 81.9124,-136.968 L 81.9467,-136.933 L 82.0188,-136.866 L 82.0564,-136.834 L 82.1347,-136.775 L 82.1752,-136.748
 L 82.2589,-136.696 L 82.302,-136.673 L 82.3903,-136.63 L 82.4354,-136.611 L 82.5275,-136.577 L 82.5743,-136.562
 L 82.6693,-136.537 L 82.7173,-136.527 L 82.8142,-136.512 L 82.863,-136.507 L 82.9119,-136.503 L 99.9119,-135.503
 L 99.9322,-135.502 L 99.9525,-135.501 L 99.9727,-135.5 L 154.973,-134.5 L 154.991,-134.5 L 155.009,-134.5
 L 155.027,-134.5 L 210.027,-135.5 L 210.048,-135.501 L 210.068,-135.502 L 210.088,-135.503 L 227.088,-136.503
 L 227.108,-136.504 L 227.127,-136.505 L 227.196,-136.513 L 227.244,-136.52 L 227.341,-136.54 L 227.388,-136.551
 L 227.482,-136.58 L 227.528,-136.597 L 227.619,-136.634 L 227.663,-136.655 L 227.75,-136.701 L 227.792,-136.727
 L 227.873,-136.781 L 227.913,-136.81 L 227.989,-136.873 L 228.025,-136.905 L 228.095,-136.975 L 228.127,-137.011
 L 228.19,-137.087 L 228.219,-137.127 L 228.273,-137.208 L 228.299,-137.25 L 228.345,-137.337 L 228.366,-137.381
 L 228.403,-137.472 L 228.42,-137.518 L 228.449,-137.612 L 228.46,-137.659 L 228.48,-137.756 L 228.487,-137.804
 L 228.496,-137.902 L 228.499,-137.951 L 228.5,-138 L 228.5,-170.593 L 255.096,-172.303 L 255.104,-172.304
 L 255.112,-172.304 L 255.12,-172.305 L 270.079,-173.501 L 308.5,-174.462 L 308.5,-1.5 L 1.5,-1.5
 z
M 33.756,-131.004 L 33.9062,-131.015 L 34.0485,-131.033 L 34.183,-131.059 L 34.3096,-131.092 L 34.4283,-131.133
 L 34.5391,-131.181 L 34.6421,-131.236 L 34.7371,-131.299 L 34.8232,-131.369 L 34.8992,-131.444 L 34.965,-131.526
 L 35.0207,-131.614 L 35.0663,-131.708 L 35.1017,-131.808 L 35.127,-131.914 L 35.1422,-132.027 L 35.1473,-132.145
 L 35.1441,-132.234 L 35.1347,-132.319 L 35.119,-132.4 L 35.0969,-132.478 L 35.0686,-132.551 L 35.034,-132.62
 L 34.9931,-132.686 L 34.9459,-132.747 L 34.8924,-132.804 L 34.8329,-132.857 L 34.7676,-132.906 L 34.6967,-132.949
 L 34.6199,-132.988 L 34.5375,-133.022 L 34.4493,-133.051 L 34.3554,-133.076 L 34.2558,-133.095 L 34.1504,-133.11
 L 34.2341,-133.131 L 34.3128,-133.155 L 34.3867,-133.182 L 34.4556,-133.214 L 34.5197,-133.249 L 34.5789,-133.288
 L 34.6332,-133.331 L 34.6826,-133.378 L 34.7271,-133.428 L 34.7669,-133.482 L 34.802,-133.538 L 34.8324,-133.597
 L 34.8581,-133.658 L 34.8792,-133.722 L 34.8955,-133.789 L 34.9072,-133.858 L 34.9142,-133.93 L 34.9166,-134.005
 L 34.9119,-134.113 L 34.8979,-134.214 L 34.8746,-134.31 L 34.842,-134.4 L 34.8001,-134.483 L 34.7488,-134.561
 L 34.6883,-134.633 L 34.6184,-134.698 L 34.5392,-134.758 L 34.4509,-134.812 L 34.3538,-134.859 L 34.2479,-134.9
 L 34.1331,-134.934 L 34.0096,-134.963 L 33.8772,-134.985 L 33.7359,-135 L 33.5859,-135.01 L 33.427,-135.013
 L 31.59,-135.013 L 31.59,-131 L 33.5979,-131 z
M 32.4302,-134.389 L 33.3871,-134.389 L 33.4604,-134.388 L 33.5295,-134.384 L 33.5946,-134.377 L 33.6555,-134.367
 L 33.7123,-134.354 L 33.765,-134.339 L 33.8136,-134.32 L 33.858,-134.299 L 33.8984,-134.275 L 33.9345,-134.248
 L 33.9664,-134.217 L 33.9941,-134.182 L 34.0175,-134.143 L 34.0366,-134.1 L 34.0515,-134.054 L 34.0622,-134.003
 L 34.0686,-133.949 L 34.0707,-133.891 L 34.0687,-133.837 L 34.0627,-133.787 L 34.0528,-133.739 L 34.0389,-133.695
 L 34.021,-133.654 L 33.9992,-133.616 L 33.9733,-133.58 L 33.9435,-133.548 L 33.9097,-133.519 L 33.8716,-133.493
 L 33.8286,-133.47 L 33.7808,-133.45 L 33.7282,-133.434 L 33.6708,-133.42 L 33.6085,-133.409 L 33.5414,-133.401
 L 33.4696,-133.397 L 33.3928,-133.395 L 32.4302,-133.395 z
M 32.4302,-132.774 L 33.4954,-132.774 L 33.6651,-132.767 L 33.8149,-132.747 L 33.9447,-132.712 L 34.0546,-132.663
 L 34.1445,-132.6 L 34.2144,-132.524 L 34.2643,-132.433 L 34.2943,-132.329 L 34.3043,-132.21 L 34.3019,-132.147
 L 34.295,-132.087 L 34.2835,-132.031 L 34.2674,-131.979 L 34.2467,-131.93 L 34.2213,-131.885 L 34.1914,-131.843
 L 34.1568,-131.805 L 34.1177,-131.77 L 34.0735,-131.74 L 34.024,-131.712 L 33.9691,-131.689 L 33.9088,-131.669
 L 33.8432,-131.653 L 33.7721,-131.64 L 33.6957,-131.631 L 33.6139,-131.626 L 33.5267,-131.624 L 32.4302,-131.624
 z
M 261.256,-131.004 L 261.406,-131.015 L 261.549,-131.033 L 261.683,-131.059 L 261.81,-131.092 L 261.928,-131.133
 L 262.039,-131.181 L 262.142,-131.236 L 262.237,-131.299 L 262.323,-131.369 L 262.399,-131.444 L 262.465,-131.526
 L 262.521,-131.614 L 262.566,-131.708 L 262.602,-131.808 L 262.627,-131.914 L 262.642,-132.027 L 262.647,-132.145
 L 262.644,-132.234 L 262.635,-132.319 L 262.619,-132.4 L 262.597,-132.478 L 262.569,-132.551 L 262.534,-132.62
 L 262.493,-132.686 L 262.446,-132.747 L 262.392,-132.804 L 262.333,-132.857 L 262.268,-132.906 L 262.197,-132.949
 L 262.12,-132.988 L 262.038,-133.022 L 261.949,-133.051 L 261.855,-133.076 L 261.756,-133.095 L 261.65,-133.11
 L 261.734,-133.131 L 261.813,-133.155 L 261.887,-133.182 L 261.956,-133.214 L 262.02,-133.249 L 262.079,-133.288
 L 262.133,-133.331 L 262.183,-133.378 L 262.227,-133.428 L 262.267,-133.482 L 262.302,-133.538 L 262.332,-133.597
 L 262.358,-133.658 L 262.379,-133.722 L 262.396,-133.789 L 262.407,-133.858 L 262.414,-133.93 L 262.417,-134.005
 L 262.412,-134.113 L 262.398,-134.214 L 262.375,-134.31 L 262.342,-134.4 L 262.3,-134.483 L 262.249,-134.561
 L 262.188,-134.633 L 262.118,-134.698 L 262.039,-134.758 L 261.951,-134.812 L 261.854,-134.859 L 261.748,-134.9
 L 261.633,-134.934 L 261.51,-134.963 L 261.377,-134.985 L 261.236,-135 L 261.086,-135.01 L 260.927,-135.013
 L 259.09,-135.013 L 259.09,-131 L 261.098,-131 z
M 259.93,-134.389 L 260.887,-134.389 L 260.96,-134.388 L 261.03,-134.384 L 261.095,-134.377 L 261.155,-134.367
 L 261.212,-134.354 L 261.265,-134.339 L 261.314,-134.32 L 261.358,-134.299 L 261.398,-134.275 L 261.435,-134.248
 L 261.466,-134.217 L 261.494,-134.182 L 261.518,-134.143 L 261.537,-134.1 L 261.552,-134.054 L 261.562,-134.003
 L 261.569,-133.949 L 261.571,-133.891 L 261.569,-133.837 L 261.563,-133.787 L 261.553,-133.739 L 261.539,-133.695
 L 261.521,-133.654 L 261.499,-133.616 L 261.473,-133.58 L 261.444,-133.548 L 261.41,-133.519 L 261.372,-133.493
 L 261.329,-133.47 L 261.281,-133.45 L 261.228,-133.434 L 261.171,-133.42 L 261.109,-133.409 L 261.041,-133.401
 L 260.97,-133.397 L 260.893,-133.395 L 259.93,-133.395 z
M 259.93,-132.774 L 260.995,-132.774 L 261.165,-132.767 L 261.315,-132.747 L 261.445,-132.712 L 261.555,-132.663
 L 261.644,-132.6 L 261.714,-132.524 L 261.764,-132.433 L 261.794,-132.329 L 261.804,-132.21 L 261.802,-132.147
 L 261.795,-132.087 L 261.784,-132.031 L 261.767,-131.979 L 261.747,-131.93 L 261.721,-131.885 L 261.691,-131.843
 L 261.657,-131.805 L 261.618,-131.77 L 261.574,-131.74 L 261.524,-131.712 L 261.469,-131.689 L 261.409,-131.669
 L 261.343,-131.653 L 261.272,-131.64 L 261.196,-131.631 L 261.114,-131.626 L 261.027,-131.624 L 259.93,-131.624
 z
M 39.936,-130.95 L 40.0171,-130.954 L 40.0962,-130.959 L 40.1732,-130.968 L 40.2482,-130.979 L 40.3212,-130.992
 L 40.3921,-131.007 L 40.461,-131.025 L 40.5279,-131.046 L 40.5279,-131.541 L 40.4902,-131.533 L 40.4546,-131.525
 L 40.4209,-131.519 L 40.3892,-131.514 L 40.3594,-131.509 L 40.3316,-131.506 L 40.3058,-131.503 L 40.282,-131.502
 L 40.2601,-131.501 L 40.2214,-131.503 L 40.185,-131.507 L 40.1509,-131.513 L 40.1192,-131.522 L 40.0898,-131.534
 L 40.0626,-131.549 L 40.0379,-131.566 L 40.0154,-131.586 L 39.9953,-131.608 L 39.9773,-131.633 L 39.9615,-131.661
 L 39.9478,-131.692 L 39.9362,-131.726 L 39.9267,-131.763 L 39.9193,-131.803 L 39.914,-131.846 L 39.9109,-131.891
 L 39.9098,-131.94 L 39.9098,-133.541 L 40.4937,-133.541 L 40.4937,-134.082 L 39.9098,-134.082 L 39.9098,-134.805
 L 39.4086,-134.805 L 39.1579,-134.082 L 38.7278,-134.082 L 38.7278,-133.541 L 39.118,-133.541 L 39.118,-131.723
 L 39.1204,-131.639 L 39.1275,-131.56 L 39.1392,-131.485 L 39.1557,-131.416 L 39.1769,-131.351 L 39.2028,-131.291
 L 39.2335,-131.236 L 39.2688,-131.186 L 39.3088,-131.141 L 39.3533,-131.101 L 39.4017,-131.065 L 39.4541,-131.034
 L 39.5105,-131.008 L 39.571,-130.987 L 39.6354,-130.97 L 39.7039,-130.958 L 39.7764,-130.951 L 39.8528,-130.949
 z
M 41.8785,-130.95 L 41.9596,-130.954 L 42.0387,-130.959 L 42.1158,-130.968 L 42.1908,-130.979 L 42.2637,-130.992
 L 42.3347,-131.007 L 42.4035,-131.025 L 42.4704,-131.046 L 42.4704,-131.541 L 42.4328,-131.533 L 42.3971,-131.525
 L 42.3634,-131.519 L 42.3317,-131.514 L 42.302,-131.509 L 42.2742,-131.506 L 42.2484,-131.503 L 42.2245,-131.502
 L 42.2026,-131.501 L 42.1639,-131.503 L 42.1275,-131.507 L 42.0935,-131.513 L 42.0617,-131.522 L 42.0323,-131.534
 L 42.0052,-131.549 L 41.9804,-131.566 L 41.9579,-131.586 L 41.9378,-131.608 L 41.9199,-131.633 L 41.904,-131.661
 L 41.8903,-131.692 L 41.8787,-131.726 L 41.8692,-131.763 L 41.8619,-131.803 L 41.8566,-131.846 L 41.8534,-131.891
 L 41.8524,-131.94 L 41.8524,-133.541 L 42.4362,-133.541 L 42.4362,-134.082 L 41.8524,-134.082 L 41.8524,-134.805
 L 41.3511,-134.805 L 41.1004,-134.082 L 40.6704,-134.082 L 40.6704,-133.541 L 41.0606,-133.541 L 41.0606,-131.723
 L 41.0629,-131.639 L 41.07,-131.56 L 41.0818,-131.485 L 41.0983,-131.416 L 41.1195,-131.351 L 41.1454,-131.291
 L 41.176,-131.236 L 41.2113,-131.186 L 41.2514,-131.141 L 41.2958,-131.101 L 41.3442,-131.065 L 41.3967,-131.034
 L 41.4531,-131.008 L 41.5135,-130.987 L 41.578,-130.97 L 41.6464,-130.958 L 41.7189,-130.951 L 41.7954,-130.949
 z
M 267.436,-130.95 L 267.517,-130.954 L 267.596,-130.959 L 267.673,-130.968 L 267.748,-130.979 L 267.821,-130.992
 L 267.892,-131.007 L 267.961,-131.025 L 268.028,-131.046 L 268.028,-131.541 L 267.99,-131.533 L 267.955,-131.525
 L 267.921,-131.519 L 267.889,-131.514 L 267.859,-131.509 L 267.832,-131.506 L 267.806,-131.503 L 267.782,-131.502
 L 267.76,-131.501 L 267.721,-131.503 L 267.685,-131.507 L 267.651,-131.513 L 267.619,-131.522 L 267.59,-131.534
 L 267.563,-131.549 L 267.538,-131.566 L 267.515,-131.586 L 267.495,-131.608 L 267.477,-131.633 L 267.462,-131.661
 L 267.448,-131.692 L 267.436,-131.726 L 267.427,-131.763 L 267.419,-131.803 L 267.414,-131.846 L 267.411,-131.891
 L 267.41,-131.94 L 267.41,-133.541 L 267.994,-133.541 L 267.994,-134.082 L 267.41,-134.082 L 267.41,-134.805
 L 266.909,-134.805 L 266.658,-134.082 L 266.228,-134.082 L 266.228,-133.541 L 266.618,-133.541 L 266.618,-131.723
 L 266.62,-131.639 L 266.627,-131.56 L 266.639,-131.485 L 266.656,-131.416 L 266.677,-131.351 L 266.703,-131.291
 L 266.733,-131.236 L 266.769,-131.186 L 266.809,-131.141 L 266.853,-131.101 L 266.902,-131.065 L 266.954,-131.034
 L 267.011,-131.008 L 267.071,-130.987 L 267.135,-130.97 L 267.204,-130.958 L 267.276,-130.951 L 267.353,-130.949
 z
M 269.379,-130.95 L 269.46,-130.954 L 269.539,-130.959 L 269.616,-130.968 L 269.691,-130.979 L 269.764,-130.992
 L 269.835,-131.007 L 269.904,-131.025 L 269.97,-131.046 L 269.97,-131.541 L 269.933,-131.533 L 269.897,-131.525
 L 269.863,-131.519 L 269.832,-131.514 L 269.802,-131.509 L 269.774,-131.506 L 269.748,-131.503 L 269.725,-131.502
 L 269.703,-131.501 L 269.664,-131.503 L 269.628,-131.507 L 269.593,-131.513 L 269.562,-131.522 L 269.532,-131.534
 L 269.505,-131.549 L 269.48,-131.566 L 269.458,-131.586 L 269.438,-131.608 L 269.42,-131.633 L 269.404,-131.661
 L 269.39,-131.692 L 269.379,-131.726 L 269.369,-131.763 L 269.362,-131.803 L 269.357,-131.846 L 269.353,-131.891
 L 269.352,-131.94 L 269.352,-133.541 L 269.936,-133.541 L 269.936,-134.082 L 269.352,-134.082 L 269.352,-134.805
 L 268.851,-134.805 L 268.6,-134.082 L 268.17,-134.082 L 268.17,-133.541 L 268.561,-133.541 L 268.561,-131.723
 L 268.563,-131.639 L 268.57,-131.56 L 268.582,-131.485 L 268.598,-131.416 L 268.619,-131.351 L 268.645,-131.291
 L 268.676,-131.236 L 268.711,-131.186 L 268.751,-131.141 L 268.796,-131.101 L 268.844,-131.065 L 268.897,-131.034
 L 268.953,-131.008 L 269.014,-130.987 L 269.078,-130.97 L 269.146,-130.958 L 269.219,-130.951 L 269.295,-130.949
 z
M 46.9935,-132.512 L 46.9956,-132.615 L 47.0018,-132.712 L 47.0121,-132.803 L 47.0265,-132.889 L 47.045,-132.969
 L 47.0676,-133.043 L 47.0943,-133.111 L 47.1252,-133.173 L 47.1602,-133.23 L 47.1988,-133.281 L 47.2407,-133.326
 L 47.2859,-133.365 L 47.3344,-133.397 L 47.3862,-133.424 L 47.4412,-133.445 L 47.4994,-133.46 L 47.561,-133.469
 L 47.6258,-133.472 L 47.6593,-133.472 L 47.6939,-133.47 L 47.7296,-133.467 L 47.7664,-133.464 L 47.8044,-133.459
 L 47.8435,-133.453 L 47.8837,-133.446 L 47.9251,-133.438 L 47.9676,-133.429 L 47.9676,-134.099 L 47.9459,-134.108
 L 47.9229,-134.116 L 47.8983,-134.122 L 47.8722,-134.128 L 47.8447,-134.133 L 47.8157,-134.137 L 47.7852,-134.139
 L 47.7532,-134.141 L 47.7198,-134.141 L 47.6788,-134.141 L 47.6393,-134.138 L 47.6014,-134.134 L 47.5651,-134.129
 L 47.5303,-134.122 L 47.497,-134.113 L 47.4653,-134.103 L 47.4351,-134.091 L 47.4065,-134.077 L 47.3791,-134.062
 L 47.3525,-134.046 L 47.3268,-134.027 L 47.3019,-134.007 L 47.2778,-133.985 L 47.2546,-133.962 L 47.2323,-133.936
 L 47.2107,-133.909 L 47.1901,-133.881 L 47.1695,-133.849 L 47.1483,-133.813 L 47.1264,-133.771 L 47.104,-133.725
 L 47.0809,-133.674 L 47.0571,-133.619 L 47.0328,-133.559 L 47.0078,-133.494 L 46.9821,-133.424 L 46.9707,-133.424
 L 46.9706,-133.445 L 46.97,-133.47 L 46.9692,-133.5 L 46.9679,-133.534 L 46.9663,-133.573 L 46.9644,-133.616
 L 46.9621,-133.663 L 46.9595,-133.714 L 46.9565,-133.77 L 46.9534,-133.825 L 46.9505,-133.875 L 46.9476,-133.92
 L 46.945,-133.96 L 46.9424,-133.995 L 46.94,-134.024 L 46.9378,-134.049 L 46.9357,-134.068 L 46.9337,-134.082
 L 46.1704,-134.082 L 46.1723,-134.052 L 46.1741,-134.022 L 46.176,-133.99 L 46.1777,-133.958 L 46.1795,-133.924
 L 46.1812,-133.89 L 46.1828,-133.855 L 46.1845,-133.818 L 46.186,-133.781 L 46.1875,-133.743 L 46.1889,-133.702
 L 46.19,-133.659 L 46.191,-133.614 L 46.1918,-133.567 L 46.1924,-133.518 L 46.1928,-133.467 L 46.1931,-133.414
 L 46.1932,-133.358 L 46.1932,-131 L 46.9935,-131 z
M 274.494,-132.512 L 274.496,-132.615 L 274.502,-132.712 L 274.512,-132.803 L 274.526,-132.889 L 274.545,-132.969
 L 274.568,-133.043 L 274.594,-133.111 L 274.625,-133.173 L 274.66,-133.23 L 274.699,-133.281 L 274.741,-133.326
 L 274.786,-133.365 L 274.834,-133.397 L 274.886,-133.424 L 274.941,-133.445 L 274.999,-133.46 L 275.061,-133.469
 L 275.126,-133.472 L 275.159,-133.472 L 275.194,-133.47 L 275.23,-133.467 L 275.266,-133.464 L 275.304,-133.459
 L 275.344,-133.453 L 275.384,-133.446 L 275.425,-133.438 L 275.468,-133.429 L 275.468,-134.099 L 275.446,-134.108
 L 275.423,-134.116 L 275.398,-134.122 L 275.372,-134.128 L 275.345,-134.133 L 275.316,-134.137 L 275.285,-134.139
 L 275.253,-134.141 L 275.22,-134.141 L 275.179,-134.141 L 275.139,-134.138 L 275.101,-134.134 L 275.065,-134.129
 L 275.03,-134.122 L 274.997,-134.113 L 274.965,-134.103 L 274.935,-134.091 L 274.906,-134.077 L 274.879,-134.062
 L 274.852,-134.046 L 274.827,-134.027 L 274.802,-134.007 L 274.778,-133.985 L 274.755,-133.962 L 274.732,-133.936
 L 274.711,-133.909 L 274.69,-133.881 L 274.669,-133.849 L 274.648,-133.813 L 274.626,-133.771 L 274.604,-133.725
 L 274.581,-133.674 L 274.557,-133.619 L 274.533,-133.559 L 274.508,-133.494 L 274.482,-133.424 L 274.471,-133.424
 L 274.471,-133.445 L 274.47,-133.47 L 274.469,-133.5 L 274.468,-133.534 L 274.466,-133.573 L 274.464,-133.616
 L 274.462,-133.663 L 274.459,-133.714 L 274.456,-133.77 L 274.453,-133.825 L 274.45,-133.875 L 274.448,-133.92
 L 274.445,-133.96 L 274.442,-133.995 L 274.44,-134.024 L 274.438,-134.049 L 274.436,-134.068 L 274.434,-134.082
 L 273.67,-134.082 L 273.672,-134.052 L 273.674,-134.022 L 273.676,-133.99 L 273.678,-133.958 L 273.679,-133.924
 L 273.681,-133.89 L 273.683,-133.855 L 273.684,-133.818 L 273.686,-133.781 L 273.688,-133.743 L 273.689,-133.702
 L 273.69,-133.659 L 273.691,-133.614 L 273.692,-133.567 L 273.692,-133.518 L 273.693,-133.467 L 273.693,-133.414
 L 273.693,-133.358 L 273.693,-131 L 274.494,-131 z
M 36.6781,-130.951 L 36.8161,-130.973 L 36.9457,-131.01 L 37.0668,-131.063 L 37.1794,-131.13 L 37.2837,-131.213
 L 37.3794,-131.31 L 37.4668,-131.422 L 37.5457,-131.55 L 37.5627,-131.55 L 37.5705,-131.487 L 37.5811,-131.429
 L 37.5946,-131.373 L 37.6109,-131.322 L 37.63,-131.273 L 37.652,-131.228 L 37.6768,-131.187 L 37.7045,-131.149
 L 37.7351,-131.114 L 37.769,-131.083 L 37.8068,-131.055 L 37.8485,-131.032 L 37.8941,-131.012 L 37.9437,-130.995
 L 37.9971,-130.982 L 38.0544,-130.973 L 38.1157,-130.968 L 38.1808,-130.966 L 38.1995,-130.966 L 38.2177,-130.966
 L 38.2354,-130.966 L 38.2525,-130.967 L 38.2691,-130.968 L 38.2852,-130.968 L 38.3008,-130.969 L 38.3158,-130.97
 L 38.3303,-130.972 L 38.3445,-130.973 L 38.3585,-130.974 L 38.3723,-130.976 L 38.3859,-130.977 L 38.3993,-130.979
 L 38.4126,-130.98 L 38.4257,-130.982 L 38.4386,-130.984 L 38.4514,-130.986 L 38.464,-130.988 L 38.4767,-130.99
 L 38.4893,-130.992 L 38.502,-130.994 L 38.5147,-130.997 L 38.5273,-131 L 38.54,-131.002 L 38.5526,-131.005
 L 38.5653,-131.009 L 38.5781,-131.012 L 38.5913,-131.015 L 38.6048,-131.018 L 38.6187,-131.022 L 38.633,-131.025
 L 38.6476,-131.029 L 38.6625,-131.032 L 38.6778,-131.036 L 38.6935,-131.04 L 38.6935,-131.473 L 38.6744,-131.469
 L 38.6552,-131.466 L 38.6359,-131.463 L 38.6164,-131.461 L 38.5968,-131.459 L 38.577,-131.458 L 38.5571,-131.457
 L 38.5371,-131.456 L 38.5169,-131.456 L 38.4875,-131.457 L 38.46,-131.461 L 38.4345,-131.467 L 38.4108,-131.475
 L 38.3892,-131.486 L 38.3694,-131.499 L 38.3516,-131.515 L 38.3357,-131.533 L 38.3218,-131.554 L 38.3095,-131.578
 L 38.2987,-131.606 L 38.2893,-131.637 L 38.2814,-131.673 L 38.2749,-131.713 L 38.2699,-131.756 L 38.2663,-131.804
 L 38.2641,-131.856 L 38.2634,-131.911 L 38.2634,-133.034 L 38.2595,-133.148 L 38.2478,-133.257 L 38.2283,-133.36
 L 38.2009,-133.457 L 38.1658,-133.547 L 38.1229,-133.632 L 38.0721,-133.711 L 38.0136,-133.784 L 37.9472,-133.851
 L 37.8737,-133.911 L 37.7935,-133.965 L 37.7067,-134.011 L 37.6133,-134.05 L 37.5133,-134.082 L 37.4067,-134.107
 L 37.2935,-134.124 L 37.1737,-134.135 L 37.0472,-134.139 L 36.9218,-134.136 L 36.8023,-134.127 L 36.6888,-134.113
 L 36.5814,-134.093 L 36.48,-134.067 L 36.3846,-134.035 L 36.2952,-133.998 L 36.2118,-133.955 L 36.1344,-133.906
 L 36.0632,-133.852 L 35.9984,-133.793 L 35.94,-133.728 L 35.8879,-133.657 L 35.8421,-133.581 L 35.8028,-133.5
 L 35.7698,-133.414 L 35.7432,-133.322 L 35.7229,-133.224 L 36.5574,-133.185 L 36.564,-133.235 L 36.5726,-133.282
 L 36.5832,-133.325 L 36.5956,-133.366 L 36.61,-133.403 L 36.6264,-133.437 L 36.6446,-133.468 L 36.6648,-133.495
 L 36.687,-133.519 L 36.7115,-133.54 L 36.739,-133.559 L 36.7694,-133.575 L 36.8027,-133.589 L 36.8389,-133.6
 L 36.8781,-133.609 L 36.9202,-133.615 L 36.9652,-133.619 L 37.0131,-133.62 L 37.0646,-133.618 L 37.1128,-133.613
 L 37.1577,-133.604 L 37.1993,-133.591 L 37.2376,-133.575 L 37.2726,-133.555 L 37.3042,-133.532 L 37.3326,-133.504
 L 37.3577,-133.474 L 37.3798,-133.439 L 37.3993,-133.401 L 37.4162,-133.359 L 37.4305,-133.313 L 37.4423,-133.263
 L 37.4514,-133.209 L 37.4579,-133.152 L 37.4618,-133.09 L 37.4631,-133.025 L 37.4631,-132.868 L 36.7995,-132.857
 L 36.6713,-132.853 L 36.55,-132.842 L 36.4357,-132.826 L 36.3283,-132.804 L 36.2278,-132.775 L 36.1343,-132.741
 L 36.0476,-132.7 L 35.9679,-132.653 L 35.8952,-132.601 L 35.8297,-132.542 L 35.772,-132.478 L 35.7219,-132.408
 L 35.6796,-132.333 L 35.6449,-132.252 L 35.618,-132.165 L 35.5987,-132.073 L 35.5872,-131.975 L 35.5833,-131.872
 L 35.5864,-131.776 L 35.5957,-131.685 L 35.6112,-131.599 L 35.6328,-131.518 L 35.6607,-131.442 L 35.6947,-131.371
 L 35.7349,-131.305 L 35.7813,-131.243 L 35.8339,-131.187 L 35.8921,-131.135 L 35.955,-131.09 L 36.0229,-131.051
 L 36.0955,-131.018 L 36.1731,-130.991 L 36.2555,-130.97 L 36.3427,-130.955 L 36.4348,-130.946 L 36.5317,-130.943
 z
M 36.7515,-131.503 L 36.7167,-131.507 L 36.6835,-131.513 L 36.6519,-131.522 L 36.622,-131.534 L 36.5938,-131.549
 L 36.5672,-131.566 L 36.5422,-131.586 L 36.5189,-131.608 L 36.4977,-131.633 L 36.479,-131.661 L 36.4627,-131.692
 L 36.449,-131.725 L 36.4378,-131.761 L 36.429,-131.8 L 36.4228,-131.842 L 36.4191,-131.887 L 36.4178,-131.934
 L 36.4186,-131.971 L 36.4208,-132.007 L 36.4246,-132.041 L 36.4299,-132.073 L 36.4367,-132.103 L 36.445,-132.132
 L 36.4549,-132.159 L 36.4662,-132.184 L 36.4791,-132.208 L 36.4933,-132.23 L 36.509,-132.251 L 36.526,-132.27
 L 36.5445,-132.288 L 36.5642,-132.305 L 36.5854,-132.321 L 36.6079,-132.335 L 36.6318,-132.348 L 36.657,-132.36
 L 36.685,-132.371 L 36.717,-132.38 L 36.7529,-132.389 L 36.7929,-132.397 L 36.8369,-132.403 L 36.8849,-132.409
 L 36.9369,-132.414 L 36.9929,-132.418 L 37.0529,-132.421 L 37.4631,-132.427 L 37.4631,-132.27 L 37.462,-132.226
 L 37.4587,-132.181 L 37.4533,-132.138 L 37.4456,-132.095 L 37.4358,-132.052 L 37.4238,-132.01 L 37.4097,-131.969
 L 37.3933,-131.928 L 37.3748,-131.887 L 37.3543,-131.848 L 37.3322,-131.811 L 37.3085,-131.775 L 37.2831,-131.742
 L 37.256,-131.71 L 37.2273,-131.681 L 37.197,-131.653 L 37.1649,-131.628 L 37.1313,-131.604 L 37.0964,-131.582
 L 37.0607,-131.563 L 37.0241,-131.547 L 36.9868,-131.533 L 36.9487,-131.522 L 36.9097,-131.513 L 36.87,-131.506
 L 36.8294,-131.503 L 36.788,-131.501 z
M 44.4252,-130.953 L 44.6229,-130.984 L 44.8041,-131.036 L 44.9685,-131.108 L 45.1163,-131.201 L 45.2474,-131.315
 L 45.3619,-131.45 L 45.4597,-131.605 L 45.5408,-131.78 L 44.786,-131.846 L 44.7575,-131.769 L 44.7212,-131.701
 L 44.6772,-131.642 L 44.6254,-131.592 L 44.5659,-131.551 L 44.4987,-131.519 L 44.4237,-131.497 L 44.341,-131.483
 L 44.2506,-131.479 L 44.184,-131.481 L 44.1209,-131.49 L 44.0612,-131.504 L 44.005,-131.524 L 43.9523,-131.549
 L 43.9031,-131.58 L 43.8574,-131.617 L 43.8152,-131.66 L 43.7764,-131.708 L 43.7414,-131.761 L 43.7106,-131.821
 L 43.6838,-131.885 L 43.6612,-131.955 L 43.6427,-132.031 L 43.6283,-132.112 L 43.618,-132.198 L 43.6118,-132.29
 L 43.6098,-132.387 L 45.5864,-132.387 L 45.5864,-132.41 L 45.582,-132.593 L 45.5691,-132.767 L 45.5474,-132.93
 L 45.5172,-133.084 L 45.4782,-133.227 L 45.4307,-133.36 L 45.3745,-133.483 L 45.3096,-133.596 L 45.2361,-133.699
 L 45.1543,-133.791 L 45.0649,-133.872 L 44.9677,-133.943 L 44.8628,-134.003 L 44.7501,-134.052 L 44.6297,-134.09
 L 44.5016,-134.117 L 44.3657,-134.133 L 44.2221,-134.139 L 44.0716,-134.134 L 43.9288,-134.118 L 43.7939,-134.093
 L 43.6668,-134.058 L 43.5475,-134.012 L 43.436,-133.956 L 43.3323,-133.891 L 43.2364,-133.815 L 43.1484,-133.728
 L 43.0689,-133.633 L 42.9987,-133.529 L 42.9379,-133.416 L 42.8865,-133.294 L 42.8444,-133.164 L 42.8116,-133.025
 L 42.7883,-132.877 L 42.7742,-132.72 L 42.7696,-132.555 L 42.7742,-132.384 L 42.788,-132.223 L 42.811,-132.071
 L 42.8433,-131.928 L 42.8847,-131.795 L 42.9354,-131.671 L 42.9953,-131.556 L 43.0643,-131.451 L 43.1426,-131.355
 L 43.2295,-131.268 L 43.3244,-131.192 L 43.4272,-131.126 L 43.5379,-131.07 L 43.6566,-131.024 L 43.7832,-130.989
 L 43.9177,-130.963 L 44.0602,-130.948 L 44.2107,-130.943 z
M 43.6191,-132.965 L 43.6263,-133.038 L 43.6371,-133.106 L 43.6515,-133.171 L 43.6693,-133.232 L 43.6908,-133.29
 L 43.7158,-133.343 L 43.7443,-133.392 L 43.7764,-133.438 L 43.8118,-133.479 L 43.8505,-133.516 L 43.8924,-133.547
 L 43.9374,-133.574 L 43.9857,-133.596 L 44.0371,-133.613 L 44.0918,-133.625 L 44.1497,-133.632 L 44.2107,-133.635
 L 44.2682,-133.632 L 44.3231,-133.625 L 44.3753,-133.614 L 44.4248,-133.598 L 44.4716,-133.577 L 44.5158,-133.552
 L 44.5573,-133.522 L 44.5961,-133.487 L 44.6322,-133.448 L 44.6654,-133.404 L 44.6952,-133.356 L 44.7218,-133.303
 L 44.745,-133.245 L 44.765,-133.183 L 44.7816,-133.116 L 44.7949,-133.045 L 44.805,-132.969 L 44.8117,-132.888
 L 43.6154,-132.888 z
M 264.178,-130.951 L 264.316,-130.973 L 264.446,-131.01 L 264.567,-131.063 L 264.679,-131.13 L 264.784,-131.213
 L 264.879,-131.31 L 264.967,-131.422 L 265.046,-131.55 L 265.063,-131.55 L 265.07,-131.487 L 265.081,-131.429
 L 265.095,-131.373 L 265.111,-131.322 L 265.13,-131.273 L 265.152,-131.228 L 265.177,-131.187 L 265.205,-131.149
 L 265.235,-131.114 L 265.269,-131.083 L 265.307,-131.055 L 265.349,-131.032 L 265.394,-131.012 L 265.444,-130.995
 L 265.497,-130.982 L 265.554,-130.973 L 265.616,-130.968 L 265.681,-130.966 L 265.7,-130.966 L 265.718,-130.966
 L 265.735,-130.966 L 265.753,-130.967 L 265.769,-130.968 L 265.785,-130.968 L 265.801,-130.969 L 265.816,-130.97
 L 265.83,-130.972 L 265.844,-130.973 L 265.858,-130.974 L 265.872,-130.976 L 265.886,-130.977 L 265.899,-130.979
 L 265.913,-130.98 L 265.926,-130.982 L 265.939,-130.984 L 265.951,-130.986 L 265.964,-130.988 L 265.977,-130.99
 L 265.989,-130.992 L 266.002,-130.994 L 266.015,-130.997 L 266.027,-131 L 266.04,-131.002 L 266.053,-131.005
 L 266.065,-131.009 L 266.078,-131.012 L 266.091,-131.015 L 266.105,-131.018 L 266.119,-131.022 L 266.133,-131.025
 L 266.148,-131.029 L 266.163,-131.032 L 266.178,-131.036 L 266.193,-131.04 L 266.193,-131.473 L 266.174,-131.469
 L 266.155,-131.466 L 266.136,-131.463 L 266.116,-131.461 L 266.097,-131.459 L 266.077,-131.458 L 266.057,-131.457
 L 266.037,-131.456 L 266.017,-131.456 L 265.987,-131.457 L 265.96,-131.461 L 265.934,-131.467 L 265.911,-131.475
 L 265.889,-131.486 L 265.869,-131.499 L 265.852,-131.515 L 265.836,-131.533 L 265.822,-131.554 L 265.81,-131.578
 L 265.799,-131.606 L 265.789,-131.637 L 265.781,-131.673 L 265.775,-131.713 L 265.77,-131.756 L 265.766,-131.804
 L 265.764,-131.856 L 265.763,-131.911 L 265.763,-133.034 L 265.759,-133.148 L 265.748,-133.257 L 265.728,-133.36
 L 265.701,-133.457 L 265.666,-133.547 L 265.623,-133.632 L 265.572,-133.711 L 265.514,-133.784 L 265.447,-133.851
 L 265.374,-133.911 L 265.294,-133.965 L 265.207,-134.011 L 265.113,-134.05 L 265.013,-134.082 L 264.907,-134.107
 L 264.794,-134.124 L 264.674,-134.135 L 264.547,-134.139 L 264.422,-134.136 L 264.302,-134.127 L 264.189,-134.113
 L 264.081,-134.093 L 263.98,-134.067 L 263.885,-134.035 L 263.795,-133.998 L 263.712,-133.955 L 263.634,-133.906
 L 263.563,-133.852 L 263.498,-133.793 L 263.44,-133.728 L 263.388,-133.657 L 263.342,-133.581 L 263.303,-133.5
 L 263.27,-133.414 L 263.243,-133.322 L 263.223,-133.224 L 264.057,-133.185 L 264.064,-133.235 L 264.073,-133.282
 L 264.083,-133.325 L 264.096,-133.366 L 264.11,-133.403 L 264.126,-133.437 L 264.145,-133.468 L 264.165,-133.495
 L 264.187,-133.519 L 264.212,-133.54 L 264.239,-133.559 L 264.269,-133.575 L 264.303,-133.589 L 264.339,-133.6
 L 264.378,-133.609 L 264.42,-133.615 L 264.465,-133.619 L 264.513,-133.62 L 264.565,-133.618 L 264.613,-133.613
 L 264.658,-133.604 L 264.699,-133.591 L 264.738,-133.575 L 264.773,-133.555 L 264.804,-133.532 L 264.833,-133.504
 L 264.858,-133.474 L 264.88,-133.439 L 264.899,-133.401 L 264.916,-133.359 L 264.931,-133.313 L 264.942,-133.263
 L 264.951,-133.209 L 264.958,-133.152 L 264.962,-133.09 L 264.963,-133.025 L 264.963,-132.868 L 264.299,-132.857
 L 264.171,-132.853 L 264.05,-132.842 L 263.936,-132.826 L 263.828,-132.804 L 263.728,-132.775 L 263.634,-132.741
 L 263.548,-132.7 L 263.468,-132.653 L 263.395,-132.601 L 263.33,-132.542 L 263.272,-132.478 L 263.222,-132.408
 L 263.18,-132.333 L 263.145,-132.252 L 263.118,-132.165 L 263.099,-132.073 L 263.087,-131.975 L 263.083,-131.872
 L 263.086,-131.776 L 263.096,-131.685 L 263.111,-131.599 L 263.133,-131.518 L 263.161,-131.442 L 263.195,-131.371
 L 263.235,-131.305 L 263.281,-131.243 L 263.334,-131.187 L 263.392,-131.135 L 263.455,-131.09 L 263.523,-131.051
 L 263.596,-131.018 L 263.673,-130.991 L 263.755,-130.97 L 263.843,-130.955 L 263.935,-130.946 L 264.032,-130.943
 z
M 264.252,-131.503 L 264.217,-131.507 L 264.183,-131.513 L 264.152,-131.522 L 264.122,-131.534 L 264.094,-131.549
 L 264.067,-131.566 L 264.042,-131.586 L 264.019,-131.608 L 263.998,-131.633 L 263.979,-131.661 L 263.963,-131.692
 L 263.949,-131.725 L 263.938,-131.761 L 263.929,-131.8 L 263.923,-131.842 L 263.919,-131.887 L 263.918,-131.934
 L 263.919,-131.971 L 263.921,-132.007 L 263.925,-132.041 L 263.93,-132.073 L 263.937,-132.103 L 263.945,-132.132
 L 263.955,-132.159 L 263.966,-132.184 L 263.979,-132.208 L 263.993,-132.23 L 264.009,-132.251 L 264.026,-132.27
 L 264.044,-132.288 L 264.064,-132.305 L 264.085,-132.321 L 264.108,-132.335 L 264.132,-132.348 L 264.157,-132.36
 L 264.185,-132.371 L 264.217,-132.38 L 264.253,-132.389 L 264.293,-132.397 L 264.337,-132.403 L 264.385,-132.409
 L 264.437,-132.414 L 264.493,-132.418 L 264.553,-132.421 L 264.963,-132.427 L 264.963,-132.27 L 264.962,-132.226
 L 264.959,-132.181 L 264.953,-132.138 L 264.946,-132.095 L 264.936,-132.052 L 264.924,-132.01 L 264.91,-131.969
 L 264.893,-131.928 L 264.875,-131.887 L 264.854,-131.848 L 264.832,-131.811 L 264.808,-131.775 L 264.783,-131.742
 L 264.756,-131.71 L 264.727,-131.681 L 264.697,-131.653 L 264.665,-131.628 L 264.631,-131.604 L 264.596,-131.582
 L 264.561,-131.563 L 264.524,-131.547 L 264.487,-131.533 L 264.449,-131.522 L 264.41,-131.513 L 264.37,-131.506
 L 264.329,-131.503 L 264.288,-131.501 z
M 271.925,-130.953 L 272.123,-130.984 L 272.304,-131.036 L 272.469,-131.108 L 272.616,-131.201 L 272.747,-131.315
 L 272.862,-131.45 L 272.96,-131.605 L 273.041,-131.78 L 272.286,-131.846 L 272.257,-131.769 L 272.221,-131.701
 L 272.177,-131.642 L 272.125,-131.592 L 272.066,-131.551 L 271.999,-131.519 L 271.924,-131.497 L 271.841,-131.483
 L 271.751,-131.479 L 271.684,-131.481 L 271.621,-131.49 L 271.561,-131.504 L 271.505,-131.524 L 271.452,-131.549
 L 271.403,-131.58 L 271.357,-131.617 L 271.315,-131.66 L 271.276,-131.708 L 271.241,-131.761 L 271.211,-131.821
 L 271.184,-131.885 L 271.161,-131.955 L 271.143,-132.031 L 271.128,-132.112 L 271.118,-132.198 L 271.112,-132.29
 L 271.11,-132.387 L 273.086,-132.387 L 273.086,-132.41 L 273.082,-132.593 L 273.069,-132.767 L 273.047,-132.93
 L 273.017,-133.084 L 272.978,-133.227 L 272.931,-133.36 L 272.874,-133.483 L 272.81,-133.596 L 272.736,-133.699
 L 272.654,-133.791 L 272.565,-133.872 L 272.468,-133.943 L 272.363,-134.003 L 272.25,-134.052 L 272.13,-134.09
 L 272.002,-134.117 L 271.866,-134.133 L 271.722,-134.139 L 271.572,-134.134 L 271.429,-134.118 L 271.294,-134.093
 L 271.167,-134.058 L 271.048,-134.012 L 270.936,-133.956 L 270.832,-133.891 L 270.736,-133.815 L 270.648,-133.728
 L 270.569,-133.633 L 270.499,-133.529 L 270.438,-133.416 L 270.386,-133.294 L 270.344,-133.164 L 270.312,-133.025
 L 270.288,-132.877 L 270.274,-132.72 L 270.27,-132.555 L 270.274,-132.384 L 270.288,-132.223 L 270.311,-132.071
 L 270.343,-131.928 L 270.385,-131.795 L 270.435,-131.671 L 270.495,-131.556 L 270.564,-131.451 L 270.643,-131.355
 L 270.73,-131.268 L 270.824,-131.192 L 270.927,-131.126 L 271.038,-131.07 L 271.157,-131.024 L 271.283,-130.989
 L 271.418,-130.963 L 271.56,-130.948 L 271.711,-130.943 z
M 271.119,-132.965 L 271.126,-133.038 L 271.137,-133.106 L 271.151,-133.171 L 271.169,-133.232 L 271.191,-133.29
 L 271.216,-133.343 L 271.244,-133.392 L 271.276,-133.438 L 271.312,-133.479 L 271.351,-133.516 L 271.392,-133.547
 L 271.437,-133.574 L 271.486,-133.596 L 271.537,-133.613 L 271.592,-133.625 L 271.65,-133.632 L 271.711,-133.635
 L 271.768,-133.632 L 271.823,-133.625 L 271.875,-133.614 L 271.925,-133.598 L 271.972,-133.577 L 272.016,-133.552
 L 272.057,-133.522 L 272.096,-133.487 L 272.132,-133.448 L 272.165,-133.404 L 272.195,-133.356 L 272.222,-133.303
 L 272.245,-133.245 L 272.265,-133.183 L 272.282,-133.116 L 272.295,-133.045 L 272.305,-132.969 L 272.312,-132.888
 L 271.115,-132.888 z
M 48.9526,-129.792 L 49.0393,-129.801 L 49.1223,-129.815 L 49.2016,-129.835 L 49.277,-129.86 L 49.3488,-129.891
 L 49.4167,-129.927 L 49.4809,-129.97 L 49.5413,-130.017 L 49.5996,-130.073 L 49.6575,-130.137 L 49.7149,-130.21
 L 49.7718,-130.292 L 49.8283,-130.383 L 49.8844,-130.483 L 49.9399,-130.592 L 49.9951,-130.711 L 50.0497,-130.838
 L 51.2687,-134.082 L 50.4314,-134.082 L 49.9757,-132.626 L 49.7905,-131.957 L 49.7193,-131.686 L 49.6815,-131.825
 L 49.6451,-131.955 L 49.6102,-132.077 L 49.5767,-132.191 L 49.5447,-132.296 L 49.5143,-132.394 L 49.4852,-132.483
 L 49.4577,-132.565 L 49.4316,-132.638 L 48.9475,-134.082 L 48.1016,-134.082 L 49.3206,-131.031 L 49.2962,-130.967
 L 49.2723,-130.907 L 49.2489,-130.851 L 49.2261,-130.8 L 49.2038,-130.753 L 49.182,-130.71 L 49.1607,-130.671
 L 49.14,-130.637 L 49.1198,-130.607 L 49.0996,-130.58 L 49.0788,-130.555 L 49.0574,-130.531 L 49.0355,-130.51
 L 49.0131,-130.49 L 48.99,-130.472 L 48.9664,-130.455 L 48.9423,-130.44 L 48.9176,-130.428 L 48.8918,-130.416
 L 48.8647,-130.406 L 48.8361,-130.397 L 48.806,-130.39 L 48.7746,-130.384 L 48.7416,-130.379 L 48.7073,-130.376
 L 48.6714,-130.374 L 48.6342,-130.373 L 48.606,-130.374 L 48.5772,-130.375 L 48.5478,-130.376 L 48.5177,-130.378
 L 48.487,-130.38 L 48.4557,-130.384 L 48.4237,-130.387 L 48.3911,-130.391 L 48.3579,-130.396 L 48.3579,-129.827
 L 48.4069,-129.819 L 48.4576,-129.812 L 48.5101,-129.806 L 48.5644,-129.801 L 48.6204,-129.797 L 48.6782,-129.794
 L 48.7377,-129.791 L 48.799,-129.79 L 48.862,-129.79 z
M 276.453,-129.792 L 276.539,-129.801 L 276.622,-129.815 L 276.702,-129.835 L 276.777,-129.86 L 276.849,-129.891
 L 276.917,-129.927 L 276.981,-129.97 L 277.041,-130.017 L 277.1,-130.073 L 277.157,-130.137 L 277.215,-130.21
 L 277.272,-130.292 L 277.328,-130.383 L 277.384,-130.483 L 277.44,-130.592 L 277.495,-130.711 L 277.55,-130.838
 L 278.769,-134.082 L 277.931,-134.082 L 277.476,-132.626 L 277.291,-131.957 L 277.219,-131.686 L 277.181,-131.825
 L 277.145,-131.955 L 277.11,-132.077 L 277.077,-132.191 L 277.045,-132.296 L 277.014,-132.394 L 276.985,-132.483
 L 276.958,-132.565 L 276.932,-132.638 L 276.447,-134.082 L 275.602,-134.082 L 276.821,-131.031 L 276.796,-130.967
 L 276.772,-130.907 L 276.749,-130.851 L 276.726,-130.8 L 276.704,-130.753 L 276.682,-130.71 L 276.661,-130.671
 L 276.64,-130.637 L 276.62,-130.607 L 276.6,-130.58 L 276.579,-130.555 L 276.557,-130.531 L 276.536,-130.51
 L 276.513,-130.49 L 276.49,-130.472 L 276.466,-130.455 L 276.442,-130.44 L 276.418,-130.428 L 276.392,-130.416
 L 276.365,-130.406 L 276.336,-130.397 L 276.306,-130.39 L 276.275,-130.384 L 276.242,-130.379 L 276.207,-130.376
 L 276.171,-130.374 L 276.134,-130.373 L 276.106,-130.374 L 276.077,-130.375 L 276.048,-130.376 L 276.018,-130.378
 L 275.987,-130.38 L 275.956,-130.384 L 275.924,-130.387 L 275.891,-130.391 L 275.858,-130.396 L 275.858,-129.827
 L 275.907,-129.819 L 275.958,-129.812 L 276.01,-129.806 L 276.064,-129.801 L 276.12,-129.797 L 276.178,-129.794
 L 276.238,-129.791 L 276.299,-129.79 L 276.362,-129.79 z
M 35.3757,-77.2266 L 34.5753,-77.2266 L 34.5753,-76.6371 L 35.3757,-76.6371 z
M 62.6731,-77.2266 L 61.8728,-77.2266 L 61.8728,-76.6371 L 62.6731,-76.6371 z
M 53.8667,-72.9469 L 54.0395,-72.9584 L 54.2023,-72.9777 L 54.3549,-73.0046 L 54.4975,-73.0393 L 54.63,-73.0816
 L 54.7524,-73.1317 L 54.8646,-73.1894 L 54.9668,-73.2549 L 55.0586,-73.3276 L 55.1396,-73.4072 L 55.2097,-73.4937
 L 55.2691,-73.587 L 55.3177,-73.6871 L 55.3555,-73.7942 L 55.3825,-73.908 L 55.3987,-74.0288 L 55.4041,-74.1563
 L 55.4031,-74.2113 L 55.4003,-74.2648 L 55.3955,-74.3169 L 55.3889,-74.3676 L 55.3803,-74.4168 L 55.3699,-74.4645
 L 55.3575,-74.5109 L 55.3433,-74.5558 L 55.3272,-74.5992 L 55.3092,-74.6413 L 55.2896,-74.682 L 55.2683,-74.7214
 L 55.2453,-74.7594 L 55.2206,-74.7961 L 55.1942,-74.8315 L 55.1662,-74.8655 L 55.1364,-74.8982 L 55.105,-74.9296
 L 55.0714,-74.9599 L 55.0353,-74.9893 L 54.9966,-75.0179 L 54.9553,-75.0456 L 54.9115,-75.0725 L 54.8651,-75.0986
 L 54.8161,-75.1238 L 54.7646,-75.1482 L 54.7105,-75.1717 L 54.6511,-75.195 L 54.5835,-75.2188 L 54.5078,-75.2431
 L 54.424,-75.2678 L 54.3321,-75.2929 L 54.232,-75.3185 L 54.1239,-75.3446 L 54.0076,-75.3711 L 53.8832,-75.3981
 L 53.779,-75.4211 L 53.6829,-75.4432 L 53.5949,-75.4644 L 53.5149,-75.4848 L 53.4431,-75.5042 L 53.3793,-75.5228
 L 53.3237,-75.5405 L 53.2761,-75.5573 L 53.2366,-75.5733 L 53.2021,-75.5891 L 53.1696,-75.6058 L 53.139,-75.6231
 L 53.1103,-75.6412 L 53.0836,-75.66 L 53.0588,-75.6796 L 53.0359,-75.6999 L 53.015,-75.7209 L 52.9959,-75.7427
 L 52.9789,-75.7656 L 52.9639,-75.7899 L 52.9509,-75.8155 L 52.9398,-75.8426 L 52.9308,-75.8711 L 52.9238,-75.901
 L 52.9188,-75.9323 L 52.9158,-75.965 L 52.9148,-75.9991 L 52.9242,-76.0995 L 52.9525,-76.1881 L 52.9996,-76.2649
 L 53.0656,-76.3299 L 53.1504,-76.383 L 53.2541,-76.4244 L 53.3766,-76.4539 L 53.5179,-76.4717 L 53.6781,-76.4776
 L 53.7558,-76.4759 L 53.8294,-76.4711 L 53.8988,-76.463 L 53.9642,-76.4517 L 54.0254,-76.4371 L 54.0825,-76.4193
 L 54.1355,-76.3983 L 54.1844,-76.374 L 54.2292,-76.3465 L 54.2703,-76.3158 L 54.3082,-76.282 L 54.343,-76.2449
 L 54.3745,-76.2048 L 54.4028,-76.1614 L 54.4279,-76.1149 L 54.4499,-76.0652 L 54.4686,-76.0124 L 54.4841,-75.9563
 L 55.2987,-76.0674 L 55.2713,-76.1833 L 55.2374,-76.2916 L 55.1969,-76.3924 L 55.1499,-76.4857 L 55.0962,-76.5715
 L 55.036,-76.6497 L 54.9692,-76.7204 L 54.8958,-76.7836 L 54.8159,-76.8393 L 54.7281,-76.8883 L 54.6311,-76.9315
 L 54.5249,-76.969 L 54.4096,-77.0007 L 54.285,-77.0267 L 54.1513,-77.0469 L 54.0085,-77.0613 L 53.8564,-77.0699
 L 53.6952,-77.0728 L 53.5263,-77.0693 L 53.3667,-77.0585 L 53.2162,-77.0407 L 53.0749,-77.0157 L 52.9428,-76.9836
 L 52.8199,-76.9443 L 52.7061,-76.8979 L 52.6015,-76.8444 L 52.5061,-76.7837 L 52.4203,-76.7163 L 52.3446,-76.6427
 L 52.279,-76.5627 L 52.2235,-76.4764 L 52.1781,-76.3839 L 52.1428,-76.285 L 52.1176,-76.1799 L 52.1024,-76.0684
 L 52.0974,-75.9507 L 52.0981,-75.9038 L 52.1001,-75.8581 L 52.1036,-75.8136 L 52.1084,-75.7704 L 52.1145,-75.7283
 L 52.1221,-75.6874 L 52.131,-75.6477 L 52.1413,-75.6092 L 52.1529,-75.5719 L 52.1658,-75.5357 L 52.1798,-75.5006
 L 52.1948,-75.4665 L 52.211,-75.4335 L 52.2282,-75.4015 L 52.2466,-75.3706 L 52.266,-75.3408 L 52.2865,-75.312
 L 52.3081,-75.2842 L 52.3308,-75.2574 L 52.3545,-75.2315 L 52.3793,-75.2065 L 52.4052,-75.1824 L 52.4321,-75.1591
 L 52.46,-75.1367 L 52.489,-75.1152 L 52.5191,-75.0946 L 52.5502,-75.0748 L 52.5823,-75.0558 L 52.6152,-75.0374
 L 52.6489,-75.0195 L 52.6835,-75.0021 L 52.719,-74.9854 L 52.7553,-74.9692 L 52.7924,-74.9535 L 52.8304,-74.9384
 L 52.8692,-74.9239 L 52.9118,-74.9092 L 52.9612,-74.8934 L 53.0173,-74.8766 L 53.0802,-74.8588 L 53.1498,-74.84
 L 53.2262,-74.8201 L 53.3093,-74.7993 L 53.3992,-74.7774 L 53.4958,-74.7545 L 53.6075,-74.7314 L 53.7108,-74.7092
 L 53.8058,-74.6877 L 53.8924,-74.667 L 53.9708,-74.647 L 54.0407,-74.6279 L 54.1024,-74.6095 L 54.1557,-74.5918
 L 54.2007,-74.575 L 54.2405,-74.5581 L 54.2783,-74.5403 L 54.314,-74.5215 L 54.3477,-74.5019 L 54.3793,-74.4813
 L 54.4089,-74.4598 L 54.4365,-74.4374 L 54.462,-74.4141 L 54.4855,-74.3899 L 54.5067,-74.3644 L 54.5255,-74.3376
 L 54.5417,-74.3092 L 54.5554,-74.2793 L 54.5667,-74.248 L 54.5754,-74.2152 L 54.5817,-74.1809 L 54.5854,-74.1452
 L 54.5867,-74.1079 L 54.5758,-73.9955 L 54.5432,-73.8964 L 54.4889,-73.8104 L 54.4128,-73.7377 L 54.315,-73.6782
 L 54.1955,-73.632 L 54.0543,-73.5989 L 53.8913,-73.5791 L 53.7066,-73.5725 L 53.6146,-73.5742 L 53.5271,-73.5796
 L 53.4442,-73.5884 L 53.3659,-73.6009 L 53.2922,-73.6168 L 53.223,-73.6364 L 53.1584,-73.6595 L 53.0984,-73.6861
 L 53.0429,-73.7163 L 52.9917,-73.7504 L 52.9444,-73.7889 L 52.9009,-73.8316 L 52.8612,-73.8787 L 52.8255,-73.9302
 L 52.7936,-73.9859 L 52.7656,-74.046 L 52.7414,-74.1104 L 52.7211,-74.1791 L 51.9094,-74.0453 L 51.9411,-73.9253
 L 51.9806,-73.8123 L 52.0278,-73.7063 L 52.0827,-73.6073 L 52.1454,-73.5152 L 52.2157,-73.4301 L 52.2939,-73.3519
 L 52.3797,-73.2807 L 52.4733,-73.2165 L 52.5749,-73.1591 L 52.6847,-73.1085 L 52.8028,-73.0646 L 52.929,-73.0274
 L 53.0635,-72.9971 L 53.2062,-72.9734 L 53.3572,-72.9566 L 53.5164,-72.9464 L 53.6838,-72.943 z
M 12.3784,-77.013 L 11.5382,-77.013 L 11.5382,-73 L 12.3784,-73 z
M 49.081,-74.4127 L 50.0778,-74.4127 L 50.1769,-74.4147 L 50.2729,-74.4209 L 50.3659,-74.4312 L 50.4559,-74.4456
 L 50.5427,-74.4641 L 50.6265,-74.4867 L 50.7073,-74.5135 L 50.785,-74.5443 L 50.8596,-74.5793 L 50.9308,-74.618
 L 50.9983,-74.6602 L 51.062,-74.7057 L 51.1219,-74.7547 L 51.1781,-74.807 L 51.2305,-74.8628 L 51.2791,-74.922
 L 51.324,-74.9846 L 51.3651,-75.0507 L 51.4022,-75.1194 L 51.4349,-75.1902 L 51.4632,-75.263 L 51.4872,-75.3379
 L 51.5069,-75.4147 L 51.5221,-75.4937 L 51.533,-75.5747 L 51.5396,-75.6577 L 51.5417,-75.7427 L 51.5369,-75.8742
 L 51.5225,-75.9988 L 51.4985,-76.1166 L 51.4649,-76.2277 L 51.4217,-76.332 L 51.3689,-76.4295 L 51.3065,-76.5202
 L 51.2345,-76.6041 L 51.1529,-76.6812 L 51.0625,-76.7509 L 50.9638,-76.8123 L 50.8569,-76.8655 L 50.7418,-76.9106
 L 50.6186,-76.9475 L 50.4871,-76.9761 L 50.3475,-76.9966 L 50.1997,-77.0089 L 50.0436,-77.013 L 48.2407,-77.013
 L 48.2407,-73 L 49.081,-73 z
M 49.081,-76.3608 L 49.9496,-76.3608 L 50.1063,-76.353 L 50.2444,-76.3296 L 50.3642,-76.2905 L 50.4655,-76.2359
 L 50.5485,-76.1656 L 50.6129,-76.0798 L 50.659,-75.9783 L 50.6866,-75.8612 L 50.6959,-75.7285 L 50.6935,-75.6582
 L 50.6866,-75.5917 L 50.675,-75.529 L 50.6587,-75.47 L 50.6378,-75.4148 L 50.6123,-75.3633 L 50.5821,-75.3156
 L 50.5473,-75.2717 L 50.5079,-75.2315 L 50.4641,-75.1953 L 50.4164,-75.1634 L 50.3648,-75.1358 L 50.3093,-75.1124
 L 50.2498,-75.0932 L 50.1863,-75.0783 L 50.119,-75.0677 L 50.0477,-75.0613 L 49.9724,-75.0592 L 49.081,-75.0592
 z
M 57.8765,-72.9482 L 58.0522,-72.9638 L 58.2184,-72.9897 L 58.3752,-73.026 L 58.5225,-73.0727 L 58.6603,-73.1298
 L 58.7887,-73.1972 L 58.9077,-73.275 L 59.0171,-73.3631 L 59.1161,-73.4607 L 59.2034,-73.5668 L 59.279,-73.6813
 L 59.343,-73.8043 L 59.3954,-73.9358 L 59.4361,-74.0758 L 59.4652,-74.2242 L 59.4827,-74.3811 L 59.4885,-74.5465
 L 59.4885,-77.013 L 58.6483,-77.013 L 58.6483,-74.5978 L 58.6453,-74.4936 L 58.6364,-74.3949 L 58.6214,-74.3018
 L 58.6005,-74.2141 L 58.5736,-74.132 L 58.5407,-74.0554 L 58.5019,-73.9843 L 58.457,-73.9187 L 58.4062,-73.8587
 L 58.3499,-73.8046 L 58.2884,-73.7569 L 58.2217,-73.7155 L 58.15,-73.6805 L 58.0731,-73.6519 L 57.991,-73.6296
 L 57.9039,-73.6137 L 57.8116,-73.6041 L 57.7141,-73.6009 L 57.6193,-73.604 L 57.5297,-73.6131 L 57.4453,-73.6283
 L 57.3662,-73.6496 L 57.2923,-73.677 L 57.2236,-73.7104 L 57.1602,-73.75 L 57.102,-73.7956 L 57.0491,-73.8473
 L 57.0016,-73.9049 L 56.9597,-73.9681 L 56.9233,-74.037 L 56.8926,-74.1116 L 56.8674,-74.1918 L 56.8479,-74.2777
 L 56.8339,-74.3693 L 56.8255,-74.4665 L 56.8227,-74.5693 L 56.8227,-77.013 L 55.9825,-77.013 L 55.9825,-74.5038
 L 55.9879,-74.341 L 56.0042,-74.1868 L 56.0314,-74.0412 L 56.0694,-73.9041 L 56.1183,-73.7756 L 56.1781,-73.6557
 L 56.2487,-73.5444 L 56.3302,-73.4416 L 56.4225,-73.3475 L 56.5251,-73.2626 L 56.6373,-73.1877 L 56.7591,-73.1228
 L 56.8904,-73.0679 L 57.0314,-73.0229 L 57.182,-72.988 L 57.3422,-72.963 L 57.512,-72.948 L 57.6913,-72.943
 z
M 26.3698,-72.9499 L 26.451,-72.9535 L 26.53,-72.9595 L 26.6071,-72.9678 L 26.6821,-72.9786 L 26.7551,-72.9918
 L 26.826,-73.0073 L 26.8949,-73.0252 L 26.9617,-73.0456 L 26.9617,-73.5411 L 26.9241,-73.5328 L 26.8884,-73.5254
 L 26.8547,-73.519 L 26.823,-73.5136 L 26.7933,-73.5091 L 26.7655,-73.5057 L 26.7397,-73.5032 L 26.7158,-73.5018
 L 26.694,-73.5013 L 26.6552,-73.5026 L 26.6189,-73.5065 L 26.5848,-73.5131 L 26.553,-73.5224 L 26.5236,-73.5342
 L 26.4965,-73.5487 L 26.4717,-73.5659 L 26.4493,-73.5857 L 26.4291,-73.6081 L 26.4112,-73.6333 L 26.3954,-73.6614
 L 26.3816,-73.6924 L 26.37,-73.7264 L 26.3606,-73.7632 L 26.3532,-73.803 L 26.3479,-73.8457 L 26.3447,-73.8913
 L 26.3437,-73.9399 L 26.3437,-75.5405 L 26.9275,-75.5405 L 26.9275,-76.0817 L 26.3437,-76.0817 L 26.3437,-76.8051
 L 25.8424,-76.8051 L 25.5918,-76.0817 L 25.1617,-76.0817 L 25.1617,-75.5405 L 25.5519,-75.5405 L 25.5519,-73.7234
 L 25.5543,-73.6391 L 25.5613,-73.5598 L 25.5731,-73.4853 L 25.5896,-73.4157 L 25.6108,-73.351 L 25.6367,-73.2911
 L 25.6673,-73.2362 L 25.7027,-73.1861 L 25.7427,-73.141 L 25.7871,-73.1006 L 25.8355,-73.065 L 25.888,-73.0342
 L 25.9444,-73.008 L 26.0048,-72.9867 L 26.0693,-72.9701 L 26.1378,-72.9582 L 26.2102,-72.9511 L 26.2867,-72.9487
 z
M 13.9764,-74.6519 L 13.9786,-74.7369 L 13.9851,-74.8184 L 13.9961,-74.8964 L 14.0115,-74.9709 L 14.0313,-75.042
 L 14.0555,-75.1095 L 14.084,-75.1736 L 14.117,-75.2342 L 14.1544,-75.2913 L 14.1953,-75.3436 L 14.239,-75.3898
 L 14.2855,-75.4298 L 14.3348,-75.4636 L 14.3869,-75.4913 L 14.4417,-75.5128 L 14.4993,-75.5282 L 14.5597,-75.5375
 L 14.6229,-75.5405 L 14.7382,-75.5305 L 14.84,-75.5005 L 14.9283,-75.4503 L 15.0029,-75.3802 L 15.064,-75.29
 L 15.1115,-75.1798 L 15.1454,-75.0495 L 15.1658,-74.8992 L 15.1726,-74.7288 L 15.1726,-73 L 15.97,-73
 L 15.97,-74.9567 L 15.9668,-75.0823 L 15.9571,-75.2011 L 15.9409,-75.313 L 15.9183,-75.418 L 15.8891,-75.5161
 L 15.8536,-75.6073 L 15.8115,-75.6916 L 15.763,-75.769 L 15.708,-75.8396 L 15.6469,-75.9029 L 15.5803,-75.9588
 L 15.508,-76.0073 L 15.4301,-76.0483 L 15.3465,-76.0818 L 15.2574,-76.1079 L 15.1626,-76.1266 L 15.0621,-76.1377
 L 14.9561,-76.1415 L 14.8819,-76.1395 L 14.8101,-76.1336 L 14.7406,-76.1238 L 14.6734,-76.11 L 14.6085,-76.0922
 L 14.546,-76.0706 L 14.4857,-76.045 L 14.4278,-76.0154 L 14.3722,-75.982 L 14.3188,-75.9441 L 14.2674,-75.9015
 L 14.2181,-75.8541 L 14.1708,-75.8019 L 14.1256,-75.745 L 14.0824,-75.6832 L 14.0412,-75.6167 L 14.002,-75.5454
 L 13.9649,-75.4693 L 13.9536,-75.4693 L 13.9534,-75.4907 L 13.9529,-75.5158 L 13.952,-75.5445 L 13.9507,-75.5768
 L 13.9492,-75.6127 L 13.9472,-75.6522 L 13.9449,-75.6954 L 13.9423,-75.7422 L 13.9393,-75.7926 L 13.9362,-75.8426
 L 13.9333,-75.8881 L 13.9305,-75.9291 L 13.9278,-75.9657 L 13.9252,-75.9978 L 13.9229,-76.0255 L 13.9206,-76.0487
 L 13.9185,-76.0674 L 13.9165,-76.0817 L 13.1532,-76.0817 L 13.1551,-76.0534 L 13.157,-76.0243 L 13.1588,-75.9945
 L 13.1605,-75.9638 L 13.1623,-75.9323 L 13.164,-75.9 L 13.1656,-75.8669 L 13.1673,-75.833 L 13.1689,-75.7982
 L 13.1704,-75.762 L 13.1717,-75.7236 L 13.1728,-75.6829 L 13.1738,-75.64 L 13.1746,-75.595 L 13.1752,-75.5477
 L 13.1757,-75.4981 L 13.1759,-75.4464 L 13.176,-75.3924 L 13.176,-73 L 13.9764,-73 z
M 24.028,-74.5123 L 24.0301,-74.6152 L 24.0362,-74.7122 L 24.0465,-74.8035 L 24.0609,-74.889 L 24.0794,-74.9687
 L 24.1021,-75.0427 L 24.1288,-75.1109 L 24.1597,-75.1734 L 24.1946,-75.2301 L 24.2333,-75.2809 L 24.2752,-75.3257
 L 24.3204,-75.3646 L 24.3689,-75.3974 L 24.4206,-75.4243 L 24.4756,-75.4453 L 24.5339,-75.4602 L 24.5955,-75.4692
 L 24.6603,-75.4722 L 24.6937,-75.4716 L 24.7283,-75.4701 L 24.7641,-75.4674 L 24.8009,-75.4637 L 24.8389,-75.459
 L 24.878,-75.4532 L 24.9182,-75.4463 L 24.9596,-75.4384 L 25.002,-75.4294 L 25.002,-76.0988 L 24.9804,-76.1077
 L 24.9573,-76.1156 L 24.9327,-76.1225 L 24.9067,-76.1283 L 24.8792,-76.133 L 24.8502,-76.1367 L 24.8197,-76.1394
 L 24.7877,-76.1409 L 24.7543,-76.1415 L 24.7133,-76.1407 L 24.6738,-76.1383 L 24.6359,-76.1344 L 24.5995,-76.1288
 L 24.5647,-76.1217 L 24.5315,-76.113 L 24.4997,-76.1027 L 24.4696,-76.0908 L 24.441,-76.0774 L 24.4135,-76.0623
 L 24.387,-76.0455 L 24.3612,-76.0271 L 24.3363,-76.0069 L 24.3123,-75.9851 L 24.2891,-75.9616 L 24.2667,-75.9364
 L 24.2452,-75.9095 L 24.2245,-75.8809 L 24.204,-75.8491 L 24.1828,-75.8125 L 24.1609,-75.7712 L 24.1384,-75.7252
 L 24.1153,-75.6744 L 24.0916,-75.6188 L 24.0672,-75.5586 L 24.0422,-75.4935 L 24.0166,-75.4237 L 24.0052,-75.4237
 L 24.005,-75.4449 L 24.0045,-75.4704 L 24.0036,-75.5002 L 24.0024,-75.5343 L 24.0008,-75.5728 L 23.9989,-75.6155
 L 23.9966,-75.6626 L 23.994,-75.7141 L 23.991,-75.7698 L 23.9879,-75.8251 L 23.9849,-75.8753 L 23.9821,-75.9203
 L 23.9794,-75.9601 L 23.9769,-75.9948 L 23.9745,-76.0242 L 23.9722,-76.0486 L 23.9701,-76.0677 L 23.9682,-76.0817
 L 23.2049,-76.0817 L 23.2068,-76.0521 L 23.2086,-76.0215 L 23.2104,-75.9901 L 23.2122,-75.9576 L 23.2139,-75.9242
 L 23.2156,-75.8899 L 23.2173,-75.8546 L 23.2189,-75.8184 L 23.2205,-75.7812 L 23.222,-75.7425 L 23.2233,-75.7017
 L 23.2245,-75.6589 L 23.2255,-75.614 L 23.2262,-75.567 L 23.2269,-75.5179 L 23.2273,-75.4668 L 23.2276,-75.4135
 L 23.2277,-75.3583 L 23.2277,-73 L 24.028,-73 z
M 31.4849,-74.5123 L 31.4869,-74.6152 L 31.4931,-74.7122 L 31.5034,-74.8035 L 31.5178,-74.889 L 31.5363,-74.9687
 L 31.5589,-75.0427 L 31.5856,-75.1109 L 31.6165,-75.1734 L 31.6515,-75.2301 L 31.6901,-75.2809 L 31.7321,-75.3257
 L 31.7773,-75.3646 L 31.8257,-75.3974 L 31.8775,-75.4243 L 31.9325,-75.4453 L 31.9908,-75.4602 L 32.0523,-75.4692
 L 32.1171,-75.4722 L 32.1506,-75.4716 L 32.1852,-75.4701 L 32.2209,-75.4674 L 32.2578,-75.4637 L 32.2957,-75.459
 L 32.3348,-75.4532 L 32.3751,-75.4463 L 32.4164,-75.4384 L 32.4589,-75.4294 L 32.4589,-76.0988 L 32.4373,-76.1077
 L 32.4142,-76.1156 L 32.3896,-76.1225 L 32.3635,-76.1283 L 32.336,-76.133 L 32.307,-76.1367 L 32.2765,-76.1394
 L 32.2446,-76.1409 L 32.2111,-76.1415 L 32.1701,-76.1407 L 32.1307,-76.1383 L 32.0928,-76.1344 L 32.0564,-76.1288
 L 32.0216,-76.1217 L 31.9883,-76.113 L 31.9566,-76.1027 L 31.9264,-76.0908 L 31.8978,-76.0774 L 31.8704,-76.0623
 L 31.8438,-76.0455 L 31.8181,-76.0271 L 31.7932,-76.0069 L 31.7691,-75.9851 L 31.7459,-75.9616 L 31.7236,-75.9364
 L 31.7021,-75.9095 L 31.6814,-75.8809 L 31.6608,-75.8491 L 31.6396,-75.8125 L 31.6178,-75.7712 L 31.5953,-75.7252
 L 31.5722,-75.6744 L 31.5485,-75.6188 L 31.5241,-75.5586 L 31.4991,-75.4935 L 31.4734,-75.4237 L 31.4621,-75.4237
 L 31.4619,-75.4449 L 31.4613,-75.4704 L 31.4605,-75.5002 L 31.4592,-75.5343 L 31.4577,-75.5728 L 31.4557,-75.6155
 L 31.4534,-75.6626 L 31.4508,-75.7141 L 31.4478,-75.7698 L 31.4447,-75.8251 L 31.4418,-75.8753 L 31.439,-75.9203
 L 31.4363,-75.9601 L 31.4337,-75.9948 L 31.4314,-76.0242 L 31.4291,-76.0486 L 31.427,-76.0677 L 31.425,-76.0817
 L 30.6617,-76.0817 L 30.6636,-76.0521 L 30.6655,-76.0215 L 30.6673,-75.9901 L 30.669,-75.9576 L 30.6708,-75.9242
 L 30.6725,-75.8899 L 30.6741,-75.8546 L 30.6758,-75.8184 L 30.6774,-75.7812 L 30.6789,-75.7425 L 30.6802,-75.7017
 L 30.6813,-75.6589 L 30.6823,-75.614 L 30.6831,-75.567 L 30.6837,-75.5179 L 30.6842,-75.4668 L 30.6844,-75.4135
 L 30.6845,-75.3583 L 30.6845,-73 L 31.4849,-73 z
M 36.9963,-74.6519 L 36.9985,-74.7369 L 37.0051,-74.8184 L 37.0161,-74.8964 L 37.0315,-74.9709 L 37.0513,-75.042
 L 37.0755,-75.1095 L 37.104,-75.1736 L 37.137,-75.2342 L 37.1743,-75.2913 L 37.2153,-75.3436 L 37.259,-75.3898
 L 37.3055,-75.4298 L 37.3548,-75.4636 L 37.4068,-75.4913 L 37.4617,-75.5128 L 37.5193,-75.5282 L 37.5797,-75.5375
 L 37.6429,-75.5405 L 37.7582,-75.5305 L 37.86,-75.5005 L 37.9482,-75.4503 L 38.0229,-75.3802 L 38.084,-75.29
 L 38.1315,-75.1798 L 38.1654,-75.0495 L 38.1858,-74.8992 L 38.1926,-74.7288 L 38.1926,-73 L 38.99,-73
 L 38.99,-74.9567 L 38.9868,-75.0823 L 38.9771,-75.2011 L 38.9609,-75.313 L 38.9382,-75.418 L 38.9091,-75.5161
 L 38.8735,-75.6073 L 38.8315,-75.6916 L 38.783,-75.769 L 38.728,-75.8396 L 38.6669,-75.9029 L 38.6003,-75.9588
 L 38.528,-76.0073 L 38.4501,-76.0483 L 38.3665,-76.0818 L 38.2774,-76.1079 L 38.1826,-76.1266 L 38.0821,-76.1377
 L 37.9761,-76.1415 L 37.9019,-76.1395 L 37.8301,-76.1336 L 37.7606,-76.1238 L 37.6934,-76.11 L 37.6285,-76.0922
 L 37.5659,-76.0706 L 37.5057,-76.045 L 37.4478,-76.0154 L 37.3922,-75.982 L 37.3388,-75.9441 L 37.2874,-75.9015
 L 37.2381,-75.8541 L 37.1908,-75.8019 L 37.1456,-75.745 L 37.1023,-75.6832 L 37.0612,-75.6167 L 37.022,-75.5454
 L 36.9849,-75.4693 L 36.9735,-75.4693 L 36.9734,-75.4907 L 36.9728,-75.5158 L 36.972,-75.5445 L 36.9707,-75.5768
 L 36.9691,-75.6127 L 36.9672,-75.6522 L 36.9649,-75.6954 L 36.9623,-75.7422 L 36.9593,-75.7926 L 36.9562,-75.8426
 L 36.9533,-75.8881 L 36.9504,-75.9291 L 36.9478,-75.9657 L 36.9452,-75.9978 L 36.9428,-76.0255 L 36.9406,-76.0487
 L 36.9385,-76.0674 L 36.9365,-76.0817 L 36.1732,-76.0817 L 36.1751,-76.0534 L 36.177,-76.0243 L 36.1788,-75.9945
 L 36.1805,-75.9638 L 36.1823,-75.9323 L 36.184,-75.9 L 36.1856,-75.8669 L 36.1873,-75.833 L 36.1889,-75.7982
 L 36.1904,-75.762 L 36.1917,-75.7236 L 36.1928,-75.6829 L 36.1938,-75.64 L 36.1946,-75.595 L 36.1952,-75.5477
 L 36.1956,-75.4981 L 36.1959,-75.4464 L 36.196,-75.3924 L 36.196,-73 L 36.9963,-73 z
M 64.2938,-74.6519 L 64.296,-74.7369 L 64.3026,-74.8184 L 64.3136,-74.8964 L 64.329,-74.9709 L 64.3488,-75.042
 L 64.3729,-75.1095 L 64.4015,-75.1736 L 64.4345,-75.2342 L 64.4718,-75.2913 L 64.5128,-75.3436 L 64.5565,-75.3898
 L 64.603,-75.4298 L 64.6523,-75.4636 L 64.7043,-75.4913 L 64.7592,-75.5128 L 64.8168,-75.5282 L 64.8772,-75.5375
 L 64.9403,-75.5405 L 65.0557,-75.5305 L 65.1575,-75.5005 L 65.2457,-75.4503 L 65.3204,-75.3802 L 65.3814,-75.29
 L 65.4289,-75.1798 L 65.4629,-75.0495 L 65.4832,-74.8992 L 65.49,-74.7288 L 65.49,-73 L 66.2875,-73
 L 66.2875,-74.9567 L 66.2842,-75.0823 L 66.2745,-75.2011 L 66.2584,-75.313 L 66.2357,-75.418 L 66.2066,-75.5161
 L 66.171,-75.6073 L 66.129,-75.6916 L 66.0804,-75.769 L 66.0254,-75.8396 L 65.9644,-75.9029 L 65.8977,-75.9588
 L 65.8255,-76.0073 L 65.7475,-76.0483 L 65.664,-76.0818 L 65.5748,-76.1079 L 65.48,-76.1266 L 65.3796,-76.1377
 L 65.2736,-76.1415 L 65.1994,-76.1395 L 65.1276,-76.1336 L 65.058,-76.1238 L 64.9908,-76.11 L 64.926,-76.0922
 L 64.8634,-76.0706 L 64.8032,-76.045 L 64.7453,-76.0154 L 64.6897,-75.982 L 64.6363,-75.9441 L 64.5849,-75.9015
 L 64.5356,-75.8541 L 64.4883,-75.8019 L 64.443,-75.745 L 64.3998,-75.6832 L 64.3586,-75.6167 L 64.3195,-75.5454
 L 64.2824,-75.4693 L 64.271,-75.4693 L 64.2708,-75.4907 L 64.2703,-75.5158 L 64.2694,-75.5445 L 64.2682,-75.5768
 L 64.2666,-75.6127 L 64.2647,-75.6522 L 64.2624,-75.6954 L 64.2598,-75.7422 L 64.2568,-75.7926 L 64.2537,-75.8426
 L 64.2507,-75.8881 L 64.2479,-75.9291 L 64.2452,-75.9657 L 64.2427,-75.9978 L 64.2403,-76.0255 L 64.2381,-76.0487
 L 64.2359,-76.0674 L 64.234,-76.0817 L 63.4707,-76.0817 L 63.4726,-76.0534 L 63.4744,-76.0243 L 63.4762,-75.9945
 L 63.478,-75.9638 L 63.4797,-75.9323 L 63.4814,-75.9 L 63.4831,-75.8669 L 63.4847,-75.833 L 63.4863,-75.7982
 L 63.4878,-75.762 L 63.4891,-75.7236 L 63.4903,-75.6829 L 63.4913,-75.64 L 63.4921,-75.595 L 63.4927,-75.5477
 L 63.4931,-75.4981 L 63.4934,-75.4464 L 63.4935,-75.3924 L 63.4935,-73 L 64.2938,-73 z
M 21.4596,-72.9534 L 21.6574,-72.9844 L 21.8385,-73.0361 L 22.003,-73.1085 L 22.1508,-73.2015 L 22.2819,-73.3152
 L 22.3964,-73.4496 L 22.4941,-73.6047 L 22.5753,-73.7804 L 21.8205,-73.8459 L 21.7919,-73.7688 L 21.7557,-73.7007
 L 21.7116,-73.6418 L 21.6599,-73.5919 L 21.6004,-73.5511 L 21.5332,-73.5193 L 21.4582,-73.4966 L 21.3755,-73.483
 L 21.2851,-73.4785 L 21.2185,-73.4813 L 21.1553,-73.4898 L 21.0957,-73.504 L 21.0395,-73.5238 L 20.9868,-73.5493
 L 20.9376,-73.5804 L 20.8919,-73.6172 L 20.8496,-73.6596 L 20.8109,-73.7077 L 20.7759,-73.7614 L 20.745,-73.8205
 L 20.7183,-73.8851 L 20.6957,-73.9552 L 20.6771,-74.0306 L 20.6628,-74.1116 L 20.6525,-74.1979 L 20.6463,-74.2898
 L 20.6442,-74.3871 L 22.6208,-74.3871 L 22.6208,-74.4098 L 22.6165,-74.5934 L 22.6035,-74.7668 L 22.5819,-74.9302
 L 22.5516,-75.0835 L 22.5127,-75.2267 L 22.4651,-75.3598 L 22.4089,-75.4828 L 22.344,-75.5958 L 22.2705,-75.6986
 L 22.1888,-75.7909 L 22.0993,-75.8724 L 22.0022,-75.943 L 21.8972,-76.0028 L 21.7846,-76.0517 L 21.6642,-76.0897
 L 21.536,-76.1169 L 21.4002,-76.1332 L 21.2566,-76.1386 L 21.106,-76.1336 L 20.9633,-76.1184 L 20.8284,-76.093
 L 20.7013,-76.0576 L 20.582,-76.012 L 20.4705,-75.9563 L 20.3668,-75.8905 L 20.2709,-75.8146 L 20.1828,-75.7285
 L 20.1033,-75.633 L 20.0332,-75.5288 L 19.9724,-75.4158 L 19.9209,-75.2942 L 19.8789,-75.1638 L 19.8461,-75.0247
 L 19.8227,-74.8769 L 19.8087,-74.7203 L 19.804,-74.5551 L 19.8086,-74.3844 L 19.8225,-74.2231 L 19.8455,-74.0711
 L 19.8777,-73.9284 L 19.9192,-73.795 L 19.9698,-73.6709 L 20.0297,-73.5562 L 20.0988,-73.4507 L 20.1771,-73.3546
 L 20.264,-73.2682 L 20.3588,-73.192 L 20.4616,-73.126 L 20.5723,-73.0701 L 20.691,-73.0243 L 20.8176,-72.9888
 L 20.9522,-72.9634 L 21.0947,-72.9481 L 21.2452,-72.943 z
M 20.6536,-74.9649 L 20.6608,-75.0375 L 20.6716,-75.1063 L 20.6859,-75.1713 L 20.7038,-75.2324 L 20.7252,-75.2896
 L 20.7502,-75.3429 L 20.7788,-75.3924 L 20.8109,-75.438 L 20.8463,-75.4792 L 20.885,-75.5156 L 20.9268,-75.5472
 L 20.9719,-75.5739 L 21.0201,-75.5957 L 21.0716,-75.6127 L 21.1263,-75.6248 L 21.1841,-75.6321 L 21.2452,-75.6345
 L 21.3027,-75.6322 L 21.3576,-75.6253 L 21.4097,-75.6138 L 21.4592,-75.5977 L 21.5061,-75.577 L 21.5502,-75.5516
 L 21.5917,-75.5217 L 21.6305,-75.4871 L 21.6667,-75.448 L 21.6998,-75.4042 L 21.7297,-75.3558 L 21.7563,-75.3029
 L 21.7795,-75.2453 L 21.7994,-75.1831 L 21.8161,-75.1163 L 21.8294,-75.0449 L 21.8394,-74.9689 L 21.8462,-74.8883
 L 20.6499,-74.8883 z
M 28.9165,-72.9534 L 29.1143,-72.9844 L 29.2954,-73.0361 L 29.4598,-73.1085 L 29.6076,-73.2015 L 29.7388,-73.3152
 L 29.8532,-73.4496 L 29.951,-73.6047 L 30.0321,-73.7804 L 29.2773,-73.8459 L 29.2488,-73.7688 L 29.2125,-73.7007
 L 29.1685,-73.6418 L 29.1167,-73.5919 L 29.0572,-73.5511 L 28.99,-73.5193 L 28.9151,-73.4966 L 28.8324,-73.483
 L 28.7419,-73.4785 L 28.6753,-73.4813 L 28.6122,-73.4898 L 28.5525,-73.504 L 28.4963,-73.5238 L 28.4437,-73.5493
 L 28.3944,-73.5804 L 28.3487,-73.6172 L 28.3065,-73.6596 L 28.2677,-73.7077 L 28.2327,-73.7614 L 28.2019,-73.8205
 L 28.1751,-73.8851 L 28.1525,-73.9552 L 28.134,-74.0306 L 28.1196,-74.1116 L 28.1093,-74.1979 L 28.1031,-74.2898
 L 28.1011,-74.3871 L 30.0777,-74.3871 L 30.0777,-74.4098 L 30.0734,-74.5934 L 30.0604,-74.7668 L 30.0388,-74.9302
 L 30.0085,-75.0835 L 29.9696,-75.2267 L 29.922,-75.3598 L 29.8658,-75.4828 L 29.8009,-75.5958 L 29.7274,-75.6986
 L 29.6457,-75.7909 L 29.5562,-75.8724 L 29.459,-75.943 L 29.3541,-76.0028 L 29.2414,-76.0517 L 29.121,-76.0897
 L 28.9929,-76.1169 L 28.857,-76.1332 L 28.7134,-76.1386 L 28.5629,-76.1336 L 28.4202,-76.1184 L 28.2852,-76.093
 L 28.1581,-76.0576 L 28.0388,-76.012 L 27.9273,-75.9563 L 27.8236,-75.8905 L 27.7278,-75.8146 L 27.6397,-75.7285
 L 27.5602,-75.633 L 27.49,-75.5288 L 27.4292,-75.4158 L 27.3778,-75.2942 L 27.3357,-75.1638 L 27.303,-75.0247
 L 27.2796,-74.8769 L 27.2656,-74.7203 L 27.2609,-74.5551 L 27.2655,-74.3844 L 27.2793,-74.2231 L 27.3023,-74.0711
 L 27.3346,-73.9284 L 27.376,-73.795 L 27.4267,-73.6709 L 27.4866,-73.5562 L 27.5557,-73.4507 L 27.634,-73.3546
 L 27.7209,-73.2682 L 27.8157,-73.192 L 27.9185,-73.126 L 28.0292,-73.0701 L 28.1479,-73.0243 L 28.2745,-72.9888
 L 28.4091,-72.9634 L 28.5516,-72.9481 L 28.702,-72.943 z
M 28.1104,-74.9649 L 28.1177,-75.0375 L 28.1284,-75.1063 L 28.1428,-75.1713 L 28.1607,-75.2324 L 28.1821,-75.2896
 L 28.2071,-75.3429 L 28.2356,-75.3924 L 28.2677,-75.438 L 28.3032,-75.4792 L 28.3418,-75.5156 L 28.3837,-75.5472
 L 28.4287,-75.5739 L 28.477,-75.5957 L 28.5285,-75.6127 L 28.5831,-75.6248 L 28.641,-75.6321 L 28.702,-75.6345
 L 28.7596,-75.6322 L 28.8144,-75.6253 L 28.8666,-75.6138 L 28.9161,-75.5977 L 28.9629,-75.577 L 29.0071,-75.5516
 L 29.0486,-75.5217 L 29.0874,-75.4871 L 29.1235,-75.448 L 29.1567,-75.4042 L 29.1866,-75.3558 L 29.2131,-75.3029
 L 29.2363,-75.2453 L 29.2563,-75.1831 L 29.2729,-75.1163 L 29.2863,-75.0449 L 29.2963,-74.9689 L 29.303,-74.8883
 L 28.1068,-74.8883 z
M 19.5503,-76.0817 L 18.713,-76.0817 L 18.593,-75.7146 L 18.4847,-75.3831 L 18.3883,-75.087 L 18.3037,-74.8265
 L 18.2309,-74.6015 L 18.17,-74.412 L 18.1208,-74.258 L 18.0835,-74.1396 L 18.0579,-74.0566 L 18.039,-73.9936
 L 18.0216,-73.935 L 18.0057,-73.8807 L 17.9913,-73.8308 L 17.9783,-73.7852 L 17.9668,-73.744 L 17.9568,-73.7071
 L 17.9482,-73.6746 L 17.9412,-73.6465 L 17.9072,-73.7678 L 17.876,-73.8786 L 17.8478,-73.9788 L 17.8225,-74.0685
 L 17.8,-74.1476 L 17.7804,-74.2162 L 17.7637,-74.2742 L 17.7499,-74.3217 L 17.7389,-74.3586 L 17.2007,-76.0817
 L 16.3548,-76.0817 L 17.457,-73 L 18.414,-73 z
M 35.3757,-76.0817 L 34.5753,-76.0817 L 34.5753,-73 L 35.3757,-73 z
M 62.6731,-76.0817 L 61.8728,-76.0817 L 61.8728,-73 L 62.6731,-73 z
M 263.376,-70.9465 L 263.512,-70.957 L 263.642,-70.9745 L 263.768,-70.999 L 263.89,-71.0305 L 264.007,-71.069
 L 264.12,-71.1145 L 264.228,-71.1669 L 264.332,-71.2264 L 264.431,-71.2931 L 264.524,-71.3671 L 264.612,-71.4484
 L 264.695,-71.5371 L 264.772,-71.6332 L 264.843,-71.7365 L 264.91,-71.8473 L 264.97,-71.9654 L 265.026,-72.0908
 L 264.294,-72.3671 L 264.222,-72.2069 L 264.139,-72.0655 L 264.045,-71.943 L 263.939,-71.8394 L 263.821,-71.7546
 L 263.692,-71.6886 L 263.552,-71.6415 L 263.4,-71.6132 L 263.237,-71.6038 L 263.113,-71.6083 L 262.996,-71.6218
 L 262.885,-71.6443 L 262.781,-71.6758 L 262.684,-71.7163 L 262.593,-71.7658 L 262.509,-71.8243 L 262.432,-71.8918
 L 262.361,-71.9684 L 262.298,-72.0534 L 262.241,-72.1466 L 262.193,-72.2478 L 262.151,-72.3571 L 262.118,-72.4745
 L 262.092,-72.6 L 262.073,-72.7336 L 262.062,-72.8753 L 262.058,-73.025 L 262.061,-73.1723 L 262.072,-73.3114
 L 262.091,-73.4424 L 262.116,-73.5654 L 262.149,-73.6803 L 262.189,-73.787 L 262.236,-73.8857 L 262.291,-73.9763
 L 262.353,-74.0589 L 262.422,-74.133 L 262.497,-74.1984 L 262.58,-74.2551 L 262.669,-74.303 L 262.765,-74.3423
 L 262.868,-74.3728 L 262.977,-74.3946 L 263.094,-74.4077 L 263.217,-74.412 L 263.299,-74.4098 L 263.378,-74.4032
 L 263.455,-74.3923 L 263.529,-74.3769 L 263.601,-74.3571 L 263.671,-74.3329 L 263.738,-74.3044 L 263.803,-74.2714
 L 263.865,-74.234 L 263.924,-74.193 L 263.978,-74.1488 L 264.028,-74.1016 L 264.074,-74.0513 L 264.115,-73.998
 L 264.151,-73.9416 L 264.183,-73.8822 L 264.211,-73.8197 L 264.234,-73.7542 L 264.974,-73.9563 L 264.931,-74.0752
 L 264.881,-74.1875 L 264.825,-74.2932 L 264.762,-74.3923 L 264.693,-74.4849 L 264.617,-74.5709 L 264.535,-74.6503
 L 264.446,-74.7231 L 264.351,-74.7894 L 264.249,-74.8489 L 264.14,-74.9014 L 264.025,-74.9469 L 263.904,-74.9853
 L 263.776,-75.0168 L 263.642,-75.0413 L 263.501,-75.0588 L 263.354,-75.0693 L 263.2,-75.0728 L 262.99,-75.0663
 L 262.792,-75.0467 L 262.605,-75.014 L 262.43,-74.9682 L 262.265,-74.9093 L 262.113,-74.8374 L 261.971,-74.7524
 L 261.841,-74.6543 L 261.722,-74.5431 L 261.615,-74.4197 L 261.52,-74.285 L 261.439,-74.139 L 261.369,-73.9816
 L 261.313,-73.8129 L 261.269,-73.6329 L 261.237,-73.4416 L 261.218,-73.239 L 261.212,-73.025 L 261.218,-72.8114
 L 261.238,-72.6086 L 261.271,-72.4166 L 261.316,-72.2354 L 261.375,-72.065 L 261.447,-71.9054 L 261.532,-71.7566
 L 261.629,-71.6186 L 261.74,-71.4913 L 261.863,-71.3762 L 261.997,-71.2747 L 262.141,-71.1867 L 262.297,-71.1123
 L 262.463,-71.0513 L 262.64,-71.004 L 262.828,-70.9701 L 263.027,-70.9498 L 263.237,-70.943 z
M 258.102,-72.0253 L 259.631,-72.0253 L 259.987,-71 L 260.819,-71 L 259.36,-75.013 L 258.369,-75.013
 L 256.905,-71 L 257.745,-71 z
M 258.384,-72.9342 L 258.469,-73.1817 L 258.544,-73.4 L 258.608,-73.5893 L 258.663,-73.7494 L 258.707,-73.8804
 L 258.741,-73.9823 L 258.765,-74.0551 L 258.779,-74.0988 L 258.788,-74.1275 L 258.797,-74.1556 L 258.805,-74.1829
 L 258.813,-74.2096 L 258.82,-74.2355 L 258.827,-74.2608 L 258.835,-74.2853 L 258.841,-74.3092 L 258.848,-74.3323
 L 258.865,-74.395 L 258.925,-74.1984 L 259.047,-73.8111 L 259.443,-72.6576 L 258.289,-72.6576 z
M 280.577,-71.5953 L 279.657,-71.5953 L 279.657,-75.013 L 278.9,-75.013 L 277.894,-74.3608 L 277.894,-73.7313
 L 278.857,-74.3323 L 278.857,-71.5953 L 277.863,-71.5953 L 277.863,-71 L 280.577,-71 z
M 275.212,-70.9499 L 275.293,-70.9535 L 275.372,-70.9595 L 275.449,-70.9678 L 275.524,-70.9786 L 275.597,-70.9918
 L 275.668,-71.0073 L 275.737,-71.0252 L 275.804,-71.0456 L 275.804,-71.5411 L 275.766,-71.5328 L 275.73,-71.5254
 L 275.697,-71.519 L 275.665,-71.5136 L 275.635,-71.5091 L 275.608,-71.5057 L 275.582,-71.5032 L 275.558,-71.5018
 L 275.536,-71.5013 L 275.497,-71.5026 L 275.461,-71.5065 L 275.427,-71.5131 L 275.395,-71.5224 L 275.366,-71.5342
 L 275.339,-71.5487 L 275.314,-71.5659 L 275.291,-71.5857 L 275.271,-71.6081 L 275.253,-71.6333 L 275.237,-71.6614
 L 275.224,-71.6924 L 275.212,-71.7264 L 275.203,-71.7632 L 275.195,-71.803 L 275.19,-71.8457 L 275.187,-71.8913
 L 275.186,-71.9399 L 275.186,-73.5405 L 275.77,-73.5405 L 275.77,-74.0817 L 275.186,-74.0817 L 275.186,-74.8051
 L 274.684,-74.8051 L 274.434,-74.0817 L 274.004,-74.0817 L 274.004,-73.5405 L 274.394,-73.5405 L 274.394,-71.7234
 L 274.396,-71.6391 L 274.403,-71.5598 L 274.415,-71.4853 L 274.432,-71.4157 L 274.453,-71.351 L 274.479,-71.2911
 L 274.509,-71.2362 L 274.545,-71.1861 L 274.585,-71.141 L 274.629,-71.1006 L 274.678,-71.065 L 274.73,-71.0342
 L 274.786,-71.008 L 274.847,-70.9867 L 274.911,-70.9701 L 274.98,-70.9582 L 275.052,-70.9511 L 275.129,-70.9487
 z
M 268.734,-70.9483 L 268.886,-70.9641 L 269.029,-70.9904 L 269.165,-71.0272 L 269.293,-71.0745 L 269.413,-71.1323
 L 269.525,-71.2006 L 269.629,-71.2795 L 269.725,-71.3688 L 269.813,-71.4675 L 269.89,-71.574 L 269.956,-71.6886
 L 270.013,-71.8112 L 270.059,-71.9417 L 270.095,-72.0802 L 270.121,-72.2267 L 270.136,-72.3812 L 270.141,-72.5437
 L 270.136,-72.7107 L 270.122,-72.8689 L 270.097,-73.0182 L 270.063,-73.1586 L 270.019,-73.2901 L 269.965,-73.4127
 L 269.901,-73.5264 L 269.827,-73.6312 L 269.744,-73.7271 L 269.651,-73.8134 L 269.55,-73.8897 L 269.439,-73.9557
 L 269.32,-74.0116 L 269.192,-74.0573 L 269.055,-74.0929 L 268.91,-74.1183 L 268.755,-74.1335 L 268.592,-74.1386
 L 268.432,-74.1334 L 268.28,-74.1176 L 268.136,-74.0913 L 268.001,-74.0545 L 267.873,-74.0072 L 267.754,-73.9494
 L 267.642,-73.881 L 267.539,-73.8022 L 267.444,-73.7128 L 267.358,-73.6143 L 267.282,-73.5079 L 267.216,-73.3937
 L 267.16,-73.2716 L 267.115,-73.1417 L 267.079,-73.004 L 267.054,-72.8584 L 267.039,-72.7049 L 267.034,-72.5437
 L 267.039,-72.3818 L 267.054,-72.2278 L 267.079,-72.0817 L 267.115,-71.9434 L 267.16,-71.813 L 267.216,-71.6905
 L 267.282,-71.5759 L 267.358,-71.4691 L 267.444,-71.3703 L 267.539,-71.2806 L 267.642,-71.2015 L 267.752,-71.1329
 L 267.87,-71.0749 L 267.996,-71.0274 L 268.129,-70.9905 L 268.27,-70.9641 L 268.418,-70.9483 L 268.575,-70.943
 z
M 268.493,-71.4932 L 268.425,-71.5032 L 268.36,-71.5198 L 268.299,-71.5431 L 268.242,-71.573 L 268.188,-71.6095
 L 268.139,-71.6527 L 268.094,-71.7025 L 268.052,-71.759 L 268.015,-71.8219 L 267.982,-71.8908 L 267.953,-71.9658
 L 267.929,-72.0469 L 267.909,-72.1341 L 267.894,-72.2274 L 267.883,-72.3267 L 267.876,-72.4322 L 267.874,-72.5437
 L 267.883,-72.7631 L 267.91,-72.9566 L 267.955,-73.1244 L 268.018,-73.2663 L 268.099,-73.3825 L 268.198,-73.4728
 L 268.315,-73.5373 L 268.45,-73.5761 L 268.603,-73.589 L 268.677,-73.5859 L 268.747,-73.5767 L 268.813,-73.5614
 L 268.875,-73.54 L 268.933,-73.5125 L 268.987,-73.4788 L 269.037,-73.4391 L 269.083,-73.3932 L 269.124,-73.3412
 L 269.162,-73.2824 L 269.195,-73.2161 L 269.224,-73.1424 L 269.248,-73.0613 L 269.268,-72.9727 L 269.284,-72.8766
 L 269.295,-72.7731 L 269.302,-72.6621 L 269.304,-72.5437 L 269.295,-72.3225 L 269.267,-72.1274 L 269.222,-71.9582
 L 269.158,-71.8151 L 269.076,-71.698 L 268.976,-71.607 L 268.858,-71.5419 L 268.721,-71.5029 L 268.566,-71.4899
 z
M 271.819,-70.945 L 271.891,-70.9509 L 271.961,-70.9608 L 272.028,-70.9745 L 272.093,-70.9923 L 272.156,-71.0139
 L 272.216,-71.0395 L 272.274,-71.0691 L 272.33,-71.1025 L 272.384,-71.1403 L 272.435,-71.1828 L 272.485,-71.2301
 L 272.532,-71.282 L 272.577,-71.3387 L 272.62,-71.4 L 272.661,-71.4661 L 272.7,-71.5369 L 272.736,-71.6124
 L 272.75,-71.6124 L 272.751,-71.5649 L 272.752,-71.5122 L 272.754,-71.4544 L 272.757,-71.3915 L 272.761,-71.3235
 L 272.765,-71.2503 L 272.771,-71.172 L 272.777,-71.0886 L 272.784,-71 L 273.548,-71 L 273.543,-71.067
 L 273.539,-71.1364 L 273.535,-71.2082 L 273.532,-71.2824 L 273.529,-71.359 L 273.528,-71.438 L 273.526,-71.5194
 L 273.525,-71.6031 L 273.525,-71.6893 L 273.525,-74.0817 L 272.725,-74.0817 L 272.725,-72.4298 L 272.722,-72.3448
 L 272.716,-72.2633 L 272.705,-72.1853 L 272.69,-72.1108 L 272.67,-72.0397 L 272.646,-71.9722 L 272.617,-71.9081
 L 272.584,-71.8475 L 272.547,-71.7904 L 272.506,-71.738 L 272.462,-71.6919 L 272.415,-71.6519 L 272.366,-71.6181
 L 272.314,-71.5904 L 272.259,-71.5688 L 272.202,-71.5534 L 272.141,-71.5442 L 272.078,-71.5411 L 271.963,-71.5511
 L 271.862,-71.5812 L 271.774,-71.6313 L 271.7,-71.7015 L 271.639,-71.7917 L 271.592,-71.9019 L 271.558,-72.0322
 L 271.538,-72.1825 L 271.531,-72.3529 L 271.531,-74.0817 L 270.731,-74.0817 L 270.731,-72.125 L 270.734,-71.9994
 L 270.744,-71.8806 L 270.76,-71.7688 L 270.783,-71.664 L 270.812,-71.566 L 270.847,-71.475 L 270.889,-71.3909
 L 270.938,-71.3138 L 270.993,-71.2435 L 271.054,-71.1805 L 271.121,-71.1248 L 271.193,-71.0766 L 271.271,-71.0358
 L 271.354,-71.0024 L 271.444,-70.9764 L 271.538,-70.9579 L 271.639,-70.9468 L 271.745,-70.943 z
M 44.5668,-36.2266 L 43.7665,-36.2266 L 43.7665,-35.6371 L 44.5668,-35.6371 z
M 35.1873,-33.4127 L 36.1841,-33.4127 L 36.2832,-33.4147 L 36.3793,-33.4209 L 36.4723,-33.4312 L 36.5622,-33.4456
 L 36.6491,-33.4641 L 36.7329,-33.4867 L 36.8136,-33.5135 L 36.8913,-33.5443 L 36.9659,-33.5793 L 37.0372,-33.618
 L 37.1046,-33.6602 L 37.1683,-33.7057 L 37.2282,-33.7547 L 37.2844,-33.807 L 37.3368,-33.8628 L 37.3854,-33.922
 L 37.4303,-33.9846 L 37.4714,-34.0507 L 37.5085,-34.1194 L 37.5412,-34.1902 L 37.5696,-34.263 L 37.5935,-34.3379
 L 37.6132,-34.4147 L 37.6284,-34.4937 L 37.6393,-34.5747 L 37.6459,-34.6577 L 37.6481,-34.7427 L 37.6433,-34.8742
 L 37.6289,-34.9988 L 37.6049,-35.1166 L 37.5713,-35.2277 L 37.5281,-35.332 L 37.4753,-35.4295 L 37.4129,-35.5202
 L 37.3409,-35.6041 L 37.2593,-35.6812 L 37.1688,-35.7509 L 37.0701,-35.8123 L 36.9632,-35.8655 L 36.8482,-35.9106
 L 36.7249,-35.9475 L 36.5935,-35.9761 L 36.4538,-35.9966 L 36.306,-36.0089 L 36.15,-36.013 L 34.3471,-36.013
 L 34.3471,-32 L 35.1873,-32 z
M 35.1873,-35.3608 L 36.056,-35.3608 L 36.2126,-35.353 L 36.3508,-35.3296 L 36.4705,-35.2905 L 36.5719,-35.2359
 L 36.6548,-35.1656 L 36.7193,-35.0798 L 36.7653,-34.9783 L 36.793,-34.8612 L 36.8022,-34.7285 L 36.7999,-34.6582
 L 36.7929,-34.5917 L 36.7813,-34.529 L 36.765,-34.47 L 36.7442,-34.4148 L 36.7186,-34.3633 L 36.6885,-34.3156
 L 36.6536,-34.2717 L 36.6142,-34.2315 L 36.5704,-34.1953 L 36.5228,-34.1634 L 36.4711,-34.1358 L 36.4156,-34.1124
 L 36.3561,-34.0932 L 36.2927,-34.0783 L 36.2253,-34.0677 L 36.154,-34.0613 L 36.0787,-34.0592 L 35.1873,-34.0592
 z
M 41.6984,-36.013 L 40.8297,-36.013 L 40.0066,-33.4355 L 39.8613,-32.9228 L 39.8015,-32.6778 L 39.7724,-32.7873
 L 39.7448,-32.8905 L 39.7186,-32.9873 L 39.6938,-33.0779 L 39.6703,-33.162 L 39.6483,-33.2399 L 39.6277,-33.3114
 L 39.6085,-33.3766 L 39.5907,-33.4355 L 38.7648,-36.013 L 37.8875,-36.013 L 39.3714,-32 L 40.223,-32
 z
M 46.1875,-33.6519 L 46.1897,-33.7369 L 46.1963,-33.8184 L 46.2073,-33.8964 L 46.2227,-33.9709 L 46.2424,-34.042
 L 46.2666,-34.1095 L 46.2952,-34.1736 L 46.3281,-34.2342 L 46.3655,-34.2913 L 46.4064,-34.3436 L 46.4502,-34.3898
 L 46.4967,-34.4298 L 46.5459,-34.4636 L 46.598,-34.4913 L 46.6528,-34.5128 L 46.7104,-34.5282 L 46.7708,-34.5375
 L 46.834,-34.5405 L 46.9494,-34.5305 L 47.0512,-34.5005 L 47.1394,-34.4503 L 47.214,-34.3802 L 47.2751,-34.29
 L 47.3226,-34.1798 L 47.3566,-34.0495 L 47.3769,-33.8992 L 47.3837,-33.7288 L 47.3837,-32 L 48.1812,-32
 L 48.1812,-33.9567 L 48.1779,-34.0823 L 48.1682,-34.2011 L 48.152,-34.313 L 48.1294,-34.418 L 48.1003,-34.5161
 L 48.0647,-34.6073 L 48.0226,-34.6916 L 47.9741,-34.769 L 47.9191,-34.8396 L 47.8581,-34.9029 L 47.7914,-34.9588
 L 47.7191,-35.0073 L 47.6412,-35.0483 L 47.5577,-35.0818 L 47.4685,-35.1079 L 47.3737,-35.1266 L 47.2733,-35.1377
 L 47.1672,-35.1415 L 47.0931,-35.1395 L 47.0212,-35.1336 L 46.9517,-35.1238 L 46.8845,-35.11 L 46.8196,-35.0922
 L 46.7571,-35.0706 L 46.6969,-35.045 L 46.6389,-35.0154 L 46.5833,-34.982 L 46.5299,-34.9441 L 46.4786,-34.9015
 L 46.4293,-34.8541 L 46.382,-34.8019 L 46.3367,-34.745 L 46.2935,-34.6832 L 46.2523,-34.6167 L 46.2132,-34.5454
 L 46.1761,-34.4693 L 46.1647,-34.4693 L 46.1645,-34.4907 L 46.164,-34.5158 L 46.1631,-34.5445 L 46.1619,-34.5768
 L 46.1603,-34.6127 L 46.1584,-34.6522 L 46.1561,-34.6954 L 46.1534,-34.7422 L 46.1505,-34.7926 L 46.1474,-34.8426
 L 46.1444,-34.8881 L 46.1416,-34.9291 L 46.1389,-34.9657 L 46.1364,-34.9978 L 46.134,-35.0255 L 46.1317,-35.0487
 L 46.1296,-35.0674 L 46.1276,-35.0817 L 45.3644,-35.0817 L 45.3663,-35.0534 L 45.3681,-35.0243 L 45.3699,-34.9945
 L 45.3717,-34.9638 L 45.3734,-34.9323 L 45.3751,-34.9 L 45.3768,-34.8669 L 45.3784,-34.833 L 45.38,-34.7982
 L 45.3815,-34.762 L 45.3828,-34.7236 L 45.384,-34.6829 L 45.3849,-34.64 L 45.3857,-34.595 L 45.3864,-34.5477
 L 45.3868,-34.4981 L 45.3871,-34.4464 L 45.3871,-34.3924 L 45.3871,-32 L 46.1875,-32 z
M 44.5668,-35.0817 L 43.7665,-35.0817 L 43.7665,-32 L 44.5668,-32 z
M 263.376,-10.9465 L 263.512,-10.957 L 263.642,-10.9745 L 263.768,-10.999 L 263.89,-11.0305 L 264.007,-11.069
 L 264.12,-11.1145 L 264.228,-11.1669 L 264.332,-11.2264 L 264.431,-11.2931 L 264.524,-11.3671 L 264.612,-11.4484
 L 264.695,-11.5371 L 264.772,-11.6332 L 264.843,-11.7365 L 264.91,-11.8473 L 264.97,-11.9654 L 265.026,-12.0908
 L 264.294,-12.3671 L 264.222,-12.2069 L 264.139,-12.0655 L 264.045,-11.943 L 263.939,-11.8394 L 263.821,-11.7546
 L 263.692,-11.6886 L 263.552,-11.6415 L 263.4,-11.6132 L 263.237,-11.6038 L 263.113,-11.6083 L 262.996,-11.6218
 L 262.885,-11.6443 L 262.781,-11.6758 L 262.684,-11.7163 L 262.593,-11.7658 L 262.509,-11.8243 L 262.432,-11.8918
 L 262.361,-11.9684 L 262.298,-12.0534 L 262.241,-12.1466 L 262.193,-12.2478 L 262.151,-12.3571 L 262.118,-12.4745
 L 262.092,-12.6 L 262.073,-12.7336 L 262.062,-12.8753 L 262.058,-13.025 L 262.061,-13.1723 L 262.072,-13.3114
 L 262.091,-13.4424 L 262.116,-13.5654 L 262.149,-13.6803 L 262.189,-13.787 L 262.236,-13.8857 L 262.291,-13.9763
 L 262.353,-14.0589 L 262.422,-14.133 L 262.497,-14.1984 L 262.58,-14.2551 L 262.669,-14.303 L 262.765,-14.3423
 L 262.868,-14.3728 L 262.977,-14.3946 L 263.094,-14.4077 L 263.217,-14.412 L 263.299,-14.4098 L 263.378,-14.4032
 L 263.455,-14.3923 L 263.529,-14.3769 L 263.601,-14.3571 L 263.671,-14.3329 L 263.738,-14.3044 L 263.803,-14.2714
 L 263.865,-14.234 L 263.924,-14.193 L 263.978,-14.1488 L 264.028,-14.1016 L 264.074,-14.0513 L 264.115,-13.998
 L 264.151,-13.9416 L 264.183,-13.8822 L 264.211,-13.8197 L 264.234,-13.7542 L 264.974,-13.9563 L 264.931,-14.0752
 L 264.881,-14.1875 L 264.825,-14.2932 L 264.762,-14.3923 L 264.693,-14.4849 L 264.617,-14.5709 L 264.535,-14.6503
 L 264.446,-14.7231 L 264.351,-14.7894 L 264.249,-14.8489 L 264.14,-14.9014 L 264.025,-14.9469 L 263.904,-14.9853
 L 263.776,-15.0168 L 263.642,-15.0413 L 263.501,-15.0588 L 263.354,-15.0693 L 263.2,-15.0728 L 262.99,-15.0663
 L 262.792,-15.0467 L 262.605,-15.014 L 262.43,-14.9682 L 262.265,-14.9093 L 262.113,-14.8374 L 261.971,-14.7524
 L 261.841,-14.6543 L 261.722,-14.5431 L 261.615,-14.4197 L 261.52,-14.285 L 261.439,-14.139 L 261.369,-13.9816
 L 261.313,-13.8129 L 261.269,-13.6329 L 261.237,-13.4416 L 261.218,-13.239 L 261.212,-13.025 L 261.218,-12.8114
 L 261.238,-12.6086 L 261.271,-12.4166 L 261.316,-12.2354 L 261.375,-12.065 L 261.447,-11.9054 L 261.532,-11.7566
 L 261.629,-11.6186 L 261.74,-11.4913 L 261.863,-11.3762 L 261.997,-11.2747 L 262.141,-11.1867 L 262.297,-11.1123
 L 262.463,-11.0513 L 262.64,-11.004 L 262.828,-10.9701 L 263.027,-10.9498 L 263.237,-10.943 z
M 280.506,-11.6579 L 278.644,-11.6579 L 278.662,-11.6988 L 278.683,-11.7391 L 278.706,-11.7788 L 278.731,-11.818
 L 278.758,-11.8566 L 278.787,-11.8946 L 278.818,-11.9321 L 278.852,-11.969 L 278.887,-12.0054 L 278.924,-12.0414
 L 278.962,-12.0774 L 279,-12.1133 L 279.04,-12.1491 L 279.08,-12.1849 L 279.121,-12.2206 L 279.163,-12.2562
 L 279.206,-12.2917 L 279.25,-12.3272 L 279.295,-12.3628 L 279.339,-12.3985 L 279.385,-12.4345 L 279.43,-12.4707
 L 279.476,-12.5071 L 279.522,-12.5437 L 279.568,-12.5805 L 279.615,-12.6175 L 279.662,-12.6548 L 279.708,-12.6924
 L 279.754,-12.7306 L 279.799,-12.7695 L 279.843,-12.8089 L 279.886,-12.8489 L 279.928,-12.8896 L 279.969,-12.9308
 L 280.009,-12.9726 L 280.048,-13.015 L 280.086,-13.0582 L 280.122,-13.1022 L 280.157,-13.1472 L 280.19,-13.193
 L 280.221,-13.2397 L 280.251,-13.2872 L 280.28,-13.3357 L 280.307,-13.385 L 280.332,-13.4352 L 280.356,-13.4865
 L 280.376,-13.5391 L 280.394,-13.5931 L 280.409,-13.6484 L 280.422,-13.705 L 280.431,-13.763 L 280.438,-13.8223
 L 280.442,-13.883 L 280.444,-13.945 L 280.439,-14.061 L 280.426,-14.1711 L 280.405,-14.2753 L 280.375,-14.3737
 L 280.336,-14.4661 L 280.289,-14.5526 L 280.233,-14.6331 L 280.169,-14.7078 L 280.096,-14.7766 L 280.015,-14.8388
 L 279.927,-14.8936 L 279.831,-14.9412 L 279.728,-14.9814 L 279.617,-15.0143 L 279.499,-15.0399 L 279.373,-15.0582
 L 279.24,-15.0692 L 279.099,-15.0728 L 278.969,-15.0692 L 278.845,-15.0583 L 278.727,-15.0402 L 278.615,-15.0149
 L 278.509,-14.9823 L 278.41,-14.9424 L 278.317,-14.8954 L 278.23,-14.841 L 278.149,-14.7795 L 278.075,-14.711
 L 278.008,-14.636 L 277.948,-14.5545 L 277.895,-14.4664 L 277.848,-14.3718 L 277.809,-14.2706 L 277.776,-14.1629
 L 277.751,-14.0486 L 277.732,-13.9279 L 278.538,-13.8823 L 278.548,-13.942 L 278.561,-13.9983 L 278.575,-14.0511
 L 278.592,-14.1006 L 278.612,-14.1466 L 278.634,-14.1893 L 278.658,-14.2285 L 278.684,-14.2643 L 278.713,-14.2967
 L 278.745,-14.3257 L 278.779,-14.3513 L 278.817,-14.3734 L 278.857,-14.3922 L 278.901,-14.4076 L 278.947,-14.4195
 L 278.997,-14.428 L 279.049,-14.4331 L 279.105,-14.4348 L 279.216,-14.4284 L 279.313,-14.409 L 279.398,-14.3766
 L 279.469,-14.3313 L 279.528,-14.2731 L 279.573,-14.2019 L 279.606,-14.1178 L 279.625,-14.0208 L 279.632,-13.9108
 L 279.63,-13.8632 L 279.623,-13.8154 L 279.613,-13.7674 L 279.598,-13.7192 L 279.58,-13.6708 L 279.557,-13.6222
 L 279.529,-13.5733 L 279.498,-13.5243 L 279.462,-13.475 L 279.422,-13.4242 L 279.375,-13.3704 L 279.321,-13.3136
 L 279.262,-13.2539 L 279.196,-13.1913 L 279.124,-13.1257 L 279.046,-13.0571 L 278.962,-12.9856 L 278.871,-12.9111
 L 278.776,-12.8323 L 278.684,-12.7543 L 278.596,-12.6769 L 278.511,-12.6003 L 278.43,-12.5243 L 278.353,-12.4491
 L 278.28,-12.3745 L 278.21,-12.3007 L 278.144,-12.2275 L 278.081,-12.1545 L 278.022,-12.0811 L 277.966,-12.0073
 L 277.913,-11.933 L 277.863,-11.8583 L 277.817,-11.7832 L 277.774,-11.7077 L 277.734,-11.6317 L 277.698,-11.5554
 L 277.698,-11 L 280.506,-11 z
M 258.102,-12.0253 L 259.631,-12.0253 L 259.987,-11 L 260.819,-11 L 259.36,-15.013 L 258.369,-15.013
 L 256.905,-11 L 257.745,-11 z
M 258.384,-12.9342 L 258.469,-13.1817 L 258.544,-13.4 L 258.608,-13.5893 L 258.663,-13.7494 L 258.707,-13.8804
 L 258.741,-13.9823 L 258.765,-14.0551 L 258.779,-14.0988 L 258.788,-14.1275 L 258.797,-14.1556 L 258.805,-14.1829
 L 258.813,-14.2096 L 258.82,-14.2355 L 258.827,-14.2608 L 258.835,-14.2853 L 258.841,-14.3092 L 258.848,-14.3323
 L 258.865,-14.395 L 258.925,-14.1984 L 259.047,-13.8111 L 259.443,-12.6576 L 258.289,-12.6576 z
M 275.212,-10.9499 L 275.293,-10.9535 L 275.372,-10.9595 L 275.449,-10.9678 L 275.524,-10.9786 L 275.597,-10.9918
 L 275.668,-11.0073 L 275.737,-11.0252 L 275.804,-11.0456 L 275.804,-11.5411 L 275.766,-11.5328 L 275.73,-11.5254
 L 275.697,-11.519 L 275.665,-11.5136 L 275.635,-11.5091 L 275.608,-11.5057 L 275.582,-11.5032 L 275.558,-11.5018
 L 275.536,-11.5013 L 275.497,-11.5026 L 275.461,-11.5065 L 275.427,-11.5131 L 275.395,-11.5224 L 275.366,-11.5342
 L 275.339,-11.5487 L 275.314,-11.5659 L 275.291,-11.5857 L 275.271,-11.6081 L 275.253,-11.6333 L 275.237,-11.6614
 L 275.224,-11.6924 L 275.212,-11.7264 L 275.203,-11.7632 L 275.195,-11.803 L 275.19,-11.8457 L 275.187,-11.8913
 L 275.186,-11.9399 L 275.186,-13.5405 L 275.77,-13.5405 L 275.77,-14.0817 L 275.186,-14.0817 L 275.186,-14.8051
 L 274.684,-14.8051 L 274.434,-14.0817 L 274.004,-14.0817 L 274.004,-13.5405 L 274.394,-13.5405 L 274.394,-11.7234
 L 274.396,-11.6391 L 274.403,-11.5598 L 274.415,-11.4853 L 274.432,-11.4157 L 274.453,-11.351 L 274.479,-11.2911
 L 274.509,-11.2362 L 274.545,-11.1861 L 274.585,-11.141 L 274.629,-11.1006 L 274.678,-11.065 L 274.73,-11.0342
 L 274.786,-11.008 L 274.847,-10.9867 L 274.911,-10.9701 L 274.98,-10.9582 L 275.052,-10.9511 L 275.129,-10.9487
 z
M 43.6124,-11.5565 L 41.4861,-11.5565 L 41.4861,-14.3493 L 41.0136,-14.3493 L 41.0136,-11.5565 L 38.8873,-11.5565
 L 38.8873,-11.0875 L 43.6124,-11.0875 z
M 268.734,-10.9483 L 268.886,-10.9641 L 269.029,-10.9904 L 269.165,-11.0272 L 269.293,-11.0745 L 269.413,-11.1323
 L 269.525,-11.2006 L 269.629,-11.2795 L 269.725,-11.3688 L 269.813,-11.4675 L 269.89,-11.574 L 269.956,-11.6886
 L 270.013,-11.8112 L 270.059,-11.9417 L 270.095,-12.0802 L 270.121,-12.2267 L 270.136,-12.3812 L 270.141,-12.5437
 L 270.136,-12.7107 L 270.122,-12.8689 L 270.097,-13.0182 L 270.063,-13.1586 L 270.019,-13.2901 L 269.965,-13.4127
 L 269.901,-13.5264 L 269.827,-13.6312 L 269.744,-13.7271 L 269.651,-13.8134 L 269.55,-13.8897 L 269.439,-13.9557
 L 269.32,-14.0116 L 269.192,-14.0573 L 269.055,-14.0929 L 268.91,-14.1183 L 268.755,-14.1335 L 268.592,-14.1386
 L 268.432,-14.1334 L 268.28,-14.1176 L 268.136,-14.0913 L 268.001,-14.0545 L 267.873,-14.0072 L 267.754,-13.9494
 L 267.642,-13.881 L 267.539,-13.8022 L 267.444,-13.7128 L 267.358,-13.6143 L 267.282,-13.5079 L 267.216,-13.3937
 L 267.16,-13.2716 L 267.115,-13.1417 L 267.079,-13.004 L 267.054,-12.8584 L 267.039,-12.7049 L 267.034,-12.5437
 L 267.039,-12.3818 L 267.054,-12.2278 L 267.079,-12.0817 L 267.115,-11.9434 L 267.16,-11.813 L 267.216,-11.6905
 L 267.282,-11.5759 L 267.358,-11.4691 L 267.444,-11.3703 L 267.539,-11.2806 L 267.642,-11.2015 L 267.752,-11.1329
 L 267.87,-11.0749 L 267.996,-11.0274 L 268.129,-10.9905 L 268.27,-10.9641 L 268.418,-10.9483 L 268.575,-10.943
 z
M 268.493,-11.4932 L 268.425,-11.5032 L 268.36,-11.5198 L 268.299,-11.5431 L 268.242,-11.573 L 268.188,-11.6095
 L 268.139,-11.6527 L 268.094,-11.7025 L 268.052,-11.759 L 268.015,-11.8219 L 267.982,-11.8908 L 267.953,-11.9658
 L 267.929,-12.0469 L 267.909,-12.1341 L 267.894,-12.2274 L 267.883,-12.3267 L 267.876,-12.4322 L 267.874,-12.5437
 L 267.883,-12.7631 L 267.91,-12.9566 L 267.955,-13.1244 L 268.018,-13.2663 L 268.099,-13.3825 L 268.198,-13.4728
 L 268.315,-13.5373 L 268.45,-13.5761 L 268.603,-13.589 L 268.677,-13.5859 L 268.747,-13.5767 L 268.813,-13.5614
 L 268.875,-13.54 L 268.933,-13.5125 L 268.987,-13.4788 L 269.037,-13.4391 L 269.083,-13.3932 L 269.124,-13.3412
 L 269.162,-13.2824 L 269.195,-13.2161 L 269.224,-13.1424 L 269.248,-13.0613 L 269.268,-12.9727 L 269.284,-12.8766
 L 269.295,-12.7731 L 269.302,-12.6621 L 269.304,-12.5437 L 269.295,-12.3225 L 269.267,-12.1274 L 269.222,-11.9582
 L 269.158,-11.8151 L 269.076,-11.698 L 268.976,-11.607 L 268.858,-11.5419 L 268.721,-11.5029 L 268.566,-11.4899
 z
M 271.819,-10.945 L 271.891,-10.9509 L 271.961,-10.9608 L 272.028,-10.9745 L 272.093,-10.9923 L 272.156,-11.0139
 L 272.216,-11.0395 L 272.274,-11.0691 L 272.33,-11.1025 L 272.384,-11.1403 L 272.435,-11.1828 L 272.485,-11.2301
 L 272.532,-11.282 L 272.577,-11.3387 L 272.62,-11.4 L 272.661,-11.4661 L 272.7,-11.5369 L 272.736,-11.6124
 L 272.75,-11.6124 L 272.751,-11.5649 L 272.752,-11.5122 L 272.754,-11.4544 L 272.757,-11.3915 L 272.761,-11.3235
 L 272.765,-11.2503 L 272.771,-11.172 L 272.777,-11.0886 L 272.784,-11 L 273.548,-11 L 273.543,-11.067
 L 273.539,-11.1364 L 273.535,-11.2082 L 273.532,-11.2824 L 273.529,-11.359 L 273.528,-11.438 L 273.526,-11.5194
 L 273.525,-11.6031 L 273.525,-11.6893 L 273.525,-14.0817 L 272.725,-14.0817 L 272.725,-12.4298 L 272.722,-12.3448
 L 272.716,-12.2633 L 272.705,-12.1853 L 272.69,-12.1108 L 272.67,-12.0397 L 272.646,-11.9722 L 272.617,-11.9081
 L 272.584,-11.8475 L 272.547,-11.7904 L 272.506,-11.738 L 272.462,-11.6919 L 272.415,-11.6519 L 272.366,-11.6181
 L 272.314,-11.5904 L 272.259,-11.5688 L 272.202,-11.5534 L 272.141,-11.5442 L 272.078,-11.5411 L 271.963,-11.5511
 L 271.862,-11.5812 L 271.774,-11.6313 L 271.7,-11.7015 L 271.639,-11.7917 L 271.592,-11.9019 L 271.558,-12.0322
 L 271.538,-12.1825 L 271.531,-12.3529 L 271.531,-14.0817 L 270.731,-14.0817 L 270.731,-12.125 L 270.734,-11.9994
 L 270.744,-11.8806 L 270.76,-11.7688 L 270.783,-11.664 L 270.812,-11.566 L 270.847,-11.475 L 270.889,-11.3909
 L 270.938,-11.3138 L 270.993,-11.2435 L 271.054,-11.1805 L 271.121,-11.1248 L 271.193,-11.0766 L 271.271,-11.0358
 L 271.354,-11.0024 L 271.444,-10.9764 L 271.538,-10.9579 L 271.639,-10.9468 L 271.745,-10.943 z
M 42.9072,-10.5128 L 39.5925,-10.5128 L 39.5925,-10.0438 L 42.9072,-10.0438 z
M 42.2019,-9.46899 L 40.2978,-9.46899 L 40.2978,-9 L 42.2019,-9 z
" stroke="black" fill="lightgray" stroke-width="0.5"/>
</svg>
