<?xml version="1.0" standalone="no"?>
<!DOCTYPE svg PUBLIC "-//W3C//DTD SVG 1.1//EN" "http://www.w3.org/Graphics/SVG/1.1/DTD/svg11.dtd">
<svg width="308mm" height="171mm" viewBox="1 -172 308 171" xmlns="http://www.w3.org/2000/svg" version="1.1">
<title>OpenSCAD Model</title>
<path d="
M 309,-172 L 228.5,-172 L 228.5,-137 L 228.495,-136.902 L 228.481,-136.805 L 228.457,-136.71
 L 228.424,-136.617 L 228.382,-136.529 L 228.331,-136.444 L 228.273,-136.366 L 228.207,-136.293 L 228.134,-136.227
 L 228.056,-136.169 L 227.971,-136.118 L 227.883,-136.076 L 227.79,-136.043 L 227.695,-136.019 L 227.598,-136.005
 L 227.5,-136 L 82.5,-136 L 82.402,-136.005 L 82.3049,-136.019 L 82.2097,-136.043 L 82.1173,-136.076
 L 82.0286,-136.118 L 81.9444,-136.169 L 81.8656,-136.227 L 81.7929,-136.293 L 81.727,-136.366 L 81.6685,-136.444
 L 81.6181,-136.529 L 81.5761,-136.617 L 81.5431,-136.71 L 81.5192,-136.805 L 81.5048,-136.902 L 81.5,-137
 L 81.5,-172 L 1,-172 L 1,-1 L 309,-1 z
M 2,-2 L 2,-171 L 80.5,-171 L 80.5,-137 L 80.5012,-136.951 L 80.506,-136.853
 L 80.5156,-136.755 L 80.53,-136.658 L 80.5492,-136.562 L 80.573,-136.467 L 80.6015,-136.373 L 80.6346,-136.28
 L 80.6721,-136.19 L 80.7141,-136.101 L 80.7604,-136.014 L 80.8108,-135.93 L 80.8653,-135.849 L 80.9238,-135.77
 L 80.9861,-135.694 L 81.052,-135.621 L 81.1213,-135.552 L 81.194,-135.486 L 81.2699,-135.424 L 81.3488,-135.365
 L 81.4303,-135.311 L 81.5145,-135.26 L 81.6011,-135.214 L 81.6898,-135.172 L 81.7804,-135.135 L 81.8728,-135.102
 L 81.9667,-135.073 L 82.0619,-135.049 L 82.1583,-135.03 L 82.2553,-135.016 L 82.3528,-135.006 L 82.4509,-135.001
 L 82.5,-135 L 227.5,-135 L 227.549,-135.001 L 227.647,-135.006 L 227.745,-135.016 L 227.842,-135.03
 L 227.938,-135.049 L 228.033,-135.073 L 228.127,-135.102 L 228.22,-135.135 L 228.31,-135.172 L 228.399,-135.214
 L 228.486,-135.26 L 228.57,-135.311 L 228.651,-135.365 L 228.73,-135.424 L 228.806,-135.486 L 228.879,-135.552
 L 228.948,-135.621 L 229.014,-135.694 L 229.076,-135.77 L 229.135,-135.849 L 229.189,-135.93 L 229.24,-136.014
 L 229.286,-136.101 L 229.328,-136.19 L 229.365,-136.28 L 229.398,-136.373 L 229.427,-136.467 L 229.451,-136.562
 L 229.47,-136.658 L 229.484,-136.755 L 229.494,-136.853 L 229.499,-136.951 L 229.5,-137 L 229.5,-171
 L 308,-171 L 308,-2 z
M 33.9915,-131.004 L 34.1418,-131.015 L 34.2841,-131.033 L 34.4185,-131.059 L 34.5451,-131.092 L 34.6638,-131.133
 L 34.7747,-131.181 L 34.8776,-131.236 L 34.9727,-131.299 L 35.0588,-131.369 L 35.1347,-131.444 L 35.2005,-131.526
 L 35.2563,-131.614 L 35.3018,-131.708 L 35.3373,-131.808 L 35.3626,-131.914 L 35.3778,-132.026 L 35.3828,-132.145
 L 35.3797,-132.234 L 35.3702,-132.319 L 35.3545,-132.4 L 35.3325,-132.478 L 35.3042,-132.551 L 35.2695,-132.62
 L 35.2286,-132.686 L 35.1814,-132.747 L 35.1279,-132.804 L 35.0684,-132.857 L 35.0032,-132.906 L 34.9322,-132.949
 L 34.8555,-132.988 L 34.7731,-133.022 L 34.6849,-133.051 L 34.591,-133.076 L 34.4914,-133.095 L 34.386,-133.11
 L 34.4696,-133.131 L 34.5484,-133.155 L 34.6222,-133.182 L 34.6912,-133.214 L 34.7553,-133.249 L 34.8145,-133.288
 L 34.8688,-133.331 L 34.9182,-133.378 L 34.9627,-133.428 L 35.0025,-133.482 L 35.0375,-133.538 L 35.0679,-133.597
 L 35.0937,-133.658 L 35.1147,-133.722 L 35.1311,-133.789 L 35.1428,-133.858 L 35.1498,-133.93 L 35.1521,-134.005
 L 35.1475,-134.113 L 35.1335,-134.214 L 35.1102,-134.31 L 35.0776,-134.4 L 35.0357,-134.483 L 34.9844,-134.561
 L 34.9238,-134.633 L 34.854,-134.698 L 34.7748,-134.758 L 34.6865,-134.812 L 34.5894,-134.859 L 34.4835,-134.9
 L 34.3687,-134.934 L 34.2451,-134.963 L 34.1127,-134.985 L 33.9715,-135 L 33.8214,-135.01 L 33.6626,-135.013
 L 31.8255,-135.013 L 31.8255,-131 L 33.8335,-131 z
M 32.6657,-133.395 L 32.6657,-134.389 L 33.6227,-134.389 L 33.696,-134.388 L 33.7651,-134.384 L 33.8301,-134.377
 L 33.8911,-134.367 L 33.9479,-134.354 L 34.0005,-134.339 L 34.0491,-134.32 L 34.0936,-134.299 L 34.1339,-134.275
 L 34.1701,-134.248 L 34.202,-134.217 L 34.2297,-134.182 L 34.2531,-134.143 L 34.2722,-134.1 L 34.2871,-134.054
 L 34.2977,-134.003 L 34.3041,-133.949 L 34.3062,-133.891 L 34.3043,-133.837 L 34.2983,-133.787 L 34.2884,-133.739
 L 34.2745,-133.695 L 34.2566,-133.654 L 34.2347,-133.616 L 34.2089,-133.58 L 34.1791,-133.548 L 34.1453,-133.519
 L 34.1071,-133.493 L 34.0642,-133.47 L 34.0164,-133.45 L 33.9637,-133.433 L 33.9063,-133.42 L 33.8441,-133.409
 L 33.777,-133.401 L 33.7051,-133.397 L 33.6284,-133.395 z
M 32.6657,-131.624 L 32.6657,-132.774 L 33.7309,-132.774 L 33.9007,-132.767 L 34.0505,-132.747 L 34.1803,-132.712
 L 34.2902,-132.663 L 34.38,-132.6 L 34.4499,-132.524 L 34.4999,-132.433 L 34.5298,-132.329 L 34.5398,-132.21
 L 34.5375,-132.147 L 34.5306,-132.087 L 34.5191,-132.031 L 34.503,-131.979 L 34.4822,-131.93 L 34.4569,-131.884
 L 34.427,-131.843 L 34.3924,-131.805 L 34.3532,-131.77 L 34.3091,-131.74 L 34.2596,-131.712 L 34.2047,-131.689
 L 34.1444,-131.669 L 34.0787,-131.653 L 34.0077,-131.64 L 33.9312,-131.631 L 33.8494,-131.626 L 33.7623,-131.624
 z
M 261.492,-131.004 L 261.642,-131.015 L 261.784,-131.033 L 261.919,-131.059 L 262.045,-131.092 L 262.164,-131.133
 L 262.275,-131.181 L 262.378,-131.236 L 262.473,-131.299 L 262.559,-131.369 L 262.635,-131.444 L 262.701,-131.526
 L 262.756,-131.614 L 262.802,-131.708 L 262.837,-131.808 L 262.863,-131.914 L 262.878,-132.026 L 262.883,-132.145
 L 262.88,-132.234 L 262.87,-132.319 L 262.855,-132.4 L 262.832,-132.478 L 262.804,-132.551 L 262.77,-132.62
 L 262.729,-132.686 L 262.681,-132.747 L 262.628,-132.804 L 262.568,-132.857 L 262.503,-132.906 L 262.432,-132.949
 L 262.355,-132.988 L 262.273,-133.022 L 262.185,-133.051 L 262.091,-133.076 L 261.991,-133.095 L 261.886,-133.11
 L 261.97,-133.131 L 262.048,-133.155 L 262.122,-133.182 L 262.191,-133.214 L 262.255,-133.249 L 262.314,-133.288
 L 262.369,-133.331 L 262.418,-133.378 L 262.463,-133.428 L 262.502,-133.482 L 262.538,-133.538 L 262.568,-133.597
 L 262.594,-133.658 L 262.615,-133.722 L 262.631,-133.789 L 262.643,-133.858 L 262.65,-133.93 L 262.652,-134.005
 L 262.647,-134.113 L 262.633,-134.214 L 262.61,-134.31 L 262.578,-134.4 L 262.536,-134.483 L 262.484,-134.561
 L 262.424,-134.633 L 262.354,-134.698 L 262.275,-134.758 L 262.186,-134.812 L 262.089,-134.859 L 261.983,-134.9
 L 261.869,-134.934 L 261.745,-134.963 L 261.613,-134.985 L 261.471,-135 L 261.321,-135.01 L 261.163,-135.013
 L 259.326,-135.013 L 259.326,-131 L 261.333,-131 z
M 260.166,-133.395 L 260.166,-134.389 L 261.123,-134.389 L 261.196,-134.388 L 261.265,-134.384 L 261.33,-134.377
 L 261.391,-134.367 L 261.448,-134.354 L 261.501,-134.339 L 261.549,-134.32 L 261.594,-134.299 L 261.634,-134.275
 L 261.67,-134.248 L 261.702,-134.217 L 261.73,-134.182 L 261.753,-134.143 L 261.772,-134.1 L 261.787,-134.054
 L 261.798,-134.003 L 261.804,-133.949 L 261.806,-133.891 L 261.804,-133.837 L 261.798,-133.787 L 261.788,-133.739
 L 261.774,-133.695 L 261.757,-133.654 L 261.735,-133.616 L 261.709,-133.58 L 261.679,-133.548 L 261.645,-133.519
 L 261.607,-133.493 L 261.564,-133.47 L 261.516,-133.45 L 261.464,-133.433 L 261.406,-133.42 L 261.344,-133.409
 L 261.277,-133.401 L 261.205,-133.397 L 261.128,-133.395 z
M 260.166,-131.624 L 260.166,-132.774 L 261.231,-132.774 L 261.401,-132.767 L 261.55,-132.747 L 261.68,-132.712
 L 261.79,-132.663 L 261.88,-132.6 L 261.95,-132.524 L 262,-132.433 L 262.03,-132.329 L 262.04,-132.21
 L 262.038,-132.147 L 262.031,-132.087 L 262.019,-132.031 L 262.003,-131.979 L 261.982,-131.93 L 261.957,-131.884
 L 261.927,-131.843 L 261.892,-131.805 L 261.853,-131.77 L 261.809,-131.74 L 261.76,-131.712 L 261.705,-131.689
 L 261.644,-131.669 L 261.579,-131.653 L 261.508,-131.64 L 261.431,-131.631 L 261.349,-131.626 L 261.262,-131.624
 z
M 267.497,-130.95 L 267.578,-130.954 L 267.657,-130.959 L 267.734,-130.968 L 267.809,-130.979 L 267.882,-130.992
 L 267.953,-131.007 L 268.022,-131.025 L 268.089,-131.046 L 268.089,-131.541 L 268.051,-131.533 L 268.015,-131.525
 L 267.982,-131.519 L 267.95,-131.514 L 267.92,-131.509 L 267.892,-131.506 L 267.867,-131.503 L 267.843,-131.502
 L 267.821,-131.501 L 267.782,-131.503 L 267.746,-131.507 L 267.712,-131.513 L 267.68,-131.522 L 267.651,-131.534
 L 267.623,-131.549 L 267.599,-131.566 L 267.576,-131.586 L 267.556,-131.608 L 267.538,-131.633 L 267.522,-131.661
 L 267.509,-131.692 L 267.497,-131.726 L 267.487,-131.763 L 267.48,-131.803 L 267.475,-131.846 L 267.472,-131.891
 L 267.471,-131.94 L 267.471,-133.541 L 268.054,-133.541 L 268.054,-134.082 L 267.471,-134.082 L 267.471,-134.805
 L 266.969,-134.805 L 266.719,-134.082 L 266.289,-134.082 L 266.289,-133.541 L 266.679,-133.541 L 266.679,-131.723
 L 266.681,-131.639 L 266.688,-131.56 L 266.7,-131.485 L 266.717,-131.416 L 266.738,-131.351 L 266.764,-131.291
 L 266.794,-131.236 L 266.83,-131.186 L 266.87,-131.141 L 266.914,-131.101 L 266.962,-131.065 L 267.015,-131.034
 L 267.071,-131.008 L 267.132,-130.987 L 267.196,-130.97 L 267.265,-130.958 L 267.337,-130.951 L 267.414,-130.949
 z
M 41.8938,-130.95 L 41.9749,-130.954 L 42.054,-130.959 L 42.131,-130.968 L 42.206,-130.979 L 42.279,-130.992
 L 42.3499,-131.007 L 42.4188,-131.025 L 42.4856,-131.046 L 42.4856,-131.541 L 42.448,-131.533 L 42.4124,-131.525
 L 42.3787,-131.519 L 42.347,-131.514 L 42.3172,-131.509 L 42.2894,-131.506 L 42.2636,-131.503 L 42.2398,-131.502
 L 42.2179,-131.501 L 42.1792,-131.503 L 42.1428,-131.507 L 42.1087,-131.513 L 42.077,-131.522 L 42.0475,-131.534
 L 42.0204,-131.549 L 41.9957,-131.566 L 41.9732,-131.586 L 41.953,-131.608 L 41.9351,-131.633 L 41.9193,-131.661
 L 41.9056,-131.692 L 41.894,-131.726 L 41.8845,-131.763 L 41.8771,-131.803 L 41.8718,-131.846 L 41.8687,-131.891
 L 41.8676,-131.94 L 41.8676,-133.541 L 42.4514,-133.541 L 42.4514,-134.082 L 41.8676,-134.082 L 41.8676,-134.805
 L 41.3663,-134.805 L 41.1157,-134.082 L 40.6856,-134.082 L 40.6856,-133.541 L 41.0758,-133.541 L 41.0758,-131.723
 L 41.0782,-131.639 L 41.0853,-131.56 L 41.097,-131.485 L 41.1135,-131.416 L 41.1347,-131.351 L 41.1606,-131.291
 L 41.1913,-131.236 L 41.2266,-131.186 L 41.2666,-131.141 L 41.3111,-131.101 L 41.3595,-131.065 L 41.4119,-131.034
 L 41.4683,-131.008 L 41.5288,-130.987 L 41.5932,-130.97 L 41.6617,-130.958 L 41.7341,-130.951 L 41.8106,-130.949
 z
M 269.394,-130.95 L 269.475,-130.954 L 269.554,-130.959 L 269.631,-130.968 L 269.706,-130.979 L 269.779,-130.992
 L 269.85,-131.007 L 269.919,-131.025 L 269.986,-131.046 L 269.986,-131.541 L 269.948,-131.533 L 269.912,-131.525
 L 269.879,-131.519 L 269.847,-131.514 L 269.817,-131.509 L 269.789,-131.506 L 269.764,-131.503 L 269.74,-131.502
 L 269.718,-131.501 L 269.679,-131.503 L 269.643,-131.507 L 269.609,-131.513 L 269.577,-131.522 L 269.548,-131.534
 L 269.52,-131.549 L 269.496,-131.566 L 269.473,-131.586 L 269.453,-131.608 L 269.435,-131.633 L 269.419,-131.661
 L 269.406,-131.692 L 269.394,-131.726 L 269.384,-131.763 L 269.377,-131.803 L 269.372,-131.846 L 269.369,-131.891
 L 269.368,-131.94 L 269.368,-133.541 L 269.951,-133.541 L 269.951,-134.082 L 269.368,-134.082 L 269.368,-134.805
 L 268.866,-134.805 L 268.616,-134.082 L 268.186,-134.082 L 268.186,-133.541 L 268.576,-133.541 L 268.576,-131.723
 L 268.578,-131.639 L 268.585,-131.56 L 268.597,-131.485 L 268.614,-131.416 L 268.635,-131.351 L 268.661,-131.291
 L 268.691,-131.236 L 268.727,-131.186 L 268.767,-131.141 L 268.811,-131.101 L 268.859,-131.065 L 268.912,-131.034
 L 268.968,-131.008 L 269.029,-130.987 L 269.093,-130.97 L 269.162,-130.958 L 269.234,-130.951 L 269.311,-130.949
 z
M 39.9968,-130.95 L 40.0779,-130.954 L 40.157,-130.959 L 40.234,-130.968 L 40.309,-130.979 L 40.382,-130.992
 L 40.4529,-131.007 L 40.5218,-131.025 L 40.5886,-131.046 L 40.5886,-131.541 L 40.551,-131.533 L 40.5154,-131.525
 L 40.4817,-131.519 L 40.45,-131.514 L 40.4202,-131.509 L 40.3924,-131.506 L 40.3666,-131.503 L 40.3428,-131.502
 L 40.3209,-131.501 L 40.2822,-131.503 L 40.2458,-131.507 L 40.2117,-131.513 L 40.18,-131.522 L 40.1505,-131.534
 L 40.1234,-131.549 L 40.0986,-131.566 L 40.0762,-131.586 L 40.056,-131.608 L 40.0381,-131.633 L 40.0223,-131.661
 L 40.0086,-131.692 L 39.997,-131.726 L 39.9875,-131.763 L 39.9801,-131.803 L 39.9748,-131.846 L 39.9717,-131.891
 L 39.9706,-131.94 L 39.9706,-133.541 L 40.5545,-133.541 L 40.5545,-134.082 L 39.9706,-134.082 L 39.9706,-134.805
 L 39.4693,-134.805 L 39.2187,-134.082 L 38.7886,-134.082 L 38.7886,-133.541 L 39.1788,-133.541 L 39.1788,-131.723
 L 39.1812,-131.639 L 39.1882,-131.56 L 39.2,-131.485 L 39.2165,-131.416 L 39.2377,-131.351 L 39.2636,-131.291
 L 39.2943,-131.236 L 39.3296,-131.186 L 39.3696,-131.141 L 39.414,-131.101 L 39.4625,-131.065 L 39.5149,-131.034
 L 39.5713,-131.008 L 39.6318,-130.987 L 39.6962,-130.97 L 39.7647,-130.958 L 39.8371,-130.951 L 39.9136,-130.949
 z
M 274.387,-132.512 L 274.389,-132.615 L 274.395,-132.712 L 274.406,-132.803 L 274.42,-132.889 L 274.439,-132.969
 L 274.461,-133.043 L 274.488,-133.111 L 274.519,-133.173 L 274.554,-133.23 L 274.592,-133.281 L 274.634,-133.326
 L 274.68,-133.365 L 274.728,-133.397 L 274.78,-133.424 L 274.835,-133.445 L 274.893,-133.46 L 274.955,-133.469
 L 275.019,-133.472 L 275.053,-133.472 L 275.088,-133.47 L 275.123,-133.467 L 275.16,-133.464 L 275.198,-133.459
 L 275.237,-133.453 L 275.277,-133.446 L 275.319,-133.438 L 275.361,-133.429 L 275.361,-134.099 L 275.34,-134.108
 L 275.317,-134.116 L 275.292,-134.122 L 275.266,-134.128 L 275.238,-134.133 L 275.209,-134.137 L 275.179,-134.139
 L 275.147,-134.141 L 275.113,-134.141 L 275.072,-134.141 L 275.033,-134.138 L 274.995,-134.134 L 274.959,-134.129
 L 274.924,-134.122 L 274.891,-134.113 L 274.859,-134.103 L 274.829,-134.091 L 274.8,-134.077 L 274.773,-134.062
 L 274.746,-134.046 L 274.72,-134.027 L 274.696,-134.007 L 274.671,-133.985 L 274.648,-133.962 L 274.626,-133.936
 L 274.604,-133.909 L 274.584,-133.881 L 274.563,-133.849 L 274.542,-133.812 L 274.52,-133.771 L 274.498,-133.725
 L 274.475,-133.674 L 274.451,-133.619 L 274.426,-133.559 L 274.401,-133.494 L 274.376,-133.424 L 274.364,-133.424
 L 274.364,-133.445 L 274.364,-133.47 L 274.363,-133.5 L 274.362,-133.534 L 274.36,-133.573 L 274.358,-133.616
 L 274.356,-133.663 L 274.353,-133.714 L 274.35,-133.77 L 274.347,-133.825 L 274.344,-133.875 L 274.341,-133.92
 L 274.339,-133.96 L 274.336,-133.995 L 274.334,-134.024 L 274.331,-134.049 L 274.329,-134.068 L 274.327,-134.082
 L 273.564,-134.082 L 273.566,-134.052 L 273.568,-134.022 L 273.57,-133.99 L 273.571,-133.958 L 273.573,-133.924
 L 273.575,-133.89 L 273.577,-133.855 L 273.578,-133.818 L 273.58,-133.781 L 273.581,-133.742 L 273.583,-133.702
 L 273.584,-133.659 L 273.585,-133.614 L 273.585,-133.567 L 273.586,-133.518 L 273.587,-133.467 L 273.587,-133.414
 L 273.587,-133.358 L 273.587,-131 L 274.387,-131 z
M 46.8872,-132.512 L 46.8893,-132.615 L 46.8954,-132.712 L 46.9057,-132.803 L 46.9201,-132.889 L 46.9386,-132.969
 L 46.9613,-133.043 L 46.988,-133.111 L 47.0189,-133.173 L 47.0538,-133.23 L 47.0925,-133.281 L 47.1344,-133.326
 L 47.1796,-133.365 L 47.2281,-133.397 L 47.2798,-133.424 L 47.3348,-133.445 L 47.3931,-133.46 L 47.4547,-133.469
 L 47.5195,-133.472 L 47.553,-133.472 L 47.5876,-133.47 L 47.6233,-133.467 L 47.6601,-133.464 L 47.6981,-133.459
 L 47.7372,-133.453 L 47.7774,-133.446 L 47.8188,-133.438 L 47.8613,-133.429 L 47.8613,-134.099 L 47.8396,-134.108
 L 47.8165,-134.116 L 47.792,-134.122 L 47.7659,-134.128 L 47.7384,-134.133 L 47.7094,-134.137 L 47.6789,-134.139
 L 47.6469,-134.141 L 47.6135,-134.141 L 47.5725,-134.141 L 47.533,-134.138 L 47.4951,-134.134 L 47.4588,-134.129
 L 47.424,-134.122 L 47.3907,-134.113 L 47.359,-134.103 L 47.3288,-134.091 L 47.3002,-134.077 L 47.2728,-134.062
 L 47.2462,-134.046 L 47.2204,-134.027 L 47.1955,-134.007 L 47.1715,-133.985 L 47.1483,-133.962 L 47.1259,-133.936
 L 47.1044,-133.909 L 47.0837,-133.881 L 47.0632,-133.849 L 47.042,-133.812 L 47.0201,-133.771 L 46.9977,-133.725
 L 46.9745,-133.674 L 46.9508,-133.619 L 46.9264,-133.559 L 46.9014,-133.494 L 46.8758,-133.424 L 46.8644,-133.424
 L 46.8642,-133.445 L 46.8637,-133.47 L 46.8628,-133.5 L 46.8616,-133.534 L 46.86,-133.573 L 46.8581,-133.616
 L 46.8558,-133.663 L 46.8532,-133.714 L 46.8502,-133.77 L 46.8471,-133.825 L 46.8441,-133.875 L 46.8413,-133.92
 L 46.8386,-133.96 L 46.8361,-133.995 L 46.8337,-134.024 L 46.8315,-134.049 L 46.8293,-134.068 L 46.8274,-134.082
 L 46.0641,-134.082 L 46.066,-134.052 L 46.0678,-134.022 L 46.0696,-133.99 L 46.0714,-133.958 L 46.0731,-133.924
 L 46.0748,-133.89 L 46.0765,-133.855 L 46.0781,-133.818 L 46.0797,-133.781 L 46.0812,-133.742 L 46.0826,-133.702
 L 46.0837,-133.659 L 46.0847,-133.614 L 46.0855,-133.567 L 46.0861,-133.518 L 46.0865,-133.467 L 46.0868,-133.414
 L 46.0869,-133.358 L 46.0869,-131 L 46.8872,-131 z
M 36.815,-130.951 L 36.9529,-130.973 L 37.0825,-131.01 L 37.2036,-131.063 L 37.3163,-131.13 L 37.4205,-131.213
 L 37.5163,-131.31 L 37.6036,-131.422 L 37.6825,-131.55 L 37.6996,-131.55 L 37.7073,-131.487 L 37.7179,-131.429
 L 37.7314,-131.373 L 37.7477,-131.322 L 37.7668,-131.273 L 37.7888,-131.228 L 37.8137,-131.187 L 37.8414,-131.149
 L 37.8719,-131.114 L 37.9058,-131.083 L 37.9436,-131.055 L 37.9854,-131.032 L 38.031,-131.012 L 38.0805,-130.995
 L 38.1339,-130.982 L 38.1913,-130.973 L 38.2525,-130.968 L 38.3176,-130.966 L 38.3363,-130.966 L 38.3546,-130.966
 L 38.3722,-130.966 L 38.3894,-130.967 L 38.406,-130.968 L 38.4221,-130.968 L 38.4376,-130.969 L 38.4527,-130.97
 L 38.4671,-130.972 L 38.4813,-130.973 L 38.4953,-130.974 L 38.5091,-130.976 L 38.5227,-130.977 L 38.5362,-130.979
 L 38.5494,-130.98 L 38.5625,-130.982 L 38.5755,-130.984 L 38.5882,-130.986 L 38.6009,-130.988 L 38.6135,-130.99
 L 38.6262,-130.992 L 38.6388,-130.994 L 38.6515,-130.997 L 38.6641,-131 L 38.6768,-131.002 L 38.6895,-131.005
 L 38.7021,-131.009 L 38.7417,-131.018 L 38.7844,-131.029 L 38.8303,-131.04 L 38.8303,-131.473 L 38.8112,-131.469
 L 38.792,-131.466 L 38.7727,-131.463 L 38.7532,-131.461 L 38.7336,-131.459 L 38.7138,-131.458 L 38.6939,-131.457
 L 38.6739,-131.456 L 38.6537,-131.456 L 38.6243,-131.457 L 38.5968,-131.461 L 38.5713,-131.467 L 38.5477,-131.475
 L 38.526,-131.486 L 38.5062,-131.499 L 38.4884,-131.515 L 38.4725,-131.533 L 38.4586,-131.554 L 38.4463,-131.578
 L 38.4355,-131.606 L 38.4261,-131.637 L 38.4182,-131.673 L 38.4117,-131.713 L 38.4067,-131.756 L 38.4031,-131.804
 L 38.4009,-131.856 L 38.4002,-131.911 L 38.4002,-133.034 L 38.3963,-133.148 L 38.3846,-133.257 L 38.3651,-133.36
 L 38.3378,-133.457 L 38.3026,-133.547 L 38.2597,-133.632 L 38.209,-133.711 L 38.1504,-133.784 L 38.0841,-133.851
 L 38.0105,-133.911 L 37.9303,-133.965 L 37.8436,-134.011 L 37.7502,-134.05 L 37.6502,-134.082 L 37.5436,-134.107
 L 37.4303,-134.124 L 37.3105,-134.135 L 37.1841,-134.139 L 37.0586,-134.136 L 36.9391,-134.127 L 36.8257,-134.113
 L 36.7182,-134.093 L 36.6168,-134.067 L 36.5214,-134.035 L 36.432,-133.998 L 36.3486,-133.955 L 36.2712,-133.906
 L 36.2,-133.852 L 36.1352,-133.793 L 36.0768,-133.728 L 36.0247,-133.657 L 35.979,-133.581 L 35.9396,-133.5
 L 35.9066,-133.414 L 35.88,-133.322 L 35.8597,-133.224 L 36.6942,-133.184 L 36.7009,-133.235 L 36.7095,-133.282
 L 36.72,-133.325 L 36.7325,-133.366 L 36.7469,-133.403 L 36.7632,-133.437 L 36.7814,-133.468 L 36.8017,-133.495
 L 36.8238,-133.519 L 36.8483,-133.54 L 36.8758,-133.559 L 36.9062,-133.575 L 36.9395,-133.589 L 36.9758,-133.6
 L 37.0149,-133.609 L 37.057,-133.615 L 37.102,-133.619 L 37.1499,-133.62 L 37.2014,-133.618 L 37.2496,-133.613
 L 37.2945,-133.604 L 37.3361,-133.591 L 37.3744,-133.575 L 37.4094,-133.555 L 37.4411,-133.532 L 37.4695,-133.504
 L 37.4945,-133.474 L 37.5166,-133.439 L 37.5361,-133.401 L 37.5531,-133.359 L 37.5674,-133.313 L 37.5791,-133.263
 L 37.5882,-133.209 L 37.5947,-133.152 L 37.5986,-133.09 L 37.5999,-133.025 L 37.5999,-132.868 L 36.9363,-132.857
 L 36.8081,-132.853 L 36.6869,-132.842 L 36.5725,-132.826 L 36.4651,-132.804 L 36.3646,-132.775 L 36.2711,-132.74
 L 36.1845,-132.7 L 36.1048,-132.653 L 36.032,-132.601 L 35.9665,-132.542 L 35.9088,-132.478 L 35.8587,-132.408
 L 35.8164,-132.333 L 35.7817,-132.252 L 35.7548,-132.165 L 35.7355,-132.073 L 35.724,-131.975 L 35.7201,-131.872
 L 35.7232,-131.776 L 35.7325,-131.685 L 35.748,-131.599 L 35.7697,-131.518 L 35.7975,-131.442 L 35.8315,-131.371
 L 35.8717,-131.305 L 35.9182,-131.243 L 35.9708,-131.187 L 36.0289,-131.135 L 36.0919,-131.09 L 36.1597,-131.051
 L 36.2324,-131.018 L 36.3099,-130.991 L 36.3923,-130.97 L 36.4795,-130.955 L 36.5716,-130.946 L 36.6685,-130.943
 z
M 36.8884,-131.503 L 36.8535,-131.507 L 36.8203,-131.513 L 36.7887,-131.522 L 36.7588,-131.534 L 36.7306,-131.549
 L 36.704,-131.566 L 36.679,-131.586 L 36.6557,-131.608 L 36.6345,-131.633 L 36.6158,-131.661 L 36.5996,-131.692
 L 36.5858,-131.725 L 36.5746,-131.761 L 36.5659,-131.8 L 36.5596,-131.842 L 36.5559,-131.887 L 36.5546,-131.934
 L 36.5554,-131.971 L 36.5577,-132.007 L 36.5614,-132.041 L 36.5667,-132.073 L 36.5735,-132.103 L 36.5819,-132.132
 L 36.5917,-132.159 L 36.603,-132.184 L 36.6159,-132.208 L 36.6302,-132.23 L 36.6458,-132.251 L 36.6629,-132.27
 L 36.6813,-132.288 L 36.701,-132.305 L 36.7222,-132.321 L 36.7447,-132.335 L 36.7686,-132.348 L 36.7939,-132.36
 L 36.8218,-132.371 L 36.8538,-132.38 L 36.8898,-132.389 L 36.9297,-132.397 L 36.9737,-132.403 L 37.0217,-132.409
 L 37.0737,-132.414 L 37.1297,-132.418 L 37.1898,-132.421 L 37.5999,-132.427 L 37.5999,-132.27 L 37.5988,-132.226
 L 37.5955,-132.181 L 37.5901,-132.138 L 37.5825,-132.095 L 37.5726,-132.052 L 37.5607,-132.01 L 37.5465,-131.969
 L 37.5301,-131.928 L 37.5116,-131.887 L 37.4912,-131.848 L 37.4691,-131.811 L 37.4453,-131.775 L 37.4199,-131.742
 L 37.3929,-131.71 L 37.3642,-131.681 L 37.3338,-131.653 L 37.3018,-131.628 L 37.2681,-131.604 L 37.2332,-131.582
 L 37.1975,-131.563 L 37.161,-131.547 L 37.1236,-131.533 L 37.0855,-131.522 L 37.0466,-131.513 L 37.0068,-131.506
 L 36.9662,-131.503 L 36.9249,-131.501 z
M 264.315,-130.951 L 264.453,-130.973 L 264.582,-131.01 L 264.704,-131.063 L 264.816,-131.13 L 264.92,-131.213
 L 265.016,-131.31 L 265.104,-131.422 L 265.183,-131.55 L 265.2,-131.55 L 265.207,-131.487 L 265.218,-131.429
 L 265.231,-131.373 L 265.248,-131.322 L 265.267,-131.273 L 265.289,-131.228 L 265.314,-131.187 L 265.341,-131.149
 L 265.372,-131.114 L 265.406,-131.083 L 265.444,-131.055 L 265.485,-131.032 L 265.531,-131.012 L 265.581,-130.995
 L 265.634,-130.982 L 265.691,-130.973 L 265.753,-130.968 L 265.818,-130.966 L 265.836,-130.966 L 265.855,-130.966
 L 265.872,-130.966 L 265.889,-130.967 L 265.906,-130.968 L 265.922,-130.968 L 265.938,-130.969 L 265.953,-130.97
 L 265.967,-130.972 L 265.981,-130.973 L 265.995,-130.974 L 266.009,-130.976 L 266.023,-130.977 L 266.036,-130.979
 L 266.049,-130.98 L 266.063,-130.982 L 266.075,-130.984 L 266.088,-130.986 L 266.101,-130.988 L 266.114,-130.99
 L 266.126,-130.992 L 266.139,-130.994 L 266.151,-130.997 L 266.164,-131 L 266.177,-131.002 L 266.189,-131.005
 L 266.202,-131.009 L 266.242,-131.018 L 266.284,-131.029 L 266.33,-131.04 L 266.33,-131.473 L 266.311,-131.469
 L 266.292,-131.466 L 266.273,-131.463 L 266.253,-131.461 L 266.234,-131.459 L 266.214,-131.458 L 266.194,-131.457
 L 266.174,-131.456 L 266.154,-131.456 L 266.124,-131.457 L 266.097,-131.461 L 266.071,-131.467 L 266.048,-131.475
 L 266.026,-131.486 L 266.006,-131.499 L 265.988,-131.515 L 265.973,-131.533 L 265.959,-131.554 L 265.946,-131.578
 L 265.936,-131.606 L 265.926,-131.637 L 265.918,-131.673 L 265.912,-131.713 L 265.907,-131.756 L 265.903,-131.804
 L 265.901,-131.856 L 265.9,-131.911 L 265.9,-133.034 L 265.896,-133.148 L 265.885,-133.257 L 265.865,-133.36
 L 265.838,-133.457 L 265.803,-133.547 L 265.76,-133.632 L 265.709,-133.711 L 265.65,-133.784 L 265.584,-133.851
 L 265.511,-133.911 L 265.43,-133.965 L 265.344,-134.011 L 265.25,-134.05 L 265.15,-134.082 L 265.044,-134.107
 L 264.93,-134.124 L 264.811,-134.135 L 264.684,-134.139 L 264.559,-134.136 L 264.439,-134.127 L 264.326,-134.113
 L 264.218,-134.093 L 264.117,-134.067 L 264.021,-134.035 L 263.932,-133.998 L 263.849,-133.955 L 263.771,-133.906
 L 263.7,-133.852 L 263.635,-133.793 L 263.577,-133.728 L 263.525,-133.657 L 263.479,-133.581 L 263.44,-133.5
 L 263.407,-133.414 L 263.38,-133.322 L 263.36,-133.224 L 264.194,-133.184 L 264.201,-133.235 L 264.209,-133.282
 L 264.22,-133.325 L 264.232,-133.366 L 264.247,-133.403 L 264.263,-133.437 L 264.281,-133.468 L 264.302,-133.495
 L 264.324,-133.519 L 264.348,-133.54 L 264.376,-133.559 L 264.406,-133.575 L 264.44,-133.589 L 264.476,-133.6
 L 264.515,-133.609 L 264.557,-133.615 L 264.602,-133.619 L 264.65,-133.62 L 264.701,-133.618 L 264.75,-133.613
 L 264.795,-133.604 L 264.836,-133.591 L 264.874,-133.575 L 264.909,-133.555 L 264.941,-133.532 L 264.969,-133.504
 L 264.995,-133.474 L 265.017,-133.439 L 265.036,-133.401 L 265.053,-133.359 L 265.067,-133.313 L 265.079,-133.263
 L 265.088,-133.209 L 265.095,-133.152 L 265.099,-133.09 L 265.1,-133.025 L 265.1,-132.868 L 264.436,-132.857
 L 264.308,-132.853 L 264.187,-132.842 L 264.073,-132.826 L 263.965,-132.804 L 263.865,-132.775 L 263.771,-132.74
 L 263.684,-132.7 L 263.605,-132.653 L 263.532,-132.601 L 263.467,-132.542 L 263.409,-132.478 L 263.359,-132.408
 L 263.316,-132.333 L 263.282,-132.252 L 263.255,-132.165 L 263.236,-132.073 L 263.224,-131.975 L 263.22,-131.872
 L 263.223,-131.776 L 263.233,-131.685 L 263.248,-131.599 L 263.27,-131.518 L 263.298,-131.442 L 263.332,-131.371
 L 263.372,-131.305 L 263.418,-131.243 L 263.471,-131.187 L 263.529,-131.135 L 263.592,-131.09 L 263.66,-131.051
 L 263.732,-131.018 L 263.81,-130.991 L 263.892,-130.97 L 263.98,-130.955 L 264.072,-130.946 L 264.169,-130.943
 z
M 264.388,-131.503 L 264.354,-131.507 L 264.32,-131.513 L 264.289,-131.522 L 264.259,-131.534 L 264.231,-131.549
 L 264.204,-131.566 L 264.179,-131.586 L 264.156,-131.608 L 264.135,-131.633 L 264.116,-131.661 L 264.1,-131.692
 L 264.086,-131.725 L 264.075,-131.761 L 264.066,-131.8 L 264.06,-131.842 L 264.056,-131.887 L 264.055,-131.934
 L 264.055,-131.971 L 264.058,-132.007 L 264.061,-132.041 L 264.067,-132.073 L 264.074,-132.103 L 264.082,-132.132
 L 264.092,-132.159 L 264.103,-132.184 L 264.116,-132.208 L 264.13,-132.23 L 264.146,-132.251 L 264.163,-132.27
 L 264.181,-132.288 L 264.201,-132.305 L 264.222,-132.321 L 264.245,-132.335 L 264.269,-132.348 L 264.294,-132.36
 L 264.322,-132.371 L 264.354,-132.38 L 264.39,-132.389 L 264.43,-132.397 L 264.474,-132.403 L 264.522,-132.409
 L 264.574,-132.414 L 264.63,-132.418 L 264.69,-132.421 L 265.1,-132.427 L 265.1,-132.27 L 265.099,-132.226
 L 265.096,-132.181 L 265.09,-132.138 L 265.082,-132.095 L 265.073,-132.052 L 265.061,-132.01 L 265.046,-131.969
 L 265.03,-131.928 L 265.012,-131.887 L 264.991,-131.848 L 264.969,-131.811 L 264.945,-131.775 L 264.92,-131.742
 L 264.893,-131.71 L 264.864,-131.681 L 264.834,-131.653 L 264.802,-131.628 L 264.768,-131.604 L 264.733,-131.582
 L 264.697,-131.563 L 264.661,-131.547 L 264.624,-131.533 L 264.586,-131.522 L 264.547,-131.513 L 264.507,-131.506
 L 264.466,-131.503 L 264.425,-131.501 z
M 44.3949,-130.953 L 44.5927,-130.984 L 44.7738,-131.036 L 44.9382,-131.108 L 45.086,-131.201 L 45.2171,-131.315
 L 45.3316,-131.45 L 45.4294,-131.605 L 45.5105,-131.78 L 44.7557,-131.846 L 44.7272,-131.769 L 44.6909,-131.701
 L 44.6469,-131.642 L 44.5951,-131.592 L 44.5356,-131.551 L 44.4684,-131.519 L 44.3935,-131.497 L 44.3108,-131.483
 L 44.2203,-131.479 L 44.1537,-131.481 L 44.0906,-131.49 L 44.0309,-131.504 L 43.9747,-131.524 L 43.9221,-131.549
 L 43.8728,-131.58 L 43.8271,-131.617 L 43.7849,-131.66 L 43.7461,-131.708 L 43.7111,-131.761 L 43.6803,-131.821
 L 43.6535,-131.885 L 43.6309,-131.955 L 43.6124,-132.031 L 43.598,-132.112 L 43.5877,-132.198 L 43.5815,-132.29
 L 43.5795,-132.387 L 45.5561,-132.387 L 45.5561,-132.41 L 45.5518,-132.593 L 45.5388,-132.767 L 45.5172,-132.93
 L 45.4869,-133.084 L 45.448,-133.227 L 45.4004,-133.36 L 45.3442,-133.483 L 45.2793,-133.596 L 45.2058,-133.699
 L 45.1241,-133.791 L 45.0346,-133.872 L 44.9374,-133.943 L 44.8325,-134.003 L 44.7198,-134.052 L 44.5994,-134.09
 L 44.4713,-134.117 L 44.3354,-134.133 L 44.1918,-134.139 L 44.0413,-134.134 L 43.8986,-134.118 L 43.7636,-134.093
 L 43.6365,-134.058 L 43.5172,-134.012 L 43.4057,-133.956 L 43.302,-133.891 L 43.2062,-133.815 L 43.1181,-133.728
 L 43.0386,-133.633 L 42.9684,-133.529 L 42.9076,-133.416 L 42.8562,-133.294 L 42.8141,-133.164 L 42.7814,-133.025
 L 42.758,-132.877 L 42.744,-132.72 L 42.7393,-132.555 L 42.7439,-132.384 L 42.7577,-132.223 L 42.7807,-132.071
 L 42.813,-131.928 L 42.8544,-131.795 L 42.9051,-131.671 L 42.965,-131.556 L 43.0341,-131.451 L 43.1124,-131.355
 L 43.1992,-131.268 L 43.2941,-131.192 L 43.3969,-131.126 L 43.5076,-131.07 L 43.6263,-131.024 L 43.7529,-130.989
 L 43.8875,-130.963 L 44.03,-130.948 L 44.1804,-130.943 z
M 43.5852,-132.888 L 43.5888,-132.965 L 43.5961,-133.038 L 43.6068,-133.106 L 43.6212,-133.171 L 43.6391,-133.232
 L 43.6605,-133.29 L 43.6855,-133.343 L 43.714,-133.392 L 43.7461,-133.438 L 43.7816,-133.479 L 43.8202,-133.516
 L 43.8621,-133.547 L 43.9071,-133.574 L 43.9554,-133.596 L 44.0069,-133.613 L 44.0615,-133.625 L 44.1194,-133.632
 L 44.1804,-133.635 L 44.2379,-133.632 L 44.2928,-133.625 L 44.345,-133.614 L 44.3945,-133.598 L 44.4413,-133.577
 L 44.4855,-133.552 L 44.527,-133.522 L 44.5658,-133.487 L 44.6019,-133.448 L 44.6351,-133.404 L 44.6649,-133.356
 L 44.6915,-133.303 L 44.7148,-133.245 L 44.7347,-133.183 L 44.7513,-133.116 L 44.7646,-133.045 L 44.7747,-132.969
 L 44.7814,-132.888 z
M 271.895,-130.953 L 272.093,-130.984 L 272.274,-131.036 L 272.438,-131.108 L 272.586,-131.201 L 272.717,-131.315
 L 272.832,-131.45 L 272.929,-131.605 L 273.011,-131.78 L 272.256,-131.846 L 272.227,-131.769 L 272.191,-131.701
 L 272.147,-131.642 L 272.095,-131.592 L 272.036,-131.551 L 271.968,-131.519 L 271.893,-131.497 L 271.811,-131.483
 L 271.72,-131.479 L 271.654,-131.481 L 271.591,-131.49 L 271.531,-131.504 L 271.475,-131.524 L 271.422,-131.549
 L 271.373,-131.58 L 271.327,-131.617 L 271.285,-131.66 L 271.246,-131.708 L 271.211,-131.761 L 271.18,-131.821
 L 271.154,-131.885 L 271.131,-131.955 L 271.112,-132.031 L 271.098,-132.112 L 271.088,-132.198 L 271.082,-132.29
 L 271.079,-132.387 L 273.056,-132.387 L 273.056,-132.41 L 273.052,-132.593 L 273.039,-132.767 L 273.017,-132.93
 L 272.987,-133.084 L 272.948,-133.227 L 272.9,-133.36 L 272.844,-133.483 L 272.779,-133.596 L 272.706,-133.699
 L 272.624,-133.791 L 272.535,-133.872 L 272.437,-133.943 L 272.332,-134.003 L 272.22,-134.052 L 272.099,-134.09
 L 271.971,-134.117 L 271.835,-134.133 L 271.692,-134.139 L 271.541,-134.134 L 271.399,-134.118 L 271.264,-134.093
 L 271.137,-134.058 L 271.017,-134.012 L 270.906,-133.956 L 270.802,-133.891 L 270.706,-133.815 L 270.618,-133.728
 L 270.539,-133.633 L 270.468,-133.529 L 270.408,-133.416 L 270.356,-133.294 L 270.314,-133.164 L 270.281,-133.025
 L 270.258,-132.877 L 270.244,-132.72 L 270.239,-132.555 L 270.244,-132.384 L 270.258,-132.223 L 270.281,-132.071
 L 270.313,-131.928 L 270.354,-131.795 L 270.405,-131.671 L 270.465,-131.556 L 270.534,-131.451 L 270.612,-131.355
 L 270.699,-131.268 L 270.794,-131.192 L 270.897,-131.126 L 271.008,-131.07 L 271.126,-131.024 L 271.253,-130.989
 L 271.387,-130.963 L 271.53,-130.948 L 271.68,-130.943 z
M 271.085,-132.888 L 271.089,-132.965 L 271.096,-133.038 L 271.107,-133.106 L 271.121,-133.171 L 271.139,-133.232
 L 271.16,-133.29 L 271.185,-133.343 L 271.214,-133.392 L 271.246,-133.438 L 271.282,-133.479 L 271.32,-133.516
 L 271.362,-133.547 L 271.407,-133.574 L 271.455,-133.596 L 271.507,-133.613 L 271.562,-133.625 L 271.619,-133.632
 L 271.68,-133.635 L 271.738,-133.632 L 271.793,-133.625 L 271.845,-133.614 L 271.895,-133.598 L 271.941,-133.577
 L 271.985,-133.552 L 272.027,-133.522 L 272.066,-133.487 L 272.102,-133.448 L 272.135,-133.404 L 272.165,-133.356
 L 272.191,-133.303 L 272.215,-133.245 L 272.235,-133.183 L 272.251,-133.116 L 272.265,-133.045 L 272.275,-132.969
 L 272.281,-132.888 z
M 276.293,-129.792 L 276.38,-129.801 L 276.463,-129.815 L 276.542,-129.835 L 276.618,-129.86 L 276.689,-129.891
 L 276.757,-129.927 L 276.821,-129.97 L 276.882,-130.017 L 276.94,-130.073 L 276.998,-130.137 L 277.055,-130.21
 L 277.112,-130.292 L 277.169,-130.383 L 277.225,-130.483 L 277.28,-130.592 L 277.336,-130.711 L 277.39,-130.838
 L 278.609,-134.082 L 277.772,-134.082 L 277.316,-132.626 L 277.131,-131.957 L 277.06,-131.686 L 277.022,-131.825
 L 276.986,-131.955 L 276.951,-132.077 L 276.917,-132.191 L 276.885,-132.296 L 276.855,-132.394 L 276.826,-132.483
 L 276.798,-132.565 L 276.772,-132.638 L 276.288,-134.082 L 275.442,-134.082 L 276.661,-131.031 L 276.637,-130.967
 L 276.613,-130.907 L 276.589,-130.851 L 276.567,-130.8 L 276.544,-130.753 L 276.522,-130.71 L 276.501,-130.671
 L 276.48,-130.637 L 276.46,-130.607 L 276.44,-130.58 L 276.419,-130.555 L 276.398,-130.531 L 276.376,-130.51
 L 276.354,-130.49 L 276.331,-130.472 L 276.307,-130.455 L 276.283,-130.44 L 276.258,-130.428 L 276.232,-130.416
 L 276.205,-130.406 L 276.177,-130.397 L 276.147,-130.39 L 276.115,-130.384 L 276.082,-130.379 L 276.048,-130.376
 L 276.012,-130.374 L 275.975,-130.373 L 275.947,-130.374 L 275.918,-130.375 L 275.888,-130.376 L 275.858,-130.378
 L 275.827,-130.38 L 275.796,-130.384 L 275.764,-130.387 L 275.732,-130.391 L 275.698,-130.396 L 275.698,-129.827
 L 275.747,-129.819 L 275.798,-129.812 L 275.851,-129.806 L 275.905,-129.801 L 275.961,-129.797 L 276.019,-129.794
 L 276.078,-129.791 L 276.139,-129.79 L 276.203,-129.79 z
M 48.793,-129.792 L 48.8798,-129.801 L 48.9628,-129.815 L 49.042,-129.835 L 49.1175,-129.86 L 49.1892,-129.891
 L 49.2572,-129.927 L 49.3214,-129.97 L 49.3818,-130.017 L 49.4401,-130.073 L 49.498,-130.137 L 49.5554,-130.21
 L 49.6123,-130.292 L 49.6688,-130.383 L 49.7248,-130.483 L 49.7804,-130.592 L 49.8355,-130.711 L 49.8902,-130.838
 L 51.1092,-134.082 L 50.2719,-134.082 L 49.8161,-132.626 L 49.631,-131.957 L 49.5598,-131.686 L 49.5219,-131.825
 L 49.4855,-131.955 L 49.4506,-132.077 L 49.4172,-132.191 L 49.3852,-132.296 L 49.3547,-132.394 L 49.3257,-132.483
 L 49.2982,-132.565 L 49.2721,-132.638 L 48.7879,-134.082 L 47.9421,-134.082 L 49.1611,-131.031 L 49.1366,-130.967
 L 49.1127,-130.907 L 49.0894,-130.851 L 49.0665,-130.8 L 49.0442,-130.753 L 49.0224,-130.71 L 49.0012,-130.671
 L 48.9805,-130.637 L 48.9603,-130.607 L 48.94,-130.58 L 48.9193,-130.555 L 48.8979,-130.531 L 48.876,-130.51
 L 48.8535,-130.49 L 48.8305,-130.472 L 48.8069,-130.455 L 48.7828,-130.44 L 48.758,-130.428 L 48.7323,-130.416
 L 48.7052,-130.406 L 48.6766,-130.397 L 48.6465,-130.39 L 48.615,-130.384 L 48.5821,-130.379 L 48.5477,-130.376
 L 48.5119,-130.374 L 48.4747,-130.373 L 48.4465,-130.374 L 48.4177,-130.375 L 48.3883,-130.376 L 48.3582,-130.378
 L 48.3275,-130.38 L 48.2962,-130.384 L 48.2642,-130.387 L 48.2316,-130.391 L 48.1984,-130.396 L 48.1984,-129.827
 L 48.2474,-129.819 L 48.2981,-129.812 L 48.3506,-129.806 L 48.4049,-129.801 L 48.4609,-129.797 L 48.5186,-129.794
 L 48.5782,-129.791 L 48.6395,-129.79 L 48.7025,-129.79 z
M 62.5743,-77.2266 L 61.774,-77.2266 L 61.774,-76.6371 L 62.5743,-76.6371 z
M 35.1666,-77.2266 L 34.3663,-77.2266 L 34.3663,-76.6371 L 35.1666,-76.6371 z
M 53.9958,-72.9469 L 54.1687,-72.9585 L 54.3314,-72.9777 L 54.4841,-73.0046 L 54.6266,-73.0393 L 54.7591,-73.0816
 L 54.8815,-73.1317 L 54.9938,-73.1894 L 55.0959,-73.2549 L 55.1877,-73.3276 L 55.2687,-73.4072 L 55.3389,-73.4937
 L 55.3982,-73.587 L 55.4468,-73.6871 L 55.4846,-73.7942 L 55.5116,-73.908 L 55.5278,-74.0287 L 55.5332,-74.1563
 L 55.5322,-74.2113 L 55.5294,-74.2648 L 55.5246,-74.3169 L 55.518,-74.3676 L 55.5094,-74.4168 L 55.499,-74.4645
 L 55.4866,-74.5109 L 55.4724,-74.5557 L 55.4563,-74.5992 L 55.4383,-74.6413 L 55.4187,-74.682 L 55.3974,-74.7214
 L 55.3744,-74.7594 L 55.3497,-74.7961 L 55.3233,-74.8315 L 55.2953,-74.8655 L 55.2655,-74.8982 L 55.2341,-74.9296
 L 55.2005,-74.9599 L 55.1644,-74.9893 L 55.1257,-75.0179 L 55.0845,-75.0456 L 55.0406,-75.0725 L 54.9942,-75.0986
 L 54.9453,-75.1238 L 54.8937,-75.1482 L 54.8396,-75.1717 L 54.7802,-75.195 L 54.7126,-75.2188 L 54.6369,-75.243
 L 54.5531,-75.2677 L 54.4612,-75.2929 L 54.3612,-75.3185 L 54.253,-75.3446 L 54.1367,-75.3711 L 54.0123,-75.3981
 L 53.9081,-75.4211 L 53.812,-75.4432 L 53.724,-75.4644 L 53.644,-75.4847 L 53.5722,-75.5042 L 53.5085,-75.5228
 L 53.4528,-75.5405 L 53.4052,-75.5573 L 53.3657,-75.5732 L 53.3313,-75.5891 L 53.2987,-75.6057 L 53.2681,-75.6231
 L 53.2394,-75.6412 L 53.2127,-75.66 L 53.1879,-75.6796 L 53.165,-75.6999 L 53.1441,-75.7209 L 53.1251,-75.7427
 L 53.108,-75.7656 L 53.093,-75.7898 L 53.08,-75.8155 L 53.069,-75.8426 L 53.06,-75.8711 L 53.0529,-75.901
 L 53.0479,-75.9323 L 53.0449,-75.965 L 53.0439,-75.9991 L 53.0533,-76.0995 L 53.0816,-76.1881 L 53.1287,-76.2649
 L 53.1947,-76.3299 L 53.2795,-76.383 L 53.3832,-76.4244 L 53.5057,-76.4539 L 53.647,-76.4716 L 53.8072,-76.4776
 L 53.8849,-76.4759 L 53.9585,-76.4711 L 54.0279,-76.463 L 54.0933,-76.4517 L 54.1545,-76.4371 L 54.2116,-76.4193
 L 54.2646,-76.3983 L 54.3135,-76.374 L 54.3583,-76.3465 L 54.3994,-76.3158 L 54.4374,-76.282 L 54.4721,-76.2449
 L 54.5036,-76.2047 L 54.5319,-76.1614 L 54.5571,-76.1149 L 54.579,-76.0652 L 54.5977,-76.0123 L 54.6132,-75.9563
 L 55.4278,-76.0674 L 55.4005,-76.1833 L 55.3665,-76.2916 L 55.326,-76.3924 L 55.279,-76.4857 L 55.2253,-76.5715
 L 55.1651,-76.6497 L 55.0983,-76.7204 L 55.0249,-76.7836 L 54.945,-76.8392 L 54.8572,-76.8883 L 54.7602,-76.9315
 L 54.654,-76.969 L 54.5387,-77.0007 L 54.4142,-77.0267 L 54.2805,-77.0469 L 54.1376,-77.0613 L 53.9855,-77.0699
 L 53.8243,-77.0728 L 53.6555,-77.0692 L 53.4958,-77.0585 L 53.3453,-77.0407 L 53.204,-77.0157 L 53.0719,-76.9836
 L 52.949,-76.9443 L 52.8352,-76.8979 L 52.7306,-76.8444 L 52.6352,-76.7837 L 52.5494,-76.7163 L 52.4738,-76.6427
 L 52.4082,-76.5627 L 52.3527,-76.4764 L 52.3073,-76.3839 L 52.2719,-76.285 L 52.2467,-76.1798 L 52.2316,-76.0684
 L 52.2265,-75.9507 L 52.2272,-75.9038 L 52.2293,-75.8581 L 52.2327,-75.8136 L 52.2375,-75.7704 L 52.2437,-75.7283
 L 52.2512,-75.6874 L 52.2601,-75.6477 L 52.2704,-75.6092 L 52.282,-75.5719 L 52.2949,-75.5357 L 52.3089,-75.5005
 L 52.324,-75.4665 L 52.3401,-75.4335 L 52.3574,-75.4015 L 52.3757,-75.3706 L 52.3951,-75.3407 L 52.4156,-75.312
 L 52.4372,-75.2842 L 52.4599,-75.2574 L 52.4837,-75.2315 L 52.5084,-75.2065 L 52.5343,-75.1824 L 52.5612,-75.1591
 L 52.5891,-75.1367 L 52.6181,-75.1152 L 52.6482,-75.0946 L 52.6793,-75.0748 L 52.7114,-75.0558 L 52.7443,-75.0374
 L 52.7781,-75.0195 L 52.8127,-75.0021 L 52.8481,-74.9854 L 52.8844,-74.9691 L 52.9215,-74.9535 L 52.9595,-74.9384
 L 52.9983,-74.9239 L 53.0409,-74.9091 L 53.0903,-74.8934 L 53.1464,-74.8766 L 53.2093,-74.8588 L 53.2789,-74.84
 L 53.3553,-74.8201 L 53.4384,-74.7993 L 53.5283,-74.7774 L 53.6249,-74.7545 L 53.7366,-74.7314 L 53.8399,-74.7092
 L 53.9349,-74.6877 L 54.0216,-74.6669 L 54.0999,-74.647 L 54.1699,-74.6278 L 54.2315,-74.6095 L 54.2848,-74.5918
 L 54.3298,-74.575 L 54.3696,-74.5581 L 54.4074,-74.5403 L 54.4431,-74.5215 L 54.4768,-74.5019 L 54.5085,-74.4813
 L 54.5381,-74.4598 L 54.5656,-74.4374 L 54.5912,-74.4141 L 54.6146,-74.3899 L 54.6359,-74.3644 L 54.6546,-74.3375
 L 54.6708,-74.3092 L 54.6846,-74.2793 L 54.6958,-74.248 L 54.7045,-74.2152 L 54.7108,-74.1809 L 54.7145,-74.1451
 L 54.7158,-74.1079 L 54.7049,-73.9955 L 54.6723,-73.8964 L 54.618,-73.8104 L 54.5419,-73.7377 L 54.4441,-73.6782
 L 54.3246,-73.6319 L 54.1834,-73.5989 L 54.0204,-73.5791 L 53.8357,-73.5724 L 53.7437,-73.5742 L 53.6562,-73.5796
 L 53.5733,-73.5884 L 53.495,-73.6009 L 53.4213,-73.6168 L 53.3521,-73.6364 L 53.2876,-73.6595 L 53.2275,-73.6861
 L 53.1721,-73.7163 L 53.1208,-73.7504 L 53.0735,-73.7888 L 53.03,-73.8316 L 52.9904,-73.8787 L 52.9546,-73.9301
 L 52.9227,-73.9859 L 52.8947,-74.046 L 52.8705,-74.1104 L 52.8503,-74.1791 L 52.0385,-74.0452 L 52.0702,-73.9253
 L 52.1097,-73.8123 L 52.1569,-73.7063 L 52.2118,-73.6073 L 52.2745,-73.5152 L 52.3449,-73.4301 L 52.423,-73.3519
 L 52.5089,-73.2807 L 52.6025,-73.2165 L 52.704,-73.1591 L 52.8138,-73.1084 L 52.9319,-73.0646 L 53.0582,-73.0274
 L 53.1926,-72.9971 L 53.3354,-72.9734 L 53.4863,-72.9566 L 53.6455,-72.9464 L 53.8129,-72.9431 z
M 12.709,-77.013 L 11.8687,-77.013 L 11.8687,-73 L 12.709,-73 z
M 57.9144,-72.9482 L 58.0901,-72.9638 L 58.2563,-72.9897 L 58.4131,-73.026 L 58.5604,-73.0727 L 58.6983,-73.1297
 L 58.8266,-73.1972 L 58.9456,-73.275 L 59.0551,-73.3631 L 59.154,-73.4607 L 59.2413,-73.5668 L 59.3169,-73.6813
 L 59.3809,-73.8043 L 59.4333,-73.9358 L 59.4741,-74.0758 L 59.5031,-74.2242 L 59.5206,-74.3811 L 59.5264,-74.5465
 L 59.5264,-77.013 L 58.6862,-77.013 L 58.6862,-74.5978 L 58.6832,-74.4936 L 58.6743,-74.3949 L 58.6593,-74.3018
 L 58.6384,-74.2141 L 58.6115,-74.132 L 58.5786,-74.0554 L 58.5398,-73.9843 L 58.4949,-73.9187 L 58.4441,-73.8587
 L 58.3878,-73.8046 L 58.3263,-73.7569 L 58.2596,-73.7155 L 58.1879,-73.6805 L 58.111,-73.6518 L 58.0289,-73.6296
 L 57.9418,-73.6137 L 57.8495,-73.6041 L 57.7521,-73.6009 L 57.6572,-73.604 L 57.5676,-73.6131 L 57.4832,-73.6283
 L 57.4041,-73.6496 L 57.3302,-73.677 L 57.2616,-73.7104 L 57.1982,-73.75 L 57.14,-73.7956 L 57.087,-73.8473
 L 57.0395,-73.9049 L 56.9976,-73.9681 L 56.9612,-74.037 L 56.9305,-74.1116 L 56.9053,-74.1918 L 56.8858,-74.2777
 L 56.8718,-74.3692 L 56.8634,-74.4664 L 56.8606,-74.5693 L 56.8606,-77.013 L 56.0204,-77.013 L 56.0204,-74.5038
 L 56.0258,-74.341 L 56.0421,-74.1868 L 56.0693,-74.0412 L 56.1073,-73.9041 L 56.1562,-73.7756 L 56.216,-73.6557
 L 56.2866,-73.5444 L 56.3681,-73.4416 L 56.4604,-73.3475 L 56.563,-73.2626 L 56.6752,-73.1877 L 56.797,-73.1228
 L 56.9284,-73.0679 L 57.0694,-73.0229 L 57.2199,-72.988 L 57.3801,-72.963 L 57.5499,-72.948 L 57.7292,-72.9431
 z
M 49.3013,-74.4127 L 50.2981,-74.4127 L 50.3972,-74.4147 L 50.4933,-74.4209 L 50.5862,-74.4312 L 50.6762,-74.4456
 L 50.763,-74.4641 L 50.8469,-74.4867 L 50.9276,-74.5135 L 51.0053,-74.5443 L 51.0799,-74.5793 L 51.1511,-74.618
 L 51.2186,-74.6602 L 51.2823,-74.7057 L 51.3422,-74.7547 L 51.3984,-74.807 L 51.4508,-74.8628 L 51.4994,-74.922
 L 51.5443,-74.9846 L 51.5854,-75.0506 L 51.6225,-75.1194 L 51.6552,-75.1902 L 51.6835,-75.263 L 51.7075,-75.3378
 L 51.7272,-75.4147 L 51.7424,-75.4937 L 51.7533,-75.5746 L 51.7599,-75.6577 L 51.762,-75.7427 L 51.7572,-75.8741
 L 51.7428,-75.9988 L 51.7188,-76.1166 L 51.6852,-76.2277 L 51.642,-76.332 L 51.5892,-76.4295 L 51.5269,-76.5202
 L 51.4548,-76.6041 L 51.3732,-76.6812 L 51.2828,-76.7508 L 51.1841,-76.8123 L 51.0772,-76.8655 L 50.9622,-76.9106
 L 50.8389,-76.9475 L 50.7074,-76.9761 L 50.5678,-76.9966 L 50.42,-77.0089 L 50.2639,-77.013 L 48.4611,-77.013
 L 48.4611,-73 L 49.3013,-73 z
M 49.3013,-75.0592 L 49.3013,-76.3608 L 50.17,-76.3608 L 50.3266,-76.353 L 50.4648,-76.3296 L 50.5845,-76.2905
 L 50.6859,-76.2359 L 50.7688,-76.1656 L 50.8333,-76.0798 L 50.8793,-75.9783 L 50.907,-75.8612 L 50.9162,-75.7285
 L 50.9138,-75.6582 L 50.9069,-75.5917 L 50.8953,-75.529 L 50.879,-75.47 L 50.8581,-75.4148 L 50.8326,-75.3633
 L 50.8024,-75.3156 L 50.7676,-75.2717 L 50.7282,-75.2315 L 50.6844,-75.1953 L 50.6367,-75.1634 L 50.5851,-75.1358
 L 50.5296,-75.1124 L 50.4701,-75.0932 L 50.4066,-75.0783 L 50.3393,-75.0677 L 50.268,-75.0613 L 50.1927,-75.0592
 z
M 26.3736,-72.9499 L 26.4547,-72.9535 L 26.5338,-72.9595 L 26.6108,-72.9678 L 26.6858,-72.9786 L 26.7588,-72.9918
 L 26.8297,-73.0073 L 26.8986,-73.0252 L 26.9654,-73.0456 L 26.9654,-73.5411 L 26.9278,-73.5328 L 26.8922,-73.5254
 L 26.8585,-73.519 L 26.8268,-73.5136 L 26.797,-73.5091 L 26.7692,-73.5057 L 26.7434,-73.5032 L 26.7196,-73.5018
 L 26.6977,-73.5013 L 26.659,-73.5026 L 26.6226,-73.5065 L 26.5885,-73.5131 L 26.5568,-73.5224 L 26.5273,-73.5342
 L 26.5002,-73.5487 L 26.4754,-73.5659 L 26.453,-73.5856 L 26.4328,-73.6081 L 26.4149,-73.6333 L 26.3991,-73.6614
 L 26.3854,-73.6924 L 26.3738,-73.7263 L 26.3643,-73.7632 L 26.3569,-73.803 L 26.3516,-73.8457 L 26.3485,-73.8913
 L 26.3474,-73.9399 L 26.3474,-75.5405 L 26.9313,-75.5405 L 26.9313,-76.0817 L 26.3474,-76.0817 L 26.3474,-76.8051
 L 25.8461,-76.8051 L 25.5955,-76.0817 L 25.1654,-76.0817 L 25.1654,-75.5405 L 25.5556,-75.5405 L 25.5556,-73.7234
 L 25.558,-73.6391 L 25.565,-73.5598 L 25.5768,-73.4853 L 25.5933,-73.4157 L 25.6145,-73.351 L 25.6404,-73.2911
 L 25.6711,-73.2362 L 25.7064,-73.1861 L 25.7464,-73.1409 L 25.7908,-73.1006 L 25.8393,-73.065 L 25.8917,-73.0341
 L 25.9481,-73.008 L 26.0086,-72.9867 L 26.073,-72.9701 L 26.1415,-72.9582 L 26.2139,-72.9511 L 26.2904,-72.9487
 z
M 36.7493,-74.6519 L 36.7515,-74.7369 L 36.7581,-74.8184 L 36.7691,-74.8964 L 36.7845,-74.9709 L 36.8043,-75.0419
 L 36.8284,-75.1095 L 36.857,-75.1736 L 36.89,-75.2342 L 36.9273,-75.2913 L 36.9683,-75.3436 L 37.012,-75.3898
 L 37.0585,-75.4298 L 37.1078,-75.4636 L 37.1598,-75.4913 L 37.2147,-75.5128 L 37.2723,-75.5282 L 37.3327,-75.5375
 L 37.3958,-75.5405 L 37.5112,-75.5305 L 37.613,-75.5004 L 37.7012,-75.4503 L 37.7759,-75.3802 L 37.837,-75.29
 L 37.8845,-75.1798 L 37.9184,-75.0495 L 37.9388,-74.8992 L 37.9455,-74.7288 L 37.9455,-73 L 38.743,-73
 L 38.743,-74.9566 L 38.7398,-75.0823 L 38.7301,-75.2011 L 38.7139,-75.313 L 38.6912,-75.418 L 38.6621,-75.5161
 L 38.6265,-75.6073 L 38.5845,-75.6916 L 38.5359,-75.769 L 38.481,-75.8396 L 38.4199,-75.9029 L 38.3533,-75.9588
 L 38.281,-76.0073 L 38.2031,-76.0483 L 38.1195,-76.0818 L 38.0303,-76.1079 L 37.9355,-76.1266 L 37.8351,-76.1377
 L 37.7291,-76.1415 L 37.6549,-76.1395 L 37.5831,-76.1336 L 37.5136,-76.1237 L 37.4464,-76.11 L 37.3815,-76.0922
 L 37.3189,-76.0706 L 37.2587,-76.045 L 37.2008,-76.0154 L 37.1452,-75.9819 L 37.0918,-75.9441 L 37.0404,-75.9015
 L 36.9911,-75.8541 L 36.9438,-75.8019 L 36.8985,-75.745 L 36.8553,-75.6832 L 36.8142,-75.6167 L 36.775,-75.5454
 L 36.7379,-75.4693 L 36.7265,-75.4693 L 36.7264,-75.4907 L 36.7258,-75.5158 L 36.725,-75.5445 L 36.7237,-75.5768
 L 36.7221,-75.6127 L 36.7202,-75.6522 L 36.7179,-75.6954 L 36.7153,-75.7422 L 36.7123,-75.7926 L 36.7092,-75.8426
 L 36.7063,-75.8881 L 36.7034,-75.9291 L 36.7008,-75.9657 L 36.6982,-75.9978 L 36.6958,-76.0255 L 36.6936,-76.0487
 L 36.6915,-76.0674 L 36.6895,-76.0817 L 35.9262,-76.0817 L 35.9281,-76.0534 L 35.9299,-76.0243 L 35.9317,-75.9945
 L 35.9335,-75.9638 L 35.9353,-75.9323 L 35.937,-75.9 L 35.9386,-75.8669 L 35.9402,-75.833 L 35.9418,-75.7982
 L 35.9433,-75.762 L 35.9447,-75.7236 L 35.9458,-75.6829 L 35.9468,-75.64 L 35.9476,-75.5949 L 35.9482,-75.5476
 L 35.9486,-75.4981 L 35.9489,-75.4464 L 35.949,-75.3924 L 35.949,-73 L 36.7493,-73 z
M 31.367,-74.5123 L 31.3691,-74.6151 L 31.3753,-74.7122 L 31.3855,-74.8035 L 31.3999,-74.889 L 31.4184,-74.9687
 L 31.4411,-75.0427 L 31.4678,-75.1109 L 31.4987,-75.1734 L 31.5336,-75.2301 L 31.5723,-75.2809 L 31.6142,-75.3257
 L 31.6594,-75.3646 L 31.7079,-75.3974 L 31.7596,-75.4243 L 31.8147,-75.4453 L 31.8729,-75.4602 L 31.9345,-75.4692
 L 31.9993,-75.4722 L 32.0328,-75.4716 L 32.0674,-75.47 L 32.1031,-75.4674 L 32.1399,-75.4637 L 32.1779,-75.459
 L 32.217,-75.4532 L 32.2572,-75.4463 L 32.2986,-75.4384 L 32.341,-75.4294 L 32.341,-76.0988 L 32.3194,-76.1077
 L 32.2963,-76.1156 L 32.2718,-76.1225 L 32.2457,-76.1283 L 32.2182,-76.133 L 32.1892,-76.1367 L 32.1587,-76.1394
 L 32.1267,-76.1409 L 32.0933,-76.1415 L 32.0523,-76.1407 L 32.0128,-76.1383 L 31.9749,-76.1343 L 31.9386,-76.1288
 L 31.9037,-76.1217 L 31.8705,-76.113 L 31.8388,-76.1027 L 31.8086,-76.0908 L 31.78,-76.0774 L 31.7525,-76.0623
 L 31.726,-76.0455 L 31.7002,-76.0271 L 31.6754,-76.0069 L 31.6513,-75.9851 L 31.6281,-75.9616 L 31.6057,-75.9364
 L 31.5842,-75.9095 L 31.5635,-75.8809 L 31.543,-75.8491 L 31.5218,-75.8125 L 31.4999,-75.7712 L 31.4775,-75.7252
 L 31.4544,-75.6744 L 31.4306,-75.6188 L 31.4062,-75.5585 L 31.3812,-75.4935 L 31.3556,-75.4237 L 31.3442,-75.4237
 L 31.344,-75.4449 L 31.3435,-75.4704 L 31.3426,-75.5002 L 31.3414,-75.5343 L 31.3398,-75.5728 L 31.3379,-75.6155
 L 31.3356,-75.6626 L 31.333,-75.7141 L 31.33,-75.7698 L 31.3269,-75.8251 L 31.3239,-75.8753 L 31.3211,-75.9203
 L 31.3185,-75.9601 L 31.3159,-75.9948 L 31.3135,-76.0242 L 31.3113,-76.0485 L 31.3091,-76.0677 L 31.3072,-76.0817
 L 30.5439,-76.0817 L 30.5458,-76.0521 L 30.5476,-76.0215 L 30.5494,-75.9901 L 30.5512,-75.9576 L 30.5529,-75.9242
 L 30.5546,-75.8899 L 30.5563,-75.8546 L 30.5579,-75.8184 L 30.5595,-75.7812 L 30.561,-75.7425 L 30.5623,-75.7017
 L 30.5635,-75.6589 L 30.5645,-75.614 L 30.5653,-75.567 L 30.5659,-75.5179 L 30.5663,-75.4668 L 30.5666,-75.4135
 L 30.5667,-75.3582 L 30.5667,-73 L 31.367,-73 z
M 14.2689,-74.6519 L 14.2711,-74.7369 L 14.2777,-74.8184 L 14.2887,-74.8964 L 14.3041,-74.9709 L 14.3238,-75.0419
 L 14.348,-75.1095 L 14.3766,-75.1736 L 14.4095,-75.2342 L 14.4469,-75.2913 L 14.4878,-75.3436 L 14.5316,-75.3898
 L 14.5781,-75.4298 L 14.6273,-75.4636 L 14.6794,-75.4913 L 14.7342,-75.5128 L 14.7918,-75.5282 L 14.8522,-75.5375
 L 14.9154,-75.5405 L 15.0308,-75.5305 L 15.1326,-75.5004 L 15.2208,-75.4503 L 15.2954,-75.3802 L 15.3565,-75.29
 L 15.404,-75.1798 L 15.438,-75.0495 L 15.4583,-74.8992 L 15.4651,-74.7288 L 15.4651,-73 L 16.2626,-73
 L 16.2626,-74.9566 L 16.2593,-75.0823 L 16.2496,-75.2011 L 16.2334,-75.313 L 16.2108,-75.418 L 16.1817,-75.5161
 L 16.1461,-75.6073 L 16.104,-75.6916 L 16.0555,-75.769 L 16.0005,-75.8396 L 15.9395,-75.9029 L 15.8728,-75.9588
 L 15.8005,-76.0073 L 15.7226,-76.0483 L 15.6391,-76.0818 L 15.5499,-76.1079 L 15.4551,-76.1266 L 15.3547,-76.1377
 L 15.2486,-76.1415 L 15.1745,-76.1395 L 15.1026,-76.1336 L 15.0331,-76.1237 L 14.9659,-76.11 L 14.901,-76.0922
 L 14.8385,-76.0706 L 14.7783,-76.045 L 14.7203,-76.0154 L 14.6647,-75.9819 L 14.6113,-75.9441 L 14.56,-75.9015
 L 14.5107,-75.8541 L 14.4634,-75.8019 L 14.4181,-75.745 L 14.3749,-75.6832 L 14.3337,-75.6167 L 14.2946,-75.5454
 L 14.2575,-75.4693 L 14.2461,-75.4693 L 14.2459,-75.4907 L 14.2454,-75.5158 L 14.2445,-75.5445 L 14.2433,-75.5768
 L 14.2417,-75.6127 L 14.2398,-75.6522 L 14.2375,-75.6954 L 14.2348,-75.7422 L 14.2319,-75.7926 L 14.2288,-75.8426
 L 14.2258,-75.8881 L 14.223,-75.9291 L 14.2203,-75.9657 L 14.2178,-75.9978 L 14.2154,-76.0255 L 14.2131,-76.0487
 L 14.211,-76.0674 L 14.209,-76.0817 L 13.4458,-76.0817 L 13.4477,-76.0534 L 13.4495,-76.0243 L 13.4513,-75.9945
 L 13.4531,-75.9638 L 13.4548,-75.9323 L 13.4565,-75.9 L 13.4582,-75.8669 L 13.4598,-75.833 L 13.4614,-75.7982
 L 13.4629,-75.762 L 13.4642,-75.7236 L 13.4654,-75.6829 L 13.4663,-75.64 L 13.4671,-75.5949 L 13.4678,-75.5476
 L 13.4682,-75.4981 L 13.4685,-75.4464 L 13.4686,-75.3924 L 13.4686,-73 L 14.2689,-73 z
M 64.157,-74.6519 L 64.1592,-74.7369 L 64.1658,-74.8184 L 64.1768,-74.8964 L 64.1922,-74.9709 L 64.212,-75.0419
 L 64.2361,-75.1095 L 64.2647,-75.1736 L 64.2977,-75.2342 L 64.335,-75.2913 L 64.376,-75.3436 L 64.4197,-75.3898
 L 64.4662,-75.4298 L 64.5155,-75.4636 L 64.5675,-75.4913 L 64.6224,-75.5128 L 64.68,-75.5282 L 64.7404,-75.5375
 L 64.8035,-75.5405 L 64.9189,-75.5305 L 65.0207,-75.5004 L 65.1089,-75.4503 L 65.1836,-75.3802 L 65.2446,-75.29
 L 65.2921,-75.1798 L 65.3261,-75.0495 L 65.3464,-74.8992 L 65.3532,-74.7288 L 65.3532,-73 L 66.1507,-73
 L 66.1507,-74.9566 L 66.1474,-75.0823 L 66.1377,-75.2011 L 66.1216,-75.313 L 66.0989,-75.418 L 66.0698,-75.5161
 L 66.0342,-75.6073 L 65.9922,-75.6916 L 65.9436,-75.769 L 65.8886,-75.8396 L 65.8276,-75.9029 L 65.7609,-75.9588
 L 65.6887,-76.0073 L 65.6107,-76.0483 L 65.5272,-76.0818 L 65.438,-76.1079 L 65.3432,-76.1266 L 65.2428,-76.1377
 L 65.1368,-76.1415 L 65.0626,-76.1395 L 64.9908,-76.1336 L 64.9212,-76.1237 L 64.854,-76.11 L 64.7892,-76.0922
 L 64.7266,-76.0706 L 64.6664,-76.045 L 64.6085,-76.0154 L 64.5529,-75.9819 L 64.4995,-75.9441 L 64.4481,-75.9015
 L 64.3988,-75.8541 L 64.3515,-75.8019 L 64.3062,-75.745 L 64.263,-75.6832 L 64.2218,-75.6167 L 64.1827,-75.5454
 L 64.1456,-75.4693 L 64.1342,-75.4693 L 64.134,-75.4907 L 64.1335,-75.5158 L 64.1326,-75.5445 L 64.1314,-75.5768
 L 64.1298,-75.6127 L 64.1279,-75.6522 L 64.1256,-75.6954 L 64.123,-75.7422 L 64.12,-75.7926 L 64.1169,-75.8426
 L 64.1139,-75.8881 L 64.1111,-75.9291 L 64.1084,-75.9657 L 64.1059,-75.9978 L 64.1035,-76.0255 L 64.1013,-76.0487
 L 64.0992,-76.0674 L 64.0972,-76.0817 L 63.3339,-76.0817 L 63.3358,-76.0534 L 63.3376,-76.0243 L 63.3394,-75.9945
 L 63.3412,-75.9638 L 63.3429,-75.9323 L 63.3447,-75.9 L 63.3463,-75.8669 L 63.3479,-75.833 L 63.3495,-75.7982
 L 63.351,-75.762 L 63.3524,-75.7236 L 63.3535,-75.6829 L 63.3545,-75.64 L 63.3553,-75.5949 L 63.3559,-75.5476
 L 63.3563,-75.4981 L 63.3566,-75.4464 L 63.3567,-75.3924 L 63.3567,-73 L 64.157,-73 z
M 24.085,-74.5123 L 24.087,-74.6151 L 24.0932,-74.7122 L 24.1035,-74.8035 L 24.1179,-74.889 L 24.1364,-74.9687
 L 24.159,-75.0427 L 24.1858,-75.1109 L 24.2166,-75.1734 L 24.2516,-75.2301 L 24.2902,-75.2809 L 24.3322,-75.3257
 L 24.3774,-75.3646 L 24.4258,-75.3974 L 24.4776,-75.4243 L 24.5326,-75.4453 L 24.5909,-75.4602 L 24.6524,-75.4692
 L 24.7172,-75.4722 L 24.7507,-75.4716 L 24.7853,-75.47 L 24.821,-75.4674 L 24.8579,-75.4637 L 24.8958,-75.459
 L 24.9349,-75.4532 L 24.9752,-75.4463 L 25.0165,-75.4384 L 25.059,-75.4294 L 25.059,-76.0988 L 25.0374,-76.1077
 L 25.0143,-76.1156 L 24.9897,-76.1225 L 24.9637,-76.1283 L 24.9361,-76.133 L 24.9071,-76.1367 L 24.8766,-76.1394
 L 24.8447,-76.1409 L 24.8112,-76.1415 L 24.7702,-76.1407 L 24.7308,-76.1383 L 24.6929,-76.1343 L 24.6565,-76.1288
 L 24.6217,-76.1217 L 24.5884,-76.113 L 24.5567,-76.1027 L 24.5265,-76.0908 L 24.4979,-76.0774 L 24.4705,-76.0623
 L 24.4439,-76.0455 L 24.4182,-76.0271 L 24.3933,-76.0069 L 24.3692,-75.9851 L 24.346,-75.9616 L 24.3237,-75.9364
 L 24.3022,-75.9095 L 24.2815,-75.8809 L 24.2609,-75.8491 L 24.2397,-75.8125 L 24.2179,-75.7712 L 24.1954,-75.7252
 L 24.1723,-75.6744 L 24.1486,-75.6188 L 24.1242,-75.5585 L 24.0992,-75.4935 L 24.0735,-75.4237 L 24.0621,-75.4237
 L 24.062,-75.4449 L 24.0614,-75.4704 L 24.0606,-75.5002 L 24.0593,-75.5343 L 24.0578,-75.5728 L 24.0558,-75.6155
 L 24.0535,-75.6626 L 24.0509,-75.7141 L 24.0479,-75.7698 L 24.0448,-75.8251 L 24.0419,-75.8753 L 24.0391,-75.9203
 L 24.0364,-75.9601 L 24.0338,-75.9948 L 24.0314,-76.0242 L 24.0292,-76.0485 L 24.0271,-76.0677 L 24.0251,-76.0817
 L 23.2618,-76.0817 L 23.2637,-76.0521 L 23.2656,-76.0215 L 23.2674,-75.9901 L 23.2691,-75.9576 L 23.2709,-75.9242
 L 23.2726,-75.8899 L 23.2742,-75.8546 L 23.2759,-75.8184 L 23.2775,-75.7812 L 23.279,-75.7425 L 23.2803,-75.7017
 L 23.2814,-75.6589 L 23.2824,-75.614 L 23.2832,-75.567 L 23.2838,-75.5179 L 23.2843,-75.4668 L 23.2845,-75.4135
 L 23.2846,-75.3582 L 23.2846,-73 L 24.085,-73 z
M 28.8747,-72.9534 L 29.0725,-72.9844 L 29.2536,-73.0361 L 29.418,-73.1084 L 29.5658,-73.2015 L 29.6969,-73.3152
 L 29.8114,-73.4496 L 29.9092,-73.6047 L 29.9903,-73.7804 L 29.2355,-73.8459 L 29.207,-73.7688 L 29.1707,-73.7007
 L 29.1267,-73.6418 L 29.0749,-73.5919 L 29.0155,-73.5511 L 28.9482,-73.5193 L 28.8733,-73.4966 L 28.7906,-73.483
 L 28.7001,-73.4785 L 28.6335,-73.4813 L 28.5704,-73.4898 L 28.5107,-73.504 L 28.4545,-73.5238 L 28.4019,-73.5493
 L 28.3526,-73.5804 L 28.3069,-73.6172 L 28.2647,-73.6596 L 28.2259,-73.7077 L 28.1909,-73.7614 L 28.1601,-73.8205
 L 28.1333,-73.8851 L 28.1107,-73.9551 L 28.0922,-74.0306 L 28.0778,-74.1116 L 28.0675,-74.1979 L 28.0613,-74.2898
 L 28.0593,-74.387 L 30.0359,-74.387 L 30.0359,-74.4098 L 30.0316,-74.5934 L 30.0186,-74.7668 L 29.997,-74.9302
 L 29.9667,-75.0835 L 29.9278,-75.2267 L 29.8802,-75.3598 L 29.824,-75.4828 L 29.7591,-75.5957 L 29.6856,-75.6986
 L 29.6039,-75.7909 L 29.5144,-75.8724 L 29.4172,-75.943 L 29.3123,-76.0028 L 29.1996,-76.0517 L 29.0792,-76.0897
 L 28.9511,-76.1169 L 28.8152,-76.1332 L 28.6716,-76.1386 L 28.5211,-76.1335 L 28.3784,-76.1184 L 28.2434,-76.093
 L 28.1163,-76.0576 L 27.997,-76.012 L 27.8855,-75.9563 L 27.7818,-75.8905 L 27.686,-75.8146 L 27.5979,-75.7285
 L 27.5184,-75.633 L 27.4482,-75.5288 L 27.3874,-75.4158 L 27.336,-75.2942 L 27.2939,-75.1638 L 27.2612,-75.0247
 L 27.2378,-74.8769 L 27.2238,-74.7203 L 27.2191,-74.5551 L 27.2237,-74.3844 L 27.2375,-74.2231 L 27.2605,-74.0711
 L 27.2928,-73.9284 L 27.3342,-73.795 L 27.3849,-73.6709 L 27.4448,-73.5562 L 27.5139,-73.4507 L 27.5922,-73.3546
 L 27.6791,-73.2682 L 27.7739,-73.192 L 27.8767,-73.126 L 27.9874,-73.0701 L 28.1061,-73.0243 L 28.2327,-72.9888
 L 28.3673,-72.9634 L 28.5098,-72.9481 L 28.6602,-72.9431 z
M 28.065,-74.8883 L 28.0686,-74.9649 L 28.0759,-75.0375 L 28.0867,-75.1063 L 28.101,-75.1713 L 28.1189,-75.2323
 L 28.1403,-75.2896 L 28.1653,-75.3429 L 28.1938,-75.3924 L 28.2259,-75.438 L 28.2614,-75.4792 L 28.3,-75.5156
 L 28.3419,-75.5472 L 28.3869,-75.5739 L 28.4352,-75.5957 L 28.4867,-75.6127 L 28.5413,-75.6248 L 28.5992,-75.6321
 L 28.6602,-75.6345 L 28.7178,-75.6322 L 28.7726,-75.6253 L 28.8248,-75.6138 L 28.8743,-75.5977 L 28.9211,-75.577
 L 28.9653,-75.5516 L 29.0068,-75.5217 L 29.0456,-75.4871 L 29.0817,-75.448 L 29.1149,-75.4042 L 29.1448,-75.3558
 L 29.1713,-75.3029 L 29.1945,-75.2453 L 29.2145,-75.1831 L 29.2311,-75.1163 L 29.2445,-75.0449 L 29.2545,-74.9689
 L 29.2612,-74.8883 z
M 21.5926,-72.9534 L 21.7904,-72.9844 L 21.9715,-73.0361 L 22.136,-73.1084 L 22.2838,-73.2015 L 22.4149,-73.3152
 L 22.5293,-73.4496 L 22.6271,-73.6047 L 22.7083,-73.7804 L 21.9535,-73.8459 L 21.9249,-73.7688 L 21.8887,-73.7007
 L 21.8446,-73.6418 L 21.7929,-73.5919 L 21.7334,-73.5511 L 21.6662,-73.5193 L 21.5912,-73.4966 L 21.5085,-73.483
 L 21.4181,-73.4785 L 21.3514,-73.4813 L 21.2883,-73.4898 L 21.2287,-73.504 L 21.1725,-73.5238 L 21.1198,-73.5493
 L 21.0706,-73.5804 L 21.0249,-73.6172 L 20.9826,-73.6596 L 20.9438,-73.7077 L 20.9089,-73.7614 L 20.878,-73.8205
 L 20.8513,-73.8851 L 20.8286,-73.9551 L 20.8101,-74.0306 L 20.7957,-74.1116 L 20.7854,-74.1979 L 20.7793,-74.2898
 L 20.7772,-74.387 L 22.7538,-74.387 L 22.7538,-74.4098 L 22.7495,-74.5934 L 22.7365,-74.7668 L 22.7149,-74.9302
 L 22.6846,-75.0835 L 22.6457,-75.2267 L 22.5981,-75.3598 L 22.5419,-75.4828 L 22.477,-75.5957 L 22.4035,-75.6986
 L 22.3218,-75.7909 L 22.2323,-75.8724 L 22.1351,-75.943 L 22.0302,-76.0028 L 21.9176,-76.0517 L 21.7972,-76.0897
 L 21.669,-76.1169 L 21.5332,-76.1332 L 21.3895,-76.1386 L 21.239,-76.1335 L 21.0963,-76.1184 L 20.9614,-76.093
 L 20.8343,-76.0576 L 20.715,-76.012 L 20.6035,-75.9563 L 20.4998,-75.8905 L 20.4039,-75.8146 L 20.3158,-75.7285
 L 20.2363,-75.633 L 20.1662,-75.5288 L 20.1054,-75.4158 L 20.0539,-75.2942 L 20.0118,-75.1638 L 19.9791,-75.0247
 L 19.9557,-74.8769 L 19.9417,-74.7203 L 19.937,-74.5551 L 19.9416,-74.3844 L 19.9554,-74.2231 L 19.9785,-74.0711
 L 20.0107,-73.9284 L 20.0522,-73.795 L 20.1028,-73.6709 L 20.1627,-73.5562 L 20.2318,-73.4507 L 20.3101,-73.3546
 L 20.397,-73.2682 L 20.4918,-73.192 L 20.5946,-73.126 L 20.7053,-73.0701 L 20.824,-73.0243 L 20.9506,-72.9888
 L 21.0852,-72.9634 L 21.2277,-72.9481 L 21.3782,-72.9431 z
M 20.7829,-74.8883 L 20.7866,-74.9649 L 20.7938,-75.0375 L 20.8046,-75.1063 L 20.8189,-75.1713 L 20.8368,-75.2323
 L 20.8582,-75.2896 L 20.8832,-75.3429 L 20.9118,-75.3924 L 20.9438,-75.438 L 20.9793,-75.4792 L 21.018,-75.5156
 L 21.0598,-75.5472 L 21.1049,-75.5739 L 21.1531,-75.5957 L 21.2046,-75.6127 L 21.2592,-75.6248 L 21.3171,-75.6321
 L 21.3782,-75.6345 L 21.4357,-75.6322 L 21.4905,-75.6253 L 21.5427,-75.6138 L 21.5922,-75.5977 L 21.6391,-75.577
 L 21.6832,-75.5516 L 21.7247,-75.5217 L 21.7635,-75.4871 L 21.7997,-75.448 L 21.8328,-75.4042 L 21.8627,-75.3558
 L 21.8892,-75.3029 L 21.9125,-75.2453 L 21.9324,-75.1831 L 21.9491,-75.1163 L 21.9624,-75.0449 L 21.9724,-74.9689
 L 21.9791,-74.8883 z
M 62.5743,-76.0817 L 61.774,-76.0817 L 61.774,-73 L 62.5743,-73 z
M 35.1666,-76.0817 L 34.3663,-76.0817 L 34.3663,-73 L 35.1666,-73 z
M 19.7594,-76.0817 L 18.922,-76.0817 L 18.802,-75.7146 L 18.6938,-75.3831 L 18.5974,-75.087 L 18.5127,-74.8265
 L 18.44,-74.6015 L 18.379,-74.412 L 18.3298,-74.258 L 18.2925,-74.1396 L 18.2669,-74.0566 L 18.2481,-73.9936
 L 18.2307,-73.935 L 18.2147,-73.8807 L 18.2003,-73.8308 L 18.1873,-73.7852 L 18.1758,-73.744 L 18.1658,-73.7071
 L 18.1573,-73.6746 L 18.1502,-73.6465 L 18.1162,-73.7678 L 18.0851,-73.8786 L 18.0568,-73.9788 L 18.0315,-74.0685
 L 18.009,-74.1476 L 17.9894,-74.2162 L 17.9727,-74.2742 L 17.9589,-74.3216 L 17.948,-74.3586 L 17.4097,-76.0817
 L 16.5638,-76.0817 L 17.666,-73 L 18.623,-73 z
M 263.559,-70.9465 L 263.694,-70.957 L 263.824,-70.9745 L 263.951,-70.999 L 264.072,-71.0305 L 264.189,-71.069
 L 264.302,-71.1145 L 264.411,-71.1669 L 264.514,-71.2264 L 264.613,-71.2931 L 264.707,-71.3671 L 264.795,-71.4484
 L 264.877,-71.5371 L 264.954,-71.6331 L 265.026,-71.7365 L 265.092,-71.8473 L 265.153,-71.9654 L 265.208,-72.0908
 L 264.476,-72.3671 L 264.404,-72.2069 L 264.321,-72.0655 L 264.227,-71.943 L 264.121,-71.8394 L 264.003,-71.7546
 L 263.875,-71.6886 L 263.734,-71.6415 L 263.583,-71.6132 L 263.419,-71.6038 L 263.295,-71.6083 L 263.178,-71.6218
 L 263.068,-71.6443 L 262.964,-71.6758 L 262.866,-71.7163 L 262.776,-71.7658 L 262.692,-71.8243 L 262.614,-71.8918
 L 262.543,-71.9683 L 262.48,-72.0534 L 262.424,-72.1465 L 262.375,-72.2478 L 262.334,-72.3571 L 262.3,-72.4745
 L 262.274,-72.6 L 262.255,-72.7336 L 262.244,-72.8753 L 262.24,-73.025 L 262.244,-73.1722 L 262.255,-73.3114
 L 262.273,-73.4424 L 262.298,-73.5654 L 262.331,-73.6803 L 262.371,-73.787 L 262.418,-73.8857 L 262.473,-73.9763
 L 262.535,-74.0589 L 262.604,-74.133 L 262.679,-74.1984 L 262.762,-74.2551 L 262.851,-74.303 L 262.947,-74.3423
 L 263.05,-74.3728 L 263.16,-74.3946 L 263.276,-74.4077 L 263.399,-74.412 L 263.481,-74.4098 L 263.56,-74.4032
 L 263.637,-74.3923 L 263.712,-74.3769 L 263.784,-74.3571 L 263.853,-74.3329 L 263.92,-74.3044 L 263.985,-74.2714
 L 264.047,-74.234 L 264.106,-74.1929 L 264.16,-74.1488 L 264.21,-74.1016 L 264.256,-74.0513 L 264.297,-73.998
 L 264.333,-73.9416 L 264.365,-73.8822 L 264.393,-73.8197 L 264.416,-73.7541 L 265.157,-73.9563 L 265.113,-74.0752
 L 265.064,-74.1875 L 265.008,-74.2932 L 264.945,-74.3923 L 264.875,-74.4849 L 264.8,-74.5709 L 264.717,-74.6503
 L 264.628,-74.7231 L 264.533,-74.7894 L 264.431,-74.8489 L 264.322,-74.9014 L 264.208,-74.9469 L 264.086,-74.9853
 L 263.958,-75.0168 L 263.824,-75.0413 L 263.683,-75.0588 L 263.536,-75.0693 L 263.382,-75.0728 L 263.173,-75.0663
 L 262.974,-75.0467 L 262.788,-75.014 L 262.612,-74.9682 L 262.448,-74.9093 L 262.295,-74.8374 L 262.153,-74.7523
 L 262.023,-74.6543 L 261.904,-74.5431 L 261.797,-74.4197 L 261.703,-74.285 L 261.621,-74.139 L 261.552,-73.9816
 L 261.495,-73.8129 L 261.451,-73.6329 L 261.419,-73.4416 L 261.401,-73.239 L 261.394,-73.025 L 261.401,-72.8114
 L 261.42,-72.6086 L 261.453,-72.4166 L 261.499,-72.2354 L 261.557,-72.065 L 261.629,-71.9054 L 261.714,-71.7566
 L 261.812,-71.6185 L 261.923,-71.4913 L 262.045,-71.3762 L 262.179,-71.2747 L 262.324,-71.1867 L 262.479,-71.1123
 L 262.645,-71.0513 L 262.823,-71.004 L 263.011,-70.9701 L 263.209,-70.9498 L 263.419,-70.9431 z
M 280.372,-71.5953 L 279.452,-71.5953 L 279.452,-75.013 L 278.695,-75.013 L 277.689,-74.3608 L 277.689,-73.7313
 L 278.652,-74.3323 L 278.652,-71.5953 L 277.658,-71.5953 L 277.658,-71 L 280.372,-71 z
M 258.383,-72.0253 L 259.912,-72.0253 L 260.268,-71 L 261.1,-71 L 259.641,-75.013 L 258.65,-75.013
 L 257.186,-71 L 258.027,-71 z
M 258.57,-72.6576 L 258.665,-72.9342 L 258.75,-73.1817 L 258.825,-73.4 L 258.89,-73.5893 L 258.944,-73.7494
 L 258.988,-73.8804 L 259.022,-73.9823 L 259.046,-74.0551 L 259.06,-74.0988 L 259.069,-74.1275 L 259.078,-74.1556
 L 259.086,-74.1829 L 259.094,-74.2096 L 259.101,-74.2355 L 259.108,-74.2608 L 259.116,-74.2853 L 259.122,-74.3092
 L 259.129,-74.3323 L 259.146,-74.395 L 259.206,-74.1984 L 259.328,-73.8111 L 259.724,-72.6576 z
M 275.09,-70.9499 L 275.172,-70.9535 L 275.251,-70.9595 L 275.328,-70.9678 L 275.403,-70.9786 L 275.476,-70.9918
 L 275.547,-71.0073 L 275.615,-71.0252 L 275.682,-71.0456 L 275.682,-71.5411 L 275.645,-71.5328 L 275.609,-71.5254
 L 275.575,-71.519 L 275.544,-71.5136 L 275.514,-71.5091 L 275.486,-71.5057 L 275.46,-71.5032 L 275.436,-71.5018
 L 275.415,-71.5013 L 275.376,-71.5026 L 275.339,-71.5065 L 275.305,-71.5131 L 275.274,-71.5224 L 275.244,-71.5342
 L 275.217,-71.5487 L 275.192,-71.5659 L 275.17,-71.5856 L 275.15,-71.6081 L 275.132,-71.6333 L 275.116,-71.6614
 L 275.102,-71.6924 L 275.091,-71.7263 L 275.081,-71.7632 L 275.074,-71.803 L 275.068,-71.8457 L 275.065,-71.8913
 L 275.064,-71.9399 L 275.064,-73.5405 L 275.648,-73.5405 L 275.648,-74.0817 L 275.064,-74.0817 L 275.064,-74.8051
 L 274.563,-74.8051 L 274.312,-74.0817 L 273.882,-74.0817 L 273.882,-73.5405 L 274.272,-73.5405 L 274.272,-71.7234
 L 274.275,-71.6391 L 274.282,-71.5598 L 274.294,-71.4853 L 274.31,-71.4157 L 274.331,-71.351 L 274.357,-71.2911
 L 274.388,-71.2362 L 274.423,-71.1861 L 274.463,-71.1409 L 274.508,-71.1006 L 274.556,-71.065 L 274.609,-71.0341
 L 274.665,-71.008 L 274.725,-70.9867 L 274.79,-70.9701 L 274.858,-70.9582 L 274.931,-70.9511 L 275.007,-70.9487
 z
M 268.78,-70.9483 L 268.931,-70.9641 L 269.075,-70.9904 L 269.21,-71.0271 L 269.338,-71.0745 L 269.458,-71.1323
 L 269.57,-71.2006 L 269.675,-71.2795 L 269.771,-71.3688 L 269.858,-71.4675 L 269.935,-71.574 L 270.002,-71.6886
 L 270.058,-71.8112 L 270.105,-71.9417 L 270.141,-72.0802 L 270.166,-72.2267 L 270.182,-72.3812 L 270.187,-72.5437
 L 270.182,-72.7107 L 270.167,-72.8689 L 270.143,-73.0182 L 270.108,-73.1586 L 270.064,-73.2901 L 270.01,-73.4127
 L 269.946,-73.5264 L 269.873,-73.6311 L 269.789,-73.7271 L 269.697,-73.8134 L 269.595,-73.8896 L 269.485,-73.9557
 L 269.366,-74.0116 L 269.238,-74.0573 L 269.101,-74.0929 L 268.955,-74.1183 L 268.801,-74.1335 L 268.637,-74.1386
 L 268.477,-74.1333 L 268.326,-74.1176 L 268.182,-74.0913 L 268.046,-74.0545 L 267.919,-74.0072 L 267.799,-73.9494
 L 267.688,-73.881 L 267.585,-73.8022 L 267.49,-73.7128 L 267.404,-73.6143 L 267.328,-73.5079 L 267.262,-73.3937
 L 267.206,-73.2716 L 267.16,-73.1417 L 267.125,-73.004 L 267.1,-72.8584 L 267.085,-72.7049 L 267.079,-72.5437
 L 267.085,-72.3818 L 267.1,-72.2278 L 267.125,-72.0816 L 267.16,-71.9434 L 267.206,-71.813 L 267.262,-71.6905
 L 267.328,-71.5759 L 267.404,-71.4691 L 267.49,-71.3703 L 267.585,-71.2806 L 267.687,-71.2015 L 267.798,-71.1329
 L 267.915,-71.0749 L 268.041,-71.0274 L 268.174,-70.9905 L 268.315,-70.9642 L 268.464,-70.9483 L 268.62,-70.9431
 z
M 268.539,-71.4932 L 268.47,-71.5032 L 268.405,-71.5198 L 268.344,-71.543 L 268.287,-71.573 L 268.234,-71.6095
 L 268.185,-71.6527 L 268.139,-71.7025 L 268.098,-71.759 L 268.06,-71.8219 L 268.027,-71.8908 L 267.999,-71.9658
 L 267.975,-72.0469 L 267.955,-72.1341 L 267.939,-72.2274 L 267.928,-72.3267 L 267.922,-72.4321 L 267.92,-72.5437
 L 267.929,-72.763 L 267.956,-72.9566 L 268.001,-73.1244 L 268.064,-73.2663 L 268.145,-73.3825 L 268.244,-73.4728
 L 268.361,-73.5373 L 268.496,-73.576 L 268.649,-73.589 L 268.723,-73.5859 L 268.793,-73.5767 L 268.859,-73.5614
 L 268.92,-73.54 L 268.978,-73.5125 L 269.032,-73.4788 L 269.082,-73.4391 L 269.128,-73.3932 L 269.17,-73.3412
 L 269.208,-73.2824 L 269.241,-73.2161 L 269.27,-73.1424 L 269.294,-73.0612 L 269.314,-72.9726 L 269.329,-72.8766
 L 269.341,-72.7731 L 269.347,-72.6621 L 269.349,-72.5437 L 269.34,-72.3225 L 269.313,-72.1273 L 269.267,-71.9582
 L 269.204,-71.8151 L 269.122,-71.698 L 269.022,-71.607 L 268.903,-71.5419 L 268.767,-71.5029 L 268.612,-71.4899
 z
M 271.781,-70.945 L 271.853,-70.9509 L 271.923,-70.9608 L 271.99,-70.9746 L 272.055,-70.9923 L 272.118,-71.0139
 L 272.178,-71.0395 L 272.236,-71.069 L 272.292,-71.1025 L 272.346,-71.1403 L 272.397,-71.1828 L 272.447,-71.2301
 L 272.494,-71.282 L 272.539,-71.3386 L 272.582,-71.4 L 272.623,-71.4661 L 272.662,-71.5369 L 272.698,-71.6124
 L 272.712,-71.6124 L 272.713,-71.5648 L 272.714,-71.5122 L 272.716,-71.4544 L 272.719,-71.3915 L 272.723,-71.3235
 L 272.728,-71.2503 L 272.733,-71.172 L 272.739,-71.0886 L 272.747,-71 L 273.51,-71 L 273.505,-71.067
 L 273.501,-71.1364 L 273.497,-71.2082 L 273.494,-71.2824 L 273.492,-71.359 L 273.49,-71.438 L 273.488,-71.5193
 L 273.487,-71.6031 L 273.487,-71.6893 L 273.487,-74.0817 L 272.687,-74.0817 L 272.687,-72.4298 L 272.685,-72.3448
 L 272.678,-72.2633 L 272.667,-72.1853 L 272.652,-72.1108 L 272.632,-72.0397 L 272.608,-71.9722 L 272.579,-71.9081
 L 272.546,-71.8475 L 272.509,-71.7903 L 272.468,-71.738 L 272.424,-71.6919 L 272.378,-71.6519 L 272.328,-71.618
 L 272.276,-71.5903 L 272.221,-71.5688 L 272.164,-71.5534 L 272.103,-71.5442 L 272.04,-71.5411 L 271.925,-71.5511
 L 271.824,-71.5812 L 271.736,-71.6313 L 271.662,-71.7015 L 271.601,-71.7917 L 271.554,-71.9019 L 271.52,-72.0322
 L 271.5,-72.1825 L 271.493,-72.3529 L 271.493,-74.0817 L 270.693,-74.0817 L 270.693,-72.125 L 270.696,-71.9993
 L 270.706,-71.8806 L 270.722,-71.7688 L 270.745,-71.664 L 270.774,-71.566 L 270.809,-71.475 L 270.852,-71.3909
 L 270.9,-71.3137 L 270.955,-71.2435 L 271.016,-71.1805 L 271.083,-71.1248 L 271.155,-71.0766 L 271.233,-71.0358
 L 271.317,-71.0024 L 271.406,-70.9764 L 271.5,-70.9579 L 271.601,-70.9468 L 271.707,-70.9431 z
M 44.5174,-36.2266 L 43.717,-36.2266 L 43.717,-35.6371 L 44.5174,-35.6371 z
M 41.7781,-36.013 L 40.9094,-36.013 L 40.0863,-33.4355 L 39.941,-32.9228 L 39.8812,-32.6778 L 39.8522,-32.7873
 L 39.8246,-32.8905 L 39.7983,-32.9873 L 39.7735,-33.0779 L 39.7501,-33.162 L 39.7281,-33.2399 L 39.7075,-33.3114
 L 39.6883,-33.3766 L 39.6705,-33.4355 L 38.8445,-36.013 L 37.9673,-36.013 L 39.4512,-32 L 40.3028,-32
 z
M 35.3582,-33.4127 L 36.355,-33.4127 L 36.4542,-33.4147 L 36.5502,-33.4209 L 36.6432,-33.4312 L 36.7331,-33.4456
 L 36.82,-33.4641 L 36.9038,-33.4867 L 36.9846,-33.5135 L 37.0622,-33.5443 L 37.1369,-33.5793 L 37.2081,-33.618
 L 37.2755,-33.6602 L 37.3392,-33.7057 L 37.3992,-33.7547 L 37.4553,-33.807 L 37.5078,-33.8628 L 37.5564,-33.922
 L 37.6013,-33.9846 L 37.6424,-34.0506 L 37.6795,-34.1194 L 37.7122,-34.1902 L 37.7405,-34.263 L 37.7645,-34.3378
 L 37.7841,-34.4147 L 37.7994,-34.4937 L 37.8103,-34.5746 L 37.8168,-34.6577 L 37.819,-34.7427 L 37.8142,-34.8741
 L 37.7998,-34.9988 L 37.7758,-35.1166 L 37.7422,-35.2277 L 37.699,-35.332 L 37.6462,-35.4295 L 37.5838,-35.5202
 L 37.5118,-35.6041 L 37.4302,-35.6812 L 37.3397,-35.7508 L 37.241,-35.8123 L 37.1342,-35.8655 L 37.0191,-35.9106
 L 36.8958,-35.9475 L 36.7644,-35.9761 L 36.6248,-35.9966 L 36.4769,-36.0089 L 36.3209,-36.013 L 34.518,-36.013
 L 34.518,-32 L 35.3582,-32 z
M 35.3582,-34.0592 L 35.3582,-35.3608 L 36.2269,-35.3608 L 36.3835,-35.353 L 36.5217,-35.3296 L 36.6415,-35.2905
 L 36.7428,-35.2359 L 36.8257,-35.1656 L 36.8902,-35.0798 L 36.9363,-34.9783 L 36.9639,-34.8612 L 36.9731,-34.7285
 L 36.9708,-34.6582 L 36.9638,-34.5917 L 36.9522,-34.529 L 36.936,-34.47 L 36.9151,-34.4148 L 36.8896,-34.3633
 L 36.8594,-34.3156 L 36.8246,-34.2717 L 36.7851,-34.2315 L 36.7414,-34.1953 L 36.6937,-34.1634 L 36.6421,-34.1358
 L 36.5865,-34.1124 L 36.527,-34.0932 L 36.4636,-34.0783 L 36.3962,-34.0677 L 36.3249,-34.0613 L 36.2497,-34.0592
 z
M 46.1001,-33.6519 L 46.1023,-33.7369 L 46.1089,-33.8184 L 46.1198,-33.8964 L 46.1352,-33.9709 L 46.155,-34.0419
 L 46.1792,-34.1095 L 46.2077,-34.1736 L 46.2407,-34.2342 L 46.2781,-34.2913 L 46.319,-34.3436 L 46.3627,-34.3898
 L 46.4092,-34.4298 L 46.4585,-34.4636 L 46.5106,-34.4913 L 46.5654,-34.5128 L 46.623,-34.5282 L 46.6834,-34.5375
 L 46.7466,-34.5405 L 46.862,-34.5305 L 46.9637,-34.5004 L 47.052,-34.4503 L 47.1266,-34.3802 L 47.1877,-34.29
 L 47.2352,-34.1798 L 47.2691,-34.0495 L 47.2895,-33.8992 L 47.2963,-33.7288 L 47.2963,-32 L 48.0937,-32
 L 48.0937,-33.9566 L 48.0905,-34.0823 L 48.0808,-34.2011 L 48.0646,-34.313 L 48.042,-34.418 L 48.0128,-34.5161
 L 47.9773,-34.6073 L 47.9352,-34.6916 L 47.8867,-34.769 L 47.8317,-34.8396 L 47.7707,-34.9029 L 47.704,-34.9588
 L 47.6317,-35.0073 L 47.5538,-35.0483 L 47.4702,-35.0818 L 47.3811,-35.1079 L 47.2863,-35.1266 L 47.1859,-35.1377
 L 47.0798,-35.1415 L 47.0056,-35.1395 L 46.9338,-35.1336 L 46.8643,-35.1237 L 46.7971,-35.11 L 46.7322,-35.0922
 L 46.6697,-35.0706 L 46.6094,-35.045 L 46.5515,-35.0154 L 46.4959,-34.9819 L 46.4425,-34.9441 L 46.3912,-34.9015
 L 46.3418,-34.8541 L 46.2945,-34.8019 L 46.2493,-34.745 L 46.2061,-34.6832 L 46.1649,-34.6167 L 46.1257,-34.5454
 L 46.0887,-34.4693 L 46.0773,-34.4693 L 46.0771,-34.4907 L 46.0766,-34.5158 L 46.0757,-34.5445 L 46.0744,-34.5768
 L 46.0729,-34.6127 L 46.0709,-34.6522 L 46.0686,-34.6954 L 46.066,-34.7422 L 46.063,-34.7926 L 46.0599,-34.8426
 L 46.057,-34.8881 L 46.0542,-34.9291 L 46.0515,-34.9657 L 46.049,-34.9978 L 46.0466,-35.0255 L 46.0443,-35.0487
 L 46.0422,-35.0674 L 46.0402,-35.0817 L 45.277,-35.0817 L 45.2788,-35.0534 L 45.2807,-35.0243 L 45.2825,-34.9945
 L 45.2843,-34.9638 L 45.286,-34.9323 L 45.2877,-34.9 L 45.2894,-34.8669 L 45.291,-34.833 L 45.2926,-34.7982
 L 45.2941,-34.762 L 45.2954,-34.7236 L 45.2966,-34.6829 L 45.2975,-34.64 L 45.2983,-34.5949 L 45.2989,-34.5476
 L 45.2994,-34.4981 L 45.2996,-34.4464 L 45.2997,-34.3924 L 45.2997,-32 L 46.1001,-32 z
M 44.5174,-35.0817 L 43.717,-35.0817 L 43.717,-32 L 44.5174,-32 z
M 263.559,-10.9465 L 263.694,-10.957 L 263.824,-10.9745 L 263.951,-10.999 L 264.072,-11.0305 L 264.189,-11.069
 L 264.302,-11.1145 L 264.411,-11.1669 L 264.514,-11.2264 L 264.613,-11.2931 L 264.707,-11.3671 L 264.795,-11.4484
 L 264.877,-11.5371 L 264.954,-11.6331 L 265.026,-11.7365 L 265.092,-11.8473 L 265.153,-11.9654 L 265.208,-12.0908
 L 264.476,-12.3671 L 264.404,-12.2069 L 264.321,-12.0655 L 264.227,-11.943 L 264.121,-11.8394 L 264.003,-11.7546
 L 263.875,-11.6886 L 263.734,-11.6415 L 263.583,-11.6132 L 263.419,-11.6038 L 263.295,-11.6083 L 263.178,-11.6218
 L 263.068,-11.6443 L 262.964,-11.6758 L 262.866,-11.7163 L 262.776,-11.7658 L 262.692,-11.8243 L 262.614,-11.8918
 L 262.543,-11.9683 L 262.48,-12.0534 L 262.424,-12.1465 L 262.375,-12.2478 L 262.334,-12.3571 L 262.3,-12.4745
 L 262.274,-12.6 L 262.255,-12.7336 L 262.244,-12.8753 L 262.24,-13.025 L 262.244,-13.1722 L 262.255,-13.3114
 L 262.273,-13.4424 L 262.298,-13.5654 L 262.331,-13.6803 L 262.371,-13.787 L 262.418,-13.8857 L 262.473,-13.9763
 L 262.535,-14.0589 L 262.604,-14.133 L 262.679,-14.1984 L 262.762,-14.2551 L 262.851,-14.303 L 262.947,-14.3423
 L 263.05,-14.3728 L 263.16,-14.3946 L 263.276,-14.4077 L 263.399,-14.412 L 263.481,-14.4098 L 263.56,-14.4032
 L 263.637,-14.3923 L 263.712,-14.3769 L 263.784,-14.3571 L 263.853,-14.3329 L 263.92,-14.3044 L 263.985,-14.2714
 L 264.047,-14.234 L 264.106,-14.1929 L 264.16,-14.1488 L 264.21,-14.1016 L 264.256,-14.0513 L 264.297,-13.998
 L 264.333,-13.9416 L 264.365,-13.8822 L 264.393,-13.8197 L 264.416,-13.7541 L 265.157,-13.9563 L 265.113,-14.0752
 L 265.064,-14.1875 L 265.008,-14.2932 L 264.945,-14.3923 L 264.875,-14.4849 L 264.8,-14.5709 L 264.717,-14.6503
 L 264.628,-14.7231 L 264.533,-14.7894 L 264.431,-14.8489 L 264.322,-14.9014 L 264.208,-14.9469 L 264.086,-14.9853
 L 263.958,-15.0168 L 263.824,-15.0413 L 263.683,-15.0588 L 263.536,-15.0693 L 263.382,-15.0728 L 263.173,-15.0663
 L 262.974,-15.0467 L 262.788,-15.014 L 262.612,-14.9682 L 262.448,-14.9093 L 262.295,-14.8374 L 262.153,-14.7523
 L 262.023,-14.6543 L 261.904,-14.5431 L 261.797,-14.4197 L 261.703,-14.285 L 261.621,-14.139 L 261.552,-13.9816
 L 261.495,-13.8129 L 261.451,-13.6329 L 261.419,-13.4416 L 261.401,-13.239 L 261.394,-13.025 L 261.401,-12.8114
 L 261.42,-12.6086 L 261.453,-12.4166 L 261.499,-12.2354 L 261.557,-12.065 L 261.629,-11.9054 L 261.714,-11.7566
 L 261.812,-11.6185 L 261.923,-11.4913 L 262.045,-11.3762 L 262.179,-11.2747 L 262.324,-11.1867 L 262.479,-11.1123
 L 262.645,-11.0513 L 262.823,-11.004 L 263.011,-10.9701 L 263.209,-10.9498 L 263.419,-10.9431 z
M 280.301,-11.6579 L 278.439,-11.6579 L 278.457,-11.6988 L 278.478,-11.7391 L 278.501,-11.7788 L 278.526,-11.818
 L 278.553,-11.8566 L 278.582,-11.8946 L 278.613,-11.9321 L 278.647,-11.969 L 278.682,-12.0054 L 278.719,-12.0414
 L 278.757,-12.0774 L 278.795,-12.1133 L 278.835,-12.1491 L 278.875,-12.1849 L 278.916,-12.2206 L 278.958,-12.2562
 L 279.001,-12.2917 L 279.045,-12.3272 L 279.134,-12.3985 L 279.225,-12.4707 L 279.317,-12.5437 L 279.363,-12.5805
 L 279.457,-12.6548 L 279.503,-12.6924 L 279.549,-12.7306 L 279.594,-12.7695 L 279.638,-12.8089 L 279.681,-12.8489
 L 279.723,-12.8896 L 279.764,-12.9308 L 279.804,-12.9726 L 279.843,-13.015 L 279.881,-13.0582 L 279.917,-13.1022
 L 279.952,-13.1472 L 279.985,-13.193 L 280.016,-13.2396 L 280.046,-13.2872 L 280.075,-13.3356 L 280.102,-13.385
 L 280.127,-13.4352 L 280.151,-13.4865 L 280.171,-13.5391 L 280.189,-13.5931 L 280.204,-13.6484 L 280.217,-13.705
 L 280.226,-13.763 L 280.233,-13.8223 L 280.237,-13.883 L 280.239,-13.9449 L 280.234,-14.061 L 280.221,-14.1711
 L 280.2,-14.2753 L 280.17,-14.3736 L 280.131,-14.466 L 280.084,-14.5526 L 280.028,-14.6331 L 279.964,-14.7078
 L 279.891,-14.7766 L 279.81,-14.8388 L 279.722,-14.8936 L 279.626,-14.9412 L 279.523,-14.9814 L 279.412,-15.0143
 L 279.294,-15.0399 L 279.168,-15.0582 L 279.035,-15.0692 L 278.894,-15.0728 L 278.764,-15.0692 L 278.64,-15.0583
 L 278.522,-15.0402 L 278.41,-15.0149 L 278.304,-14.9823 L 278.205,-14.9424 L 278.112,-14.8953 L 278.025,-14.841
 L 277.944,-14.7794 L 277.87,-14.711 L 277.803,-14.636 L 277.743,-14.5545 L 277.69,-14.4664 L 277.643,-14.3717
 L 277.604,-14.2706 L 277.571,-14.1629 L 277.546,-14.0486 L 277.527,-13.9279 L 278.333,-13.8823 L 278.343,-13.942
 L 278.356,-13.9982 L 278.37,-14.0511 L 278.387,-14.1006 L 278.407,-14.1466 L 278.429,-14.1893 L 278.453,-14.2285
 L 278.479,-14.2643 L 278.508,-14.2967 L 278.54,-14.3257 L 278.574,-14.3513 L 278.612,-14.3734 L 278.652,-14.3922
 L 278.696,-14.4075 L 278.743,-14.4195 L 278.792,-14.428 L 278.844,-14.4331 L 278.9,-14.4348 L 279.011,-14.4284
 L 279.108,-14.409 L 279.193,-14.3766 L 279.264,-14.3313 L 279.323,-14.2731 L 279.368,-14.2019 L 279.401,-14.1178
 L 279.42,-14.0208 L 279.427,-13.9108 L 279.425,-13.8632 L 279.418,-13.8154 L 279.408,-13.7674 L 279.393,-13.7192
 L 279.375,-13.6708 L 279.352,-13.6222 L 279.324,-13.5733 L 279.293,-13.5243 L 279.257,-13.475 L 279.217,-13.4242
 L 279.17,-13.3704 L 279.116,-13.3136 L 279.057,-13.2539 L 278.991,-13.1913 L 278.919,-13.1256 L 278.841,-13.0571
 L 278.757,-12.9855 L 278.666,-12.9111 L 278.571,-12.8323 L 278.479,-12.7543 L 278.391,-12.6769 L 278.306,-12.6003
 L 278.225,-12.5243 L 278.148,-12.4491 L 278.075,-12.3745 L 278.005,-12.3007 L 277.939,-12.2275 L 277.876,-12.1545
 L 277.817,-12.0811 L 277.761,-12.0073 L 277.708,-11.933 L 277.658,-11.8583 L 277.612,-11.7832 L 277.569,-11.7077
 L 277.529,-11.6317 L 277.493,-11.5554 L 277.493,-11 L 280.301,-11 z
M 258.383,-12.0253 L 259.912,-12.0253 L 260.268,-11 L 261.1,-11 L 259.641,-15.013 L 258.65,-15.013
 L 257.186,-11 L 258.027,-11 z
M 258.57,-12.6576 L 258.665,-12.9342 L 258.75,-13.1817 L 258.825,-13.4 L 258.89,-13.5893 L 258.944,-13.7494
 L 258.988,-13.8804 L 259.022,-13.9823 L 259.046,-14.0551 L 259.06,-14.0988 L 259.069,-14.1275 L 259.078,-14.1556
 L 259.086,-14.1829 L 259.094,-14.2096 L 259.101,-14.2355 L 259.108,-14.2608 L 259.116,-14.2853 L 259.122,-14.3092
 L 259.129,-14.3323 L 259.146,-14.395 L 259.206,-14.1984 L 259.328,-13.8111 L 259.724,-12.6576 z
M 275.09,-10.9499 L 275.172,-10.9535 L 275.251,-10.9595 L 275.328,-10.9678 L 275.403,-10.9786 L 275.476,-10.9918
 L 275.547,-11.0073 L 275.615,-11.0252 L 275.682,-11.0456 L 275.682,-11.5411 L 275.645,-11.5328 L 275.609,-11.5254
 L 275.575,-11.519 L 275.544,-11.5136 L 275.514,-11.5091 L 275.486,-11.5057 L 275.46,-11.5032 L 275.436,-11.5018
 L 275.415,-11.5013 L 275.376,-11.5026 L 275.339,-11.5065 L 275.305,-11.5131 L 275.274,-11.5224 L 275.244,-11.5342
 L 275.217,-11.5487 L 275.192,-11.5659 L 275.17,-11.5856 L 275.15,-11.6081 L 275.132,-11.6333 L 275.116,-11.6614
 L 275.102,-11.6924 L 275.091,-11.7263 L 275.081,-11.7632 L 275.074,-11.803 L 275.068,-11.8457 L 275.065,-11.8913
 L 275.064,-11.9399 L 275.064,-13.5405 L 275.648,-13.5405 L 275.648,-14.0817 L 275.064,-14.0817 L 275.064,-14.8051
 L 274.563,-14.8051 L 274.312,-14.0817 L 273.882,-14.0817 L 273.882,-13.5405 L 274.272,-13.5405 L 274.272,-11.7234
 L 274.275,-11.6391 L 274.282,-11.5598 L 274.294,-11.4853 L 274.31,-11.4157 L 274.331,-11.351 L 274.357,-11.2911
 L 274.388,-11.2362 L 274.423,-11.1861 L 274.463,-11.1409 L 274.508,-11.1006 L 274.556,-11.065 L 274.609,-11.0341
 L 274.665,-11.008 L 274.725,-10.9867 L 274.79,-10.9701 L 274.858,-10.9582 L 274.931,-10.9511 L 275.007,-10.9487
 z
M 43.6711,-11.5565 L 41.5448,-11.5565 L 41.5448,-14.3493 L 41.0723,-14.3493 L 41.0723,-11.5565 L 38.946,-11.5565
 L 38.946,-11.0875 L 43.6711,-11.0875 z
M 268.78,-10.9483 L 268.931,-10.9641 L 269.075,-10.9904 L 269.21,-11.0271 L 269.338,-11.0745 L 269.458,-11.1323
 L 269.57,-11.2006 L 269.675,-11.2795 L 269.771,-11.3688 L 269.858,-11.4675 L 269.935,-11.574 L 270.002,-11.6886
 L 270.058,-11.8112 L 270.105,-11.9417 L 270.141,-12.0802 L 270.166,-12.2267 L 270.182,-12.3812 L 270.187,-12.5437
 L 270.182,-12.7107 L 270.167,-12.8689 L 270.143,-13.0182 L 270.108,-13.1586 L 270.064,-13.2901 L 270.01,-13.4127
 L 269.946,-13.5264 L 269.873,-13.6311 L 269.789,-13.7271 L 269.697,-13.8134 L 269.595,-13.8896 L 269.485,-13.9557
 L 269.366,-14.0116 L 269.238,-14.0573 L 269.101,-14.0929 L 268.955,-14.1183 L 268.801,-14.1335 L 268.637,-14.1386
 L 268.477,-14.1333 L 268.326,-14.1176 L 268.182,-14.0913 L 268.046,-14.0545 L 267.919,-14.0072 L 267.799,-13.9494
 L 267.688,-13.881 L 267.585,-13.8022 L 267.49,-13.7128 L 267.404,-13.6143 L 267.328,-13.5079 L 267.262,-13.3937
 L 267.206,-13.2716 L 267.16,-13.1417 L 267.125,-13.004 L 267.1,-12.8584 L 267.085,-12.7049 L 267.079,-12.5437
 L 267.085,-12.3818 L 267.1,-12.2278 L 267.125,-12.0816 L 267.16,-11.9434 L 267.206,-11.813 L 267.262,-11.6905
 L 267.328,-11.5759 L 267.404,-11.4691 L 267.49,-11.3703 L 267.585,-11.2806 L 267.687,-11.2015 L 267.798,-11.1329
 L 267.915,-11.0749 L 268.041,-11.0274 L 268.174,-10.9905 L 268.315,-10.9642 L 268.464,-10.9483 L 268.62,-10.9431
 z
M 268.539,-11.4932 L 268.47,-11.5032 L 268.405,-11.5198 L 268.344,-11.543 L 268.287,-11.573 L 268.234,-11.6095
 L 268.185,-11.6527 L 268.139,-11.7025 L 268.098,-11.759 L 268.06,-11.8219 L 268.027,-11.8908 L 267.999,-11.9658
 L 267.975,-12.0469 L 267.955,-12.1341 L 267.939,-12.2274 L 267.928,-12.3267 L 267.922,-12.4321 L 267.92,-12.5437
 L 267.929,-12.763 L 267.956,-12.9566 L 268.001,-13.1244 L 268.064,-13.2663 L 268.145,-13.3825 L 268.244,-13.4728
 L 268.361,-13.5373 L 268.496,-13.576 L 268.649,-13.589 L 268.723,-13.5859 L 268.793,-13.5767 L 268.859,-13.5614
 L 268.92,-13.54 L 268.978,-13.5125 L 269.032,-13.4788 L 269.082,-13.4391 L 269.128,-13.3932 L 269.17,-13.3412
 L 269.208,-13.2824 L 269.241,-13.2161 L 269.27,-13.1424 L 269.294,-13.0612 L 269.314,-12.9726 L 269.329,-12.8766
 L 269.341,-12.7731 L 269.347,-12.6621 L 269.349,-12.5437 L 269.34,-12.3225 L 269.313,-12.1273 L 269.267,-11.9582
 L 269.204,-11.8151 L 269.122,-11.698 L 269.022,-11.607 L 268.903,-11.5419 L 268.767,-11.5029 L 268.612,-11.4899
 z
M 271.781,-10.945 L 271.853,-10.9509 L 271.923,-10.9608 L 271.99,-10.9746 L 272.055,-10.9923 L 272.118,-11.0139
 L 272.178,-11.0395 L 272.236,-11.069 L 272.292,-11.1025 L 272.346,-11.1403 L 272.397,-11.1828 L 272.447,-11.2301
 L 272.494,-11.282 L 272.539,-11.3386 L 272.582,-11.4 L 272.623,-11.4661 L 272.662,-11.5369 L 272.698,-11.6124
 L 272.712,-11.6124 L 272.713,-11.5648 L 272.714,-11.5122 L 272.716,-11.4544 L 272.719,-11.3915 L 272.723,-11.3235
 L 272.728,-11.2503 L 272.733,-11.172 L 272.739,-11.0886 L 272.747,-11 L 273.51,-11 L 273.505,-11.067
 L 273.501,-11.1364 L 273.497,-11.2082 L 273.494,-11.2824 L 273.492,-11.359 L 273.49,-11.438 L 273.488,-11.5193
 L 273.487,-11.6031 L 273.487,-11.6893 L 273.487,-14.0817 L 272.687,-14.0817 L 272.687,-12.4298 L 272.685,-12.3448
 L 272.678,-12.2633 L 272.667,-12.1853 L 272.652,-12.1108 L 272.632,-12.0397 L 272.608,-11.9722 L 272.579,-11.9081
 L 272.546,-11.8475 L 272.509,-11.7903 L 272.468,-11.738 L 272.424,-11.6919 L 272.378,-11.6519 L 272.328,-11.618
 L 272.276,-11.5903 L 272.221,-11.5688 L 272.164,-11.5534 L 272.103,-11.5442 L 272.04,-11.5411 L 271.925,-11.5511
 L 271.824,-11.5812 L 271.736,-11.6313 L 271.662,-11.7015 L 271.601,-11.7917 L 271.554,-11.9019 L 271.52,-12.0322
 L 271.5,-12.1825 L 271.493,-12.3529 L 271.493,-14.0817 L 270.693,-14.0817 L 270.693,-12.125 L 270.696,-11.9993
 L 270.706,-11.8806 L 270.722,-11.7688 L 270.745,-11.664 L 270.774,-11.566 L 270.809,-11.475 L 270.852,-11.3909
 L 270.9,-11.3137 L 270.955,-11.2435 L 271.016,-11.1805 L 271.083,-11.1248 L 271.155,-11.0766 L 271.233,-11.0358
 L 271.317,-11.0024 L 271.406,-10.9764 L 271.5,-10.9579 L 271.601,-10.9468 L 271.707,-10.9431 z
M 42.9659,-10.5128 L 39.6512,-10.5128 L 39.6512,-10.0438 L 42.9659,-10.0438 z
M 42.2606,-9.46898 L 40.3565,-9.46898 L 40.3565,-9 L 42.2606,-9 z
" stroke="black" fill="lightgray" stroke-width="0.5"/>
</svg>
