<?xml version="1.0" standalone="no"?>
<!DOCTYPE svg PUBLIC "-//W3C//DTD SVG 1.1//EN" "http://www.w3.org/Graphics/SVG/1.1/DTD/svg11.dtd">
<svg width="308mm" height="171mm" viewBox="1 -172 308 171" xmlns="http://www.w3.org/2000/svg" version="1.1">
<title>OpenSCAD Model</title>
<path d="
M 309,-172 L 228.5,-172 L 228.5,-137 L 228.495,-136.902 L 228.481,-136.805 L 228.457,-136.71
 L 228.424,-136.617 L 228.382,-136.529 L 228.331,-136.444 L 228.273,-136.366 L 228.207,-136.293 L 228.134,-136.227
 L 228.056,-136.169 L 227.971,-136.118 L 227.883,-136.076 L 227.79,-136.043 L 227.695,-136.019 L 227.598,-136.005
 L 227.5,-136 L 82.5,-136 L 82.402,-136.005 L 82.3049,-136.019 L 82.2097,-136.043 L 82.1173,-136.076
 L 82.0286,-136.118 L 81.9444,-136.169 L 81.8656,-136.227 L 81.7929,-136.293 L 81.727,-136.366 L 81.6685,-136.444
 L 81.6181,-136.529 L 81.5761,-136.617 L 81.5431,-136.71 L 81.5192,-136.805 L 81.5048,-136.902 L 81.5,-137
 L 81.5,-172 L 1,-172 L 1,-1 L 309,-1 z
M 242.15,-140.4 L 242.15,-167.6 L 295.35,-167.6 L 295.35,-140.4 z
M 14.65,-140.4 L 14.65,-167.6 L 67.85,-167.6 L 67.85,-140.4 z
M 300.49,-161.363 L 300.233,-161.401 L 299.981,-161.464 L 299.736,-161.552 L 299.501,-161.663 L 299.278,-161.797
 L 299.069,-161.952 L 298.876,-162.126 L 298.702,-162.319 L 298.547,-162.528 L 298.413,-162.751 L 298.302,-162.986
 L 298.214,-163.231 L 298.151,-163.483 L 298.113,-163.74 L 298.1,-164 L 298.113,-164.26 L 298.151,-164.517
 L 298.214,-164.769 L 298.302,-165.014 L 298.413,-165.249 L 298.547,-165.472 L 298.702,-165.681 L 298.876,-165.874
 L 299.069,-166.048 L 299.278,-166.203 L 299.501,-166.337 L 299.736,-166.448 L 299.981,-166.536 L 300.233,-166.599
 L 300.49,-166.637 L 300.75,-166.65 L 301.01,-166.637 L 301.267,-166.599 L 301.519,-166.536 L 301.764,-166.448
 L 301.999,-166.337 L 302.222,-166.203 L 302.431,-166.048 L 302.624,-165.874 L 302.798,-165.681 L 302.953,-165.472
 L 303.087,-165.249 L 303.198,-165.014 L 303.286,-164.769 L 303.349,-164.517 L 303.387,-164.26 L 303.4,-164
 L 303.387,-163.74 L 303.349,-163.483 L 303.286,-163.231 L 303.198,-162.986 L 303.087,-162.751 L 302.953,-162.528
 L 302.798,-162.319 L 302.624,-162.126 L 302.431,-161.952 L 302.222,-161.797 L 301.999,-161.663 L 301.764,-161.552
 L 301.519,-161.464 L 301.267,-161.401 L 301.01,-161.363 L 300.75,-161.35 z
M 236.49,-161.363 L 236.233,-161.401 L 235.981,-161.464 L 235.736,-161.552 L 235.501,-161.663 L 235.278,-161.797
 L 235.069,-161.952 L 234.876,-162.126 L 234.702,-162.319 L 234.547,-162.528 L 234.413,-162.751 L 234.302,-162.986
 L 234.214,-163.231 L 234.151,-163.483 L 234.113,-163.74 L 234.1,-164 L 234.113,-164.26 L 234.151,-164.517
 L 234.214,-164.769 L 234.302,-165.014 L 234.413,-165.249 L 234.547,-165.472 L 234.702,-165.681 L 234.876,-165.874
 L 235.069,-166.048 L 235.278,-166.203 L 235.501,-166.337 L 235.736,-166.448 L 235.981,-166.536 L 236.233,-166.599
 L 236.49,-166.637 L 236.75,-166.65 L 237.01,-166.637 L 237.267,-166.599 L 237.519,-166.536 L 237.764,-166.448
 L 237.999,-166.337 L 238.222,-166.203 L 238.431,-166.048 L 238.624,-165.874 L 238.798,-165.681 L 238.953,-165.472
 L 239.087,-165.249 L 239.198,-165.014 L 239.286,-164.769 L 239.349,-164.517 L 239.387,-164.26 L 239.4,-164
 L 239.387,-163.74 L 239.349,-163.483 L 239.286,-163.231 L 239.198,-162.986 L 239.087,-162.751 L 238.953,-162.528
 L 238.798,-162.319 L 238.624,-162.126 L 238.431,-161.952 L 238.222,-161.797 L 237.999,-161.663 L 237.764,-161.552
 L 237.519,-161.464 L 237.267,-161.401 L 237.01,-161.363 L 236.75,-161.35 z
M 72.9902,-161.363 L 72.733,-161.401 L 72.4807,-161.464 L 72.2359,-161.552 L 72.0008,-161.663 L 71.7777,-161.797
 L 71.5688,-161.952 L 71.3762,-162.126 L 71.2015,-162.319 L 71.0466,-162.528 L 70.9129,-162.751 L 70.8017,-162.986
 L 70.7141,-163.231 L 70.6509,-163.483 L 70.6127,-163.74 L 70.6,-164 L 70.6127,-164.26 L 70.6509,-164.517
 L 70.7141,-164.769 L 70.8017,-165.014 L 70.9129,-165.249 L 71.0466,-165.472 L 71.2015,-165.681 L 71.3762,-165.874
 L 71.5688,-166.048 L 71.7777,-166.203 L 72.0008,-166.337 L 72.2359,-166.448 L 72.4807,-166.536 L 72.733,-166.599
 L 72.9902,-166.637 L 73.25,-166.65 L 73.5097,-166.637 L 73.767,-166.599 L 74.0192,-166.536 L 74.2641,-166.448
 L 74.4992,-166.337 L 74.7223,-166.203 L 74.9311,-166.048 L 75.1238,-165.874 L 75.2985,-165.681 L 75.4534,-165.472
 L 75.5871,-165.249 L 75.6983,-165.014 L 75.7859,-164.769 L 75.8491,-164.517 L 75.8872,-164.26 L 75.9,-164
 L 75.8872,-163.74 L 75.8491,-163.483 L 75.7859,-163.231 L 75.6983,-162.986 L 75.5871,-162.751 L 75.4534,-162.528
 L 75.2985,-162.319 L 75.1238,-162.126 L 74.9311,-161.952 L 74.7223,-161.797 L 74.4992,-161.663 L 74.2641,-161.552
 L 74.0192,-161.464 L 73.767,-161.401 L 73.5097,-161.363 L 73.25,-161.35 z
M 8.99026,-161.363 L 8.73302,-161.401 L 8.48076,-161.464 L 8.2359,-161.552 L 8.00081,-161.663 L 7.77774,-161.797
 L 7.56886,-161.952 L 7.37617,-162.126 L 7.20152,-162.319 L 7.04662,-162.528 L 6.91292,-162.751 L 6.80173,-162.986
 L 6.71411,-163.231 L 6.65092,-163.483 L 6.61276,-163.74 L 6.60001,-164 L 6.61276,-164.26 L 6.65092,-164.517
 L 6.71411,-164.769 L 6.80173,-165.014 L 6.91292,-165.249 L 7.04662,-165.472 L 7.20152,-165.681 L 7.37617,-165.874
 L 7.56886,-166.048 L 7.77774,-166.203 L 8.00081,-166.337 L 8.2359,-166.448 L 8.48076,-166.536 L 8.73302,-166.599
 L 8.99026,-166.637 L 9.25,-166.65 L 9.50975,-166.637 L 9.767,-166.599 L 10.0193,-166.536 L 10.2641,-166.448
 L 10.4992,-166.337 L 10.7223,-166.203 L 10.9312,-166.048 L 11.1238,-165.874 L 11.2985,-165.681 L 11.4534,-165.472
 L 11.5871,-165.249 L 11.6983,-165.014 L 11.7859,-164.769 L 11.8491,-164.517 L 11.8873,-164.26 L 11.9,-164
 L 11.8873,-163.74 L 11.8491,-163.483 L 11.7859,-163.231 L 11.6983,-162.986 L 11.5871,-162.751 L 11.4534,-162.528
 L 11.2985,-162.319 L 11.1238,-162.126 L 10.9312,-161.952 L 10.7223,-161.797 L 10.4992,-161.663 L 10.2641,-161.552
 L 10.0193,-161.464 L 9.767,-161.401 L 9.50975,-161.363 L 9.25,-161.35 z
M 236.49,-141.363 L 236.233,-141.401 L 235.981,-141.464 L 235.736,-141.552 L 235.501,-141.663 L 235.278,-141.797
 L 235.069,-141.952 L 234.876,-142.126 L 234.702,-142.319 L 234.547,-142.528 L 234.413,-142.751 L 234.302,-142.986
 L 234.214,-143.231 L 234.151,-143.483 L 234.113,-143.74 L 234.1,-144 L 234.113,-144.26 L 234.151,-144.517
 L 234.214,-144.769 L 234.302,-145.014 L 234.413,-145.249 L 234.547,-145.472 L 234.702,-145.681 L 234.876,-145.874
 L 235.069,-146.048 L 235.278,-146.203 L 235.501,-146.337 L 235.736,-146.448 L 235.981,-146.536 L 236.233,-146.599
 L 236.49,-146.637 L 236.75,-146.65 L 237.01,-146.637 L 237.267,-146.599 L 237.519,-146.536 L 237.764,-146.448
 L 237.999,-146.337 L 238.222,-146.203 L 238.431,-146.048 L 238.624,-145.874 L 238.798,-145.681 L 238.953,-145.472
 L 239.087,-145.249 L 239.198,-145.014 L 239.286,-144.769 L 239.349,-144.517 L 239.387,-144.26 L 239.4,-144
 L 239.387,-143.74 L 239.349,-143.483 L 239.286,-143.231 L 239.198,-142.986 L 239.087,-142.751 L 238.953,-142.528
 L 238.798,-142.319 L 238.624,-142.126 L 238.431,-141.952 L 238.222,-141.797 L 237.999,-141.663 L 237.764,-141.552
 L 237.519,-141.464 L 237.267,-141.401 L 237.01,-141.363 L 236.75,-141.35 z
M 72.9902,-141.363 L 72.733,-141.401 L 72.4807,-141.464 L 72.2359,-141.552 L 72.0008,-141.663 L 71.7777,-141.797
 L 71.5688,-141.952 L 71.3762,-142.126 L 71.2015,-142.319 L 71.0466,-142.528 L 70.9129,-142.751 L 70.8017,-142.986
 L 70.7141,-143.231 L 70.6509,-143.483 L 70.6127,-143.74 L 70.6,-144 L 70.6127,-144.26 L 70.6509,-144.517
 L 70.7141,-144.769 L 70.8017,-145.014 L 70.9129,-145.249 L 71.0466,-145.472 L 71.2015,-145.681 L 71.3762,-145.874
 L 71.5688,-146.048 L 71.7777,-146.203 L 72.0008,-146.337 L 72.2359,-146.448 L 72.4807,-146.536 L 72.733,-146.599
 L 72.9902,-146.637 L 73.25,-146.65 L 73.5097,-146.637 L 73.767,-146.599 L 74.0192,-146.536 L 74.2641,-146.448
 L 74.4992,-146.337 L 74.7223,-146.203 L 74.9311,-146.048 L 75.1238,-145.874 L 75.2985,-145.681 L 75.4534,-145.472
 L 75.5871,-145.249 L 75.6983,-145.014 L 75.7859,-144.769 L 75.8491,-144.517 L 75.8872,-144.26 L 75.9,-144
 L 75.8872,-143.74 L 75.8491,-143.483 L 75.7859,-143.231 L 75.6983,-142.986 L 75.5871,-142.751 L 75.4534,-142.528
 L 75.2985,-142.319 L 75.1238,-142.126 L 74.9311,-141.952 L 74.7223,-141.797 L 74.4992,-141.663 L 74.2641,-141.552
 L 74.0192,-141.464 L 73.767,-141.401 L 73.5097,-141.363 L 73.25,-141.35 z
M 8.99026,-141.363 L 8.73302,-141.401 L 8.48076,-141.464 L 8.2359,-141.552 L 8.00081,-141.663 L 7.77774,-141.797
 L 7.56886,-141.952 L 7.37617,-142.126 L 7.20152,-142.319 L 7.04662,-142.528 L 6.91292,-142.751 L 6.80173,-142.986
 L 6.71411,-143.231 L 6.65092,-143.483 L 6.61276,-143.74 L 6.60001,-144 L 6.61276,-144.26 L 6.65092,-144.517
 L 6.71411,-144.769 L 6.80173,-145.014 L 6.91292,-145.249 L 7.04662,-145.472 L 7.20152,-145.681 L 7.37617,-145.874
 L 7.56886,-146.048 L 7.77774,-146.203 L 8.00081,-146.337 L 8.2359,-146.448 L 8.48076,-146.536 L 8.73302,-146.599
 L 8.99026,-146.637 L 9.25,-146.65 L 9.50975,-146.637 L 9.767,-146.599 L 10.0193,-146.536 L 10.2641,-146.448
 L 10.4992,-146.337 L 10.7223,-146.203 L 10.9312,-146.048 L 11.1238,-145.874 L 11.2985,-145.681 L 11.4534,-145.472
 L 11.5871,-145.249 L 11.6983,-145.014 L 11.7859,-144.769 L 11.8491,-144.517 L 11.8873,-144.26 L 11.9,-144
 L 11.8873,-143.74 L 11.8491,-143.483 L 11.7859,-143.231 L 11.6983,-142.986 L 11.5871,-142.751 L 11.4534,-142.528
 L 11.2985,-142.319 L 11.1238,-142.126 L 10.9312,-141.952 L 10.7223,-141.797 L 10.4992,-141.663 L 10.2641,-141.552
 L 10.0193,-141.464 L 9.767,-141.401 L 9.50975,-141.363 L 9.25,-141.35 z
M 300.49,-141.363 L 300.233,-141.401 L 299.981,-141.464 L 299.736,-141.552 L 299.501,-141.663 L 299.278,-141.797
 L 299.069,-141.952 L 298.876,-142.126 L 298.702,-142.319 L 298.547,-142.528 L 298.413,-142.751 L 298.302,-142.986
 L 298.214,-143.231 L 298.151,-143.483 L 298.113,-143.74 L 298.1,-144 L 298.113,-144.26 L 298.151,-144.517
 L 298.214,-144.769 L 298.302,-145.014 L 298.413,-145.249 L 298.547,-145.472 L 298.702,-145.681 L 298.876,-145.874
 L 299.069,-146.048 L 299.278,-146.203 L 299.501,-146.337 L 299.736,-146.448 L 299.981,-146.536 L 300.233,-146.599
 L 300.49,-146.637 L 300.75,-146.65 L 301.01,-146.637 L 301.267,-146.599 L 301.519,-146.536 L 301.764,-146.448
 L 301.999,-146.337 L 302.222,-146.203 L 302.431,-146.048 L 302.624,-145.874 L 302.798,-145.681 L 302.953,-145.472
 L 303.087,-145.249 L 303.198,-145.014 L 303.286,-144.769 L 303.349,-144.517 L 303.387,-144.26 L 303.4,-144
 L 303.387,-143.74 L 303.349,-143.483 L 303.286,-143.231 L 303.198,-142.986 L 303.087,-142.751 L 302.953,-142.528
 L 302.798,-142.319 L 302.624,-142.126 L 302.431,-141.952 L 302.222,-141.797 L 301.999,-141.663 L 301.764,-141.552
 L 301.519,-141.464 L 301.267,-141.401 L 301.01,-141.363 L 300.75,-141.35 z
M 267.334,-80.6196 L 265.931,-80.8277 L 264.555,-81.1722 L 263.22,-81.6499 L 261.938,-82.2562 L 260.722,-82.9853
 L 259.583,-83.83 L 258.532,-84.7823 L 257.58,-85.833 L 256.735,-86.972 L 256.006,-88.1883 L 255.4,-89.4702
 L 254.922,-90.8054 L 254.578,-92.181 L 254.37,-93.5837 L 254.3,-95 L 254.37,-96.4163 L 254.578,-97.819
 L 254.922,-99.1946 L 255.4,-100.53 L 256.006,-101.812 L 256.735,-103.028 L 257.58,-104.167 L 258.532,-105.218
 L 259.583,-106.17 L 260.722,-107.015 L 261.938,-107.744 L 263.22,-108.35 L 264.555,-108.828 L 265.931,-109.172
 L 267.334,-109.38 L 268.75,-109.45 L 270.166,-109.38 L 271.569,-109.172 L 272.945,-108.828 L 274.28,-108.35
 L 275.562,-107.744 L 276.778,-107.015 L 277.917,-106.17 L 278.968,-105.218 L 279.92,-104.167 L 280.765,-103.028
 L 281.494,-101.812 L 282.1,-100.53 L 282.578,-99.1946 L 282.922,-97.819 L 283.13,-96.4163 L 283.2,-95
 L 283.13,-93.5837 L 282.922,-92.181 L 282.578,-90.8054 L 282.1,-89.4702 L 281.494,-88.1883 L 280.765,-86.972
 L 279.92,-85.833 L 278.968,-84.7823 L 277.917,-83.83 L 276.778,-82.9853 L 275.562,-82.2562 L 274.28,-81.6499
 L 272.945,-81.1722 L 271.569,-80.8277 L 270.166,-80.6196 L 268.75,-80.55 z
M 256.393,-105.608 L 256.238,-105.631 L 256.086,-105.669 L 255.938,-105.722 L 255.796,-105.789 L 255.661,-105.87
 L 255.535,-105.963 L 255.419,-106.069 L 255.313,-106.185 L 255.22,-106.311 L 255.139,-106.446 L 255.072,-106.588
 L 255.019,-106.736 L 254.981,-106.888 L 254.958,-107.043 L 254.95,-107.2 L 254.958,-107.357 L 254.981,-107.512
 L 255.019,-107.664 L 255.072,-107.812 L 255.139,-107.954 L 255.22,-108.089 L 255.313,-108.215 L 255.419,-108.331
 L 255.535,-108.437 L 255.661,-108.53 L 255.796,-108.611 L 255.938,-108.678 L 256.086,-108.731 L 256.238,-108.769
 L 256.393,-108.792 L 256.55,-108.8 L 256.707,-108.792 L 256.862,-108.769 L 257.014,-108.731 L 257.162,-108.678
 L 257.304,-108.611 L 257.439,-108.53 L 257.565,-108.437 L 257.681,-108.331 L 257.787,-108.215 L 257.88,-108.089
 L 257.961,-107.954 L 258.028,-107.812 L 258.081,-107.664 L 258.119,-107.512 L 258.142,-107.357 L 258.15,-107.2
 L 258.142,-107.043 L 258.119,-106.888 L 258.081,-106.736 L 258.028,-106.588 L 257.961,-106.446 L 257.88,-106.311
 L 257.787,-106.185 L 257.681,-106.069 L 257.565,-105.963 L 257.439,-105.87 L 257.304,-105.789 L 257.162,-105.722
 L 257.014,-105.669 L 256.862,-105.631 L 256.707,-105.608 L 256.55,-105.6 z
M 15.5932,-105.408 L 15.4379,-105.431 L 15.2856,-105.469 L 15.1377,-105.522 L 14.9958,-105.589 L 14.8611,-105.67
 L 14.735,-105.763 L 14.6186,-105.869 L 14.5132,-105.985 L 14.4197,-106.111 L 14.3389,-106.246 L 14.2718,-106.388
 L 14.2189,-106.536 L 14.1808,-106.688 L 14.1577,-106.843 L 14.15,-107 L 14.1577,-107.157 L 14.1808,-107.312
 L 14.2189,-107.464 L 14.2718,-107.612 L 14.3389,-107.754 L 14.4197,-107.889 L 14.5132,-108.015 L 14.6186,-108.131
 L 14.735,-108.237 L 14.8611,-108.33 L 14.9958,-108.411 L 15.1377,-108.478 L 15.2856,-108.531 L 15.4379,-108.569
 L 15.5932,-108.592 L 15.75,-108.6 L 15.9068,-108.592 L 16.0621,-108.569 L 16.2145,-108.531 L 16.3623,-108.478
 L 16.5042,-108.411 L 16.6389,-108.33 L 16.765,-108.237 L 16.8814,-108.131 L 16.9868,-108.015 L 17.0804,-107.889
 L 17.1611,-107.754 L 17.2282,-107.612 L 17.2811,-107.464 L 17.3193,-107.312 L 17.3423,-107.157 L 17.35,-107
 L 17.3423,-106.843 L 17.3193,-106.688 L 17.2811,-106.536 L 17.2282,-106.388 L 17.1611,-106.246 L 17.0804,-106.111
 L 16.9868,-105.985 L 16.8814,-105.869 L 16.765,-105.763 L 16.6389,-105.67 L 16.5042,-105.589 L 16.3623,-105.522
 L 16.2145,-105.469 L 16.0621,-105.431 L 15.9068,-105.408 L 15.75,-105.4 z
M 47.5932,-105.408 L 47.4379,-105.431 L 47.2856,-105.469 L 47.1377,-105.522 L 46.9958,-105.589 L 46.8611,-105.67
 L 46.735,-105.763 L 46.6186,-105.869 L 46.5132,-105.985 L 46.4197,-106.111 L 46.3389,-106.246 L 46.2718,-106.388
 L 46.2189,-106.536 L 46.1808,-106.688 L 46.1577,-106.843 L 46.15,-107 L 46.1577,-107.157 L 46.1808,-107.312
 L 46.2189,-107.464 L 46.2718,-107.612 L 46.3389,-107.754 L 46.4197,-107.889 L 46.5132,-108.015 L 46.6186,-108.131
 L 46.735,-108.237 L 46.8611,-108.33 L 46.9958,-108.411 L 47.1377,-108.478 L 47.2856,-108.531 L 47.4379,-108.569
 L 47.5932,-108.592 L 47.75,-108.6 L 47.9068,-108.592 L 48.0621,-108.569 L 48.2145,-108.531 L 48.3623,-108.478
 L 48.5042,-108.411 L 48.6389,-108.33 L 48.765,-108.237 L 48.8814,-108.131 L 48.9868,-108.015 L 49.0804,-107.889
 L 49.1611,-107.754 L 49.2282,-107.612 L 49.2811,-107.464 L 49.3193,-107.312 L 49.3423,-107.157 L 49.35,-107
 L 49.3423,-106.843 L 49.3193,-106.688 L 49.2811,-106.536 L 49.2282,-106.388 L 49.1611,-106.246 L 49.0804,-106.111
 L 48.9868,-105.985 L 48.8814,-105.869 L 48.765,-105.763 L 48.6389,-105.67 L 48.5042,-105.589 L 48.3623,-105.522
 L 48.2145,-105.469 L 48.0621,-105.431 L 47.9068,-105.408 L 47.75,-105.4 z
M 24.0738,-83.0578 L 22.9089,-83.2306 L 21.7666,-83.5167 L 20.6578,-83.9135 L 19.5932,-84.4169 L 18.5832,-85.0224
 L 17.6373,-85.7239 L 16.7647,-86.5147 L 15.9739,-87.3873 L 15.2724,-88.3332 L 14.6669,-89.3432 L 14.1635,-90.4078
 L 13.7667,-91.5166 L 13.4806,-92.6589 L 13.3078,-93.8238 L 13.25,-95 L 13.3078,-96.1762 L 13.4806,-97.3411
 L 13.7667,-98.4834 L 14.1635,-99.5922 L 14.6669,-100.657 L 15.2724,-101.667 L 15.9739,-102.613 L 16.7647,-103.485
 L 17.6373,-104.276 L 18.5832,-104.978 L 19.5932,-105.583 L 20.6578,-106.087 L 21.7666,-106.483 L 22.9089,-106.769
 L 24.0738,-106.942 L 25.25,-107 L 26.4262,-106.942 L 27.5911,-106.769 L 28.7334,-106.483 L 29.8422,-106.087
 L 30.9068,-105.583 L 31.9168,-104.978 L 32.8627,-104.276 L 33.7353,-103.485 L 34.5261,-102.613 L 35.2276,-101.667
 L 35.8331,-100.657 L 36.3365,-99.5922 L 36.7333,-98.4834 L 37.0194,-97.3411 L 37.1922,-96.1762 L 37.25,-95
 L 37.1922,-93.8238 L 37.0194,-92.6589 L 36.7333,-91.5166 L 36.3365,-90.4078 L 35.8331,-89.3432 L 35.2276,-88.3332
 L 34.5261,-87.3873 L 33.7353,-86.5147 L 32.8627,-85.7239 L 31.9168,-85.0224 L 30.9068,-84.4169 L 29.8422,-83.9135
 L 28.7334,-83.5167 L 27.5911,-83.2306 L 26.4262,-83.0578 L 25.25,-83 z
M 56.0738,-83.0578 L 54.9089,-83.2306 L 53.7666,-83.5167 L 52.6578,-83.9135 L 51.5932,-84.4169 L 50.5832,-85.0224
 L 49.6373,-85.7239 L 48.7647,-86.5147 L 47.9739,-87.3873 L 47.2724,-88.3332 L 46.6669,-89.3432 L 46.1635,-90.4078
 L 45.7667,-91.5166 L 45.4806,-92.6589 L 45.3078,-93.8238 L 45.25,-95 L 45.3078,-96.1762 L 45.4806,-97.3411
 L 45.7667,-98.4834 L 46.1635,-99.5922 L 46.6669,-100.657 L 47.2724,-101.667 L 47.9739,-102.613 L 48.7647,-103.485
 L 49.6373,-104.276 L 50.5832,-104.978 L 51.5932,-105.583 L 52.6578,-106.087 L 53.7666,-106.483 L 54.9089,-106.769
 L 56.0738,-106.942 L 57.25,-107 L 58.4262,-106.942 L 59.5911,-106.769 L 60.7334,-106.483 L 61.8422,-106.087
 L 62.9068,-105.583 L 63.9168,-104.978 L 64.8627,-104.276 L 65.7353,-103.485 L 66.5261,-102.613 L 67.2276,-101.667
 L 67.8331,-100.657 L 68.3365,-99.5922 L 68.7333,-98.4834 L 69.0194,-97.3411 L 69.1922,-96.1762 L 69.25,-95
 L 69.1922,-93.8238 L 69.0194,-92.6589 L 68.7333,-91.5166 L 68.3365,-90.4078 L 67.8331,-89.3432 L 67.2276,-88.3332
 L 66.5261,-87.3873 L 65.7353,-86.5147 L 64.8627,-85.7239 L 63.9168,-85.0224 L 62.9068,-84.4169 L 61.8422,-83.9135
 L 60.7334,-83.5167 L 59.5911,-83.2306 L 58.4262,-83.0578 L 57.25,-83 z
M 83.4893,-97.3604 L 83.2806,-97.3913 L 83.0759,-97.4426 L 82.8772,-97.5137 L 82.6865,-97.6039 L 82.5055,-97.7123
 L 82.3361,-97.838 L 82.1797,-97.9797 L 82.038,-98.136 L 81.9124,-98.3055 L 81.8039,-98.4865 L 81.7137,-98.6772
 L 81.6426,-98.8759 L 81.5913,-99.0806 L 81.5604,-99.2893 L 81.55,-99.5 L 81.5604,-99.7107 L 81.5913,-99.9194
 L 81.6426,-100.124 L 81.7137,-100.323 L 81.8039,-100.513 L 81.9124,-100.694 L 82.038,-100.864 L 82.1797,-101.02
 L 82.3361,-101.162 L 82.5055,-101.288 L 82.6865,-101.396 L 82.8772,-101.486 L 83.0759,-101.557 L 83.2806,-101.609
 L 83.4893,-101.64 L 83.7,-101.65 L 83.9107,-101.64 L 84.1194,-101.609 L 84.3241,-101.557 L 84.5228,-101.486
 L 84.7135,-101.396 L 84.8945,-101.288 L 85.0639,-101.162 L 85.2203,-101.02 L 85.362,-100.864 L 85.4877,-100.694
 L 85.5961,-100.513 L 85.6863,-100.323 L 85.7574,-100.124 L 85.8087,-99.9194 L 85.8396,-99.7107 L 85.85,-99.5
 L 85.8396,-99.2893 L 85.8087,-99.0806 L 85.7574,-98.8759 L 85.6863,-98.6772 L 85.5961,-98.4865 L 85.4877,-98.3055
 L 85.362,-98.136 L 85.2203,-97.9797 L 85.0639,-97.838 L 84.8945,-97.7123 L 84.7135,-97.6039 L 84.5228,-97.5137
 L 84.3241,-97.4426 L 84.1194,-97.3913 L 83.9107,-97.3604 L 83.7,-97.35 z
M 224.089,-97.3604 L 223.881,-97.3913 L 223.676,-97.4426 L 223.477,-97.5137 L 223.286,-97.6039 L 223.106,-97.7123
 L 222.936,-97.838 L 222.78,-97.9797 L 222.638,-98.136 L 222.512,-98.3055 L 222.404,-98.4865 L 222.314,-98.6772
 L 222.243,-98.8759 L 222.191,-99.0806 L 222.16,-99.2893 L 222.15,-99.5 L 222.16,-99.7107 L 222.191,-99.9194
 L 222.243,-100.124 L 222.314,-100.323 L 222.404,-100.513 L 222.512,-100.694 L 222.638,-100.864 L 222.78,-101.02
 L 222.936,-101.162 L 223.106,-101.288 L 223.286,-101.396 L 223.477,-101.486 L 223.676,-101.557 L 223.881,-101.609
 L 224.089,-101.64 L 224.3,-101.65 L 224.511,-101.64 L 224.719,-101.609 L 224.924,-101.557 L 225.123,-101.486
 L 225.313,-101.396 L 225.494,-101.288 L 225.664,-101.162 L 225.82,-101.02 L 225.962,-100.864 L 226.088,-100.694
 L 226.196,-100.513 L 226.286,-100.323 L 226.357,-100.124 L 226.409,-99.9194 L 226.44,-99.7107 L 226.45,-99.5
 L 226.44,-99.2893 L 226.409,-99.0806 L 226.357,-98.8759 L 226.286,-98.6772 L 226.196,-98.4865 L 226.088,-98.3055
 L 225.962,-98.136 L 225.82,-97.9797 L 225.664,-97.838 L 225.494,-97.7123 L 225.313,-97.6039 L 225.123,-97.5137
 L 224.924,-97.4426 L 224.719,-97.3913 L 224.511,-97.3604 L 224.3,-97.35 z
M 91.6,-45.9 L 91.6,-91.1 L 216.4,-91.1 L 216.4,-45.9 z
M 66.5932,-81.4077 L 66.4379,-81.4308 L 66.2855,-81.4689 L 66.1377,-81.5218 L 65.9958,-81.5889 L 65.8611,-81.6697
 L 65.735,-81.7632 L 65.6186,-81.8686 L 65.5132,-81.985 L 65.4196,-82.1111 L 65.3389,-82.2458 L 65.2718,-82.3877
 L 65.2189,-82.5356 L 65.1807,-82.6879 L 65.1577,-82.8432 L 65.15,-83 L 65.1577,-83.1568 L 65.1807,-83.3121
 L 65.2189,-83.4645 L 65.2718,-83.6123 L 65.3389,-83.7542 L 65.4196,-83.8889 L 65.5132,-84.015 L 65.6186,-84.1314
 L 65.735,-84.2368 L 65.8611,-84.3304 L 65.9958,-84.4111 L 66.1377,-84.4782 L 66.2855,-84.5311 L 66.4379,-84.5693
 L 66.5932,-84.5923 L 66.75,-84.6 L 66.9068,-84.5923 L 67.0621,-84.5693 L 67.2144,-84.5311 L 67.3623,-84.4782
 L 67.5042,-84.4111 L 67.6389,-84.3304 L 67.765,-84.2368 L 67.8814,-84.1314 L 67.9868,-84.015 L 68.0803,-83.8889
 L 68.1611,-83.7542 L 68.2282,-83.6123 L 68.2811,-83.4645 L 68.3192,-83.3121 L 68.3423,-83.1568 L 68.35,-83
 L 68.3423,-82.8432 L 68.3192,-82.6879 L 68.2811,-82.5356 L 68.2282,-82.3877 L 68.1611,-82.2458 L 68.0803,-82.1111
 L 67.9868,-81.985 L 67.8814,-81.8686 L 67.765,-81.7632 L 67.6389,-81.6697 L 67.5042,-81.5889 L 67.3623,-81.5218
 L 67.2144,-81.4689 L 67.0621,-81.4308 L 66.9068,-81.4077 L 66.75,-81.4 z
M 34.5932,-81.4077 L 34.4379,-81.4308 L 34.2855,-81.4689 L 34.1377,-81.5218 L 33.9958,-81.5889 L 33.8611,-81.6697
 L 33.735,-81.7632 L 33.6186,-81.8686 L 33.5132,-81.985 L 33.4196,-82.1111 L 33.3389,-82.2458 L 33.2718,-82.3877
 L 33.2189,-82.5356 L 33.1807,-82.6879 L 33.1577,-82.8432 L 33.15,-83 L 33.1577,-83.1568 L 33.1807,-83.3121
 L 33.2189,-83.4645 L 33.2718,-83.6123 L 33.3389,-83.7542 L 33.4196,-83.8889 L 33.5132,-84.015 L 33.6186,-84.1314
 L 33.735,-84.2368 L 33.8611,-84.3304 L 33.9958,-84.4111 L 34.1377,-84.4782 L 34.2855,-84.5311 L 34.4379,-84.5693
 L 34.5932,-84.5923 L 34.75,-84.6 L 34.9068,-84.5923 L 35.0621,-84.5693 L 35.2144,-84.5311 L 35.3623,-84.4782
 L 35.5042,-84.4111 L 35.6389,-84.3304 L 35.765,-84.2368 L 35.8814,-84.1314 L 35.9868,-84.015 L 36.0803,-83.8889
 L 36.1611,-83.7542 L 36.2282,-83.6123 L 36.2811,-83.4645 L 36.3192,-83.3121 L 36.3423,-83.1568 L 36.35,-83
 L 36.3423,-82.8432 L 36.3192,-82.6879 L 36.2811,-82.5356 L 36.2282,-82.3877 L 36.1611,-82.2458 L 36.0803,-82.1111
 L 35.9868,-81.985 L 35.8814,-81.8686 L 35.765,-81.7632 L 35.6389,-81.6697 L 35.5042,-81.5889 L 35.3623,-81.5218
 L 35.2144,-81.4689 L 35.0621,-81.4308 L 34.9068,-81.4077 L 34.75,-81.4 z
M 280.793,-81.2077 L 280.638,-81.2308 L 280.486,-81.2689 L 280.338,-81.3218 L 280.196,-81.3889 L 280.061,-81.4697
 L 279.935,-81.5632 L 279.819,-81.6686 L 279.713,-81.785 L 279.62,-81.9111 L 279.539,-82.0458 L 279.472,-82.1877
 L 279.419,-82.3356 L 279.381,-82.4879 L 279.358,-82.6432 L 279.35,-82.8 L 279.358,-82.9568 L 279.381,-83.1122
 L 279.419,-83.2645 L 279.472,-83.4123 L 279.539,-83.5542 L 279.62,-83.6889 L 279.713,-83.815 L 279.819,-83.9314
 L 279.935,-84.0368 L 280.061,-84.1304 L 280.196,-84.2111 L 280.338,-84.2782 L 280.486,-84.3311 L 280.638,-84.3693
 L 280.793,-84.3923 L 280.95,-84.4 L 281.107,-84.3923 L 281.262,-84.3693 L 281.414,-84.3311 L 281.562,-84.2782
 L 281.704,-84.2111 L 281.839,-84.1304 L 281.965,-84.0368 L 282.081,-83.9314 L 282.187,-83.815 L 282.28,-83.6889
 L 282.361,-83.5542 L 282.428,-83.4123 L 282.481,-83.2645 L 282.519,-83.1122 L 282.542,-82.9568 L 282.55,-82.8
 L 282.542,-82.6432 L 282.519,-82.4879 L 282.481,-82.3356 L 282.428,-82.1877 L 282.361,-82.0458 L 282.28,-81.9111
 L 282.187,-81.785 L 282.081,-81.6686 L 281.965,-81.5632 L 281.839,-81.4697 L 281.704,-81.3889 L 281.562,-81.3218
 L 281.414,-81.2689 L 281.262,-81.2308 L 281.107,-81.2077 L 280.95,-81.2 z
M 20.85,-39.9 L 20.85,-60.1 L 61.65,-60.1 L 61.65,-39.9 z
M 17.0932,-56.4077 L 16.9379,-56.4307 L 16.7856,-56.4689 L 16.6377,-56.5218 L 16.4958,-56.5889 L 16.3611,-56.6696
 L 16.235,-56.7632 L 16.1186,-56.8686 L 16.0132,-56.985 L 15.9197,-57.1111 L 15.8389,-57.2458 L 15.7718,-57.3877
 L 15.7189,-57.5355 L 15.6808,-57.6879 L 15.6577,-57.8432 L 15.65,-58 L 15.6577,-58.1568 L 15.6808,-58.3121
 L 15.7189,-58.4644 L 15.7718,-58.6123 L 15.8389,-58.7542 L 15.9197,-58.8889 L 16.0132,-59.015 L 16.1186,-59.1314
 L 16.235,-59.2368 L 16.3611,-59.3303 L 16.4958,-59.4111 L 16.6377,-59.4782 L 16.7856,-59.5311 L 16.9379,-59.5692
 L 17.0932,-59.5923 L 17.25,-59.6 L 17.4068,-59.5923 L 17.5621,-59.5692 L 17.7145,-59.5311 L 17.8623,-59.4782
 L 18.0042,-59.4111 L 18.1389,-59.3303 L 18.265,-59.2368 L 18.3814,-59.1314 L 18.4868,-59.015 L 18.5804,-58.8889
 L 18.6611,-58.7542 L 18.7282,-58.6123 L 18.7811,-58.4644 L 18.8193,-58.3121 L 18.8423,-58.1568 L 18.85,-58
 L 18.8423,-57.8432 L 18.8193,-57.6879 L 18.7811,-57.5355 L 18.7282,-57.3877 L 18.6611,-57.2458 L 18.5804,-57.1111
 L 18.4868,-56.985 L 18.3814,-56.8686 L 18.265,-56.7632 L 18.1389,-56.6696 L 18.0042,-56.5889 L 17.8623,-56.5218
 L 17.7145,-56.4689 L 17.5621,-56.4307 L 17.4068,-56.4077 L 17.25,-56.4 z
M 65.0932,-56.4077 L 64.9379,-56.4307 L 64.7855,-56.4689 L 64.6377,-56.5218 L 64.4958,-56.5889 L 64.3611,-56.6696
 L 64.235,-56.7632 L 64.1186,-56.8686 L 64.0132,-56.985 L 63.9196,-57.1111 L 63.8389,-57.2458 L 63.7718,-57.3877
 L 63.7189,-57.5355 L 63.6807,-57.6879 L 63.6577,-57.8432 L 63.65,-58 L 63.6577,-58.1568 L 63.6807,-58.3121
 L 63.7189,-58.4644 L 63.7718,-58.6123 L 63.8389,-58.7542 L 63.9196,-58.8889 L 64.0132,-59.015 L 64.1186,-59.1314
 L 64.235,-59.2368 L 64.3611,-59.3303 L 64.4958,-59.4111 L 64.6377,-59.4782 L 64.7855,-59.5311 L 64.9379,-59.5692
 L 65.0932,-59.5923 L 65.25,-59.6 L 65.4068,-59.5923 L 65.5621,-59.5692 L 65.7144,-59.5311 L 65.8623,-59.4782
 L 66.0042,-59.4111 L 66.1389,-59.3303 L 66.265,-59.2368 L 66.3814,-59.1314 L 66.4868,-59.015 L 66.5803,-58.8889
 L 66.6611,-58.7542 L 66.7282,-58.6123 L 66.7811,-58.4644 L 66.8192,-58.3121 L 66.8423,-58.1568 L 66.85,-58
 L 66.8423,-57.8432 L 66.8192,-57.6879 L 66.7811,-57.5355 L 66.7282,-57.3877 L 66.6611,-57.2458 L 66.5803,-57.1111
 L 66.4868,-56.985 L 66.3814,-56.8686 L 66.265,-56.7632 L 66.1389,-56.6696 L 66.0042,-56.5889 L 65.8623,-56.5218
 L 65.7144,-56.4689 L 65.5621,-56.4307 L 65.4068,-56.4077 L 65.25,-56.4 z
M 267.334,-20.6196 L 265.931,-20.8277 L 264.555,-21.1722 L 263.22,-21.6499 L 261.938,-22.2562 L 260.722,-22.9853
 L 259.583,-23.83 L 258.532,-24.7823 L 257.58,-25.833 L 256.735,-26.972 L 256.006,-28.1883 L 255.4,-29.4702
 L 254.922,-30.8054 L 254.578,-32.181 L 254.37,-33.5837 L 254.3,-35 L 254.37,-36.4163 L 254.578,-37.819
 L 254.922,-39.1946 L 255.4,-40.5298 L 256.006,-41.8117 L 256.735,-43.028 L 257.58,-44.167 L 258.532,-45.2177
 L 259.583,-46.17 L 260.722,-47.0147 L 261.938,-47.7438 L 263.22,-48.3501 L 264.555,-48.8278 L 265.931,-49.1723
 L 267.334,-49.3804 L 268.75,-49.45 L 270.166,-49.3804 L 271.569,-49.1723 L 272.945,-48.8278 L 274.28,-48.3501
 L 275.562,-47.7438 L 276.778,-47.0147 L 277.917,-46.17 L 278.968,-45.2177 L 279.92,-44.167 L 280.765,-43.028
 L 281.494,-41.8117 L 282.1,-40.5298 L 282.578,-39.1946 L 282.922,-37.819 L 283.13,-36.4163 L 283.2,-35
 L 283.13,-33.5837 L 282.922,-32.181 L 282.578,-30.8054 L 282.1,-29.4702 L 281.494,-28.1883 L 280.765,-26.972
 L 279.92,-25.833 L 278.968,-24.7823 L 277.917,-23.83 L 276.778,-22.9853 L 275.562,-22.2562 L 274.28,-21.6499
 L 272.945,-21.1722 L 271.569,-20.8277 L 270.166,-20.6196 L 268.75,-20.55 z
M 256.393,-45.6077 L 256.238,-45.6307 L 256.086,-45.6689 L 255.938,-45.7218 L 255.796,-45.7889 L 255.661,-45.8696
 L 255.535,-45.9632 L 255.419,-46.0686 L 255.313,-46.185 L 255.22,-46.3111 L 255.139,-46.4458 L 255.072,-46.5877
 L 255.019,-46.7355 L 254.981,-46.8878 L 254.958,-47.0432 L 254.95,-47.2 L 254.958,-47.3568 L 254.981,-47.5121
 L 255.019,-47.6644 L 255.072,-47.8123 L 255.139,-47.9542 L 255.22,-48.0889 L 255.313,-48.215 L 255.419,-48.3314
 L 255.535,-48.4368 L 255.661,-48.5303 L 255.796,-48.6111 L 255.938,-48.6782 L 256.086,-48.7311 L 256.238,-48.7692
 L 256.393,-48.7923 L 256.55,-48.8 L 256.707,-48.7923 L 256.862,-48.7692 L 257.014,-48.7311 L 257.162,-48.6782
 L 257.304,-48.6111 L 257.439,-48.5303 L 257.565,-48.4368 L 257.681,-48.3314 L 257.787,-48.215 L 257.88,-48.0889
 L 257.961,-47.9542 L 258.028,-47.8123 L 258.081,-47.6644 L 258.119,-47.5121 L 258.142,-47.3568 L 258.15,-47.2
 L 258.142,-47.0432 L 258.119,-46.8878 L 258.081,-46.7355 L 258.028,-46.5877 L 257.961,-46.4458 L 257.88,-46.3111
 L 257.787,-46.185 L 257.681,-46.0686 L 257.565,-45.9632 L 257.439,-45.8696 L 257.304,-45.7889 L 257.162,-45.7218
 L 257.014,-45.6689 L 256.862,-45.6307 L 256.707,-45.6077 L 256.55,-45.6 z
M 65.0932,-40.4077 L 64.9379,-40.4308 L 64.7855,-40.4689 L 64.6377,-40.5218 L 64.4958,-40.5889 L 64.3611,-40.6697
 L 64.235,-40.7632 L 64.1186,-40.8686 L 64.0132,-40.985 L 63.9196,-41.1111 L 63.8389,-41.2458 L 63.7718,-41.3877
 L 63.7189,-41.5356 L 63.6807,-41.6879 L 63.6577,-41.8432 L 63.65,-42 L 63.6577,-42.1568 L 63.6807,-42.3121
 L 63.7189,-42.4645 L 63.7718,-42.6123 L 63.8389,-42.7542 L 63.9196,-42.8889 L 64.0132,-43.015 L 64.1186,-43.1314
 L 64.235,-43.2368 L 64.3611,-43.3304 L 64.4958,-43.4111 L 64.6377,-43.4782 L 64.7855,-43.5311 L 64.9379,-43.5693
 L 65.0932,-43.5923 L 65.25,-43.6 L 65.4068,-43.5923 L 65.5621,-43.5693 L 65.7144,-43.5311 L 65.8623,-43.4782
 L 66.0042,-43.4111 L 66.1389,-43.3304 L 66.265,-43.2368 L 66.3814,-43.1314 L 66.4868,-43.015 L 66.5803,-42.8889
 L 66.6611,-42.7542 L 66.7282,-42.6123 L 66.7811,-42.4645 L 66.8192,-42.3121 L 66.8423,-42.1568 L 66.85,-42
 L 66.8423,-41.8432 L 66.8192,-41.6879 L 66.7811,-41.5356 L 66.7282,-41.3877 L 66.6611,-41.2458 L 66.5803,-41.1111
 L 66.4868,-40.985 L 66.3814,-40.8686 L 66.265,-40.7632 L 66.1389,-40.6697 L 66.0042,-40.5889 L 65.8623,-40.5218
 L 65.7144,-40.4689 L 65.5621,-40.4308 L 65.4068,-40.4077 L 65.25,-40.4 z
M 17.0932,-40.4077 L 16.9379,-40.4308 L 16.7856,-40.4689 L 16.6377,-40.5218 L 16.4958,-40.5889 L 16.3611,-40.6697
 L 16.235,-40.7632 L 16.1186,-40.8686 L 16.0132,-40.985 L 15.9197,-41.1111 L 15.8389,-41.2458 L 15.7718,-41.3877
 L 15.7189,-41.5356 L 15.6808,-41.6879 L 15.6577,-41.8432 L 15.65,-42 L 15.6577,-42.1568 L 15.6808,-42.3121
 L 15.7189,-42.4645 L 15.7718,-42.6123 L 15.8389,-42.7542 L 15.9197,-42.8889 L 16.0132,-43.015 L 16.1186,-43.1314
 L 16.235,-43.2368 L 16.3611,-43.3304 L 16.4958,-43.4111 L 16.6377,-43.4782 L 16.7856,-43.5311 L 16.9379,-43.5693
 L 17.0932,-43.5923 L 17.25,-43.6 L 17.4068,-43.5923 L 17.5621,-43.5693 L 17.7145,-43.5311 L 17.8623,-43.4782
 L 18.0042,-43.4111 L 18.1389,-43.3304 L 18.265,-43.2368 L 18.3814,-43.1314 L 18.4868,-43.015 L 18.5804,-42.8889
 L 18.6611,-42.7542 L 18.7282,-42.6123 L 18.7811,-42.4645 L 18.8193,-42.3121 L 18.8423,-42.1568 L 18.85,-42
 L 18.8423,-41.8432 L 18.8193,-41.6879 L 18.7811,-41.5356 L 18.7282,-41.3877 L 18.6611,-41.2458 L 18.5804,-41.1111
 L 18.4868,-40.985 L 18.3814,-40.8686 L 18.265,-40.7632 L 18.1389,-40.6697 L 18.0042,-40.5889 L 17.8623,-40.5218
 L 17.7145,-40.4689 L 17.5621,-40.4308 L 17.4068,-40.4077 L 17.25,-40.4 z
M 83.4893,-35.3604 L 83.2806,-35.3913 L 83.0759,-35.4426 L 82.8772,-35.5137 L 82.6865,-35.6039 L 82.5055,-35.7123
 L 82.3361,-35.838 L 82.1797,-35.9797 L 82.038,-36.1361 L 81.9124,-36.3055 L 81.8039,-36.4865 L 81.7137,-36.6772
 L 81.6426,-36.8759 L 81.5913,-37.0806 L 81.5604,-37.2893 L 81.55,-37.5 L 81.5604,-37.7107 L 81.5913,-37.9194
 L 81.6426,-38.1241 L 81.7137,-38.3228 L 81.8039,-38.5135 L 81.9124,-38.6945 L 82.038,-38.864 L 82.1797,-39.0203
 L 82.3361,-39.162 L 82.5055,-39.2877 L 82.6865,-39.3961 L 82.8772,-39.4863 L 83.0759,-39.5574 L 83.2806,-39.6087
 L 83.4893,-39.6396 L 83.7,-39.65 L 83.9107,-39.6396 L 84.1194,-39.6087 L 84.3241,-39.5574 L 84.5228,-39.4863
 L 84.7135,-39.3961 L 84.8945,-39.2877 L 85.0639,-39.162 L 85.2203,-39.0203 L 85.362,-38.864 L 85.4877,-38.6945
 L 85.5961,-38.5135 L 85.6863,-38.3228 L 85.7574,-38.1241 L 85.8087,-37.9194 L 85.8396,-37.7107 L 85.85,-37.5
 L 85.8396,-37.2893 L 85.8087,-37.0806 L 85.7574,-36.8759 L 85.6863,-36.6772 L 85.5961,-36.4865 L 85.4877,-36.3055
 L 85.362,-36.1361 L 85.2203,-35.9797 L 85.0639,-35.838 L 84.8945,-35.7123 L 84.7135,-35.6039 L 84.5228,-35.5137
 L 84.3241,-35.4426 L 84.1194,-35.3913 L 83.9107,-35.3604 L 83.7,-35.35 z
M 224.089,-35.3604 L 223.881,-35.3913 L 223.676,-35.4426 L 223.477,-35.5137 L 223.286,-35.6039 L 223.106,-35.7123
 L 222.936,-35.838 L 222.78,-35.9797 L 222.638,-36.1361 L 222.512,-36.3055 L 222.404,-36.4865 L 222.314,-36.6772
 L 222.243,-36.8759 L 222.191,-37.0806 L 222.16,-37.2893 L 222.15,-37.5 L 222.16,-37.7107 L 222.191,-37.9194
 L 222.243,-38.1241 L 222.314,-38.3228 L 222.404,-38.5135 L 222.512,-38.6945 L 222.638,-38.864 L 222.78,-39.0203
 L 222.936,-39.162 L 223.106,-39.2877 L 223.286,-39.3961 L 223.477,-39.4863 L 223.676,-39.5574 L 223.881,-39.6087
 L 224.089,-39.6396 L 224.3,-39.65 L 224.511,-39.6396 L 224.719,-39.6087 L 224.924,-39.5574 L 225.123,-39.4863
 L 225.313,-39.3961 L 225.494,-39.2877 L 225.664,-39.162 L 225.82,-39.0203 L 225.962,-38.864 L 226.088,-38.6945
 L 226.196,-38.5135 L 226.286,-38.3228 L 226.357,-38.1241 L 226.409,-37.9194 L 226.44,-37.7107 L 226.45,-37.5
 L 226.44,-37.2893 L 226.409,-37.0806 L 226.357,-36.8759 L 226.286,-36.6772 L 226.196,-36.4865 L 226.088,-36.3055
 L 225.962,-36.1361 L 225.82,-35.9797 L 225.664,-35.838 L 225.494,-35.7123 L 225.313,-35.6039 L 225.123,-35.5137
 L 224.924,-35.4426 L 224.719,-35.3913 L 224.511,-35.3604 L 224.3,-35.35 z
M 280.793,-21.2077 L 280.638,-21.2308 L 280.486,-21.2689 L 280.338,-21.3218 L 280.196,-21.3889 L 280.061,-21.4697
 L 279.935,-21.5632 L 279.819,-21.6686 L 279.713,-21.785 L 279.62,-21.9111 L 279.539,-22.0458 L 279.472,-22.1877
 L 279.419,-22.3356 L 279.381,-22.4879 L 279.358,-22.6432 L 279.35,-22.8 L 279.358,-22.9568 L 279.381,-23.1122
 L 279.419,-23.2645 L 279.472,-23.4123 L 279.539,-23.5542 L 279.62,-23.6889 L 279.713,-23.815 L 279.819,-23.9314
 L 279.935,-24.0368 L 280.061,-24.1304 L 280.196,-24.2111 L 280.338,-24.2782 L 280.486,-24.3311 L 280.638,-24.3693
 L 280.793,-24.3923 L 280.95,-24.4 L 281.107,-24.3923 L 281.262,-24.3693 L 281.414,-24.3311 L 281.562,-24.2782
 L 281.704,-24.2111 L 281.839,-24.1304 L 281.965,-24.0368 L 282.081,-23.9314 L 282.187,-23.815 L 282.28,-23.6889
 L 282.361,-23.5542 L 282.428,-23.4123 L 282.481,-23.2645 L 282.519,-23.1122 L 282.542,-22.9568 L 282.55,-22.8
 L 282.542,-22.6432 L 282.519,-22.4879 L 282.481,-22.3356 L 282.428,-22.1877 L 282.361,-22.0458 L 282.28,-21.9111
 L 282.187,-21.785 L 282.081,-21.6686 L 281.965,-21.5632 L 281.839,-21.4697 L 281.704,-21.3889 L 281.562,-21.3218
 L 281.414,-21.2689 L 281.262,-21.2308 L 281.107,-21.2077 L 280.95,-21.2 z
M 40.8383,-15.8202 L 40.4306,-15.8807 L 40.0308,-15.9809 L 39.6427,-16.1197 L 39.2701,-16.2959 L 38.9166,-16.5078
 L 38.5855,-16.7533 L 38.2802,-17.0302 L 38.0033,-17.3355 L 37.7578,-17.6666 L 37.5459,-18.0201 L 37.3697,-18.3927
 L 37.2309,-18.7808 L 37.1307,-19.1806 L 37.0702,-19.5883 L 37.05,-20 L 37.0702,-20.4117 L 37.1307,-20.8194
 L 37.2309,-21.2192 L 37.3697,-21.6073 L 37.5459,-21.9799 L 37.7578,-22.3334 L 38.0033,-22.6644 L 38.2802,-22.9698
 L 38.5855,-23.2466 L 38.9166,-23.4922 L 39.2701,-23.7041 L 39.6427,-23.8803 L 40.0308,-24.0191 L 40.4306,-24.1193
 L 40.8383,-24.1798 L 41.25,-24.2 L 41.6617,-24.1798 L 42.0694,-24.1193 L 42.4692,-24.0191 L 42.8573,-23.8803
 L 43.2299,-23.7041 L 43.5834,-23.4922 L 43.9144,-23.2466 L 44.2198,-22.9698 L 44.4966,-22.6644 L 44.7422,-22.3334
 L 44.9541,-21.9799 L 45.1303,-21.6073 L 45.2691,-21.2192 L 45.3693,-20.8194 L 45.4298,-20.4117 L 45.45,-20
 L 45.4298,-19.5883 L 45.3693,-19.1806 L 45.2691,-18.7808 L 45.1303,-18.3927 L 44.9541,-18.0201 L 44.7422,-17.6666
 L 44.4966,-17.3355 L 44.2198,-17.0302 L 43.9144,-16.7533 L 43.5834,-16.5078 L 43.2299,-16.2959 L 42.8573,-16.1197
 L 42.4692,-15.9809 L 42.0694,-15.8807 L 41.6617,-15.8202 L 41.25,-15.8 z
" stroke="black" fill="lightgray" stroke-width="0.5"/>
</svg>
