  0
SECTION
  2
BLOCKS
  0
ENDSEC
  0
SECTION
  2
ENTITIES
  0
LINE
  8
0
 10
220
 20
357
 11
0
 21
357
  0
LINE
  8
0
 10
0
 20
357
 11
0
 21
237
  0
LINE
  8
0
 10
0
 20
237
 11
220
 21
237
  0
LINE
  8
0
 10
220
 20
237
 11
220
 21
357
  0
LINE
  8
0
 10
6.25494
 20
348.012
 11
6.01227
 21
348.048
  0
LINE
  8
0
 10
6.01227
 20
348.048
 11
5.77428
 21
348.108
  0
LINE
  8
0
 10
5.77428
 20
348.108
 11
5.54329
 21
348.19
  0
LINE
  8
0
 10
5.54329
 20
348.19
 11
5.3215
 21
348.295
  0
LINE
  8
0
 10
5.3215
 20
348.295
 11
5.11107
 21
348.421
  0
LINE
  8
0
 10
5.11107
 20
348.421
 11
4.91402
 21
348.567
  0
LINE
  8
0
 10
4.91402
 20
348.567
 11
4.73222
 21
348.732
  0
LINE
  8
0
 10
4.73222
 20
348.732
 11
4.56746
 21
348.914
  0
LINE
  8
0
 10
4.56746
 20
348.914
 11
4.42133
 21
349.111
  0
LINE
  8
0
 10
4.42133
 20
349.111
 11
4.2952
 21
349.322
  0
LINE
  8
0
 10
4.2952
 20
349.322
 11
4.19029
 21
349.543
  0
LINE
  8
0
 10
4.19029
 20
349.543
 11
4.10764
 21
349.774
  0
LINE
  8
0
 10
4.10764
 20
349.774
 11
4.04803
 21
350.012
  0
LINE
  8
0
 10
4.04803
 20
350.012
 11
4.01202
 21
350.255
  0
LINE
  8
0
 10
4.01202
 20
350.255
 11
4
 21
350.5
  0
LINE
  8
0
 10
4
 20
350.5
 11
4.01202
 21
350.745
  0
LINE
  8
0
 10
4.01202
 20
350.745
 11
4.04803
 21
350.988
  0
LINE
  8
0
 10
4.04803
 20
350.988
 11
4.10764
 21
351.226
  0
LINE
  8
0
 10
4.10764
 20
351.226
 11
4.19029
 21
351.457
  0
LINE
  8
0
 10
4.19029
 20
351.457
 11
4.2952
 21
351.678
  0
LINE
  8
0
 10
4.2952
 20
351.678
 11
4.42133
 21
351.889
  0
LINE
  8
0
 10
4.42133
 20
351.889
 11
4.56746
 21
352.086
  0
LINE
  8
0
 10
4.56746
 20
352.086
 11
4.73222
 21
352.268
  0
LINE
  8
0
 10
4.73222
 20
352.268
 11
4.91402
 21
352.433
  0
LINE
  8
0
 10
4.91402
 20
352.433
 11
5.11107
 21
352.579
  0
LINE
  8
0
 10
5.11107
 20
352.579
 11
5.3215
 21
352.705
  0
LINE
  8
0
 10
5.3215
 20
352.705
 11
5.54329
 21
352.81
  0
LINE
  8
0
 10
5.54329
 20
352.81
 11
5.77428
 21
352.892
  0
LINE
  8
0
 10
5.77428
 20
352.892
 11
6.01227
 21
352.952
  0
LINE
  8
0
 10
6.01227
 20
352.952
 11
6.25494
 21
352.988
  0
LINE
  8
0
 10
6.25494
 20
352.988
 11
6.5
 21
353
  0
LINE
  8
0
 10
6.5
 20
353
 11
6.74504
 21
352.988
  0
LINE
  8
0
 10
6.74504
 20
352.988
 11
6.98772
 21
352.952
  0
LINE
  8
0
 10
6.98772
 20
352.952
 11
7.22571
 21
352.892
  0
LINE
  8
0
 10
7.22571
 20
352.892
 11
7.4567
 21
352.81
  0
LINE
  8
0
 10
7.4567
 20
352.81
 11
7.67848
 21
352.705
  0
LINE
  8
0
 10
7.67848
 20
352.705
 11
7.88892
 21
352.579
  0
LINE
  8
0
 10
7.88892
 20
352.579
 11
8.08597
 21
352.433
  0
LINE
  8
0
 10
8.08597
 20
352.433
 11
8.26776
 21
352.268
  0
LINE
  8
0
 10
8.26776
 20
352.268
 11
8.43253
 21
352.086
  0
LINE
  8
0
 10
8.43253
 20
352.086
 11
8.57866
 21
351.889
  0
LINE
  8
0
 10
8.57866
 20
351.889
 11
8.70479
 21
351.678
  0
LINE
  8
0
 10
8.70479
 20
351.678
 11
8.80969
 21
351.457
  0
LINE
  8
0
 10
8.80969
 20
351.457
 11
8.89235
 21
351.226
  0
LINE
  8
0
 10
8.89235
 20
351.226
 11
8.95195
 21
350.988
  0
LINE
  8
0
 10
8.95195
 20
350.988
 11
8.98796
 21
350.745
  0
LINE
  8
0
 10
8.98796
 20
350.745
 11
9
 21
350.5
  0
LINE
  8
0
 10
9
 20
350.5
 11
8.98796
 21
350.255
  0
LINE
  8
0
 10
8.98796
 20
350.255
 11
8.95195
 21
350.012
  0
LINE
  8
0
 10
8.95195
 20
350.012
 11
8.89235
 21
349.774
  0
LINE
  8
0
 10
8.89235
 20
349.774
 11
8.80969
 21
349.543
  0
LINE
  8
0
 10
8.80969
 20
349.543
 11
8.70479
 21
349.322
  0
LINE
  8
0
 10
8.70479
 20
349.322
 11
8.57866
 21
349.111
  0
LINE
  8
0
 10
8.57866
 20
349.111
 11
8.43253
 21
348.914
  0
LINE
  8
0
 10
8.43253
 20
348.914
 11
8.26776
 21
348.732
  0
LINE
  8
0
 10
8.26776
 20
348.732
 11
8.08597
 21
348.567
  0
LINE
  8
0
 10
8.08597
 20
348.567
 11
7.88892
 21
348.421
  0
LINE
  8
0
 10
7.88892
 20
348.421
 11
7.67848
 21
348.295
  0
LINE
  8
0
 10
7.67848
 20
348.295
 11
7.4567
 21
348.19
  0
LINE
  8
0
 10
7.4567
 20
348.19
 11
7.22571
 21
348.108
  0
LINE
  8
0
 10
7.22571
 20
348.108
 11
6.98772
 21
348.048
  0
LINE
  8
0
 10
6.98772
 20
348.048
 11
6.74504
 21
348.012
  0
LINE
  8
0
 10
6.74504
 20
348.012
 11
6.5
 21
348
  0
LINE
  8
0
 10
6.5
 20
348
 11
6.25494
 21
348.012
  0
LINE
  8
0
 10
213.255
 20
348.012
 11
213.012
 21
348.048
  0
LINE
  8
0
 10
213.012
 20
348.048
 11
212.774
 21
348.108
  0
LINE
  8
0
 10
212.774
 20
348.108
 11
212.543
 21
348.19
  0
LINE
  8
0
 10
212.543
 20
348.19
 11
212.322
 21
348.295
  0
LINE
  8
0
 10
212.322
 20
348.295
 11
212.111
 21
348.421
  0
LINE
  8
0
 10
212.111
 20
348.421
 11
211.914
 21
348.567
  0
LINE
  8
0
 10
211.914
 20
348.567
 11
211.732
 21
348.732
  0
LINE
  8
0
 10
211.732
 20
348.732
 11
211.567
 21
348.914
  0
LINE
  8
0
 10
211.567
 20
348.914
 11
211.421
 21
349.111
  0
LINE
  8
0
 10
211.421
 20
349.111
 11
211.295
 21
349.322
  0
LINE
  8
0
 10
211.295
 20
349.322
 11
211.19
 21
349.543
  0
LINE
  8
0
 10
211.19
 20
349.543
 11
211.108
 21
349.774
  0
LINE
  8
0
 10
211.108
 20
349.774
 11
211.048
 21
350.012
  0
LINE
  8
0
 10
211.048
 20
350.012
 11
211.012
 21
350.255
  0
LINE
  8
0
 10
211.012
 20
350.255
 11
211
 21
350.5
  0
LINE
  8
0
 10
211
 20
350.5
 11
211.012
 21
350.745
  0
LINE
  8
0
 10
211.012
 20
350.745
 11
211.048
 21
350.988
  0
LINE
  8
0
 10
211.048
 20
350.988
 11
211.108
 21
351.226
  0
LINE
  8
0
 10
211.108
 20
351.226
 11
211.19
 21
351.457
  0
LINE
  8
0
 10
211.19
 20
351.457
 11
211.295
 21
351.678
  0
LINE
  8
0
 10
211.295
 20
351.678
 11
211.421
 21
351.889
  0
LINE
  8
0
 10
211.421
 20
351.889
 11
211.567
 21
352.086
  0
LINE
  8
0
 10
211.567
 20
352.086
 11
211.732
 21
352.268
  0
LINE
  8
0
 10
211.732
 20
352.268
 11
211.914
 21
352.433
  0
LINE
  8
0
 10
211.914
 20
352.433
 11
212.111
 21
352.579
  0
LINE
  8
0
 10
212.111
 20
352.579
 11
212.322
 21
352.705
  0
LINE
  8
0
 10
212.322
 20
352.705
 11
212.543
 21
352.81
  0
LINE
  8
0
 10
212.543
 20
352.81
 11
212.774
 21
352.892
  0
LINE
  8
0
 10
212.774
 20
352.892
 11
213.012
 21
352.952
  0
LINE
  8
0
 10
213.012
 20
352.952
 11
213.255
 21
352.988
  0
LINE
  8
0
 10
213.255
 20
352.988
 11
213.5
 21
353
  0
LINE
  8
0
 10
213.5
 20
353
 11
213.745
 21
352.988
  0
LINE
  8
0
 10
213.745
 20
352.988
 11
213.988
 21
352.952
  0
LINE
  8
0
 10
213.988
 20
352.952
 11
214.226
 21
352.892
  0
LINE
  8
0
 10
214.226
 20
352.892
 11
214.457
 21
352.81
  0
LINE
  8
0
 10
214.457
 20
352.81
 11
214.678
 21
352.705
  0
LINE
  8
0
 10
214.678
 20
352.705
 11
214.889
 21
352.579
  0
LINE
  8
0
 10
214.889
 20
352.579
 11
215.086
 21
352.433
  0
LINE
  8
0
 10
215.086
 20
352.433
 11
215.268
 21
352.268
  0
LINE
  8
0
 10
215.268
 20
352.268
 11
215.433
 21
352.086
  0
LINE
  8
0
 10
215.433
 20
352.086
 11
215.579
 21
351.889
  0
LINE
  8
0
 10
215.579
 20
351.889
 11
215.705
 21
351.678
  0
LINE
  8
0
 10
215.705
 20
351.678
 11
215.81
 21
351.457
  0
LINE
  8
0
 10
215.81
 20
351.457
 11
215.892
 21
351.226
  0
LINE
  8
0
 10
215.892
 20
351.226
 11
215.952
 21
350.988
  0
LINE
  8
0
 10
215.952
 20
350.988
 11
215.988
 21
350.745
  0
LINE
  8
0
 10
215.988
 20
350.745
 11
216
 21
350.5
  0
LINE
  8
0
 10
216
 20
350.5
 11
215.988
 21
350.255
  0
LINE
  8
0
 10
215.988
 20
350.255
 11
215.952
 21
350.012
  0
LINE
  8
0
 10
215.952
 20
350.012
 11
215.892
 21
349.774
  0
LINE
  8
0
 10
215.892
 20
349.774
 11
215.81
 21
349.543
  0
LINE
  8
0
 10
215.81
 20
349.543
 11
215.705
 21
349.322
  0
LINE
  8
0
 10
215.705
 20
349.322
 11
215.579
 21
349.111
  0
LINE
  8
0
 10
215.579
 20
349.111
 11
215.433
 21
348.914
  0
LINE
  8
0
 10
215.433
 20
348.914
 11
215.268
 21
348.732
  0
LINE
  8
0
 10
215.268
 20
348.732
 11
215.086
 21
348.567
  0
LINE
  8
0
 10
215.086
 20
348.567
 11
214.889
 21
348.421
  0
LINE
  8
0
 10
214.889
 20
348.421
 11
214.678
 21
348.295
  0
LINE
  8
0
 10
214.678
 20
348.295
 11
214.457
 21
348.19
  0
LINE
  8
0
 10
214.457
 20
348.19
 11
214.226
 21
348.108
  0
LINE
  8
0
 10
214.226
 20
348.108
 11
213.988
 21
348.048
  0
LINE
  8
0
 10
213.988
 20
348.048
 11
213.745
 21
348.012
  0
LINE
  8
0
 10
213.745
 20
348.012
 11
213.5
 21
348
  0
LINE
  8
0
 10
213.5
 20
348
 11
213.255
 21
348.012
  0
LINE
  8
0
 10
64.8383
 20
320.858
 11
64.6781
 21
320.882
  0
LINE
  8
0
 10
64.6781
 20
320.882
 11
64.521
 21
320.921
  0
LINE
  8
0
 10
64.521
 20
320.921
 11
64.3686
 21
320.976
  0
LINE
  8
0
 10
64.3686
 20
320.976
 11
64.2222
 21
321.045
  0
LINE
  8
0
 10
64.2222
 20
321.045
 11
64.0833
 21
321.128
  0
LINE
  8
0
 10
64.0833
 20
321.128
 11
63.9532
 21
321.225
  0
LINE
  8
0
 10
63.9532
 20
321.225
 11
63.8333
 21
321.333
  0
LINE
  8
0
 10
63.8333
 20
321.333
 11
63.7245
 21
321.453
  0
LINE
  8
0
 10
63.7245
 20
321.453
 11
63.6281
 21
321.583
  0
LINE
  8
0
 10
63.6281
 20
321.583
 11
63.5448
 21
321.722
  0
LINE
  8
0
 10
63.5448
 20
321.722
 11
63.4756
 21
321.869
  0
LINE
  8
0
 10
63.4756
 20
321.869
 11
63.4211
 21
322.021
  0
LINE
  8
0
 10
63.4211
 20
322.021
 11
63.3817
 21
322.178
  0
LINE
  8
0
 10
63.3817
 20
322.178
 11
63.3579
 21
322.338
  0
LINE
  8
0
 10
63.3579
 20
322.338
 11
63.35
 21
322.5
  0
LINE
  8
0
 10
63.35
 20
322.5
 11
63.3579
 21
322.662
  0
LINE
  8
0
 10
63.3579
 20
322.662
 11
63.3817
 21
322.822
  0
LINE
  8
0
 10
63.3817
 20
322.822
 11
63.4211
 21
322.979
  0
LINE
  8
0
 10
63.4211
 20
322.979
 11
63.4756
 21
323.131
  0
LINE
  8
0
 10
63.4756
 20
323.131
 11
63.5448
 21
323.278
  0
LINE
  8
0
 10
63.5448
 20
323.278
 11
63.6281
 21
323.417
  0
LINE
  8
0
 10
63.6281
 20
323.417
 11
63.7245
 21
323.547
  0
LINE
  8
0
 10
63.7245
 20
323.547
 11
63.8333
 21
323.667
  0
LINE
  8
0
 10
63.8333
 20
323.667
 11
63.9532
 21
323.775
  0
LINE
  8
0
 10
63.9532
 20
323.775
 11
64.0833
 21
323.872
  0
LINE
  8
0
 10
64.0833
 20
323.872
 11
64.2222
 21
323.955
  0
LINE
  8
0
 10
64.2222
 20
323.955
 11
64.3686
 21
324.024
  0
LINE
  8
0
 10
64.3686
 20
324.024
 11
64.521
 21
324.079
  0
LINE
  8
0
 10
64.521
 20
324.079
 11
64.6781
 21
324.118
  0
LINE
  8
0
 10
64.6781
 20
324.118
 11
64.8383
 21
324.142
  0
LINE
  8
0
 10
64.8383
 20
324.142
 11
65
 21
324.15
  0
LINE
  8
0
 10
65
 20
324.15
 11
65.1617
 21
324.142
  0
LINE
  8
0
 10
65.1617
 20
324.142
 11
65.3219
 21
324.118
  0
LINE
  8
0
 10
65.3219
 20
324.118
 11
65.479
 21
324.079
  0
LINE
  8
0
 10
65.479
 20
324.079
 11
65.6314
 21
324.024
  0
LINE
  8
0
 10
65.6314
 20
324.024
 11
65.7778
 21
323.955
  0
LINE
  8
0
 10
65.7778
 20
323.955
 11
65.9167
 21
323.872
  0
LINE
  8
0
 10
65.9167
 20
323.872
 11
66.0468
 21
323.775
  0
LINE
  8
0
 10
66.0468
 20
323.775
 11
66.1667
 21
323.667
  0
LINE
  8
0
 10
66.1667
 20
323.667
 11
66.2755
 21
323.547
  0
LINE
  8
0
 10
66.2755
 20
323.547
 11
66.3719
 21
323.417
  0
LINE
  8
0
 10
66.3719
 20
323.417
 11
66.4552
 21
323.278
  0
LINE
  8
0
 10
66.4552
 20
323.278
 11
66.5244
 21
323.131
  0
LINE
  8
0
 10
66.5244
 20
323.131
 11
66.5789
 21
322.979
  0
LINE
  8
0
 10
66.5789
 20
322.979
 11
66.6183
 21
322.822
  0
LINE
  8
0
 10
66.6183
 20
322.822
 11
66.6421
 21
322.662
  0
LINE
  8
0
 10
66.6421
 20
322.662
 11
66.65
 21
322.5
  0
LINE
  8
0
 10
66.65
 20
322.5
 11
66.6421
 21
322.338
  0
LINE
  8
0
 10
66.6421
 20
322.338
 11
66.6183
 21
322.178
  0
LINE
  8
0
 10
66.6183
 20
322.178
 11
66.5789
 21
322.021
  0
LINE
  8
0
 10
66.5789
 20
322.021
 11
66.5244
 21
321.869
  0
LINE
  8
0
 10
66.5244
 20
321.869
 11
66.4552
 21
321.722
  0
LINE
  8
0
 10
66.4552
 20
321.722
 11
66.3719
 21
321.583
  0
LINE
  8
0
 10
66.3719
 20
321.583
 11
66.2755
 21
321.453
  0
LINE
  8
0
 10
66.2755
 20
321.453
 11
66.1667
 21
321.333
  0
LINE
  8
0
 10
66.1667
 20
321.333
 11
66.0468
 21
321.225
  0
LINE
  8
0
 10
66.0468
 20
321.225
 11
65.9167
 21
321.128
  0
LINE
  8
0
 10
65.9167
 20
321.128
 11
65.7778
 21
321.045
  0
LINE
  8
0
 10
65.7778
 20
321.045
 11
65.6314
 21
320.976
  0
LINE
  8
0
 10
65.6314
 20
320.976
 11
65.479
 21
320.921
  0
LINE
  8
0
 10
65.479
 20
320.921
 11
65.3219
 21
320.882
  0
LINE
  8
0
 10
65.3219
 20
320.882
 11
65.1617
 21
320.858
  0
LINE
  8
0
 10
65.1617
 20
320.858
 11
65
 21
320.85
  0
LINE
  8
0
 10
65
 20
320.85
 11
64.8383
 21
320.858
  0
LINE
  8
0
 10
179.838
 20
311.858
 11
179.678
 21
311.882
  0
LINE
  8
0
 10
179.678
 20
311.882
 11
179.521
 21
311.921
  0
LINE
  8
0
 10
179.521
 20
311.921
 11
179.369
 21
311.976
  0
LINE
  8
0
 10
179.369
 20
311.976
 11
179.222
 21
312.045
  0
LINE
  8
0
 10
179.222
 20
312.045
 11
179.083
 21
312.128
  0
LINE
  8
0
 10
179.083
 20
312.128
 11
178.953
 21
312.225
  0
LINE
  8
0
 10
178.953
 20
312.225
 11
178.833
 21
312.333
  0
LINE
  8
0
 10
178.833
 20
312.333
 11
178.725
 21
312.453
  0
LINE
  8
0
 10
178.725
 20
312.453
 11
178.628
 21
312.583
  0
LINE
  8
0
 10
178.628
 20
312.583
 11
178.545
 21
312.722
  0
LINE
  8
0
 10
178.545
 20
312.722
 11
178.476
 21
312.869
  0
LINE
  8
0
 10
178.476
 20
312.869
 11
178.421
 21
313.021
  0
LINE
  8
0
 10
178.421
 20
313.021
 11
178.382
 21
313.178
  0
LINE
  8
0
 10
178.382
 20
313.178
 11
178.358
 21
313.338
  0
LINE
  8
0
 10
178.358
 20
313.338
 11
178.35
 21
313.5
  0
LINE
  8
0
 10
178.35
 20
313.5
 11
178.358
 21
313.662
  0
LINE
  8
0
 10
178.358
 20
313.662
 11
178.382
 21
313.822
  0
LINE
  8
0
 10
178.382
 20
313.822
 11
178.421
 21
313.979
  0
LINE
  8
0
 10
178.421
 20
313.979
 11
178.476
 21
314.131
  0
LINE
  8
0
 10
178.476
 20
314.131
 11
178.545
 21
314.278
  0
LINE
  8
0
 10
178.545
 20
314.278
 11
178.628
 21
314.417
  0
LINE
  8
0
 10
178.628
 20
314.417
 11
178.725
 21
314.547
  0
LINE
  8
0
 10
178.725
 20
314.547
 11
178.833
 21
314.667
  0
LINE
  8
0
 10
178.833
 20
314.667
 11
178.953
 21
314.775
  0
LINE
  8
0
 10
178.953
 20
314.775
 11
179.083
 21
314.872
  0
LINE
  8
0
 10
179.083
 20
314.872
 11
179.222
 21
314.955
  0
LINE
  8
0
 10
179.222
 20
314.955
 11
179.369
 21
315.024
  0
LINE
  8
0
 10
179.369
 20
315.024
 11
179.521
 21
315.079
  0
LINE
  8
0
 10
179.521
 20
315.079
 11
179.678
 21
315.118
  0
LINE
  8
0
 10
179.678
 20
315.118
 11
179.838
 21
315.142
  0
LINE
  8
0
 10
179.838
 20
315.142
 11
180
 21
315.15
  0
LINE
  8
0
 10
180
 20
315.15
 11
180.162
 21
315.142
  0
LINE
  8
0
 10
180.162
 20
315.142
 11
180.322
 21
315.118
  0
LINE
  8
0
 10
180.322
 20
315.118
 11
180.479
 21
315.079
  0
LINE
  8
0
 10
180.479
 20
315.079
 11
180.631
 21
315.024
  0
LINE
  8
0
 10
180.631
 20
315.024
 11
180.778
 21
314.955
  0
LINE
  8
0
 10
180.778
 20
314.955
 11
180.917
 21
314.872
  0
LINE
  8
0
 10
180.917
 20
314.872
 11
181.047
 21
314.775
  0
LINE
  8
0
 10
181.047
 20
314.775
 11
181.167
 21
314.667
  0
LINE
  8
0
 10
181.167
 20
314.667
 11
181.275
 21
314.547
  0
LINE
  8
0
 10
181.275
 20
314.547
 11
181.372
 21
314.417
  0
LINE
  8
0
 10
181.372
 20
314.417
 11
181.455
 21
314.278
  0
LINE
  8
0
 10
181.455
 20
314.278
 11
181.524
 21
314.131
  0
LINE
  8
0
 10
181.524
 20
314.131
 11
181.579
 21
313.979
  0
LINE
  8
0
 10
181.579
 20
313.979
 11
181.618
 21
313.822
  0
LINE
  8
0
 10
181.618
 20
313.822
 11
181.642
 21
313.662
  0
LINE
  8
0
 10
181.642
 20
313.662
 11
181.65
 21
313.5
  0
LINE
  8
0
 10
181.65
 20
313.5
 11
181.642
 21
313.338
  0
LINE
  8
0
 10
181.642
 20
313.338
 11
181.618
 21
313.178
  0
LINE
  8
0
 10
181.618
 20
313.178
 11
181.579
 21
313.021
  0
LINE
  8
0
 10
181.579
 20
313.021
 11
181.524
 21
312.869
  0
LINE
  8
0
 10
181.524
 20
312.869
 11
181.455
 21
312.722
  0
LINE
  8
0
 10
181.455
 20
312.722
 11
181.372
 21
312.583
  0
LINE
  8
0
 10
181.372
 20
312.583
 11
181.275
 21
312.453
  0
LINE
  8
0
 10
181.275
 20
312.453
 11
181.167
 21
312.333
  0
LINE
  8
0
 10
181.167
 20
312.333
 11
181.047
 21
312.225
  0
LINE
  8
0
 10
181.047
 20
312.225
 11
180.917
 21
312.128
  0
LINE
  8
0
 10
180.917
 20
312.128
 11
180.778
 21
312.045
  0
LINE
  8
0
 10
180.778
 20
312.045
 11
180.631
 21
311.976
  0
LINE
  8
0
 10
180.631
 20
311.976
 11
180.479
 21
311.921
  0
LINE
  8
0
 10
180.479
 20
311.921
 11
180.322
 21
311.882
  0
LINE
  8
0
 10
180.322
 20
311.882
 11
180.162
 21
311.858
  0
LINE
  8
0
 10
180.162
 20
311.858
 11
180
 21
311.85
  0
LINE
  8
0
 10
180
 20
311.85
 11
179.838
 21
311.858
  0
LINE
  8
0
 10
179.838
 20
285.858
 11
179.678
 21
285.882
  0
LINE
  8
0
 10
179.678
 20
285.882
 11
179.521
 21
285.921
  0
LINE
  8
0
 10
179.521
 20
285.921
 11
179.369
 21
285.976
  0
LINE
  8
0
 10
179.369
 20
285.976
 11
179.222
 21
286.045
  0
LINE
  8
0
 10
179.222
 20
286.045
 11
179.083
 21
286.128
  0
LINE
  8
0
 10
179.083
 20
286.128
 11
178.953
 21
286.225
  0
LINE
  8
0
 10
178.953
 20
286.225
 11
178.833
 21
286.333
  0
LINE
  8
0
 10
178.833
 20
286.333
 11
178.725
 21
286.453
  0
LINE
  8
0
 10
178.725
 20
286.453
 11
178.628
 21
286.583
  0
LINE
  8
0
 10
178.628
 20
286.583
 11
178.545
 21
286.722
  0
LINE
  8
0
 10
178.545
 20
286.722
 11
178.476
 21
286.869
  0
LINE
  8
0
 10
178.476
 20
286.869
 11
178.421
 21
287.021
  0
LINE
  8
0
 10
178.421
 20
287.021
 11
178.382
 21
287.178
  0
LINE
  8
0
 10
178.382
 20
287.178
 11
178.358
 21
287.338
  0
LINE
  8
0
 10
178.358
 20
287.338
 11
178.35
 21
287.5
  0
LINE
  8
0
 10
178.35
 20
287.5
 11
178.358
 21
287.662
  0
LINE
  8
0
 10
178.358
 20
287.662
 11
178.382
 21
287.822
  0
LINE
  8
0
 10
178.382
 20
287.822
 11
178.421
 21
287.979
  0
LINE
  8
0
 10
178.421
 20
287.979
 11
178.476
 21
288.131
  0
LINE
  8
0
 10
178.476
 20
288.131
 11
178.545
 21
288.278
  0
LINE
  8
0
 10
178.545
 20
288.278
 11
178.628
 21
288.417
  0
LINE
  8
0
 10
178.628
 20
288.417
 11
178.725
 21
288.547
  0
LINE
  8
0
 10
178.725
 20
288.547
 11
178.833
 21
288.667
  0
LINE
  8
0
 10
178.833
 20
288.667
 11
178.953
 21
288.775
  0
LINE
  8
0
 10
178.953
 20
288.775
 11
179.083
 21
288.872
  0
LINE
  8
0
 10
179.083
 20
288.872
 11
179.222
 21
288.955
  0
LINE
  8
0
 10
179.222
 20
288.955
 11
179.369
 21
289.024
  0
LINE
  8
0
 10
179.369
 20
289.024
 11
179.521
 21
289.079
  0
LINE
  8
0
 10
179.521
 20
289.079
 11
179.678
 21
289.118
  0
LINE
  8
0
 10
179.678
 20
289.118
 11
179.838
 21
289.142
  0
LINE
  8
0
 10
179.838
 20
289.142
 11
180
 21
289.15
  0
LINE
  8
0
 10
180
 20
289.15
 11
180.162
 21
289.142
  0
LINE
  8
0
 10
180.162
 20
289.142
 11
180.322
 21
289.118
  0
LINE
  8
0
 10
180.322
 20
289.118
 11
180.479
 21
289.079
  0
LINE
  8
0
 10
180.479
 20
289.079
 11
180.631
 21
289.024
  0
LINE
  8
0
 10
180.631
 20
289.024
 11
180.778
 21
288.955
  0
LINE
  8
0
 10
180.778
 20
288.955
 11
180.917
 21
288.872
  0
LINE
  8
0
 10
180.917
 20
288.872
 11
181.047
 21
288.775
  0
LINE
  8
0
 10
181.047
 20
288.775
 11
181.167
 21
288.667
  0
LINE
  8
0
 10
181.167
 20
288.667
 11
181.275
 21
288.547
  0
LINE
  8
0
 10
181.275
 20
288.547
 11
181.372
 21
288.417
  0
LINE
  8
0
 10
181.372
 20
288.417
 11
181.455
 21
288.278
  0
LINE
  8
0
 10
181.455
 20
288.278
 11
181.524
 21
288.131
  0
LINE
  8
0
 10
181.524
 20
288.131
 11
181.579
 21
287.979
  0
LINE
  8
0
 10
181.579
 20
287.979
 11
181.618
 21
287.822
  0
LINE
  8
0
 10
181.618
 20
287.822
 11
181.642
 21
287.662
  0
LINE
  8
0
 10
181.642
 20
287.662
 11
181.65
 21
287.5
  0
LINE
  8
0
 10
181.65
 20
287.5
 11
181.642
 21
287.338
  0
LINE
  8
0
 10
181.642
 20
287.338
 11
181.618
 21
287.178
  0
LINE
  8
0
 10
181.618
 20
287.178
 11
181.579
 21
287.021
  0
LINE
  8
0
 10
181.579
 20
287.021
 11
181.524
 21
286.869
  0
LINE
  8
0
 10
181.524
 20
286.869
 11
181.455
 21
286.722
  0
LINE
  8
0
 10
181.455
 20
286.722
 11
181.372
 21
286.583
  0
LINE
  8
0
 10
181.372
 20
286.583
 11
181.275
 21
286.453
  0
LINE
  8
0
 10
181.275
 20
286.453
 11
181.167
 21
286.333
  0
LINE
  8
0
 10
181.167
 20
286.333
 11
181.047
 21
286.225
  0
LINE
  8
0
 10
181.047
 20
286.225
 11
180.917
 21
286.128
  0
LINE
  8
0
 10
180.917
 20
286.128
 11
180.778
 21
286.045
  0
LINE
  8
0
 10
180.778
 20
286.045
 11
180.631
 21
285.976
  0
LINE
  8
0
 10
180.631
 20
285.976
 11
180.479
 21
285.921
  0
LINE
  8
0
 10
180.479
 20
285.921
 11
180.322
 21
285.882
  0
LINE
  8
0
 10
180.322
 20
285.882
 11
180.162
 21
285.858
  0
LINE
  8
0
 10
180.162
 20
285.858
 11
180
 21
285.85
  0
LINE
  8
0
 10
180
 20
285.85
 11
179.838
 21
285.858
  0
LINE
  8
0
 10
64.8383
 20
276.858
 11
64.6781
 21
276.882
  0
LINE
  8
0
 10
64.6781
 20
276.882
 11
64.521
 21
276.921
  0
LINE
  8
0
 10
64.521
 20
276.921
 11
64.3686
 21
276.976
  0
LINE
  8
0
 10
64.3686
 20
276.976
 11
64.2222
 21
277.045
  0
LINE
  8
0
 10
64.2222
 20
277.045
 11
64.0833
 21
277.128
  0
LINE
  8
0
 10
64.0833
 20
277.128
 11
63.9532
 21
277.225
  0
LINE
  8
0
 10
63.9532
 20
277.225
 11
63.8333
 21
277.333
  0
LINE
  8
0
 10
63.8333
 20
277.333
 11
63.7245
 21
277.453
  0
LINE
  8
0
 10
63.7245
 20
277.453
 11
63.6281
 21
277.583
  0
LINE
  8
0
 10
63.6281
 20
277.583
 11
63.5448
 21
277.722
  0
LINE
  8
0
 10
63.5448
 20
277.722
 11
63.4756
 21
277.869
  0
LINE
  8
0
 10
63.4756
 20
277.869
 11
63.4211
 21
278.021
  0
LINE
  8
0
 10
63.4211
 20
278.021
 11
63.3817
 21
278.178
  0
LINE
  8
0
 10
63.3817
 20
278.178
 11
63.3579
 21
278.338
  0
LINE
  8
0
 10
63.3579
 20
278.338
 11
63.35
 21
278.5
  0
LINE
  8
0
 10
63.35
 20
278.5
 11
63.3579
 21
278.662
  0
LINE
  8
0
 10
63.3579
 20
278.662
 11
63.3817
 21
278.822
  0
LINE
  8
0
 10
63.3817
 20
278.822
 11
63.4211
 21
278.979
  0
LINE
  8
0
 10
63.4211
 20
278.979
 11
63.4756
 21
279.131
  0
LINE
  8
0
 10
63.4756
 20
279.131
 11
63.5448
 21
279.278
  0
LINE
  8
0
 10
63.5448
 20
279.278
 11
63.6281
 21
279.417
  0
LINE
  8
0
 10
63.6281
 20
279.417
 11
63.7245
 21
279.547
  0
LINE
  8
0
 10
63.7245
 20
279.547
 11
63.8333
 21
279.667
  0
LINE
  8
0
 10
63.8333
 20
279.667
 11
63.9532
 21
279.775
  0
LINE
  8
0
 10
63.9532
 20
279.775
 11
64.0833
 21
279.872
  0
LINE
  8
0
 10
64.0833
 20
279.872
 11
64.2222
 21
279.955
  0
LINE
  8
0
 10
64.2222
 20
279.955
 11
64.3686
 21
280.024
  0
LINE
  8
0
 10
64.3686
 20
280.024
 11
64.521
 21
280.079
  0
LINE
  8
0
 10
64.521
 20
280.079
 11
64.6781
 21
280.118
  0
LINE
  8
0
 10
64.6781
 20
280.118
 11
64.8383
 21
280.142
  0
LINE
  8
0
 10
64.8383
 20
280.142
 11
65
 21
280.15
  0
LINE
  8
0
 10
65
 20
280.15
 11
65.1617
 21
280.142
  0
LINE
  8
0
 10
65.1617
 20
280.142
 11
65.3219
 21
280.118
  0
LINE
  8
0
 10
65.3219
 20
280.118
 11
65.479
 21
280.079
  0
LINE
  8
0
 10
65.479
 20
280.079
 11
65.6314
 21
280.024
  0
LINE
  8
0
 10
65.6314
 20
280.024
 11
65.7778
 21
279.955
  0
LINE
  8
0
 10
65.7778
 20
279.955
 11
65.9167
 21
279.872
  0
LINE
  8
0
 10
65.9167
 20
279.872
 11
66.0468
 21
279.775
  0
LINE
  8
0
 10
66.0468
 20
279.775
 11
66.1667
 21
279.667
  0
LINE
  8
0
 10
66.1667
 20
279.667
 11
66.2755
 21
279.547
  0
LINE
  8
0
 10
66.2755
 20
279.547
 11
66.3719
 21
279.417
  0
LINE
  8
0
 10
66.3719
 20
279.417
 11
66.4552
 21
279.278
  0
LINE
  8
0
 10
66.4552
 20
279.278
 11
66.5244
 21
279.131
  0
LINE
  8
0
 10
66.5244
 20
279.131
 11
66.5789
 21
278.979
  0
LINE
  8
0
 10
66.5789
 20
278.979
 11
66.6183
 21
278.822
  0
LINE
  8
0
 10
66.6183
 20
278.822
 11
66.6421
 21
278.662
  0
LINE
  8
0
 10
66.6421
 20
278.662
 11
66.65
 21
278.5
  0
LINE
  8
0
 10
66.65
 20
278.5
 11
66.6421
 21
278.338
  0
LINE
  8
0
 10
66.6421
 20
278.338
 11
66.6183
 21
278.178
  0
LINE
  8
0
 10
66.6183
 20
278.178
 11
66.5789
 21
278.021
  0
LINE
  8
0
 10
66.5789
 20
278.021
 11
66.5244
 21
277.869
  0
LINE
  8
0
 10
66.5244
 20
277.869
 11
66.4552
 21
277.722
  0
LINE
  8
0
 10
66.4552
 20
277.722
 11
66.3719
 21
277.583
  0
LINE
  8
0
 10
66.3719
 20
277.583
 11
66.2755
 21
277.453
  0
LINE
  8
0
 10
66.2755
 20
277.453
 11
66.1667
 21
277.333
  0
LINE
  8
0
 10
66.1667
 20
277.333
 11
66.0468
 21
277.225
  0
LINE
  8
0
 10
66.0468
 20
277.225
 11
65.9167
 21
277.128
  0
LINE
  8
0
 10
65.9167
 20
277.128
 11
65.7778
 21
277.045
  0
LINE
  8
0
 10
65.7778
 20
277.045
 11
65.6314
 21
276.976
  0
LINE
  8
0
 10
65.6314
 20
276.976
 11
65.479
 21
276.921
  0
LINE
  8
0
 10
65.479
 20
276.921
 11
65.3219
 21
276.882
  0
LINE
  8
0
 10
65.3219
 20
276.882
 11
65.1617
 21
276.858
  0
LINE
  8
0
 10
65.1617
 20
276.858
 11
65
 21
276.85
  0
LINE
  8
0
 10
65
 20
276.85
 11
64.8383
 21
276.858
  0
LINE
  8
0
 10
213.304
 20
241.51
 11
213.11
 21
241.538
  0
LINE
  8
0
 10
213.11
 20
241.538
 11
212.919
 21
241.586
  0
LINE
  8
0
 10
212.919
 20
241.586
 11
212.735
 21
241.652
  0
LINE
  8
0
 10
212.735
 20
241.652
 11
212.557
 21
241.736
  0
LINE
  8
0
 10
212.557
 20
241.736
 11
212.389
 21
241.837
  0
LINE
  8
0
 10
212.389
 20
241.837
 11
212.231
 21
241.954
  0
LINE
  8
0
 10
212.231
 20
241.954
 11
212.086
 21
242.086
  0
LINE
  8
0
 10
212.086
 20
242.086
 11
211.954
 21
242.231
  0
LINE
  8
0
 10
211.954
 20
242.231
 11
211.837
 21
242.389
  0
LINE
  8
0
 10
211.837
 20
242.389
 11
211.736
 21
242.557
  0
LINE
  8
0
 10
211.736
 20
242.557
 11
211.652
 21
242.735
  0
LINE
  8
0
 10
211.652
 20
242.735
 11
211.586
 21
242.919
  0
LINE
  8
0
 10
211.586
 20
242.919
 11
211.538
 21
243.11
  0
LINE
  8
0
 10
211.538
 20
243.11
 11
211.51
 21
243.304
  0
LINE
  8
0
 10
211.51
 20
243.304
 11
211.5
 21
243.5
  0
LINE
  8
0
 10
211.5
 20
243.5
 11
211.51
 21
243.696
  0
LINE
  8
0
 10
211.51
 20
243.696
 11
211.538
 21
243.89
  0
LINE
  8
0
 10
211.538
 20
243.89
 11
211.586
 21
244.081
  0
LINE
  8
0
 10
211.586
 20
244.081
 11
211.652
 21
244.265
  0
LINE
  8
0
 10
211.652
 20
244.265
 11
211.736
 21
244.443
  0
LINE
  8
0
 10
211.736
 20
244.443
 11
211.837
 21
244.611
  0
LINE
  8
0
 10
211.837
 20
244.611
 11
211.954
 21
244.769
  0
LINE
  8
0
 10
211.954
 20
244.769
 11
212.086
 21
244.914
  0
LINE
  8
0
 10
212.086
 20
244.914
 11
212.231
 21
245.046
  0
LINE
  8
0
 10
212.231
 20
245.046
 11
212.389
 21
245.163
  0
LINE
  8
0
 10
212.389
 20
245.163
 11
212.557
 21
245.264
  0
LINE
  8
0
 10
212.557
 20
245.264
 11
212.735
 21
245.348
  0
LINE
  8
0
 10
212.735
 20
245.348
 11
212.919
 21
245.414
  0
LINE
  8
0
 10
212.919
 20
245.414
 11
213.11
 21
245.462
  0
LINE
  8
0
 10
213.11
 20
245.462
 11
213.304
 21
245.49
  0
LINE
  8
0
 10
213.304
 20
245.49
 11
213.5
 21
245.5
  0
LINE
  8
0
 10
213.5
 20
245.5
 11
213.696
 21
245.49
  0
LINE
  8
0
 10
213.696
 20
245.49
 11
213.89
 21
245.462
  0
LINE
  8
0
 10
213.89
 20
245.462
 11
214.081
 21
245.414
  0
LINE
  8
0
 10
214.081
 20
245.414
 11
214.265
 21
245.348
  0
LINE
  8
0
 10
214.265
 20
245.348
 11
214.443
 21
245.264
  0
LINE
  8
0
 10
214.443
 20
245.264
 11
214.611
 21
245.163
  0
LINE
  8
0
 10
214.611
 20
245.163
 11
214.769
 21
245.046
  0
LINE
  8
0
 10
214.769
 20
245.046
 11
214.914
 21
244.914
  0
LINE
  8
0
 10
214.914
 20
244.914
 11
215.046
 21
244.769
  0
LINE
  8
0
 10
215.046
 20
244.769
 11
215.163
 21
244.611
  0
LINE
  8
0
 10
215.163
 20
244.611
 11
215.264
 21
244.443
  0
LINE
  8
0
 10
215.264
 20
244.443
 11
215.348
 21
244.265
  0
LINE
  8
0
 10
215.348
 20
244.265
 11
215.414
 21
244.081
  0
LINE
  8
0
 10
215.414
 20
244.081
 11
215.462
 21
243.89
  0
LINE
  8
0
 10
215.462
 20
243.89
 11
215.49
 21
243.696
  0
LINE
  8
0
 10
215.49
 20
243.696
 11
215.5
 21
243.5
  0
LINE
  8
0
 10
215.5
 20
243.5
 11
215.49
 21
243.304
  0
LINE
  8
0
 10
215.49
 20
243.304
 11
215.462
 21
243.11
  0
LINE
  8
0
 10
215.462
 20
243.11
 11
215.414
 21
242.919
  0
LINE
  8
0
 10
215.414
 20
242.919
 11
215.348
 21
242.735
  0
LINE
  8
0
 10
215.348
 20
242.735
 11
215.264
 21
242.557
  0
LINE
  8
0
 10
215.264
 20
242.557
 11
215.163
 21
242.389
  0
LINE
  8
0
 10
215.163
 20
242.389
 11
215.046
 21
242.231
  0
LINE
  8
0
 10
215.046
 20
242.231
 11
214.914
 21
242.086
  0
LINE
  8
0
 10
214.914
 20
242.086
 11
214.769
 21
241.954
  0
LINE
  8
0
 10
214.769
 20
241.954
 11
214.611
 21
241.837
  0
LINE
  8
0
 10
214.611
 20
241.837
 11
214.443
 21
241.736
  0
LINE
  8
0
 10
214.443
 20
241.736
 11
214.265
 21
241.652
  0
LINE
  8
0
 10
214.265
 20
241.652
 11
214.081
 21
241.586
  0
LINE
  8
0
 10
214.081
 20
241.586
 11
213.89
 21
241.538
  0
LINE
  8
0
 10
213.89
 20
241.538
 11
213.696
 21
241.51
  0
LINE
  8
0
 10
213.696
 20
241.51
 11
213.5
 21
241.5
  0
LINE
  8
0
 10
213.5
 20
241.5
 11
213.304
 21
241.51
  0
LINE
  8
0
 10
16.804
 20
241.51
 11
16.6098
 21
241.538
  0
LINE
  8
0
 10
16.6098
 20
241.538
 11
16.4194
 21
241.586
  0
LINE
  8
0
 10
16.4194
 20
241.586
 11
16.2346
 21
241.652
  0
LINE
  8
0
 10
16.2346
 20
241.652
 11
16.0572
 21
241.736
  0
LINE
  8
0
 10
16.0572
 20
241.736
 11
15.8889
 21
241.837
  0
LINE
  8
0
 10
15.8889
 20
241.837
 11
15.7312
 21
241.954
  0
LINE
  8
0
 10
15.7312
 20
241.954
 11
15.5858
 21
242.086
  0
LINE
  8
0
 10
15.5858
 20
242.086
 11
15.454
 21
242.231
  0
LINE
  8
0
 10
15.454
 20
242.231
 11
15.3371
 21
242.389
  0
LINE
  8
0
 10
15.3371
 20
242.389
 11
15.2361
 21
242.557
  0
LINE
  8
0
 10
15.2361
 20
242.557
 11
15.1522
 21
242.735
  0
LINE
  8
0
 10
15.1522
 20
242.735
 11
15.0861
 21
242.919
  0
LINE
  8
0
 10
15.0861
 20
242.919
 11
15.0384
 21
243.11
  0
LINE
  8
0
 10
15.0384
 20
243.11
 11
15.0096
 21
243.304
  0
LINE
  8
0
 10
15.0096
 20
243.304
 11
15
 21
243.5
  0
LINE
  8
0
 10
15
 20
243.5
 11
15.0096
 21
243.696
  0
LINE
  8
0
 10
15.0096
 20
243.696
 11
15.0384
 21
243.89
  0
LINE
  8
0
 10
15.0384
 20
243.89
 11
15.0861
 21
244.081
  0
LINE
  8
0
 10
15.0861
 20
244.081
 11
15.1522
 21
244.265
  0
LINE
  8
0
 10
15.1522
 20
244.265
 11
15.2361
 21
244.443
  0
LINE
  8
0
 10
15.2361
 20
244.443
 11
15.3371
 21
244.611
  0
LINE
  8
0
 10
15.3371
 20
244.611
 11
15.454
 21
244.769
  0
LINE
  8
0
 10
15.454
 20
244.769
 11
15.5858
 21
244.914
  0
LINE
  8
0
 10
15.5858
 20
244.914
 11
15.7312
 21
245.046
  0
LINE
  8
0
 10
15.7312
 20
245.046
 11
15.8889
 21
245.163
  0
LINE
  8
0
 10
15.8889
 20
245.163
 11
16.0572
 21
245.264
  0
LINE
  8
0
 10
16.0572
 20
245.264
 11
16.2346
 21
245.348
  0
LINE
  8
0
 10
16.2346
 20
245.348
 11
16.4194
 21
245.414
  0
LINE
  8
0
 10
16.4194
 20
245.414
 11
16.6098
 21
245.462
  0
LINE
  8
0
 10
16.6098
 20
245.462
 11
16.804
 21
245.49
  0
LINE
  8
0
 10
16.804
 20
245.49
 11
17
 21
245.5
  0
LINE
  8
0
 10
17
 20
245.5
 11
17.196
 21
245.49
  0
LINE
  8
0
 10
17.196
 20
245.49
 11
17.3902
 21
245.462
  0
LINE
  8
0
 10
17.3902
 20
245.462
 11
17.5806
 21
245.414
  0
LINE
  8
0
 10
17.5806
 20
245.414
 11
17.7654
 21
245.348
  0
LINE
  8
0
 10
17.7654
 20
245.348
 11
17.9428
 21
245.264
  0
LINE
  8
0
 10
17.9428
 20
245.264
 11
18.1111
 21
245.163
  0
LINE
  8
0
 10
18.1111
 20
245.163
 11
18.2688
 21
245.046
  0
LINE
  8
0
 10
18.2688
 20
245.046
 11
18.4142
 21
244.914
  0
LINE
  8
0
 10
18.4142
 20
244.914
 11
18.546
 21
244.769
  0
LINE
  8
0
 10
18.546
 20
244.769
 11
18.6629
 21
244.611
  0
LINE
  8
0
 10
18.6629
 20
244.611
 11
18.7638
 21
244.443
  0
LINE
  8
0
 10
18.7638
 20
244.443
 11
18.8477
 21
244.265
  0
LINE
  8
0
 10
18.8477
 20
244.265
 11
18.9139
 21
244.081
  0
LINE
  8
0
 10
18.9139
 20
244.081
 11
18.9616
 21
243.89
  0
LINE
  8
0
 10
18.9616
 20
243.89
 11
18.9904
 21
243.696
  0
LINE
  8
0
 10
18.9904
 20
243.696
 11
19
 21
243.5
  0
LINE
  8
0
 10
19
 20
243.5
 11
18.9904
 21
243.304
  0
LINE
  8
0
 10
18.9904
 20
243.304
 11
18.9616
 21
243.11
  0
LINE
  8
0
 10
18.9616
 20
243.11
 11
18.9139
 21
242.919
  0
LINE
  8
0
 10
18.9139
 20
242.919
 11
18.8477
 21
242.735
  0
LINE
  8
0
 10
18.8477
 20
242.735
 11
18.7638
 21
242.557
  0
LINE
  8
0
 10
18.7638
 20
242.557
 11
18.6629
 21
242.389
  0
LINE
  8
0
 10
18.6629
 20
242.389
 11
18.546
 21
242.231
  0
LINE
  8
0
 10
18.546
 20
242.231
 11
18.4142
 21
242.086
  0
LINE
  8
0
 10
18.4142
 20
242.086
 11
18.2688
 21
241.954
  0
LINE
  8
0
 10
18.2688
 20
241.954
 11
18.1111
 21
241.837
  0
LINE
  8
0
 10
18.1111
 20
241.837
 11
17.9428
 21
241.736
  0
LINE
  8
0
 10
17.9428
 20
241.736
 11
17.7654
 21
241.652
  0
LINE
  8
0
 10
17.7654
 20
241.652
 11
17.5806
 21
241.586
  0
LINE
  8
0
 10
17.5806
 20
241.586
 11
17.3902
 21
241.538
  0
LINE
  8
0
 10
17.3902
 20
241.538
 11
17.196
 21
241.51
  0
LINE
  8
0
 10
17.196
 20
241.51
 11
17
 21
241.5
  0
LINE
  8
0
 10
17
 20
241.5
 11
16.804
 21
241.51
  0
LINE
  8
0
 10
220
 20
236
 11
0
 21
236
  0
LINE
  8
0
 10
0
 20
236
 11
0
 21
116
  0
LINE
  8
0
 10
0
 20
116
 11
220
 21
116
  0
LINE
  8
0
 10
220
 20
116
 11
220
 21
236
  0
LINE
  8
0
 10
213.255
 20
227.012
 11
213.012
 21
227.048
  0
LINE
  8
0
 10
213.012
 20
227.048
 11
212.774
 21
227.108
  0
LINE
  8
0
 10
212.774
 20
227.108
 11
212.543
 21
227.19
  0
LINE
  8
0
 10
212.543
 20
227.19
 11
212.322
 21
227.295
  0
LINE
  8
0
 10
212.322
 20
227.295
 11
212.111
 21
227.421
  0
LINE
  8
0
 10
212.111
 20
227.421
 11
211.914
 21
227.567
  0
LINE
  8
0
 10
211.914
 20
227.567
 11
211.732
 21
227.732
  0
LINE
  8
0
 10
211.732
 20
227.732
 11
211.567
 21
227.914
  0
LINE
  8
0
 10
211.567
 20
227.914
 11
211.421
 21
228.111
  0
LINE
  8
0
 10
211.421
 20
228.111
 11
211.295
 21
228.322
  0
LINE
  8
0
 10
211.295
 20
228.322
 11
211.19
 21
228.543
  0
LINE
  8
0
 10
211.19
 20
228.543
 11
211.108
 21
228.774
  0
LINE
  8
0
 10
211.108
 20
228.774
 11
211.048
 21
229.012
  0
LINE
  8
0
 10
211.048
 20
229.012
 11
211.012
 21
229.255
  0
LINE
  8
0
 10
211.012
 20
229.255
 11
211
 21
229.5
  0
LINE
  8
0
 10
211
 20
229.5
 11
211.012
 21
229.745
  0
LINE
  8
0
 10
211.012
 20
229.745
 11
211.048
 21
229.988
  0
LINE
  8
0
 10
211.048
 20
229.988
 11
211.108
 21
230.226
  0
LINE
  8
0
 10
211.108
 20
230.226
 11
211.19
 21
230.457
  0
LINE
  8
0
 10
211.19
 20
230.457
 11
211.295
 21
230.678
  0
LINE
  8
0
 10
211.295
 20
230.678
 11
211.421
 21
230.889
  0
LINE
  8
0
 10
211.421
 20
230.889
 11
211.567
 21
231.086
  0
LINE
  8
0
 10
211.567
 20
231.086
 11
211.732
 21
231.268
  0
LINE
  8
0
 10
211.732
 20
231.268
 11
211.914
 21
231.433
  0
LINE
  8
0
 10
211.914
 20
231.433
 11
212.111
 21
231.579
  0
LINE
  8
0
 10
212.111
 20
231.579
 11
212.322
 21
231.705
  0
LINE
  8
0
 10
212.322
 20
231.705
 11
212.543
 21
231.81
  0
LINE
  8
0
 10
212.543
 20
231.81
 11
212.774
 21
231.892
  0
LINE
  8
0
 10
212.774
 20
231.892
 11
213.012
 21
231.952
  0
LINE
  8
0
 10
213.012
 20
231.952
 11
213.255
 21
231.988
  0
LINE
  8
0
 10
213.255
 20
231.988
 11
213.5
 21
232
  0
LINE
  8
0
 10
213.5
 20
232
 11
213.745
 21
231.988
  0
LINE
  8
0
 10
213.745
 20
231.988
 11
213.988
 21
231.952
  0
LINE
  8
0
 10
213.988
 20
231.952
 11
214.226
 21
231.892
  0
LINE
  8
0
 10
214.226
 20
231.892
 11
214.457
 21
231.81
  0
LINE
  8
0
 10
214.457
 20
231.81
 11
214.678
 21
231.705
  0
LINE
  8
0
 10
214.678
 20
231.705
 11
214.889
 21
231.579
  0
LINE
  8
0
 10
214.889
 20
231.579
 11
215.086
 21
231.433
  0
LINE
  8
0
 10
215.086
 20
231.433
 11
215.268
 21
231.268
  0
LINE
  8
0
 10
215.268
 20
231.268
 11
215.433
 21
231.086
  0
LINE
  8
0
 10
215.433
 20
231.086
 11
215.579
 21
230.889
  0
LINE
  8
0
 10
215.579
 20
230.889
 11
215.705
 21
230.678
  0
LINE
  8
0
 10
215.705
 20
230.678
 11
215.81
 21
230.457
  0
LINE
  8
0
 10
215.81
 20
230.457
 11
215.892
 21
230.226
  0
LINE
  8
0
 10
215.892
 20
230.226
 11
215.952
 21
229.988
  0
LINE
  8
0
 10
215.952
 20
229.988
 11
215.988
 21
229.745
  0
LINE
  8
0
 10
215.988
 20
229.745
 11
216
 21
229.5
  0
LINE
  8
0
 10
216
 20
229.5
 11
215.988
 21
229.255
  0
LINE
  8
0
 10
215.988
 20
229.255
 11
215.952
 21
229.012
  0
LINE
  8
0
 10
215.952
 20
229.012
 11
215.892
 21
228.774
  0
LINE
  8
0
 10
215.892
 20
228.774
 11
215.81
 21
228.543
  0
LINE
  8
0
 10
215.81
 20
228.543
 11
215.705
 21
228.322
  0
LINE
  8
0
 10
215.705
 20
228.322
 11
215.579
 21
228.111
  0
LINE
  8
0
 10
215.579
 20
228.111
 11
215.433
 21
227.914
  0
LINE
  8
0
 10
215.433
 20
227.914
 11
215.268
 21
227.732
  0
LINE
  8
0
 10
215.268
 20
227.732
 11
215.086
 21
227.567
  0
LINE
  8
0
 10
215.086
 20
227.567
 11
214.889
 21
227.421
  0
LINE
  8
0
 10
214.889
 20
227.421
 11
214.678
 21
227.295
  0
LINE
  8
0
 10
214.678
 20
227.295
 11
214.457
 21
227.19
  0
LINE
  8
0
 10
214.457
 20
227.19
 11
214.226
 21
227.108
  0
LINE
  8
0
 10
214.226
 20
227.108
 11
213.988
 21
227.048
  0
LINE
  8
0
 10
213.988
 20
227.048
 11
213.745
 21
227.012
  0
LINE
  8
0
 10
213.745
 20
227.012
 11
213.5
 21
227
  0
LINE
  8
0
 10
213.5
 20
227
 11
213.255
 21
227.012
  0
LINE
  8
0
 10
6.25494
 20
227.012
 11
6.01227
 21
227.048
  0
LINE
  8
0
 10
6.01227
 20
227.048
 11
5.77428
 21
227.108
  0
LINE
  8
0
 10
5.77428
 20
227.108
 11
5.54329
 21
227.19
  0
LINE
  8
0
 10
5.54329
 20
227.19
 11
5.3215
 21
227.295
  0
LINE
  8
0
 10
5.3215
 20
227.295
 11
5.11107
 21
227.421
  0
LINE
  8
0
 10
5.11107
 20
227.421
 11
4.91402
 21
227.567
  0
LINE
  8
0
 10
4.91402
 20
227.567
 11
4.73222
 21
227.732
  0
LINE
  8
0
 10
4.73222
 20
227.732
 11
4.56746
 21
227.914
  0
LINE
  8
0
 10
4.56746
 20
227.914
 11
4.42133
 21
228.111
  0
LINE
  8
0
 10
4.42133
 20
228.111
 11
4.2952
 21
228.322
  0
LINE
  8
0
 10
4.2952
 20
228.322
 11
4.19029
 21
228.543
  0
LINE
  8
0
 10
4.19029
 20
228.543
 11
4.10764
 21
228.774
  0
LINE
  8
0
 10
4.10764
 20
228.774
 11
4.04803
 21
229.012
  0
LINE
  8
0
 10
4.04803
 20
229.012
 11
4.01202
 21
229.255
  0
LINE
  8
0
 10
4.01202
 20
229.255
 11
4
 21
229.5
  0
LINE
  8
0
 10
4
 20
229.5
 11
4.01202
 21
229.745
  0
LINE
  8
0
 10
4.01202
 20
229.745
 11
4.04803
 21
229.988
  0
LINE
  8
0
 10
4.04803
 20
229.988
 11
4.10764
 21
230.226
  0
LINE
  8
0
 10
4.10764
 20
230.226
 11
4.19029
 21
230.457
  0
LINE
  8
0
 10
4.19029
 20
230.457
 11
4.2952
 21
230.678
  0
LINE
  8
0
 10
4.2952
 20
230.678
 11
4.42133
 21
230.889
  0
LINE
  8
0
 10
4.42133
 20
230.889
 11
4.56746
 21
231.086
  0
LINE
  8
0
 10
4.56746
 20
231.086
 11
4.73222
 21
231.268
  0
LINE
  8
0
 10
4.73222
 20
231.268
 11
4.91402
 21
231.433
  0
LINE
  8
0
 10
4.91402
 20
231.433
 11
5.11107
 21
231.579
  0
LINE
  8
0
 10
5.11107
 20
231.579
 11
5.3215
 21
231.705
  0
LINE
  8
0
 10
5.3215
 20
231.705
 11
5.54329
 21
231.81
  0
LINE
  8
0
 10
5.54329
 20
231.81
 11
5.77428
 21
231.892
  0
LINE
  8
0
 10
5.77428
 20
231.892
 11
6.01227
 21
231.952
  0
LINE
  8
0
 10
6.01227
 20
231.952
 11
6.25494
 21
231.988
  0
LINE
  8
0
 10
6.25494
 20
231.988
 11
6.5
 21
232
  0
LINE
  8
0
 10
6.5
 20
232
 11
6.74504
 21
231.988
  0
LINE
  8
0
 10
6.74504
 20
231.988
 11
6.98772
 21
231.952
  0
LINE
  8
0
 10
6.98772
 20
231.952
 11
7.22571
 21
231.892
  0
LINE
  8
0
 10
7.22571
 20
231.892
 11
7.4567
 21
231.81
  0
LINE
  8
0
 10
7.4567
 20
231.81
 11
7.67848
 21
231.705
  0
LINE
  8
0
 10
7.67848
 20
231.705
 11
7.88892
 21
231.579
  0
LINE
  8
0
 10
7.88892
 20
231.579
 11
8.08597
 21
231.433
  0
LINE
  8
0
 10
8.08597
 20
231.433
 11
8.26776
 21
231.268
  0
LINE
  8
0
 10
8.26776
 20
231.268
 11
8.43253
 21
231.086
  0
LINE
  8
0
 10
8.43253
 20
231.086
 11
8.57866
 21
230.889
  0
LINE
  8
0
 10
8.57866
 20
230.889
 11
8.70479
 21
230.678
  0
LINE
  8
0
 10
8.70479
 20
230.678
 11
8.80969
 21
230.457
  0
LINE
  8
0
 10
8.80969
 20
230.457
 11
8.89235
 21
230.226
  0
LINE
  8
0
 10
8.89235
 20
230.226
 11
8.95195
 21
229.988
  0
LINE
  8
0
 10
8.95195
 20
229.988
 11
8.98796
 21
229.745
  0
LINE
  8
0
 10
8.98796
 20
229.745
 11
9
 21
229.5
  0
LINE
  8
0
 10
9
 20
229.5
 11
8.98796
 21
229.255
  0
LINE
  8
0
 10
8.98796
 20
229.255
 11
8.95195
 21
229.012
  0
LINE
  8
0
 10
8.95195
 20
229.012
 11
8.89235
 21
228.774
  0
LINE
  8
0
 10
8.89235
 20
228.774
 11
8.80969
 21
228.543
  0
LINE
  8
0
 10
8.80969
 20
228.543
 11
8.70479
 21
228.322
  0
LINE
  8
0
 10
8.70479
 20
228.322
 11
8.57866
 21
228.111
  0
LINE
  8
0
 10
8.57866
 20
228.111
 11
8.43253
 21
227.914
  0
LINE
  8
0
 10
8.43253
 20
227.914
 11
8.26776
 21
227.732
  0
LINE
  8
0
 10
8.26776
 20
227.732
 11
8.08597
 21
227.567
  0
LINE
  8
0
 10
8.08597
 20
227.567
 11
7.88892
 21
227.421
  0
LINE
  8
0
 10
7.88892
 20
227.421
 11
7.67848
 21
227.295
  0
LINE
  8
0
 10
7.67848
 20
227.295
 11
7.4567
 21
227.19
  0
LINE
  8
0
 10
7.4567
 20
227.19
 11
7.22571
 21
227.108
  0
LINE
  8
0
 10
7.22571
 20
227.108
 11
6.98772
 21
227.048
  0
LINE
  8
0
 10
6.98772
 20
227.048
 11
6.74504
 21
227.012
  0
LINE
  8
0
 10
6.74504
 20
227.012
 11
6.5
 21
227
  0
LINE
  8
0
 10
6.5
 20
227
 11
6.25494
 21
227.012
  0
LINE
  8
0
 10
64.8383
 20
199.858
 11
64.6781
 21
199.882
  0
LINE
  8
0
 10
64.6781
 20
199.882
 11
64.521
 21
199.921
  0
LINE
  8
0
 10
64.521
 20
199.921
 11
64.3686
 21
199.976
  0
LINE
  8
0
 10
64.3686
 20
199.976
 11
64.2222
 21
200.045
  0
LINE
  8
0
 10
64.2222
 20
200.045
 11
64.0833
 21
200.128
  0
LINE
  8
0
 10
64.0833
 20
200.128
 11
63.9532
 21
200.225
  0
LINE
  8
0
 10
63.9532
 20
200.225
 11
63.8333
 21
200.333
  0
LINE
  8
0
 10
63.8333
 20
200.333
 11
63.7245
 21
200.453
  0
LINE
  8
0
 10
63.7245
 20
200.453
 11
63.6281
 21
200.583
  0
LINE
  8
0
 10
63.6281
 20
200.583
 11
63.5448
 21
200.722
  0
LINE
  8
0
 10
63.5448
 20
200.722
 11
63.4756
 21
200.869
  0
LINE
  8
0
 10
63.4756
 20
200.869
 11
63.4211
 21
201.021
  0
LINE
  8
0
 10
63.4211
 20
201.021
 11
63.3817
 21
201.178
  0
LINE
  8
0
 10
63.3817
 20
201.178
 11
63.3579
 21
201.338
  0
LINE
  8
0
 10
63.3579
 20
201.338
 11
63.35
 21
201.5
  0
LINE
  8
0
 10
63.35
 20
201.5
 11
63.3579
 21
201.662
  0
LINE
  8
0
 10
63.3579
 20
201.662
 11
63.3817
 21
201.822
  0
LINE
  8
0
 10
63.3817
 20
201.822
 11
63.4211
 21
201.979
  0
LINE
  8
0
 10
63.4211
 20
201.979
 11
63.4756
 21
202.131
  0
LINE
  8
0
 10
63.4756
 20
202.131
 11
63.5448
 21
202.278
  0
LINE
  8
0
 10
63.5448
 20
202.278
 11
63.6281
 21
202.417
  0
LINE
  8
0
 10
63.6281
 20
202.417
 11
63.7245
 21
202.547
  0
LINE
  8
0
 10
63.7245
 20
202.547
 11
63.8333
 21
202.667
  0
LINE
  8
0
 10
63.8333
 20
202.667
 11
63.9532
 21
202.775
  0
LINE
  8
0
 10
63.9532
 20
202.775
 11
64.0833
 21
202.872
  0
LINE
  8
0
 10
64.0833
 20
202.872
 11
64.2222
 21
202.955
  0
LINE
  8
0
 10
64.2222
 20
202.955
 11
64.3686
 21
203.024
  0
LINE
  8
0
 10
64.3686
 20
203.024
 11
64.521
 21
203.079
  0
LINE
  8
0
 10
64.521
 20
203.079
 11
64.6781
 21
203.118
  0
LINE
  8
0
 10
64.6781
 20
203.118
 11
64.8383
 21
203.142
  0
LINE
  8
0
 10
64.8383
 20
203.142
 11
65
 21
203.15
  0
LINE
  8
0
 10
65
 20
203.15
 11
65.1617
 21
203.142
  0
LINE
  8
0
 10
65.1617
 20
203.142
 11
65.3219
 21
203.118
  0
LINE
  8
0
 10
65.3219
 20
203.118
 11
65.479
 21
203.079
  0
LINE
  8
0
 10
65.479
 20
203.079
 11
65.6314
 21
203.024
  0
LINE
  8
0
 10
65.6314
 20
203.024
 11
65.7778
 21
202.955
  0
LINE
  8
0
 10
65.7778
 20
202.955
 11
65.9167
 21
202.872
  0
LINE
  8
0
 10
65.9167
 20
202.872
 11
66.0468
 21
202.775
  0
LINE
  8
0
 10
66.0468
 20
202.775
 11
66.1667
 21
202.667
  0
LINE
  8
0
 10
66.1667
 20
202.667
 11
66.2755
 21
202.547
  0
LINE
  8
0
 10
66.2755
 20
202.547
 11
66.3719
 21
202.417
  0
LINE
  8
0
 10
66.3719
 20
202.417
 11
66.4552
 21
202.278
  0
LINE
  8
0
 10
66.4552
 20
202.278
 11
66.5244
 21
202.131
  0
LINE
  8
0
 10
66.5244
 20
202.131
 11
66.5789
 21
201.979
  0
LINE
  8
0
 10
66.5789
 20
201.979
 11
66.6183
 21
201.822
  0
LINE
  8
0
 10
66.6183
 20
201.822
 11
66.6421
 21
201.662
  0
LINE
  8
0
 10
66.6421
 20
201.662
 11
66.65
 21
201.5
  0
LINE
  8
0
 10
66.65
 20
201.5
 11
66.6421
 21
201.338
  0
LINE
  8
0
 10
66.6421
 20
201.338
 11
66.6183
 21
201.178
  0
LINE
  8
0
 10
66.6183
 20
201.178
 11
66.5789
 21
201.021
  0
LINE
  8
0
 10
66.5789
 20
201.021
 11
66.5244
 21
200.869
  0
LINE
  8
0
 10
66.5244
 20
200.869
 11
66.4552
 21
200.722
  0
LINE
  8
0
 10
66.4552
 20
200.722
 11
66.3719
 21
200.583
  0
LINE
  8
0
 10
66.3719
 20
200.583
 11
66.2755
 21
200.453
  0
LINE
  8
0
 10
66.2755
 20
200.453
 11
66.1667
 21
200.333
  0
LINE
  8
0
 10
66.1667
 20
200.333
 11
66.0468
 21
200.225
  0
LINE
  8
0
 10
66.0468
 20
200.225
 11
65.9167
 21
200.128
  0
LINE
  8
0
 10
65.9167
 20
200.128
 11
65.7778
 21
200.045
  0
LINE
  8
0
 10
65.7778
 20
200.045
 11
65.6314
 21
199.976
  0
LINE
  8
0
 10
65.6314
 20
199.976
 11
65.479
 21
199.921
  0
LINE
  8
0
 10
65.479
 20
199.921
 11
65.3219
 21
199.882
  0
LINE
  8
0
 10
65.3219
 20
199.882
 11
65.1617
 21
199.858
  0
LINE
  8
0
 10
65.1617
 20
199.858
 11
65
 21
199.85
  0
LINE
  8
0
 10
65
 20
199.85
 11
64.8383
 21
199.858
  0
LINE
  8
0
 10
179.838
 20
190.858
 11
179.678
 21
190.882
  0
LINE
  8
0
 10
179.678
 20
190.882
 11
179.521
 21
190.921
  0
LINE
  8
0
 10
179.521
 20
190.921
 11
179.369
 21
190.976
  0
LINE
  8
0
 10
179.369
 20
190.976
 11
179.222
 21
191.045
  0
LINE
  8
0
 10
179.222
 20
191.045
 11
179.083
 21
191.128
  0
LINE
  8
0
 10
179.083
 20
191.128
 11
178.953
 21
191.225
  0
LINE
  8
0
 10
178.953
 20
191.225
 11
178.833
 21
191.333
  0
LINE
  8
0
 10
178.833
 20
191.333
 11
178.725
 21
191.453
  0
LINE
  8
0
 10
178.725
 20
191.453
 11
178.628
 21
191.583
  0
LINE
  8
0
 10
178.628
 20
191.583
 11
178.545
 21
191.722
  0
LINE
  8
0
 10
178.545
 20
191.722
 11
178.476
 21
191.869
  0
LINE
  8
0
 10
178.476
 20
191.869
 11
178.421
 21
192.021
  0
LINE
  8
0
 10
178.421
 20
192.021
 11
178.382
 21
192.178
  0
LINE
  8
0
 10
178.382
 20
192.178
 11
178.358
 21
192.338
  0
LINE
  8
0
 10
178.358
 20
192.338
 11
178.35
 21
192.5
  0
LINE
  8
0
 10
178.35
 20
192.5
 11
178.358
 21
192.662
  0
LINE
  8
0
 10
178.358
 20
192.662
 11
178.382
 21
192.822
  0
LINE
  8
0
 10
178.382
 20
192.822
 11
178.421
 21
192.979
  0
LINE
  8
0
 10
178.421
 20
192.979
 11
178.476
 21
193.131
  0
LINE
  8
0
 10
178.476
 20
193.131
 11
178.545
 21
193.278
  0
LINE
  8
0
 10
178.545
 20
193.278
 11
178.628
 21
193.417
  0
LINE
  8
0
 10
178.628
 20
193.417
 11
178.725
 21
193.547
  0
LINE
  8
0
 10
178.725
 20
193.547
 11
178.833
 21
193.667
  0
LINE
  8
0
 10
178.833
 20
193.667
 11
178.953
 21
193.775
  0
LINE
  8
0
 10
178.953
 20
193.775
 11
179.083
 21
193.872
  0
LINE
  8
0
 10
179.083
 20
193.872
 11
179.222
 21
193.955
  0
LINE
  8
0
 10
179.222
 20
193.955
 11
179.369
 21
194.024
  0
LINE
  8
0
 10
179.369
 20
194.024
 11
179.521
 21
194.079
  0
LINE
  8
0
 10
179.521
 20
194.079
 11
179.678
 21
194.118
  0
LINE
  8
0
 10
179.678
 20
194.118
 11
179.838
 21
194.142
  0
LINE
  8
0
 10
179.838
 20
194.142
 11
180
 21
194.15
  0
LINE
  8
0
 10
180
 20
194.15
 11
180.162
 21
194.142
  0
LINE
  8
0
 10
180.162
 20
194.142
 11
180.322
 21
194.118
  0
LINE
  8
0
 10
180.322
 20
194.118
 11
180.479
 21
194.079
  0
LINE
  8
0
 10
180.479
 20
194.079
 11
180.631
 21
194.024
  0
LINE
  8
0
 10
180.631
 20
194.024
 11
180.778
 21
193.955
  0
LINE
  8
0
 10
180.778
 20
193.955
 11
180.917
 21
193.872
  0
LINE
  8
0
 10
180.917
 20
193.872
 11
181.047
 21
193.775
  0
LINE
  8
0
 10
181.047
 20
193.775
 11
181.167
 21
193.667
  0
LINE
  8
0
 10
181.167
 20
193.667
 11
181.275
 21
193.547
  0
LINE
  8
0
 10
181.275
 20
193.547
 11
181.372
 21
193.417
  0
LINE
  8
0
 10
181.372
 20
193.417
 11
181.455
 21
193.278
  0
LINE
  8
0
 10
181.455
 20
193.278
 11
181.524
 21
193.131
  0
LINE
  8
0
 10
181.524
 20
193.131
 11
181.579
 21
192.979
  0
LINE
  8
0
 10
181.579
 20
192.979
 11
181.618
 21
192.822
  0
LINE
  8
0
 10
181.618
 20
192.822
 11
181.642
 21
192.662
  0
LINE
  8
0
 10
181.642
 20
192.662
 11
181.65
 21
192.5
  0
LINE
  8
0
 10
181.65
 20
192.5
 11
181.642
 21
192.338
  0
LINE
  8
0
 10
181.642
 20
192.338
 11
181.618
 21
192.178
  0
LINE
  8
0
 10
181.618
 20
192.178
 11
181.579
 21
192.021
  0
LINE
  8
0
 10
181.579
 20
192.021
 11
181.524
 21
191.869
  0
LINE
  8
0
 10
181.524
 20
191.869
 11
181.455
 21
191.722
  0
LINE
  8
0
 10
181.455
 20
191.722
 11
181.372
 21
191.583
  0
LINE
  8
0
 10
181.372
 20
191.583
 11
181.275
 21
191.453
  0
LINE
  8
0
 10
181.275
 20
191.453
 11
181.167
 21
191.333
  0
LINE
  8
0
 10
181.167
 20
191.333
 11
181.047
 21
191.225
  0
LINE
  8
0
 10
181.047
 20
191.225
 11
180.917
 21
191.128
  0
LINE
  8
0
 10
180.917
 20
191.128
 11
180.778
 21
191.045
  0
LINE
  8
0
 10
180.778
 20
191.045
 11
180.631
 21
190.976
  0
LINE
  8
0
 10
180.631
 20
190.976
 11
180.479
 21
190.921
  0
LINE
  8
0
 10
180.479
 20
190.921
 11
180.322
 21
190.882
  0
LINE
  8
0
 10
180.322
 20
190.882
 11
180.162
 21
190.858
  0
LINE
  8
0
 10
180.162
 20
190.858
 11
180
 21
190.85
  0
LINE
  8
0
 10
180
 20
190.85
 11
179.838
 21
190.858
  0
LINE
  8
0
 10
179.838
 20
164.858
 11
179.678
 21
164.882
  0
LINE
  8
0
 10
179.678
 20
164.882
 11
179.521
 21
164.921
  0
LINE
  8
0
 10
179.521
 20
164.921
 11
179.369
 21
164.976
  0
LINE
  8
0
 10
179.369
 20
164.976
 11
179.222
 21
165.045
  0
LINE
  8
0
 10
179.222
 20
165.045
 11
179.083
 21
165.128
  0
LINE
  8
0
 10
179.083
 20
165.128
 11
178.953
 21
165.225
  0
LINE
  8
0
 10
178.953
 20
165.225
 11
178.833
 21
165.333
  0
LINE
  8
0
 10
178.833
 20
165.333
 11
178.725
 21
165.453
  0
LINE
  8
0
 10
178.725
 20
165.453
 11
178.628
 21
165.583
  0
LINE
  8
0
 10
178.628
 20
165.583
 11
178.545
 21
165.722
  0
LINE
  8
0
 10
178.545
 20
165.722
 11
178.476
 21
165.869
  0
LINE
  8
0
 10
178.476
 20
165.869
 11
178.421
 21
166.021
  0
LINE
  8
0
 10
178.421
 20
166.021
 11
178.382
 21
166.178
  0
LINE
  8
0
 10
178.382
 20
166.178
 11
178.358
 21
166.338
  0
LINE
  8
0
 10
178.358
 20
166.338
 11
178.35
 21
166.5
  0
LINE
  8
0
 10
178.35
 20
166.5
 11
178.358
 21
166.662
  0
LINE
  8
0
 10
178.358
 20
166.662
 11
178.382
 21
166.822
  0
LINE
  8
0
 10
178.382
 20
166.822
 11
178.421
 21
166.979
  0
LINE
  8
0
 10
178.421
 20
166.979
 11
178.476
 21
167.131
  0
LINE
  8
0
 10
178.476
 20
167.131
 11
178.545
 21
167.278
  0
LINE
  8
0
 10
178.545
 20
167.278
 11
178.628
 21
167.417
  0
LINE
  8
0
 10
178.628
 20
167.417
 11
178.725
 21
167.547
  0
LINE
  8
0
 10
178.725
 20
167.547
 11
178.833
 21
167.667
  0
LINE
  8
0
 10
178.833
 20
167.667
 11
178.953
 21
167.775
  0
LINE
  8
0
 10
178.953
 20
167.775
 11
179.083
 21
167.872
  0
LINE
  8
0
 10
179.083
 20
167.872
 11
179.222
 21
167.955
  0
LINE
  8
0
 10
179.222
 20
167.955
 11
179.369
 21
168.024
  0
LINE
  8
0
 10
179.369
 20
168.024
 11
179.521
 21
168.079
  0
LINE
  8
0
 10
179.521
 20
168.079
 11
179.678
 21
168.118
  0
LINE
  8
0
 10
179.678
 20
168.118
 11
179.838
 21
168.142
  0
LINE
  8
0
 10
179.838
 20
168.142
 11
180
 21
168.15
  0
LINE
  8
0
 10
180
 20
168.15
 11
180.162
 21
168.142
  0
LINE
  8
0
 10
180.162
 20
168.142
 11
180.322
 21
168.118
  0
LINE
  8
0
 10
180.322
 20
168.118
 11
180.479
 21
168.079
  0
LINE
  8
0
 10
180.479
 20
168.079
 11
180.631
 21
168.024
  0
LINE
  8
0
 10
180.631
 20
168.024
 11
180.778
 21
167.955
  0
LINE
  8
0
 10
180.778
 20
167.955
 11
180.917
 21
167.872
  0
LINE
  8
0
 10
180.917
 20
167.872
 11
181.047
 21
167.775
  0
LINE
  8
0
 10
181.047
 20
167.775
 11
181.167
 21
167.667
  0
LINE
  8
0
 10
181.167
 20
167.667
 11
181.275
 21
167.547
  0
LINE
  8
0
 10
181.275
 20
167.547
 11
181.372
 21
167.417
  0
LINE
  8
0
 10
181.372
 20
167.417
 11
181.455
 21
167.278
  0
LINE
  8
0
 10
181.455
 20
167.278
 11
181.524
 21
167.131
  0
LINE
  8
0
 10
181.524
 20
167.131
 11
181.579
 21
166.979
  0
LINE
  8
0
 10
181.579
 20
166.979
 11
181.618
 21
166.822
  0
LINE
  8
0
 10
181.618
 20
166.822
 11
181.642
 21
166.662
  0
LINE
  8
0
 10
181.642
 20
166.662
 11
181.65
 21
166.5
  0
LINE
  8
0
 10
181.65
 20
166.5
 11
181.642
 21
166.338
  0
LINE
  8
0
 10
181.642
 20
166.338
 11
181.618
 21
166.178
  0
LINE
  8
0
 10
181.618
 20
166.178
 11
181.579
 21
166.021
  0
LINE
  8
0
 10
181.579
 20
166.021
 11
181.524
 21
165.869
  0
LINE
  8
0
 10
181.524
 20
165.869
 11
181.455
 21
165.722
  0
LINE
  8
0
 10
181.455
 20
165.722
 11
181.372
 21
165.583
  0
LINE
  8
0
 10
181.372
 20
165.583
 11
181.275
 21
165.453
  0
LINE
  8
0
 10
181.275
 20
165.453
 11
181.167
 21
165.333
  0
LINE
  8
0
 10
181.167
 20
165.333
 11
181.047
 21
165.225
  0
LINE
  8
0
 10
181.047
 20
165.225
 11
180.917
 21
165.128
  0
LINE
  8
0
 10
180.917
 20
165.128
 11
180.778
 21
165.045
  0
LINE
  8
0
 10
180.778
 20
165.045
 11
180.631
 21
164.976
  0
LINE
  8
0
 10
180.631
 20
164.976
 11
180.479
 21
164.921
  0
LINE
  8
0
 10
180.479
 20
164.921
 11
180.322
 21
164.882
  0
LINE
  8
0
 10
180.322
 20
164.882
 11
180.162
 21
164.858
  0
LINE
  8
0
 10
180.162
 20
164.858
 11
180
 21
164.85
  0
LINE
  8
0
 10
180
 20
164.85
 11
179.838
 21
164.858
  0
LINE
  8
0
 10
64.8383
 20
155.858
 11
64.6781
 21
155.882
  0
LINE
  8
0
 10
64.6781
 20
155.882
 11
64.521
 21
155.921
  0
LINE
  8
0
 10
64.521
 20
155.921
 11
64.3686
 21
155.976
  0
LINE
  8
0
 10
64.3686
 20
155.976
 11
64.2222
 21
156.045
  0
LINE
  8
0
 10
64.2222
 20
156.045
 11
64.0833
 21
156.128
  0
LINE
  8
0
 10
64.0833
 20
156.128
 11
63.9532
 21
156.225
  0
LINE
  8
0
 10
63.9532
 20
156.225
 11
63.8333
 21
156.333
  0
LINE
  8
0
 10
63.8333
 20
156.333
 11
63.7245
 21
156.453
  0
LINE
  8
0
 10
63.7245
 20
156.453
 11
63.6281
 21
156.583
  0
LINE
  8
0
 10
63.6281
 20
156.583
 11
63.5448
 21
156.722
  0
LINE
  8
0
 10
63.5448
 20
156.722
 11
63.4756
 21
156.869
  0
LINE
  8
0
 10
63.4756
 20
156.869
 11
63.4211
 21
157.021
  0
LINE
  8
0
 10
63.4211
 20
157.021
 11
63.3817
 21
157.178
  0
LINE
  8
0
 10
63.3817
 20
157.178
 11
63.3579
 21
157.338
  0
LINE
  8
0
 10
63.3579
 20
157.338
 11
63.35
 21
157.5
  0
LINE
  8
0
 10
63.35
 20
157.5
 11
63.3579
 21
157.662
  0
LINE
  8
0
 10
63.3579
 20
157.662
 11
63.3817
 21
157.822
  0
LINE
  8
0
 10
63.3817
 20
157.822
 11
63.4211
 21
157.979
  0
LINE
  8
0
 10
63.4211
 20
157.979
 11
63.4756
 21
158.131
  0
LINE
  8
0
 10
63.4756
 20
158.131
 11
63.5448
 21
158.278
  0
LINE
  8
0
 10
63.5448
 20
158.278
 11
63.6281
 21
158.417
  0
LINE
  8
0
 10
63.6281
 20
158.417
 11
63.7245
 21
158.547
  0
LINE
  8
0
 10
63.7245
 20
158.547
 11
63.8333
 21
158.667
  0
LINE
  8
0
 10
63.8333
 20
158.667
 11
63.9532
 21
158.775
  0
LINE
  8
0
 10
63.9532
 20
158.775
 11
64.0833
 21
158.872
  0
LINE
  8
0
 10
64.0833
 20
158.872
 11
64.2222
 21
158.955
  0
LINE
  8
0
 10
64.2222
 20
158.955
 11
64.3686
 21
159.024
  0
LINE
  8
0
 10
64.3686
 20
159.024
 11
64.521
 21
159.079
  0
LINE
  8
0
 10
64.521
 20
159.079
 11
64.6781
 21
159.118
  0
LINE
  8
0
 10
64.6781
 20
159.118
 11
64.8383
 21
159.142
  0
LINE
  8
0
 10
64.8383
 20
159.142
 11
65
 21
159.15
  0
LINE
  8
0
 10
65
 20
159.15
 11
65.1617
 21
159.142
  0
LINE
  8
0
 10
65.1617
 20
159.142
 11
65.3219
 21
159.118
  0
LINE
  8
0
 10
65.3219
 20
159.118
 11
65.479
 21
159.079
  0
LINE
  8
0
 10
65.479
 20
159.079
 11
65.6314
 21
159.024
  0
LINE
  8
0
 10
65.6314
 20
159.024
 11
65.7778
 21
158.955
  0
LINE
  8
0
 10
65.7778
 20
158.955
 11
65.9167
 21
158.872
  0
LINE
  8
0
 10
65.9167
 20
158.872
 11
66.0468
 21
158.775
  0
LINE
  8
0
 10
66.0468
 20
158.775
 11
66.1667
 21
158.667
  0
LINE
  8
0
 10
66.1667
 20
158.667
 11
66.2755
 21
158.547
  0
LINE
  8
0
 10
66.2755
 20
158.547
 11
66.3719
 21
158.417
  0
LINE
  8
0
 10
66.3719
 20
158.417
 11
66.4552
 21
158.278
  0
LINE
  8
0
 10
66.4552
 20
158.278
 11
66.5244
 21
158.131
  0
LINE
  8
0
 10
66.5244
 20
158.131
 11
66.5789
 21
157.979
  0
LINE
  8
0
 10
66.5789
 20
157.979
 11
66.6183
 21
157.822
  0
LINE
  8
0
 10
66.6183
 20
157.822
 11
66.6421
 21
157.662
  0
LINE
  8
0
 10
66.6421
 20
157.662
 11
66.65
 21
157.5
  0
LINE
  8
0
 10
66.65
 20
157.5
 11
66.6421
 21
157.338
  0
LINE
  8
0
 10
66.6421
 20
157.338
 11
66.6183
 21
157.178
  0
LINE
  8
0
 10
66.6183
 20
157.178
 11
66.5789
 21
157.021
  0
LINE
  8
0
 10
66.5789
 20
157.021
 11
66.5244
 21
156.869
  0
LINE
  8
0
 10
66.5244
 20
156.869
 11
66.4552
 21
156.722
  0
LINE
  8
0
 10
66.4552
 20
156.722
 11
66.3719
 21
156.583
  0
LINE
  8
0
 10
66.3719
 20
156.583
 11
66.2755
 21
156.453
  0
LINE
  8
0
 10
66.2755
 20
156.453
 11
66.1667
 21
156.333
  0
LINE
  8
0
 10
66.1667
 20
156.333
 11
66.0468
 21
156.225
  0
LINE
  8
0
 10
66.0468
 20
156.225
 11
65.9167
 21
156.128
  0
LINE
  8
0
 10
65.9167
 20
156.128
 11
65.7778
 21
156.045
  0
LINE
  8
0
 10
65.7778
 20
156.045
 11
65.6314
 21
155.976
  0
LINE
  8
0
 10
65.6314
 20
155.976
 11
65.479
 21
155.921
  0
LINE
  8
0
 10
65.479
 20
155.921
 11
65.3219
 21
155.882
  0
LINE
  8
0
 10
65.3219
 20
155.882
 11
65.1617
 21
155.858
  0
LINE
  8
0
 10
65.1617
 20
155.858
 11
65
 21
155.85
  0
LINE
  8
0
 10
65
 20
155.85
 11
64.8383
 21
155.858
  0
LINE
  8
0
 10
16.804
 20
120.51
 11
16.6098
 21
120.538
  0
LINE
  8
0
 10
16.6098
 20
120.538
 11
16.4194
 21
120.586
  0
LINE
  8
0
 10
16.4194
 20
120.586
 11
16.2346
 21
120.652
  0
LINE
  8
0
 10
16.2346
 20
120.652
 11
16.0572
 21
120.736
  0
LINE
  8
0
 10
16.0572
 20
120.736
 11
15.8889
 21
120.837
  0
LINE
  8
0
 10
15.8889
 20
120.837
 11
15.7312
 21
120.954
  0
LINE
  8
0
 10
15.7312
 20
120.954
 11
15.5858
 21
121.086
  0
LINE
  8
0
 10
15.5858
 20
121.086
 11
15.454
 21
121.231
  0
LINE
  8
0
 10
15.454
 20
121.231
 11
15.3371
 21
121.389
  0
LINE
  8
0
 10
15.3371
 20
121.389
 11
15.2361
 21
121.557
  0
LINE
  8
0
 10
15.2361
 20
121.557
 11
15.1522
 21
121.735
  0
LINE
  8
0
 10
15.1522
 20
121.735
 11
15.0861
 21
121.919
  0
LINE
  8
0
 10
15.0861
 20
121.919
 11
15.0384
 21
122.11
  0
LINE
  8
0
 10
15.0384
 20
122.11
 11
15.0096
 21
122.304
  0
LINE
  8
0
 10
15.0096
 20
122.304
 11
15
 21
122.5
  0
LINE
  8
0
 10
15
 20
122.5
 11
15.0096
 21
122.696
  0
LINE
  8
0
 10
15.0096
 20
122.696
 11
15.0384
 21
122.89
  0
LINE
  8
0
 10
15.0384
 20
122.89
 11
15.0861
 21
123.081
  0
LINE
  8
0
 10
15.0861
 20
123.081
 11
15.1522
 21
123.265
  0
LINE
  8
0
 10
15.1522
 20
123.265
 11
15.2361
 21
123.443
  0
LINE
  8
0
 10
15.2361
 20
123.443
 11
15.3371
 21
123.611
  0
LINE
  8
0
 10
15.3371
 20
123.611
 11
15.454
 21
123.769
  0
LINE
  8
0
 10
15.454
 20
123.769
 11
15.5858
 21
123.914
  0
LINE
  8
0
 10
15.5858
 20
123.914
 11
15.7312
 21
124.046
  0
LINE
  8
0
 10
15.7312
 20
124.046
 11
15.8889
 21
124.163
  0
LINE
  8
0
 10
15.8889
 20
124.163
 11
16.0572
 21
124.264
  0
LINE
  8
0
 10
16.0572
 20
124.264
 11
16.2346
 21
124.348
  0
LINE
  8
0
 10
16.2346
 20
124.348
 11
16.4194
 21
124.414
  0
LINE
  8
0
 10
16.4194
 20
124.414
 11
16.6098
 21
124.462
  0
LINE
  8
0
 10
16.6098
 20
124.462
 11
16.804
 21
124.49
  0
LINE
  8
0
 10
16.804
 20
124.49
 11
17
 21
124.5
  0
LINE
  8
0
 10
17
 20
124.5
 11
17.196
 21
124.49
  0
LINE
  8
0
 10
17.196
 20
124.49
 11
17.3902
 21
124.462
  0
LINE
  8
0
 10
17.3902
 20
124.462
 11
17.5806
 21
124.414
  0
LINE
  8
0
 10
17.5806
 20
124.414
 11
17.7654
 21
124.348
  0
LINE
  8
0
 10
17.7654
 20
124.348
 11
17.9428
 21
124.264
  0
LINE
  8
0
 10
17.9428
 20
124.264
 11
18.1111
 21
124.163
  0
LINE
  8
0
 10
18.1111
 20
124.163
 11
18.2688
 21
124.046
  0
LINE
  8
0
 10
18.2688
 20
124.046
 11
18.4142
 21
123.914
  0
LINE
  8
0
 10
18.4142
 20
123.914
 11
18.546
 21
123.769
  0
LINE
  8
0
 10
18.546
 20
123.769
 11
18.6629
 21
123.611
  0
LINE
  8
0
 10
18.6629
 20
123.611
 11
18.7638
 21
123.443
  0
LINE
  8
0
 10
18.7638
 20
123.443
 11
18.8477
 21
123.265
  0
LINE
  8
0
 10
18.8477
 20
123.265
 11
18.9139
 21
123.081
  0
LINE
  8
0
 10
18.9139
 20
123.081
 11
18.9616
 21
122.89
  0
LINE
  8
0
 10
18.9616
 20
122.89
 11
18.9904
 21
122.696
  0
LINE
  8
0
 10
18.9904
 20
122.696
 11
19
 21
122.5
  0
LINE
  8
0
 10
19
 20
122.5
 11
18.9904
 21
122.304
  0
LINE
  8
0
 10
18.9904
 20
122.304
 11
18.9616
 21
122.11
  0
LINE
  8
0
 10
18.9616
 20
122.11
 11
18.9139
 21
121.919
  0
LINE
  8
0
 10
18.9139
 20
121.919
 11
18.8477
 21
121.735
  0
LINE
  8
0
 10
18.8477
 20
121.735
 11
18.7638
 21
121.557
  0
LINE
  8
0
 10
18.7638
 20
121.557
 11
18.6629
 21
121.389
  0
LINE
  8
0
 10
18.6629
 20
121.389
 11
18.546
 21
121.231
  0
LINE
  8
0
 10
18.546
 20
121.231
 11
18.4142
 21
121.086
  0
LINE
  8
0
 10
18.4142
 20
121.086
 11
18.2688
 21
120.954
  0
LINE
  8
0
 10
18.2688
 20
120.954
 11
18.1111
 21
120.837
  0
LINE
  8
0
 10
18.1111
 20
120.837
 11
17.9428
 21
120.736
  0
LINE
  8
0
 10
17.9428
 20
120.736
 11
17.7654
 21
120.652
  0
LINE
  8
0
 10
17.7654
 20
120.652
 11
17.5806
 21
120.586
  0
LINE
  8
0
 10
17.5806
 20
120.586
 11
17.3902
 21
120.538
  0
LINE
  8
0
 10
17.3902
 20
120.538
 11
17.196
 21
120.51
  0
LINE
  8
0
 10
17.196
 20
120.51
 11
17
 21
120.5
  0
LINE
  8
0
 10
17
 20
120.5
 11
16.804
 21
120.51
  0
LINE
  8
0
 10
213.304
 20
120.51
 11
213.11
 21
120.538
  0
LINE
  8
0
 10
213.11
 20
120.538
 11
212.919
 21
120.586
  0
LINE
  8
0
 10
212.919
 20
120.586
 11
212.735
 21
120.652
  0
LINE
  8
0
 10
212.735
 20
120.652
 11
212.557
 21
120.736
  0
LINE
  8
0
 10
212.557
 20
120.736
 11
212.389
 21
120.837
  0
LINE
  8
0
 10
212.389
 20
120.837
 11
212.231
 21
120.954
  0
LINE
  8
0
 10
212.231
 20
120.954
 11
212.086
 21
121.086
  0
LINE
  8
0
 10
212.086
 20
121.086
 11
211.954
 21
121.231
  0
LINE
  8
0
 10
211.954
 20
121.231
 11
211.837
 21
121.389
  0
LINE
  8
0
 10
211.837
 20
121.389
 11
211.736
 21
121.557
  0
LINE
  8
0
 10
211.736
 20
121.557
 11
211.652
 21
121.735
  0
LINE
  8
0
 10
211.652
 20
121.735
 11
211.586
 21
121.919
  0
LINE
  8
0
 10
211.586
 20
121.919
 11
211.538
 21
122.11
  0
LINE
  8
0
 10
211.538
 20
122.11
 11
211.51
 21
122.304
  0
LINE
  8
0
 10
211.51
 20
122.304
 11
211.5
 21
122.5
  0
LINE
  8
0
 10
211.5
 20
122.5
 11
211.51
 21
122.696
  0
LINE
  8
0
 10
211.51
 20
122.696
 11
211.538
 21
122.89
  0
LINE
  8
0
 10
211.538
 20
122.89
 11
211.586
 21
123.081
  0
LINE
  8
0
 10
211.586
 20
123.081
 11
211.652
 21
123.265
  0
LINE
  8
0
 10
211.652
 20
123.265
 11
211.736
 21
123.443
  0
LINE
  8
0
 10
211.736
 20
123.443
 11
211.837
 21
123.611
  0
LINE
  8
0
 10
211.837
 20
123.611
 11
211.954
 21
123.769
  0
LINE
  8
0
 10
211.954
 20
123.769
 11
212.086
 21
123.914
  0
LINE
  8
0
 10
212.086
 20
123.914
 11
212.231
 21
124.046
  0
LINE
  8
0
 10
212.231
 20
124.046
 11
212.389
 21
124.163
  0
LINE
  8
0
 10
212.389
 20
124.163
 11
212.557
 21
124.264
  0
LINE
  8
0
 10
212.557
 20
124.264
 11
212.735
 21
124.348
  0
LINE
  8
0
 10
212.735
 20
124.348
 11
212.919
 21
124.414
  0
LINE
  8
0
 10
212.919
 20
124.414
 11
213.11
 21
124.462
  0
LINE
  8
0
 10
213.11
 20
124.462
 11
213.304
 21
124.49
  0
LINE
  8
0
 10
213.304
 20
124.49
 11
213.5
 21
124.5
  0
LINE
  8
0
 10
213.5
 20
124.5
 11
213.696
 21
124.49
  0
LINE
  8
0
 10
213.696
 20
124.49
 11
213.89
 21
124.462
  0
LINE
  8
0
 10
213.89
 20
124.462
 11
214.081
 21
124.414
  0
LINE
  8
0
 10
214.081
 20
124.414
 11
214.265
 21
124.348
  0
LINE
  8
0
 10
214.265
 20
124.348
 11
214.443
 21
124.264
  0
LINE
  8
0
 10
214.443
 20
124.264
 11
214.611
 21
124.163
  0
LINE
  8
0
 10
214.611
 20
124.163
 11
214.769
 21
124.046
  0
LINE
  8
0
 10
214.769
 20
124.046
 11
214.914
 21
123.914
  0
LINE
  8
0
 10
214.914
 20
123.914
 11
215.046
 21
123.769
  0
LINE
  8
0
 10
215.046
 20
123.769
 11
215.163
 21
123.611
  0
LINE
  8
0
 10
215.163
 20
123.611
 11
215.264
 21
123.443
  0
LINE
  8
0
 10
215.264
 20
123.443
 11
215.348
 21
123.265
  0
LINE
  8
0
 10
215.348
 20
123.265
 11
215.414
 21
123.081
  0
LINE
  8
0
 10
215.414
 20
123.081
 11
215.462
 21
122.89
  0
LINE
  8
0
 10
215.462
 20
122.89
 11
215.49
 21
122.696
  0
LINE
  8
0
 10
215.49
 20
122.696
 11
215.5
 21
122.5
  0
LINE
  8
0
 10
215.5
 20
122.5
 11
215.49
 21
122.304
  0
LINE
  8
0
 10
215.49
 20
122.304
 11
215.462
 21
122.11
  0
LINE
  8
0
 10
215.462
 20
122.11
 11
215.414
 21
121.919
  0
LINE
  8
0
 10
215.414
 20
121.919
 11
215.348
 21
121.735
  0
LINE
  8
0
 10
215.348
 20
121.735
 11
215.264
 21
121.557
  0
LINE
  8
0
 10
215.264
 20
121.557
 11
215.163
 21
121.389
  0
LINE
  8
0
 10
215.163
 20
121.389
 11
215.046
 21
121.231
  0
LINE
  8
0
 10
215.046
 20
121.231
 11
214.914
 21
121.086
  0
LINE
  8
0
 10
214.914
 20
121.086
 11
214.769
 21
120.954
  0
LINE
  8
0
 10
214.769
 20
120.954
 11
214.611
 21
120.837
  0
LINE
  8
0
 10
214.611
 20
120.837
 11
214.443
 21
120.736
  0
LINE
  8
0
 10
214.443
 20
120.736
 11
214.265
 21
120.652
  0
LINE
  8
0
 10
214.265
 20
120.652
 11
214.081
 21
120.586
  0
LINE
  8
0
 10
214.081
 20
120.586
 11
213.89
 21
120.538
  0
LINE
  8
0
 10
213.89
 20
120.538
 11
213.696
 21
120.51
  0
LINE
  8
0
 10
213.696
 20
120.51
 11
213.5
 21
120.5
  0
LINE
  8
0
 10
213.5
 20
120.5
 11
213.304
 21
120.51
  0
LINE
  8
0
 10
228
 20
115
 11
0
 21
115
  0
LINE
  8
0
 10
0
 20
115
 11
0
 21
0
  0
LINE
  8
0
 10
0
 20
0
 11
228
 21
0
  0
LINE
  8
0
 10
228
 20
0
 11
228
 21
115
  0
LINE
  8
0
 10
20.2549
 20
97.512
 11
20.0123
 21
97.548
  0
LINE
  8
0
 10
20.0123
 20
97.548
 11
19.7743
 21
97.6077
  0
LINE
  8
0
 10
19.7743
 20
97.6077
 11
19.5433
 21
97.6903
  0
LINE
  8
0
 10
19.5433
 20
97.6903
 11
19.3215
 21
97.7952
  0
LINE
  8
0
 10
19.3215
 20
97.7952
 11
19.1111
 21
97.9213
  0
LINE
  8
0
 10
19.1111
 20
97.9213
 11
18.914
 21
98.0675
  0
LINE
  8
0
 10
18.914
 20
98.0675
 11
18.7322
 21
98.2322
  0
LINE
  8
0
 10
18.7322
 20
98.2322
 11
18.5675
 21
98.414
  0
LINE
  8
0
 10
18.5675
 20
98.414
 11
18.4213
 21
98.6111
  0
LINE
  8
0
 10
18.4213
 20
98.6111
 11
18.2952
 21
98.8215
  0
LINE
  8
0
 10
18.2952
 20
98.8215
 11
18.1903
 21
99.0433
  0
LINE
  8
0
 10
18.1903
 20
99.0433
 11
18.1076
 21
99.2743
  0
LINE
  8
0
 10
18.1076
 20
99.2743
 11
18.048
 21
99.5123
  0
LINE
  8
0
 10
18.048
 20
99.5123
 11
18.012
 21
99.755
  0
LINE
  8
0
 10
18.012
 20
99.755
 11
18
 21
100
  0
LINE
  8
0
 10
18
 20
100
 11
18.012
 21
100.245
  0
LINE
  8
0
 10
18.012
 20
100.245
 11
18.048
 21
100.488
  0
LINE
  8
0
 10
18.048
 20
100.488
 11
18.1076
 21
100.726
  0
LINE
  8
0
 10
18.1076
 20
100.726
 11
18.1903
 21
100.957
  0
LINE
  8
0
 10
18.1903
 20
100.957
 11
18.2952
 21
101.178
  0
LINE
  8
0
 10
18.2952
 20
101.178
 11
18.4213
 21
101.389
  0
LINE
  8
0
 10
18.4213
 20
101.389
 11
18.5675
 21
101.586
  0
LINE
  8
0
 10
18.5675
 20
101.586
 11
18.7322
 21
101.768
  0
LINE
  8
0
 10
18.7322
 20
101.768
 11
18.914
 21
101.933
  0
LINE
  8
0
 10
18.914
 20
101.933
 11
19.1111
 21
102.079
  0
LINE
  8
0
 10
19.1111
 20
102.079
 11
19.3215
 21
102.205
  0
LINE
  8
0
 10
19.3215
 20
102.205
 11
19.5433
 21
102.31
  0
LINE
  8
0
 10
19.5433
 20
102.31
 11
19.7743
 21
102.392
  0
LINE
  8
0
 10
19.7743
 20
102.392
 11
20.0123
 21
102.452
  0
LINE
  8
0
 10
20.0123
 20
102.452
 11
20.2549
 21
102.488
  0
LINE
  8
0
 10
20.2549
 20
102.488
 11
20.5
 21
102.5
  0
LINE
  8
0
 10
20.5
 20
102.5
 11
20.745
 21
102.488
  0
LINE
  8
0
 10
20.745
 20
102.488
 11
20.9877
 21
102.452
  0
LINE
  8
0
 10
20.9877
 20
102.452
 11
21.2257
 21
102.392
  0
LINE
  8
0
 10
21.2257
 20
102.392
 11
21.4567
 21
102.31
  0
LINE
  8
0
 10
21.4567
 20
102.31
 11
21.6785
 21
102.205
  0
LINE
  8
0
 10
21.6785
 20
102.205
 11
21.8889
 21
102.079
  0
LINE
  8
0
 10
21.8889
 20
102.079
 11
22.086
 21
101.933
  0
LINE
  8
0
 10
22.086
 20
101.933
 11
22.2678
 21
101.768
  0
LINE
  8
0
 10
22.2678
 20
101.768
 11
22.4325
 21
101.586
  0
LINE
  8
0
 10
22.4325
 20
101.586
 11
22.5787
 21
101.389
  0
LINE
  8
0
 10
22.5787
 20
101.389
 11
22.7048
 21
101.178
  0
LINE
  8
0
 10
22.7048
 20
101.178
 11
22.8097
 21
100.957
  0
LINE
  8
0
 10
22.8097
 20
100.957
 11
22.8923
 21
100.726
  0
LINE
  8
0
 10
22.8923
 20
100.726
 11
22.952
 21
100.488
  0
LINE
  8
0
 10
22.952
 20
100.488
 11
22.988
 21
100.245
  0
LINE
  8
0
 10
22.988
 20
100.245
 11
23
 21
100
  0
LINE
  8
0
 10
23
 20
100
 11
22.988
 21
99.755
  0
LINE
  8
0
 10
22.988
 20
99.755
 11
22.952
 21
99.5123
  0
LINE
  8
0
 10
22.952
 20
99.5123
 11
22.8923
 21
99.2743
  0
LINE
  8
0
 10
22.8923
 20
99.2743
 11
22.8097
 21
99.0433
  0
LINE
  8
0
 10
22.8097
 20
99.0433
 11
22.7048
 21
98.8215
  0
LINE
  8
0
 10
22.7048
 20
98.8215
 11
22.5787
 21
98.6111
  0
LINE
  8
0
 10
22.5787
 20
98.6111
 11
22.4325
 21
98.414
  0
LINE
  8
0
 10
22.4325
 20
98.414
 11
22.2678
 21
98.2322
  0
LINE
  8
0
 10
22.2678
 20
98.2322
 11
22.086
 21
98.0675
  0
LINE
  8
0
 10
22.086
 20
98.0675
 11
21.8889
 21
97.9213
  0
LINE
  8
0
 10
21.8889
 20
97.9213
 11
21.6785
 21
97.7952
  0
LINE
  8
0
 10
21.6785
 20
97.7952
 11
21.4567
 21
97.6903
  0
LINE
  8
0
 10
21.4567
 20
97.6903
 11
21.2257
 21
97.6077
  0
LINE
  8
0
 10
21.2257
 20
97.6077
 11
20.9877
 21
97.548
  0
LINE
  8
0
 10
20.9877
 20
97.548
 11
20.745
 21
97.512
  0
LINE
  8
0
 10
20.745
 20
97.512
 11
20.5
 21
97.5
  0
LINE
  8
0
 10
20.5
 20
97.5
 11
20.2549
 21
97.512
  0
LINE
  8
0
 10
212.804
 20
98.0096
 11
212.61
 21
98.0384
  0
LINE
  8
0
 10
212.61
 20
98.0384
 11
212.419
 21
98.0861
  0
LINE
  8
0
 10
212.419
 20
98.0861
 11
212.235
 21
98.1522
  0
LINE
  8
0
 10
212.235
 20
98.1522
 11
212.057
 21
98.2362
  0
LINE
  8
0
 10
212.057
 20
98.2362
 11
211.889
 21
98.3371
  0
LINE
  8
0
 10
211.889
 20
98.3371
 11
211.731
 21
98.454
  0
LINE
  8
0
 10
211.731
 20
98.454
 11
211.586
 21
98.5858
  0
LINE
  8
0
 10
211.586
 20
98.5858
 11
211.454
 21
98.7312
  0
LINE
  8
0
 10
211.454
 20
98.7312
 11
211.337
 21
98.8889
  0
LINE
  8
0
 10
211.337
 20
98.8889
 11
211.236
 21
99.0572
  0
LINE
  8
0
 10
211.236
 20
99.0572
 11
211.152
 21
99.2346
  0
LINE
  8
0
 10
211.152
 20
99.2346
 11
211.086
 21
99.4194
  0
LINE
  8
0
 10
211.086
 20
99.4194
 11
211.038
 21
99.6098
  0
LINE
  8
0
 10
211.038
 20
99.6098
 11
211.01
 21
99.804
  0
LINE
  8
0
 10
211.01
 20
99.804
 11
211
 21
100
  0
LINE
  8
0
 10
211
 20
100
 11
211.01
 21
100.196
  0
LINE
  8
0
 10
211.01
 20
100.196
 11
211.038
 21
100.39
  0
LINE
  8
0
 10
211.038
 20
100.39
 11
211.086
 21
100.581
  0
LINE
  8
0
 10
211.086
 20
100.581
 11
211.152
 21
100.765
  0
LINE
  8
0
 10
211.152
 20
100.765
 11
211.236
 21
100.943
  0
LINE
  8
0
 10
211.236
 20
100.943
 11
211.337
 21
101.111
  0
LINE
  8
0
 10
211.337
 20
101.111
 11
211.454
 21
101.269
  0
LINE
  8
0
 10
211.454
 20
101.269
 11
211.586
 21
101.414
  0
LINE
  8
0
 10
211.586
 20
101.414
 11
211.731
 21
101.546
  0
LINE
  8
0
 10
211.731
 20
101.546
 11
211.889
 21
101.663
  0
LINE
  8
0
 10
211.889
 20
101.663
 11
212.057
 21
101.764
  0
LINE
  8
0
 10
212.057
 20
101.764
 11
212.235
 21
101.848
  0
LINE
  8
0
 10
212.235
 20
101.848
 11
212.419
 21
101.914
  0
LINE
  8
0
 10
212.419
 20
101.914
 11
212.61
 21
101.962
  0
LINE
  8
0
 10
212.61
 20
101.962
 11
212.804
 21
101.99
  0
LINE
  8
0
 10
212.804
 20
101.99
 11
213
 21
102
  0
LINE
  8
0
 10
213
 20
102
 11
213.196
 21
101.99
  0
LINE
  8
0
 10
213.196
 20
101.99
 11
213.39
 21
101.962
  0
LINE
  8
0
 10
213.39
 20
101.962
 11
213.581
 21
101.914
  0
LINE
  8
0
 10
213.581
 20
101.914
 11
213.765
 21
101.848
  0
LINE
  8
0
 10
213.765
 20
101.848
 11
213.943
 21
101.764
  0
LINE
  8
0
 10
213.943
 20
101.764
 11
214.111
 21
101.663
  0
LINE
  8
0
 10
214.111
 20
101.663
 11
214.269
 21
101.546
  0
LINE
  8
0
 10
214.269
 20
101.546
 11
214.414
 21
101.414
  0
LINE
  8
0
 10
214.414
 20
101.414
 11
214.546
 21
101.269
  0
LINE
  8
0
 10
214.546
 20
101.269
 11
214.663
 21
101.111
  0
LINE
  8
0
 10
214.663
 20
101.111
 11
214.764
 21
100.943
  0
LINE
  8
0
 10
214.764
 20
100.943
 11
214.848
 21
100.765
  0
LINE
  8
0
 10
214.848
 20
100.765
 11
214.914
 21
100.581
  0
LINE
  8
0
 10
214.914
 20
100.581
 11
214.962
 21
100.39
  0
LINE
  8
0
 10
214.962
 20
100.39
 11
214.99
 21
100.196
  0
LINE
  8
0
 10
214.99
 20
100.196
 11
215
 21
100
  0
LINE
  8
0
 10
215
 20
100
 11
214.99
 21
99.804
  0
LINE
  8
0
 10
214.99
 20
99.804
 11
214.962
 21
99.6098
  0
LINE
  8
0
 10
214.962
 20
99.6098
 11
214.914
 21
99.4194
  0
LINE
  8
0
 10
214.914
 20
99.4194
 11
214.848
 21
99.2346
  0
LINE
  8
0
 10
214.848
 20
99.2346
 11
214.764
 21
99.0572
  0
LINE
  8
0
 10
214.764
 20
99.0572
 11
214.663
 21
98.8889
  0
LINE
  8
0
 10
214.663
 20
98.8889
 11
214.546
 21
98.7312
  0
LINE
  8
0
 10
214.546
 20
98.7312
 11
214.414
 21
98.5858
  0
LINE
  8
0
 10
214.414
 20
98.5858
 11
214.269
 21
98.454
  0
LINE
  8
0
 10
214.269
 20
98.454
 11
214.111
 21
98.3371
  0
LINE
  8
0
 10
214.111
 20
98.3371
 11
213.943
 21
98.2362
  0
LINE
  8
0
 10
213.943
 20
98.2362
 11
213.765
 21
98.1522
  0
LINE
  8
0
 10
213.765
 20
98.1522
 11
213.581
 21
98.0861
  0
LINE
  8
0
 10
213.581
 20
98.0861
 11
213.39
 21
98.0384
  0
LINE
  8
0
 10
213.39
 20
98.0384
 11
213.196
 21
98.0096
  0
LINE
  8
0
 10
213.196
 20
98.0096
 11
213
 21
98
  0
LINE
  8
0
 10
213
 20
98
 11
212.804
 21
98.0096
  0
LINE
  8
0
 10
64.8383
 20
83.8579
 11
64.6781
 21
83.8817
  0
LINE
  8
0
 10
64.6781
 20
83.8817
 11
64.521
 21
83.9211
  0
LINE
  8
0
 10
64.521
 20
83.9211
 11
64.3686
 21
83.9756
  0
LINE
  8
0
 10
64.3686
 20
83.9756
 11
64.2222
 21
84.0448
  0
LINE
  8
0
 10
64.2222
 20
84.0448
 11
64.0833
 21
84.1281
  0
LINE
  8
0
 10
64.0833
 20
84.1281
 11
63.9532
 21
84.2245
  0
LINE
  8
0
 10
63.9532
 20
84.2245
 11
63.8333
 21
84.3333
  0
LINE
  8
0
 10
63.8333
 20
84.3333
 11
63.7245
 21
84.4532
  0
LINE
  8
0
 10
63.7245
 20
84.4532
 11
63.6281
 21
84.5833
  0
LINE
  8
0
 10
63.6281
 20
84.5833
 11
63.5448
 21
84.7222
  0
LINE
  8
0
 10
63.5448
 20
84.7222
 11
63.4756
 21
84.8686
  0
LINE
  8
0
 10
63.4756
 20
84.8686
 11
63.4211
 21
85.021
  0
LINE
  8
0
 10
63.4211
 20
85.021
 11
63.3817
 21
85.1781
  0
LINE
  8
0
 10
63.3817
 20
85.1781
 11
63.3579
 21
85.3383
  0
LINE
  8
0
 10
63.3579
 20
85.3383
 11
63.35
 21
85.5
  0
LINE
  8
0
 10
63.35
 20
85.5
 11
63.3579
 21
85.6617
  0
LINE
  8
0
 10
63.3579
 20
85.6617
 11
63.3817
 21
85.8219
  0
LINE
  8
0
 10
63.3817
 20
85.8219
 11
63.4211
 21
85.979
  0
LINE
  8
0
 10
63.4211
 20
85.979
 11
63.4756
 21
86.1314
  0
LINE
  8
0
 10
63.4756
 20
86.1314
 11
63.5448
 21
86.2778
  0
LINE
  8
0
 10
63.5448
 20
86.2778
 11
63.6281
 21
86.4167
  0
LINE
  8
0
 10
63.6281
 20
86.4167
 11
63.7245
 21
86.5467
  0
LINE
  8
0
 10
63.7245
 20
86.5467
 11
63.8333
 21
86.6667
  0
LINE
  8
0
 10
63.8333
 20
86.6667
 11
63.9532
 21
86.7755
  0
LINE
  8
0
 10
63.9532
 20
86.7755
 11
64.0833
 21
86.8719
  0
LINE
  8
0
 10
64.0833
 20
86.8719
 11
64.2222
 21
86.9552
  0
LINE
  8
0
 10
64.2222
 20
86.9552
 11
64.3686
 21
87.0244
  0
LINE
  8
0
 10
64.3686
 20
87.0244
 11
64.521
 21
87.0789
  0
LINE
  8
0
 10
64.521
 20
87.0789
 11
64.6781
 21
87.1183
  0
LINE
  8
0
 10
64.6781
 20
87.1183
 11
64.8383
 21
87.142
  0
LINE
  8
0
 10
64.8383
 20
87.142
 11
65
 21
87.15
  0
LINE
  8
0
 10
65
 20
87.15
 11
65.1617
 21
87.142
  0
LINE
  8
0
 10
65.1617
 20
87.142
 11
65.3219
 21
87.1183
  0
LINE
  8
0
 10
65.3219
 20
87.1183
 11
65.479
 21
87.0789
  0
LINE
  8
0
 10
65.479
 20
87.0789
 11
65.6314
 21
87.0244
  0
LINE
  8
0
 10
65.6314
 20
87.0244
 11
65.7778
 21
86.9552
  0
LINE
  8
0
 10
65.7778
 20
86.9552
 11
65.9167
 21
86.8719
  0
LINE
  8
0
 10
65.9167
 20
86.8719
 11
66.0468
 21
86.7755
  0
LINE
  8
0
 10
66.0468
 20
86.7755
 11
66.1667
 21
86.6667
  0
LINE
  8
0
 10
66.1667
 20
86.6667
 11
66.2755
 21
86.5467
  0
LINE
  8
0
 10
66.2755
 20
86.5467
 11
66.3719
 21
86.4167
  0
LINE
  8
0
 10
66.3719
 20
86.4167
 11
66.4552
 21
86.2778
  0
LINE
  8
0
 10
66.4552
 20
86.2778
 11
66.5244
 21
86.1314
  0
LINE
  8
0
 10
66.5244
 20
86.1314
 11
66.5789
 21
85.979
  0
LINE
  8
0
 10
66.5789
 20
85.979
 11
66.6183
 21
85.8219
  0
LINE
  8
0
 10
66.6183
 20
85.8219
 11
66.6421
 21
85.6617
  0
LINE
  8
0
 10
66.6421
 20
85.6617
 11
66.65
 21
85.5
  0
LINE
  8
0
 10
66.65
 20
85.5
 11
66.6421
 21
85.3383
  0
LINE
  8
0
 10
66.6421
 20
85.3383
 11
66.6183
 21
85.1781
  0
LINE
  8
0
 10
66.6183
 20
85.1781
 11
66.5789
 21
85.021
  0
LINE
  8
0
 10
66.5789
 20
85.021
 11
66.5244
 21
84.8686
  0
LINE
  8
0
 10
66.5244
 20
84.8686
 11
66.4552
 21
84.7222
  0
LINE
  8
0
 10
66.4552
 20
84.7222
 11
66.3719
 21
84.5833
  0
LINE
  8
0
 10
66.3719
 20
84.5833
 11
66.2755
 21
84.4532
  0
LINE
  8
0
 10
66.2755
 20
84.4532
 11
66.1667
 21
84.3333
  0
LINE
  8
0
 10
66.1667
 20
84.3333
 11
66.0468
 21
84.2245
  0
LINE
  8
0
 10
66.0468
 20
84.2245
 11
65.9167
 21
84.1281
  0
LINE
  8
0
 10
65.9167
 20
84.1281
 11
65.7778
 21
84.0448
  0
LINE
  8
0
 10
65.7778
 20
84.0448
 11
65.6314
 21
83.9756
  0
LINE
  8
0
 10
65.6314
 20
83.9756
 11
65.479
 21
83.9211
  0
LINE
  8
0
 10
65.479
 20
83.9211
 11
65.3219
 21
83.8817
  0
LINE
  8
0
 10
65.3219
 20
83.8817
 11
65.1617
 21
83.8579
  0
LINE
  8
0
 10
65.1617
 20
83.8579
 11
65
 21
83.85
  0
LINE
  8
0
 10
65
 20
83.85
 11
64.8383
 21
83.8579
  0
LINE
  8
0
 10
179.838
 20
74.8579
 11
179.678
 21
74.8817
  0
LINE
  8
0
 10
179.678
 20
74.8817
 11
179.521
 21
74.9211
  0
LINE
  8
0
 10
179.521
 20
74.9211
 11
179.369
 21
74.9756
  0
LINE
  8
0
 10
179.369
 20
74.9756
 11
179.222
 21
75.0448
  0
LINE
  8
0
 10
179.222
 20
75.0448
 11
179.083
 21
75.1281
  0
LINE
  8
0
 10
179.083
 20
75.1281
 11
178.953
 21
75.2245
  0
LINE
  8
0
 10
178.953
 20
75.2245
 11
178.833
 21
75.3333
  0
LINE
  8
0
 10
178.833
 20
75.3333
 11
178.725
 21
75.4532
  0
LINE
  8
0
 10
178.725
 20
75.4532
 11
178.628
 21
75.5833
  0
LINE
  8
0
 10
178.628
 20
75.5833
 11
178.545
 21
75.7222
  0
LINE
  8
0
 10
178.545
 20
75.7222
 11
178.476
 21
75.8686
  0
LINE
  8
0
 10
178.476
 20
75.8686
 11
178.421
 21
76.021
  0
LINE
  8
0
 10
178.421
 20
76.021
 11
178.382
 21
76.1781
  0
LINE
  8
0
 10
178.382
 20
76.1781
 11
178.358
 21
76.3383
  0
LINE
  8
0
 10
178.358
 20
76.3383
 11
178.35
 21
76.5
  0
LINE
  8
0
 10
178.35
 20
76.5
 11
178.358
 21
76.6617
  0
LINE
  8
0
 10
178.358
 20
76.6617
 11
178.382
 21
76.8219
  0
LINE
  8
0
 10
178.382
 20
76.8219
 11
178.421
 21
76.979
  0
LINE
  8
0
 10
178.421
 20
76.979
 11
178.476
 21
77.1314
  0
LINE
  8
0
 10
178.476
 20
77.1314
 11
178.545
 21
77.2778
  0
LINE
  8
0
 10
178.545
 20
77.2778
 11
178.628
 21
77.4167
  0
LINE
  8
0
 10
178.628
 20
77.4167
 11
178.725
 21
77.5467
  0
LINE
  8
0
 10
178.725
 20
77.5467
 11
178.833
 21
77.6667
  0
LINE
  8
0
 10
178.833
 20
77.6667
 11
178.953
 21
77.7755
  0
LINE
  8
0
 10
178.953
 20
77.7755
 11
179.083
 21
77.8719
  0
LINE
  8
0
 10
179.083
 20
77.8719
 11
179.222
 21
77.9552
  0
LINE
  8
0
 10
179.222
 20
77.9552
 11
179.369
 21
78.0244
  0
LINE
  8
0
 10
179.369
 20
78.0244
 11
179.521
 21
78.0789
  0
LINE
  8
0
 10
179.521
 20
78.0789
 11
179.678
 21
78.1183
  0
LINE
  8
0
 10
179.678
 20
78.1183
 11
179.838
 21
78.142
  0
LINE
  8
0
 10
179.838
 20
78.142
 11
180
 21
78.15
  0
LINE
  8
0
 10
180
 20
78.15
 11
180.162
 21
78.142
  0
LINE
  8
0
 10
180.162
 20
78.142
 11
180.322
 21
78.1183
  0
LINE
  8
0
 10
180.322
 20
78.1183
 11
180.479
 21
78.0789
  0
LINE
  8
0
 10
180.479
 20
78.0789
 11
180.631
 21
78.0244
  0
LINE
  8
0
 10
180.631
 20
78.0244
 11
180.778
 21
77.9552
  0
LINE
  8
0
 10
180.778
 20
77.9552
 11
180.917
 21
77.8719
  0
LINE
  8
0
 10
180.917
 20
77.8719
 11
181.047
 21
77.7755
  0
LINE
  8
0
 10
181.047
 20
77.7755
 11
181.167
 21
77.6667
  0
LINE
  8
0
 10
181.167
 20
77.6667
 11
181.275
 21
77.5467
  0
LINE
  8
0
 10
181.275
 20
77.5467
 11
181.372
 21
77.4167
  0
LINE
  8
0
 10
181.372
 20
77.4167
 11
181.455
 21
77.2778
  0
LINE
  8
0
 10
181.455
 20
77.2778
 11
181.524
 21
77.1314
  0
LINE
  8
0
 10
181.524
 20
77.1314
 11
181.579
 21
76.979
  0
LINE
  8
0
 10
181.579
 20
76.979
 11
181.618
 21
76.8219
  0
LINE
  8
0
 10
181.618
 20
76.8219
 11
181.642
 21
76.6617
  0
LINE
  8
0
 10
181.642
 20
76.6617
 11
181.65
 21
76.5
  0
LINE
  8
0
 10
181.65
 20
76.5
 11
181.642
 21
76.3383
  0
LINE
  8
0
 10
181.642
 20
76.3383
 11
181.618
 21
76.1781
  0
LINE
  8
0
 10
181.618
 20
76.1781
 11
181.579
 21
76.021
  0
LINE
  8
0
 10
181.579
 20
76.021
 11
181.524
 21
75.8686
  0
LINE
  8
0
 10
181.524
 20
75.8686
 11
181.455
 21
75.7222
  0
LINE
  8
0
 10
181.455
 20
75.7222
 11
181.372
 21
75.5833
  0
LINE
  8
0
 10
181.372
 20
75.5833
 11
181.275
 21
75.4532
  0
LINE
  8
0
 10
181.275
 20
75.4532
 11
181.167
 21
75.3333
  0
LINE
  8
0
 10
181.167
 20
75.3333
 11
181.047
 21
75.2245
  0
LINE
  8
0
 10
181.047
 20
75.2245
 11
180.917
 21
75.1281
  0
LINE
  8
0
 10
180.917
 20
75.1281
 11
180.778
 21
75.0448
  0
LINE
  8
0
 10
180.778
 20
75.0448
 11
180.631
 21
74.9756
  0
LINE
  8
0
 10
180.631
 20
74.9756
 11
180.479
 21
74.9211
  0
LINE
  8
0
 10
180.479
 20
74.9211
 11
180.322
 21
74.8817
  0
LINE
  8
0
 10
180.322
 20
74.8817
 11
180.162
 21
74.8579
  0
LINE
  8
0
 10
180.162
 20
74.8579
 11
180
 21
74.85
  0
LINE
  8
0
 10
180
 20
74.85
 11
179.838
 21
74.8579
  0
LINE
  8
0
 10
179.838
 20
48.8579
 11
179.678
 21
48.8817
  0
LINE
  8
0
 10
179.678
 20
48.8817
 11
179.521
 21
48.9211
  0
LINE
  8
0
 10
179.521
 20
48.9211
 11
179.369
 21
48.9756
  0
LINE
  8
0
 10
179.369
 20
48.9756
 11
179.222
 21
49.0448
  0
LINE
  8
0
 10
179.222
 20
49.0448
 11
179.083
 21
49.1281
  0
LINE
  8
0
 10
179.083
 20
49.1281
 11
178.953
 21
49.2245
  0
LINE
  8
0
 10
178.953
 20
49.2245
 11
178.833
 21
49.3333
  0
LINE
  8
0
 10
178.833
 20
49.3333
 11
178.725
 21
49.4532
  0
LINE
  8
0
 10
178.725
 20
49.4532
 11
178.628
 21
49.5833
  0
LINE
  8
0
 10
178.628
 20
49.5833
 11
178.545
 21
49.7222
  0
LINE
  8
0
 10
178.545
 20
49.7222
 11
178.476
 21
49.8686
  0
LINE
  8
0
 10
178.476
 20
49.8686
 11
178.421
 21
50.021
  0
LINE
  8
0
 10
178.421
 20
50.021
 11
178.382
 21
50.1781
  0
LINE
  8
0
 10
178.382
 20
50.1781
 11
178.358
 21
50.3383
  0
LINE
  8
0
 10
178.358
 20
50.3383
 11
178.35
 21
50.5
  0
LINE
  8
0
 10
178.35
 20
50.5
 11
178.358
 21
50.6617
  0
LINE
  8
0
 10
178.358
 20
50.6617
 11
178.382
 21
50.8219
  0
LINE
  8
0
 10
178.382
 20
50.8219
 11
178.421
 21
50.979
  0
LINE
  8
0
 10
178.421
 20
50.979
 11
178.476
 21
51.1314
  0
LINE
  8
0
 10
178.476
 20
51.1314
 11
178.545
 21
51.2778
  0
LINE
  8
0
 10
178.545
 20
51.2778
 11
178.628
 21
51.4167
  0
LINE
  8
0
 10
178.628
 20
51.4167
 11
178.725
 21
51.5467
  0
LINE
  8
0
 10
178.725
 20
51.5467
 11
178.833
 21
51.6667
  0
LINE
  8
0
 10
178.833
 20
51.6667
 11
178.953
 21
51.7755
  0
LINE
  8
0
 10
178.953
 20
51.7755
 11
179.083
 21
51.8719
  0
LINE
  8
0
 10
179.083
 20
51.8719
 11
179.222
 21
51.9552
  0
LINE
  8
0
 10
179.222
 20
51.9552
 11
179.369
 21
52.0244
  0
LINE
  8
0
 10
179.369
 20
52.0244
 11
179.521
 21
52.0789
  0
LINE
  8
0
 10
179.521
 20
52.0789
 11
179.678
 21
52.1183
  0
LINE
  8
0
 10
179.678
 20
52.1183
 11
179.838
 21
52.142
  0
LINE
  8
0
 10
179.838
 20
52.142
 11
180
 21
52.15
  0
LINE
  8
0
 10
180
 20
52.15
 11
180.162
 21
52.142
  0
LINE
  8
0
 10
180.162
 20
52.142
 11
180.322
 21
52.1183
  0
LINE
  8
0
 10
180.322
 20
52.1183
 11
180.479
 21
52.0789
  0
LINE
  8
0
 10
180.479
 20
52.0789
 11
180.631
 21
52.0244
  0
LINE
  8
0
 10
180.631
 20
52.0244
 11
180.778
 21
51.9552
  0
LINE
  8
0
 10
180.778
 20
51.9552
 11
180.917
 21
51.8719
  0
LINE
  8
0
 10
180.917
 20
51.8719
 11
181.047
 21
51.7755
  0
LINE
  8
0
 10
181.047
 20
51.7755
 11
181.167
 21
51.6667
  0
LINE
  8
0
 10
181.167
 20
51.6667
 11
181.275
 21
51.5467
  0
LINE
  8
0
 10
181.275
 20
51.5467
 11
181.372
 21
51.4167
  0
LINE
  8
0
 10
181.372
 20
51.4167
 11
181.455
 21
51.2778
  0
LINE
  8
0
 10
181.455
 20
51.2778
 11
181.524
 21
51.1314
  0
LINE
  8
0
 10
181.524
 20
51.1314
 11
181.579
 21
50.979
  0
LINE
  8
0
 10
181.579
 20
50.979
 11
181.618
 21
50.8219
  0
LINE
  8
0
 10
181.618
 20
50.8219
 11
181.642
 21
50.6617
  0
LINE
  8
0
 10
181.642
 20
50.6617
 11
181.65
 21
50.5
  0
LINE
  8
0
 10
181.65
 20
50.5
 11
181.642
 21
50.3383
  0
LINE
  8
0
 10
181.642
 20
50.3383
 11
181.618
 21
50.1781
  0
LINE
  8
0
 10
181.618
 20
50.1781
 11
181.579
 21
50.021
  0
LINE
  8
0
 10
181.579
 20
50.021
 11
181.524
 21
49.8686
  0
LINE
  8
0
 10
181.524
 20
49.8686
 11
181.455
 21
49.7222
  0
LINE
  8
0
 10
181.455
 20
49.7222
 11
181.372
 21
49.5833
  0
LINE
  8
0
 10
181.372
 20
49.5833
 11
181.275
 21
49.4532
  0
LINE
  8
0
 10
181.275
 20
49.4532
 11
181.167
 21
49.3333
  0
LINE
  8
0
 10
181.167
 20
49.3333
 11
181.047
 21
49.2245
  0
LINE
  8
0
 10
181.047
 20
49.2245
 11
180.917
 21
49.1281
  0
LINE
  8
0
 10
180.917
 20
49.1281
 11
180.778
 21
49.0448
  0
LINE
  8
0
 10
180.778
 20
49.0448
 11
180.631
 21
48.9756
  0
LINE
  8
0
 10
180.631
 20
48.9756
 11
180.479
 21
48.9211
  0
LINE
  8
0
 10
180.479
 20
48.9211
 11
180.322
 21
48.8817
  0
LINE
  8
0
 10
180.322
 20
48.8817
 11
180.162
 21
48.8579
  0
LINE
  8
0
 10
180.162
 20
48.8579
 11
180
 21
48.85
  0
LINE
  8
0
 10
180
 20
48.85
 11
179.838
 21
48.8579
  0
LINE
  8
0
 10
64.8383
 20
39.8579
 11
64.6781
 21
39.8817
  0
LINE
  8
0
 10
64.6781
 20
39.8817
 11
64.521
 21
39.9211
  0
LINE
  8
0
 10
64.521
 20
39.9211
 11
64.3686
 21
39.9756
  0
LINE
  8
0
 10
64.3686
 20
39.9756
 11
64.2222
 21
40.0448
  0
LINE
  8
0
 10
64.2222
 20
40.0448
 11
64.0833
 21
40.1281
  0
LINE
  8
0
 10
64.0833
 20
40.1281
 11
63.9532
 21
40.2245
  0
LINE
  8
0
 10
63.9532
 20
40.2245
 11
63.8333
 21
40.3333
  0
LINE
  8
0
 10
63.8333
 20
40.3333
 11
63.7245
 21
40.4532
  0
LINE
  8
0
 10
63.7245
 20
40.4532
 11
63.6281
 21
40.5833
  0
LINE
  8
0
 10
63.6281
 20
40.5833
 11
63.5448
 21
40.7222
  0
LINE
  8
0
 10
63.5448
 20
40.7222
 11
63.4756
 21
40.8686
  0
LINE
  8
0
 10
63.4756
 20
40.8686
 11
63.4211
 21
41.021
  0
LINE
  8
0
 10
63.4211
 20
41.021
 11
63.3817
 21
41.1781
  0
LINE
  8
0
 10
63.3817
 20
41.1781
 11
63.3579
 21
41.3383
  0
LINE
  8
0
 10
63.3579
 20
41.3383
 11
63.35
 21
41.5
  0
LINE
  8
0
 10
63.35
 20
41.5
 11
63.3579
 21
41.6617
  0
LINE
  8
0
 10
63.3579
 20
41.6617
 11
63.3817
 21
41.8219
  0
LINE
  8
0
 10
63.3817
 20
41.8219
 11
63.4211
 21
41.979
  0
LINE
  8
0
 10
63.4211
 20
41.979
 11
63.4756
 21
42.1314
  0
LINE
  8
0
 10
63.4756
 20
42.1314
 11
63.5448
 21
42.2778
  0
LINE
  8
0
 10
63.5448
 20
42.2778
 11
63.6281
 21
42.4167
  0
LINE
  8
0
 10
63.6281
 20
42.4167
 11
63.7245
 21
42.5467
  0
LINE
  8
0
 10
63.7245
 20
42.5467
 11
63.8333
 21
42.6667
  0
LINE
  8
0
 10
63.8333
 20
42.6667
 11
63.9532
 21
42.7755
  0
LINE
  8
0
 10
63.9532
 20
42.7755
 11
64.0833
 21
42.8719
  0
LINE
  8
0
 10
64.0833
 20
42.8719
 11
64.2222
 21
42.9552
  0
LINE
  8
0
 10
64.2222
 20
42.9552
 11
64.3686
 21
43.0244
  0
LINE
  8
0
 10
64.3686
 20
43.0244
 11
64.521
 21
43.0789
  0
LINE
  8
0
 10
64.521
 20
43.0789
 11
64.6781
 21
43.1183
  0
LINE
  8
0
 10
64.6781
 20
43.1183
 11
64.8383
 21
43.142
  0
LINE
  8
0
 10
64.8383
 20
43.142
 11
65
 21
43.15
  0
LINE
  8
0
 10
65
 20
43.15
 11
65.1617
 21
43.142
  0
LINE
  8
0
 10
65.1617
 20
43.142
 11
65.3219
 21
43.1183
  0
LINE
  8
0
 10
65.3219
 20
43.1183
 11
65.479
 21
43.0789
  0
LINE
  8
0
 10
65.479
 20
43.0789
 11
65.6314
 21
43.0244
  0
LINE
  8
0
 10
65.6314
 20
43.0244
 11
65.7778
 21
42.9552
  0
LINE
  8
0
 10
65.7778
 20
42.9552
 11
65.9167
 21
42.8719
  0
LINE
  8
0
 10
65.9167
 20
42.8719
 11
66.0468
 21
42.7755
  0
LINE
  8
0
 10
66.0468
 20
42.7755
 11
66.1667
 21
42.6667
  0
LINE
  8
0
 10
66.1667
 20
42.6667
 11
66.2755
 21
42.5467
  0
LINE
  8
0
 10
66.2755
 20
42.5467
 11
66.3719
 21
42.4167
  0
LINE
  8
0
 10
66.3719
 20
42.4167
 11
66.4552
 21
42.2778
  0
LINE
  8
0
 10
66.4552
 20
42.2778
 11
66.5244
 21
42.1314
  0
LINE
  8
0
 10
66.5244
 20
42.1314
 11
66.5789
 21
41.979
  0
LINE
  8
0
 10
66.5789
 20
41.979
 11
66.6183
 21
41.8219
  0
LINE
  8
0
 10
66.6183
 20
41.8219
 11
66.6421
 21
41.6617
  0
LINE
  8
0
 10
66.6421
 20
41.6617
 11
66.65
 21
41.5
  0
LINE
  8
0
 10
66.65
 20
41.5
 11
66.6421
 21
41.3383
  0
LINE
  8
0
 10
66.6421
 20
41.3383
 11
66.6183
 21
41.1781
  0
LINE
  8
0
 10
66.6183
 20
41.1781
 11
66.5789
 21
41.021
  0
LINE
  8
0
 10
66.5789
 20
41.021
 11
66.5244
 21
40.8686
  0
LINE
  8
0
 10
66.5244
 20
40.8686
 11
66.4552
 21
40.7222
  0
LINE
  8
0
 10
66.4552
 20
40.7222
 11
66.3719
 21
40.5833
  0
LINE
  8
0
 10
66.3719
 20
40.5833
 11
66.2755
 21
40.4532
  0
LINE
  8
0
 10
66.2755
 20
40.4532
 11
66.1667
 21
40.3333
  0
LINE
  8
0
 10
66.1667
 20
40.3333
 11
66.0468
 21
40.2245
  0
LINE
  8
0
 10
66.0468
 20
40.2245
 11
65.9167
 21
40.1281
  0
LINE
  8
0
 10
65.9167
 20
40.1281
 11
65.7778
 21
40.0448
  0
LINE
  8
0
 10
65.7778
 20
40.0448
 11
65.6314
 21
39.9756
  0
LINE
  8
0
 10
65.6314
 20
39.9756
 11
65.479
 21
39.9211
  0
LINE
  8
0
 10
65.479
 20
39.9211
 11
65.3219
 21
39.8817
  0
LINE
  8
0
 10
65.3219
 20
39.8817
 11
65.1617
 21
39.8579
  0
LINE
  8
0
 10
65.1617
 20
39.8579
 11
65
 21
39.85
  0
LINE
  8
0
 10
65
 20
39.85
 11
64.8383
 21
39.8579
  0
LINE
  8
0
 10
212.804
 20
16.0096
 11
212.61
 21
16.0384
  0
LINE
  8
0
 10
212.61
 20
16.0384
 11
212.419
 21
16.0861
  0
LINE
  8
0
 10
212.419
 20
16.0861
 11
212.235
 21
16.1522
  0
LINE
  8
0
 10
212.235
 20
16.1522
 11
212.057
 21
16.2361
  0
LINE
  8
0
 10
212.057
 20
16.2361
 11
211.889
 21
16.3371
  0
LINE
  8
0
 10
211.889
 20
16.3371
 11
211.731
 21
16.454
  0
LINE
  8
0
 10
211.731
 20
16.454
 11
211.586
 21
16.5858
  0
LINE
  8
0
 10
211.586
 20
16.5858
 11
211.454
 21
16.7312
  0
LINE
  8
0
 10
211.454
 20
16.7312
 11
211.337
 21
16.8889
  0
LINE
  8
0
 10
211.337
 20
16.8889
 11
211.236
 21
17.0572
  0
LINE
  8
0
 10
211.236
 20
17.0572
 11
211.152
 21
17.2346
  0
LINE
  8
0
 10
211.152
 20
17.2346
 11
211.086
 21
17.4194
  0
LINE
  8
0
 10
211.086
 20
17.4194
 11
211.038
 21
17.6098
  0
LINE
  8
0
 10
211.038
 20
17.6098
 11
211.01
 21
17.804
  0
LINE
  8
0
 10
211.01
 20
17.804
 11
211
 21
18
  0
LINE
  8
0
 10
211
 20
18
 11
211.01
 21
18.196
  0
LINE
  8
0
 10
211.01
 20
18.196
 11
211.038
 21
18.3902
  0
LINE
  8
0
 10
211.038
 20
18.3902
 11
211.086
 21
18.5806
  0
LINE
  8
0
 10
211.086
 20
18.5806
 11
211.152
 21
18.7654
  0
LINE
  8
0
 10
211.152
 20
18.7654
 11
211.236
 21
18.9428
  0
LINE
  8
0
 10
211.236
 20
18.9428
 11
211.337
 21
19.1111
  0
LINE
  8
0
 10
211.337
 20
19.1111
 11
211.454
 21
19.2688
  0
LINE
  8
0
 10
211.454
 20
19.2688
 11
211.586
 21
19.4142
  0
LINE
  8
0
 10
211.586
 20
19.4142
 11
211.731
 21
19.546
  0
LINE
  8
0
 10
211.731
 20
19.546
 11
211.889
 21
19.6629
  0
LINE
  8
0
 10
211.889
 20
19.6629
 11
212.057
 21
19.7638
  0
LINE
  8
0
 10
212.057
 20
19.7638
 11
212.235
 21
19.8477
  0
LINE
  8
0
 10
212.235
 20
19.8477
 11
212.419
 21
19.9139
  0
LINE
  8
0
 10
212.419
 20
19.9139
 11
212.61
 21
19.9616
  0
LINE
  8
0
 10
212.61
 20
19.9616
 11
212.804
 21
19.9904
  0
LINE
  8
0
 10
212.804
 20
19.9904
 11
213
 21
20
  0
LINE
  8
0
 10
213
 20
20
 11
213.196
 21
19.9904
  0
LINE
  8
0
 10
213.196
 20
19.9904
 11
213.39
 21
19.9616
  0
LINE
  8
0
 10
213.39
 20
19.9616
 11
213.581
 21
19.9139
  0
LINE
  8
0
 10
213.581
 20
19.9139
 11
213.765
 21
19.8477
  0
LINE
  8
0
 10
213.765
 20
19.8477
 11
213.943
 21
19.7638
  0
LINE
  8
0
 10
213.943
 20
19.7638
 11
214.111
 21
19.6629
  0
LINE
  8
0
 10
214.111
 20
19.6629
 11
214.269
 21
19.546
  0
LINE
  8
0
 10
214.269
 20
19.546
 11
214.414
 21
19.4142
  0
LINE
  8
0
 10
214.414
 20
19.4142
 11
214.546
 21
19.2688
  0
LINE
  8
0
 10
214.546
 20
19.2688
 11
214.663
 21
19.1111
  0
LINE
  8
0
 10
214.663
 20
19.1111
 11
214.764
 21
18.9428
  0
LINE
  8
0
 10
214.764
 20
18.9428
 11
214.848
 21
18.7654
  0
LINE
  8
0
 10
214.848
 20
18.7654
 11
214.914
 21
18.5806
  0
LINE
  8
0
 10
214.914
 20
18.5806
 11
214.962
 21
18.3902
  0
LINE
  8
0
 10
214.962
 20
18.3902
 11
214.99
 21
18.196
  0
LINE
  8
0
 10
214.99
 20
18.196
 11
215
 21
18
  0
LINE
  8
0
 10
215
 20
18
 11
214.99
 21
17.804
  0
LINE
  8
0
 10
214.99
 20
17.804
 11
214.962
 21
17.6098
  0
LINE
  8
0
 10
214.962
 20
17.6098
 11
214.914
 21
17.4194
  0
LINE
  8
0
 10
214.914
 20
17.4194
 11
214.848
 21
17.2346
  0
LINE
  8
0
 10
214.848
 20
17.2346
 11
214.764
 21
17.0572
  0
LINE
  8
0
 10
214.764
 20
17.0572
 11
214.663
 21
16.8889
  0
LINE
  8
0
 10
214.663
 20
16.8889
 11
214.546
 21
16.7312
  0
LINE
  8
0
 10
214.546
 20
16.7312
 11
214.414
 21
16.5858
  0
LINE
  8
0
 10
214.414
 20
16.5858
 11
214.269
 21
16.454
  0
LINE
  8
0
 10
214.269
 20
16.454
 11
214.111
 21
16.3371
  0
LINE
  8
0
 10
214.111
 20
16.3371
 11
213.943
 21
16.2361
  0
LINE
  8
0
 10
213.943
 20
16.2361
 11
213.765
 21
16.1522
  0
LINE
  8
0
 10
213.765
 20
16.1522
 11
213.581
 21
16.0861
  0
LINE
  8
0
 10
213.581
 20
16.0861
 11
213.39
 21
16.0384
  0
LINE
  8
0
 10
213.39
 20
16.0384
 11
213.196
 21
16.0096
  0
LINE
  8
0
 10
213.196
 20
16.0096
 11
213
 21
16
  0
LINE
  8
0
 10
213
 20
16
 11
212.804
 21
16.0096
  0
LINE
  8
0
 10
20.304
 20
16.0096
 11
20.1098
 21
16.0384
  0
LINE
  8
0
 10
20.1098
 20
16.0384
 11
19.9194
 21
16.0861
  0
LINE
  8
0
 10
19.9194
 20
16.0861
 11
19.7346
 21
16.1522
  0
LINE
  8
0
 10
19.7346
 20
16.1522
 11
19.5572
 21
16.2361
  0
LINE
  8
0
 10
19.5572
 20
16.2361
 11
19.3889
 21
16.3371
  0
LINE
  8
0
 10
19.3889
 20
16.3371
 11
19.2312
 21
16.454
  0
LINE
  8
0
 10
19.2312
 20
16.454
 11
19.0858
 21
16.5858
  0
LINE
  8
0
 10
19.0858
 20
16.5858
 11
18.954
 21
16.7312
  0
LINE
  8
0
 10
18.954
 20
16.7312
 11
18.8371
 21
16.8889
  0
LINE
  8
0
 10
18.8371
 20
16.8889
 11
18.7361
 21
17.0572
  0
LINE
  8
0
 10
18.7361
 20
17.0572
 11
18.6522
 21
17.2346
  0
LINE
  8
0
 10
18.6522
 20
17.2346
 11
18.5861
 21
17.4194
  0
LINE
  8
0
 10
18.5861
 20
17.4194
 11
18.5384
 21
17.6098
  0
LINE
  8
0
 10
18.5384
 20
17.6098
 11
18.5096
 21
17.804
  0
LINE
  8
0
 10
18.5096
 20
17.804
 11
18.5
 21
18
  0
LINE
  8
0
 10
18.5
 20
18
 11
18.5096
 21
18.196
  0
LINE
  8
0
 10
18.5096
 20
18.196
 11
18.5384
 21
18.3902
  0
LINE
  8
0
 10
18.5384
 20
18.3902
 11
18.5861
 21
18.5806
  0
LINE
  8
0
 10
18.5861
 20
18.5806
 11
18.6522
 21
18.7654
  0
LINE
  8
0
 10
18.6522
 20
18.7654
 11
18.7361
 21
18.9428
  0
LINE
  8
0
 10
18.7361
 20
18.9428
 11
18.8371
 21
19.1111
  0
LINE
  8
0
 10
18.8371
 20
19.1111
 11
18.954
 21
19.2688
  0
LINE
  8
0
 10
18.954
 20
19.2688
 11
19.0858
 21
19.4142
  0
LINE
  8
0
 10
19.0858
 20
19.4142
 11
19.2312
 21
19.546
  0
LINE
  8
0
 10
19.2312
 20
19.546
 11
19.3889
 21
19.6629
  0
LINE
  8
0
 10
19.3889
 20
19.6629
 11
19.5572
 21
19.7638
  0
LINE
  8
0
 10
19.5572
 20
19.7638
 11
19.7346
 21
19.8477
  0
LINE
  8
0
 10
19.7346
 20
19.8477
 11
19.9194
 21
19.9139
  0
LINE
  8
0
 10
19.9194
 20
19.9139
 11
20.1098
 21
19.9616
  0
LINE
  8
0
 10
20.1098
 20
19.9616
 11
20.304
 21
19.9904
  0
LINE
  8
0
 10
20.304
 20
19.9904
 11
20.5
 21
20
  0
LINE
  8
0
 10
20.5
 20
20
 11
20.696
 21
19.9904
  0
LINE
  8
0
 10
20.696
 20
19.9904
 11
20.8902
 21
19.9616
  0
LINE
  8
0
 10
20.8902
 20
19.9616
 11
21.0806
 21
19.9139
  0
LINE
  8
0
 10
21.0806
 20
19.9139
 11
21.2654
 21
19.8477
  0
LINE
  8
0
 10
21.2654
 20
19.8477
 11
21.4428
 21
19.7638
  0
LINE
  8
0
 10
21.4428
 20
19.7638
 11
21.6111
 21
19.6629
  0
LINE
  8
0
 10
21.6111
 20
19.6629
 11
21.7688
 21
19.546
  0
LINE
  8
0
 10
21.7688
 20
19.546
 11
21.9142
 21
19.4142
  0
LINE
  8
0
 10
21.9142
 20
19.4142
 11
22.046
 21
19.2688
  0
LINE
  8
0
 10
22.046
 20
19.2688
 11
22.1629
 21
19.1111
  0
LINE
  8
0
 10
22.1629
 20
19.1111
 11
22.2638
 21
18.9428
  0
LINE
  8
0
 10
22.2638
 20
18.9428
 11
22.3477
 21
18.7654
  0
LINE
  8
0
 10
22.3477
 20
18.7654
 11
22.4139
 21
18.5806
  0
LINE
  8
0
 10
22.4139
 20
18.5806
 11
22.4616
 21
18.3902
  0
LINE
  8
0
 10
22.4616
 20
18.3902
 11
22.4904
 21
18.196
  0
LINE
  8
0
 10
22.4904
 20
18.196
 11
22.5
 21
18
  0
LINE
  8
0
 10
22.5
 20
18
 11
22.4904
 21
17.804
  0
LINE
  8
0
 10
22.4904
 20
17.804
 11
22.4616
 21
17.6098
  0
LINE
  8
0
 10
22.4616
 20
17.6098
 11
22.4139
 21
17.4194
  0
LINE
  8
0
 10
22.4139
 20
17.4194
 11
22.3477
 21
17.2346
  0
LINE
  8
0
 10
22.3477
 20
17.2346
 11
22.2638
 21
17.0572
  0
LINE
  8
0
 10
22.2638
 20
17.0572
 11
22.1629
 21
16.8889
  0
LINE
  8
0
 10
22.1629
 20
16.8889
 11
22.046
 21
16.7312
  0
LINE
  8
0
 10
22.046
 20
16.7312
 11
21.9142
 21
16.5858
  0
LINE
  8
0
 10
21.9142
 20
16.5858
 11
21.7688
 21
16.454
  0
LINE
  8
0
 10
21.7688
 20
16.454
 11
21.6111
 21
16.3371
  0
LINE
  8
0
 10
21.6111
 20
16.3371
 11
21.4428
 21
16.2361
  0
LINE
  8
0
 10
21.4428
 20
16.2361
 11
21.2654
 21
16.1522
  0
LINE
  8
0
 10
21.2654
 20
16.1522
 11
21.0806
 21
16.0861
  0
LINE
  8
0
 10
21.0806
 20
16.0861
 11
20.8902
 21
16.0384
  0
LINE
  8
0
 10
20.8902
 20
16.0384
 11
20.696
 21
16.0096
  0
LINE
  8
0
 10
20.696
 20
16.0096
 11
20.5
 21
16
  0
LINE
  8
0
 10
20.5
 20
16
 11
20.304
 21
16.0096
  0
ENDSEC
  0
SECTION
  2
OBJECTS
  0
DICTIONARY
  0
ENDSEC
  0
EOF
